<?xml version="1.0" encoding="UTF-8" standalone="no"?>
<svg
   xmlns:dc="http://purl.org/dc/elements/1.1/"
   xmlns:cc="http://creativecommons.org/ns#"
   xmlns:rdf="http://www.w3.org/1999/02/22-rdf-syntax-ns#"
   xmlns:svg="http://www.w3.org/2000/svg"
   xmlns="http://www.w3.org/2000/svg"
   version="1.1"
   id="svg173401"
   viewBox="0 0 292.86999 202.3575"
   height="57.109783mm"
   width="82.654419mm">
  <defs
     id="defs173403">
    <clipPath
       id="clipPath3744"
       clipPathUnits="userSpaceOnUse">
      <path
         id="path3746"
         d="m 122.917,427.024 c -4.014,0 -7.3,-3.285 -7.3,-7.3 l 0,0 0,-2.775 0,-8.581 c 0,0 12.568,-0.044 16.348,-12.714 l 0,0 c 0,0 0.771,-2.283 0.646,-3.676 l 0,0 33.749,0 c -1.882,12.058 3.231,17.523 3.231,17.523 l 0,0 -13.681,0 0,17.523 -32.993,0 z" />
    </clipPath>
    <clipPath
       id="clipPath3660"
       clipPathUnits="userSpaceOnUse">
      <path
         id="path3662"
         d="M 0,800 800,800 800,0 0,0 0,800 Z" />
    </clipPath>
    <clipPath
       id="clipPath3628"
       clipPathUnits="userSpaceOnUse">
      <path
         id="path3630"
         d="m 114.733,404.64 c -0.299,0 -0.544,-0.245 -0.544,-0.544 l 0,0 0,-0.551 c -0.719,-0.124 -1.414,-0.312 -2.082,-0.558 l 0,0 -0.276,0.478 c -0.15,0.259 -0.484,0.348 -0.743,0.198 l 0,0 -2.502,-1.444 c -0.259,-0.149 -0.349,-0.484 -0.199,-0.743 l 0,0 0.271,-0.47 c -0.554,-0.462 -1.067,-0.973 -1.528,-1.528 l 0,0 -0.47,0.271 c -0.259,0.15 -0.593,0.061 -0.743,-0.198 l 0,0 -1.445,-2.503 c -0.149,-0.259 -0.059,-0.594 0.2,-0.743 l 0,0 0.478,-0.276 c -0.248,-0.668 -0.436,-1.363 -0.558,-2.083 l 0,0 -0.552,0 c -0.3,0 -0.545,-0.245 -0.545,-0.543 l 0,0 0,-2.889 c 0,-0.3 0.245,-0.545 0.545,-0.545 l 0,0 0.552,0 c 0.122,-0.719 0.31,-1.414 0.558,-2.082 l 0,0 -0.478,-0.276 c -0.259,-0.149 -0.349,-0.484 -0.2,-0.743 l 0,0 1.445,-2.502 c 0.15,-0.259 0.484,-0.349 0.743,-0.199 l 0,0 0.47,0.271 c 0.461,-0.555 0.974,-1.067 1.528,-1.528 l 0,0 -0.271,-0.47 c -0.15,-0.259 -0.06,-0.593 0.199,-0.743 l 0,0 2.502,-1.444 c 0.259,-0.151 0.593,-0.061 0.743,0.199 l 0,0 0.276,0.478 c 0.668,-0.247 1.363,-0.436 2.082,-0.559 l 0,0 0,-0.551 c 0,-0.3 0.245,-0.545 0.544,-0.545 l 0,0 2.89,0 c 0.299,0 0.543,0.245 0.543,0.545 l 0,0 0,0.551 c 0.719,0.123 1.414,0.312 2.083,0.559 l 0,0 0.276,-0.478 c 0.15,-0.26 0.484,-0.35 0.743,-0.199 l 0,0 2.502,1.444 c 0.259,0.15 0.349,0.484 0.2,0.743 l 0,0 -0.272,0.47 c 0.555,0.461 1.066,0.973 1.528,1.528 l 0,0 0.47,-0.271 c 0.259,-0.15 0.593,-0.06 0.743,0.199 l 0,0 1.445,2.502 c 0.149,0.259 0.059,0.594 -0.199,0.743 l 0,0 -0.478,0.276 c 0.247,0.668 0.435,1.363 0.557,2.082 l 0,0 0.553,0 c 0.298,0 0.543,0.245 0.543,0.545 l 0,0 0,2.889 c 0,0.298 -0.245,0.543 -0.543,0.543 l 0,0 -0.553,0 c -0.122,0.72 -0.31,1.415 -0.557,2.083 l 0,0 0.478,0.276 c 0.258,0.149 0.348,0.484 0.199,0.743 l 0,0 -1.445,2.503 c -0.15,0.259 -0.484,0.348 -0.743,0.198 l 0,0 -0.47,-0.271 c -0.462,0.555 -0.973,1.066 -1.528,1.528 l 0,0 0.272,0.47 c 0.149,0.259 0.059,0.594 -0.2,0.743 l 0,0 -2.502,1.444 c -0.259,0.15 -0.593,0.061 -0.743,-0.198 l 0,0 -0.276,-0.478 c -0.669,0.246 -1.364,0.434 -2.083,0.558 l 0,0 0,0.551 c 0,0.299 -0.244,0.544 -0.543,0.544 l 0,0 -2.89,0 z" />
    </clipPath>
    <clipPath
       id="clipPath3588"
       clipPathUnits="userSpaceOnUse">
      <path
         id="path3590"
         d="M 0,800 800,800 800,0 0,0 0,800 Z" />
    </clipPath>
    <clipPath
       id="clipPath3540"
       clipPathUnits="userSpaceOnUse">
      <path
         id="path3542"
         d="M 0,800 800,800 800,0 0,0 0,800 Z" />
    </clipPath>
    <clipPath
       id="clipPath3488"
       clipPathUnits="userSpaceOnUse">
      <path
         id="path3490"
         d="M 0,800 800,800 800,0 0,0 0,800 Z" />
    </clipPath>
    <clipPath
       id="clipPath3460"
       clipPathUnits="userSpaceOnUse">
      <path
         id="path3462"
         d="M 0,800 800,800 800,0 0,0 0,800 Z" />
    </clipPath>
    <clipPath
       id="clipPath3420"
       clipPathUnits="userSpaceOnUse">
      <path
         id="path3422"
         d="m 136.441,380.13 c 10.32,-19.685 39.101,-33.859 73.018,-33.859 l 0,0 c 18.584,0 35.624,4.254 48.932,11.34 l 0,0 c 5.225,8.733 8.103,18.273 8.103,28.258 l 0,0 c 0,3.531 -0.359,7.002 -1.055,10.406 l 0,0 c -14.124,7.014 -33.357,11.33 -54.563,11.33 l 0,0 c -34.623,0 -63.99,-11.508 -74.435,-27.475" />
    </clipPath>
    <clipPath
       id="clipPath3408"
       clipPathUnits="userSpaceOnUse">
      <path
         id="path3410"
         d="m 42.909,385.869 c 0,-41.679 50.151,-75.587 111.794,-75.587 l 0,0 c 61.642,0 111.791,33.908 111.791,75.587 l 0,0 c 0,41.679 -50.149,75.587 -111.791,75.587 l 0,0 c -61.643,0 -111.794,-33.908 -111.794,-75.587" />
    </clipPath>
    <clipPath
       id="clipPath3368"
       clipPathUnits="userSpaceOnUse">
      <path
         id="path3370"
         d="m 52.435,416.395 c -6.123,-9.34 -9.526,-19.669 -9.526,-30.526 l 0,0 c 0,-13.638 5.37,-26.445 14.755,-37.503 l 0,0 c 7.682,-1.366 15.769,-2.095 24.124,-2.095 l 0,0 c 39.974,0 73.895,16.705 86.058,39.906 l 0,0 c -12.31,18.819 -46.923,32.382 -87.729,32.382 l 0,0 c -9.645,0 -18.942,-0.758 -27.682,-2.164" />
    </clipPath>
    <clipPath
       id="clipPath3356"
       clipPathUnits="userSpaceOnUse">
      <path
         id="path3358"
         d="m 42.909,385.869 c 0,-41.679 50.151,-75.587 111.794,-75.587 l 0,0 c 61.642,0 111.791,33.908 111.791,75.587 l 0,0 c 0,41.679 -50.149,75.587 -111.791,75.587 l 0,0 c -61.643,0 -111.794,-33.908 -111.794,-75.587" />
    </clipPath>
    <clipPath
       id="clipPath3488-3"
       clipPathUnits="userSpaceOnUse">
      <path
         id="path3490-6"
         d="M 0,800 800,800 800,0 0,0 0,800 Z" />
    </clipPath>
    <ellipse
       transform="scale(-1,-1)"
       ry="40.748241"
       rx="113.18336"
       cy="-407.96313"
       cx="1399.6949"
       id="path174610-9"
       style="opacity:0.63500007;fill:none;fill-opacity:1;stroke:none;stroke-width:0.41666046;stroke-miterlimit:4;stroke-dasharray:none;stroke-opacity:1" />
  </defs>
  <metadata
     id="metadata173406">
    <rdf:RDF>
      <cc:Work
         rdf:about="">
        <dc:format>image/svg+xml</dc:format>
        <dc:type
           rdf:resource="http://purl.org/dc/dcmitype/StillImage" />
        <dc:title></dc:title>
      </cc:Work>
    </rdf:RDF>
  </metadata>
  <g
     transform="translate(1346.435,-134.04059)"
     id="layer1">
    <g
       id="g3352"
       transform="matrix(1.25,0,0,-1.25,-1393.3781,717.55522)">
      <g
         clip-path="url(#clipPath3356)"
         id="g3354">
        <g
           transform="translate(81.7879,346.2715)"
           id="g3360">
          <path
             id="path3362"
             style="fill:#b5a5a3;fill-opacity:1;fill-rule:nonzero;stroke:none"
             d="m 0,0 c -41.553,0 -76.567,18.049 -87.396,42.686 13.775,17.359 46.957,29.601 85.725,29.601 40.807,0 75.419,-13.563 87.729,-32.381 C 73.895,16.705 39.974,0 0,0" />
        </g>
      </g>
    </g>
    <g
       id="g3364"
       transform="matrix(1.25,0,0,-1.25,-1393.3781,717.55522)">
      <g
         clip-path="url(#clipPath3368)"
         id="g3366">
        <g
           transform="translate(51.2198,422.0652)"
           id="g3372">
          <path
             id="path3374"
             style="fill:#d3c9c8;fill-opacity:1;fill-rule:nonzero;stroke:none"
             d="m 0,0 c 0,0 8.26,-0.192 20.481,-1.997 3.054,-0.446 6.356,-0.987 9.832,-1.647 3.482,-0.639 7.131,-1.43 10.896,-2.299 3.759,-0.894 7.631,-1.882 11.531,-3.017 1.953,-0.559 3.916,-1.141 5.873,-1.776 1.967,-0.6 3.919,-1.276 5.873,-1.945 3.909,-1.343 7.767,-2.835 11.543,-4.365 1.873,-0.805 3.73,-1.604 5.565,-2.393 1.812,-0.846 3.602,-1.681 5.363,-2.503 1.737,-0.874 3.445,-1.733 5.117,-2.575 1.648,-0.892 3.26,-1.765 4.829,-2.615 1.543,-0.9 3.043,-1.776 4.495,-2.623 1.455,-0.843 2.804,-1.753 4.13,-2.576 0.659,-0.419 1.304,-0.829 1.935,-1.23 0.616,-0.422 1.219,-0.835 1.806,-1.238 1.174,-0.808 2.287,-1.574 3.333,-2.295 2.033,-1.523 3.832,-2.822 5.271,-3.947 2.844,-2.298 4.469,-3.611 4.469,-3.611 l -3.946,-4.52 c 0,0 -1.516,1.318 -4.17,3.624 -1.346,1.132 -3.034,2.443 -4.943,3.985 -0.985,0.732 -2.034,1.51 -3.139,2.331 -0.554,0.41 -1.122,0.83 -1.703,1.26 -0.597,0.41 -1.207,0.829 -1.83,1.257 -1.257,0.842 -2.531,1.773 -3.914,2.64 -1.38,0.873 -2.807,1.776 -4.274,2.705 -1.497,0.881 -3.035,1.787 -4.607,2.713 -1.601,0.878 -3.237,1.776 -4.9,2.689 -1.691,0.864 -3.411,1.743 -5.151,2.632 -1.768,0.837 -3.558,1.684 -5.363,2.538 -3.646,1.631 -7.379,3.231 -11.174,4.688 -1.898,0.727 -3.794,1.461 -5.709,2.121 -1.904,0.695 -3.817,1.336 -5.722,1.957 -3.805,1.257 -7.592,2.368 -11.274,3.385 -3.689,0.992 -7.271,1.904 -10.694,2.66 -3.418,0.777 -6.669,1.429 -9.679,1.98 -6.022,1.103 -11.082,1.793 -14.63,2.188 -3.553,0.404 -5.576,0.517 -5.576,0.517 L 0,0 Z" />
        </g>
        <g
           transform="translate(38.34,421.2315)"
           id="g3376">
          <path
             id="path3378"
             style="fill:#d3c9c8;fill-opacity:1;fill-rule:nonzero;stroke:none"
             d="m 0,0 c 0,0 8.223,-0.805 20.276,-3.51 3.013,-0.672 6.265,-1.456 9.684,-2.372 3.424,-0.896 7.004,-1.956 10.695,-3.102 3.682,-1.17 7.47,-2.443 11.275,-3.863 1.906,-0.703 3.821,-1.429 5.725,-2.207 1.917,-0.745 3.813,-1.563 5.713,-2.376 3.798,-1.629 7.535,-3.403 11.188,-5.208 1.807,-0.943 3.6,-1.877 5.371,-2.801 1.745,-0.977 3.468,-1.943 5.162,-2.893 1.668,-1 3.308,-1.984 4.913,-2.947 1.577,-1.012 3.12,-2.002 4.622,-2.966 1.471,-1.013 2.903,-1.998 4.287,-2.95 1.389,-0.948 2.666,-1.956 3.928,-2.875 0.626,-0.466 1.239,-0.923 1.838,-1.37 0.584,-0.467 1.154,-0.923 1.71,-1.368 1.11,-0.893 2.163,-1.74 3.153,-2.536 1.915,-1.67 3.612,-3.099 4.964,-4.328 2.665,-2.502 4.189,-3.932 4.189,-3.932 l -4.27,-4.215 c 0,0 -1.415,1.427 -3.891,3.923 -1.258,1.229 -2.844,2.662 -4.633,4.341 -0.929,0.803 -1.917,1.657 -2.958,2.557 -0.522,0.45 -1.057,0.911 -1.605,1.384 -0.564,0.452 -1.142,0.916 -1.732,1.389 -1.19,0.933 -2.392,1.955 -3.707,2.923 -1.311,0.973 -2.667,1.979 -4.061,3.014 -1.428,0.99 -2.894,2.007 -4.393,3.047 -1.532,0.995 -3.096,2.012 -4.687,3.045 -1.623,0.988 -3.272,1.991 -4.942,3.007 -1.701,0.966 -3.423,1.944 -5.159,2.929 -3.515,1.897 -7.12,3.77 -10.796,5.505 -1.839,0.865 -3.675,1.738 -5.536,2.538 -1.847,0.834 -3.708,1.616 -5.561,2.376 -3.702,1.535 -7.396,2.925 -10.992,4.212 -3.606,1.262 -7.11,2.438 -10.467,3.446 -3.351,1.028 -6.544,1.92 -9.506,2.692 -5.923,1.547 -10.918,2.611 -14.427,3.267 -3.514,0.667 -5.522,0.929 -5.522,0.929 L 0,0 Z" />
        </g>
        <g
           transform="translate(24.3561,421.1863)"
           id="g3380">
          <path
             id="path3382"
             style="fill:#d3c9c8;fill-opacity:1;fill-rule:nonzero;stroke:none"
             d="m 0,0 c 0,0 2.052,-0.338 5.563,-1.126 3.519,-0.779 8.517,-2.017 14.44,-3.775 2.962,-0.878 6.155,-1.885 9.505,-3.034 3.358,-1.131 6.86,-2.435 10.466,-3.834 3.597,-1.422 7.293,-2.954 10.996,-4.635 1.855,-0.834 3.717,-1.69 5.566,-2.599 1.864,-0.876 3.701,-1.824 5.543,-2.767 3.683,-1.889 7.294,-3.919 10.82,-5.975 1.741,-1.066 3.469,-2.124 5.175,-3.169 1.676,-1.097 3.332,-2.181 4.961,-3.248 1.598,-1.115 3.169,-2.212 4.708,-3.285 1.506,-1.121 2.981,-2.217 4.416,-3.285 1.402,-1.114 2.765,-2.197 4.084,-3.246 1.324,-1.044 2.532,-2.14 3.731,-3.146 0.594,-0.51 1.175,-1.009 1.743,-1.497 0.552,-0.508 1.091,-1.004 1.616,-1.487 1.049,-0.97 2.044,-1.891 2.98,-2.755 1.8,-1.803 3.4,-3.35 4.668,-4.673 2.495,-2.689 3.921,-4.226 3.921,-4.226 l -5.322,-4.547 c 0,0 -1.3,1.523 -3.574,4.189 -1.159,1.316 -2.629,2.859 -4.283,4.662 -0.863,0.867 -1.782,1.79 -2.75,2.763 -0.486,0.486 -0.983,0.985 -1.493,1.495 -0.528,0.493 -1.067,0.997 -1.619,1.511 -1.114,1.017 -2.233,2.124 -3.469,3.184 -1.232,1.066 -2.506,2.169 -3.815,3.302 -1.347,1.092 -2.73,2.213 -4.144,3.36 -1.45,1.104 -2.931,2.233 -4.437,3.38 -1.541,1.104 -3.108,2.226 -4.695,3.362 -1.621,1.089 -3.263,2.191 -4.917,3.301 -3.358,2.15 -6.808,4.285 -10.339,6.287 -1.766,0.999 -3.53,2.005 -5.324,2.941 -1.777,0.968 -3.572,1.886 -5.362,2.782 -3.572,1.806 -7.148,3.466 -10.636,5.017 -3.497,1.527 -6.901,2.96 -10.171,4.215 -3.262,1.274 -6.378,2.402 -9.272,3.393 -5.787,1.984 -10.686,3.417 -14.134,4.333 -3.452,0.927 -5.431,1.338 -5.431,1.338 L 0,0 Z" />
        </g>
        <g
           transform="translate(17.9893,419.6712)"
           id="g3384">
          <path
             id="path3386"
             style="fill:#d3c9c8;fill-opacity:1;fill-rule:nonzero;stroke:none"
             d="m 0,0 c 0,0 1.99,-0.602 5.37,-1.839 3.388,-1.23 8.182,-3.106 13.827,-5.619 2.823,-1.255 5.858,-2.668 9.031,-4.243 3.182,-1.557 6.485,-3.305 9.879,-5.16 3.381,-1.878 6.847,-3.877 10.3,-6.025 1.731,-1.067 3.467,-2.158 5.181,-3.299 1.735,-1.111 3.434,-2.29 5.138,-3.464 3.405,-2.352 6.723,-4.833 9.951,-7.33 1.588,-1.283 3.164,-2.556 4.72,-3.814 1.52,-1.306 3.021,-2.596 4.497,-3.865 1.44,-1.313 2.855,-2.605 4.241,-3.869 1.349,-1.307 2.668,-2.586 3.952,-3.83 1.246,-1.287 2.457,-2.539 3.628,-3.749 1.177,-1.207 2.233,-2.451 3.291,-3.604 0.522,-0.583 1.034,-1.154 1.534,-1.712 0.481,-0.575 0.951,-1.137 1.409,-1.684 0.914,-1.098 1.781,-2.14 2.596,-3.119 1.552,-2.021 2.937,-3.763 4.022,-5.24 2.125,-2.99 3.339,-4.698 3.339,-4.698 l -5.867,-3.818 c 0,0 -1.091,1.679 -3,4.618 -0.978,1.455 -2.236,3.176 -3.641,5.178 -0.743,0.973 -1.534,2.007 -2.368,3.098 -0.418,0.545 -0.847,1.104 -1.286,1.676 -0.459,0.557 -0.929,1.127 -1.409,1.709 -0.973,1.152 -1.938,2.395 -3.026,3.607 -1.083,1.217 -2.203,2.476 -3.354,3.769 -1.193,1.258 -2.42,2.55 -3.673,3.87 -1.294,1.284 -2.616,2.595 -3.96,3.928 -1.385,1.295 -2.793,2.611 -4.218,3.943 -1.466,1.29 -2.951,2.596 -4.447,3.912 -3.05,2.569 -6.193,5.133 -9.435,7.577 -1.621,1.22 -3.24,2.446 -4.897,3.608 -1.636,1.191 -3.297,2.334 -4.955,3.454 -3.307,2.255 -6.637,4.365 -9.894,6.356 -3.269,1.969 -6.458,3.832 -9.537,5.501 -3.07,1.687 -6.013,3.21 -8.753,4.568 -5.48,2.719 -10.152,4.776 -13.451,6.133 -3.303,1.367 -5.212,2.032 -5.212,2.032 L 0,0 Z" />
        </g>
        <g
           transform="translate(9.6083,419.5173)"
           id="g3388">
          <path
             id="path3390"
             style="fill:#d3c9c8;fill-opacity:1;fill-rule:nonzero;stroke:none"
             d="m 0,0 c 0,0 1.901,-0.838 5.105,-2.475 3.212,-1.632 7.743,-4.075 13.04,-7.253 2.649,-1.588 5.49,-3.359 8.447,-5.307 2.97,-1.931 6.036,-4.067 9.179,-6.319 3.128,-2.274 6.325,-4.678 9.492,-7.229 1.588,-1.269 3.179,-2.563 4.742,-3.903 1.587,-1.313 3.13,-2.689 4.679,-4.061 3.094,-2.747 6.086,-5.612 8.987,-8.482 1.421,-1.466 2.83,-2.921 4.223,-4.358 1.349,-1.48 2.682,-2.943 3.994,-4.381 1.269,-1.478 2.518,-2.932 3.74,-4.355 1.18,-1.461 2.334,-2.89 3.458,-4.281 1.08,-1.428 2.13,-2.817 3.146,-4.161 1.022,-1.341 1.918,-2.704 2.829,-3.977 0.448,-0.642 0.886,-1.27 1.315,-1.885 0.408,-0.629 0.806,-1.243 1.194,-1.842 0.774,-1.201 1.509,-2.34 2.199,-3.411 1.295,-2.194 2.458,-4.091 3.356,-5.689 1.747,-3.225 2.744,-5.069 2.744,-5.069 l -6.288,-3.075 c 0,0 -0.878,1.801 -2.413,4.951 -0.793,1.563 -1.831,3.425 -2.981,5.584 -0.618,1.056 -1.277,2.18 -1.971,3.364 -0.349,0.592 -0.706,1.2 -1.072,1.821 -0.388,0.609 -0.784,1.232 -1.189,1.868 -0.825,1.263 -1.632,2.615 -2.563,3.951 -0.926,1.34 -1.884,2.726 -2.868,4.151 -1.031,1.394 -2.09,2.826 -3.173,4.29 -1.127,1.432 -2.279,2.896 -3.451,4.383 -1.216,1.455 -2.453,2.933 -3.704,4.43 -1.298,1.46 -2.612,2.937 -3.937,4.427 -2.713,2.922 -5.52,5.852 -8.438,8.674 -1.461,1.409 -2.918,2.825 -4.42,4.18 -1.479,1.382 -2.988,2.72 -4.497,4.035 -3.007,2.642 -6.055,5.144 -9.044,7.519 -3.005,2.354 -5.943,4.593 -8.796,6.626 -2.84,2.051 -5.576,3.922 -8.13,5.605 -5.108,3.369 -9.494,5.983 -12.604,7.733 -3.112,1.761 -4.928,2.655 -4.928,2.655 L 0,0 Z" />
        </g>
        <g
           transform="translate(4.1828,417.5046)"
           id="g3392">
          <path
             id="path3394"
             style="fill:#d3c9c8;fill-opacity:1;fill-rule:nonzero;stroke:none"
             d="m 0,0 c 0,0 0.397,-0.258 1.141,-0.743 0.75,-0.488 1.827,-1.225 3.185,-2.174 1.364,-0.944 2.982,-2.139 4.843,-3.507 1.826,-1.41 3.927,-2.954 6.119,-4.762 1.102,-0.897 2.268,-1.811 3.442,-2.795 1.166,-0.996 2.37,-2.025 3.608,-3.084 1.252,-1.044 2.493,-2.167 3.753,-3.325 1.266,-1.153 2.559,-2.331 3.875,-3.529 1.274,-1.241 2.57,-2.504 3.881,-3.782 1.312,-1.28 2.655,-2.561 3.923,-3.937 2.57,-2.717 5.242,-5.428 7.697,-8.338 1.253,-1.434 2.506,-2.867 3.755,-4.295 1.185,-1.482 2.366,-2.959 3.537,-4.424 1.158,-1.476 2.355,-2.906 3.451,-4.385 1.074,-1.497 2.134,-2.976 3.177,-4.431 1.031,-1.464 2.098,-2.869 3.047,-4.31 0.927,-1.456 1.833,-2.882 2.715,-4.269 0.883,-1.39 1.742,-2.741 2.573,-4.049 0.816,-1.316 1.493,-2.655 2.204,-3.906 1.384,-2.523 2.687,-4.821 3.782,-6.891 0.993,-2.123 1.859,-3.974 2.572,-5.499 1.427,-3.055 2.242,-4.8 2.242,-4.8 l -6.503,-2.59 c 0,0 -0.704,1.706 -1.935,4.69 -0.616,1.496 -1.363,3.311 -2.221,5.394 -0.961,2.037 -2.114,4.306 -3.335,6.803 -0.63,1.238 -1.221,2.564 -1.952,3.873 -0.745,1.302 -1.516,2.649 -2.308,4.033 -0.793,1.386 -1.608,2.81 -2.44,4.265 -0.857,1.442 -1.831,2.854 -2.768,4.326 -0.95,1.464 -1.916,2.953 -2.894,4.46 -1.001,1.493 -2.106,2.941 -3.17,4.436 -1.079,1.487 -2.166,2.985 -3.258,4.489 -1.158,1.455 -2.32,2.916 -3.483,4.378 -2.275,2.968 -4.775,5.749 -7.179,8.541 -1.185,1.413 -2.448,2.734 -3.681,4.054 -1.234,1.32 -2.453,2.624 -3.653,3.907 -1.242,1.242 -2.464,2.463 -3.66,3.658 -1.191,1.202 -2.366,2.369 -3.554,3.457 -1.176,1.103 -2.319,2.177 -3.425,3.215 -1.116,1.027 -2.227,1.983 -3.276,2.922 -2.087,1.891 -4.093,3.513 -5.838,4.995 -1.778,1.438 -3.327,2.698 -4.631,3.693 -1.302,1.004 -2.33,1.779 -3.039,2.289 -0.714,0.514 -1.095,0.788 -1.095,0.788 L 0,0 Z" />
        </g>
        <g
           transform="translate(-3.7197,418.4317)"
           id="g3396">
          <path
             id="path3398"
             style="fill:#d3c9c8;fill-opacity:1;fill-rule:nonzero;stroke:none"
             d="m 0,0 c 0,0 0.319,-0.281 0.917,-0.807 0.604,-0.531 1.464,-1.324 2.55,-2.339 1.086,-1.018 2.382,-2.274 3.856,-3.729 1.454,-1.473 3.116,-3.119 4.848,-4.989 1.771,-1.837 3.607,-3.9 5.556,-6.08 1.945,-2.184 3.912,-4.559 5.966,-7.005 0.994,-1.249 2.006,-2.519 3.029,-3.805 0.512,-0.643 1.028,-1.29 1.546,-1.941 0.496,-0.667 0.995,-1.337 1.495,-2.01 1.002,-1.348 2.012,-2.707 3.025,-4.07 1.017,-1.363 1.947,-2.795 2.927,-4.194 0.963,-1.41 1.951,-2.806 2.89,-4.226 0.909,-1.44 1.815,-2.875 2.714,-4.298 0.881,-1.435 1.833,-2.815 2.633,-4.261 0.821,-1.435 1.632,-2.853 2.43,-4.247 0.78,-1.405 1.624,-2.747 2.311,-4.136 0.705,-1.38 1.394,-2.73 2.065,-4.044 0.672,-1.317 1.325,-2.597 1.957,-3.835 0.591,-1.259 1.122,-2.495 1.654,-3.672 1.042,-2.362 2.041,-4.514 2.851,-6.454 0.747,-1.968 1.398,-3.683 1.934,-5.095 1.073,-2.831 1.686,-4.448 1.686,-4.448 l -7.636,-2.387 c 0,0 -0.492,1.577 -1.354,4.336 -0.431,1.382 -0.954,3.061 -1.555,4.986 -0.664,1.906 -1.5,4.026 -2.365,6.36 -0.443,1.163 -0.882,2.385 -1.378,3.633 -0.538,1.231 -1.094,2.504 -1.666,3.813 -0.573,1.311 -1.161,2.657 -1.761,4.034 -0.583,1.386 -1.325,2.733 -1.999,4.142 -0.694,1.402 -1.399,2.827 -2.112,4.269 -0.693,1.455 -1.539,2.85 -2.313,4.301 -0.793,1.442 -1.593,2.895 -2.395,4.353 -0.834,1.442 -1.717,2.863 -2.575,4.299 -0.877,1.425 -1.703,2.885 -2.618,4.279 -0.914,1.397 -1.823,2.789 -2.726,4.169 -0.452,0.691 -0.902,1.379 -1.35,2.064 -0.47,0.669 -0.938,1.335 -1.403,1.997 -0.93,1.325 -1.85,2.634 -2.754,3.922 -1.874,2.526 -3.673,4.986 -5.46,7.254 -1.792,2.264 -3.482,4.412 -5.121,6.329 -1.601,1.952 -3.143,3.674 -4.493,5.218 -1.369,1.525 -2.576,2.845 -3.587,3.913 -1.013,1.068 -1.814,1.9 -2.368,2.45 -0.56,0.556 -0.858,0.852 -0.858,0.852 L 0,0 Z" />
        </g>
        <g
           transform="translate(-12.4056,421.8282)"
           id="g3400">
          <path
             id="path3402"
             style="fill:#d3c9c8;fill-opacity:1;fill-rule:nonzero;stroke:none"
             d="m 0,0 c 0,0 0.263,-0.334 0.756,-0.96 0.498,-0.631 1.201,-1.567 2.086,-2.761 0.884,-1.197 1.932,-2.666 3.118,-4.364 1.164,-1.712 2.501,-3.631 3.867,-5.783 1.41,-2.126 2.843,-4.487 4.366,-6.984 1.518,-2.499 3.024,-5.191 4.601,-7.967 0.753,-1.409 1.518,-2.84 2.293,-4.29 0.387,-0.725 0.777,-1.455 1.169,-2.188 0.367,-0.746 0.737,-1.496 1.108,-2.248 0.741,-1.507 1.489,-3.025 2.24,-4.55 0.753,-1.524 1.409,-3.1 2.12,-4.653 0.692,-1.561 1.412,-3.113 2.079,-4.679 0.634,-1.581 1.266,-3.156 1.893,-4.718 0.607,-1.57 1.294,-3.099 1.819,-4.666 0.549,-1.56 1.09,-3.101 1.623,-4.616 0.513,-1.523 1.101,-2.996 1.526,-4.485 0.444,-1.485 0.878,-2.938 1.3,-4.352 0.423,-1.416 0.834,-2.793 1.232,-4.125 0.353,-1.345 0.653,-2.656 0.963,-3.91 0.598,-2.512 1.192,-4.809 1.638,-6.863 0.379,-2.07 0.709,-3.875 0.982,-5.361 l 0.853,-4.679 -7.941,-0.968 c 0,0 -0.199,1.64 -0.548,4.509 -0.174,1.438 -0.386,3.183 -0.628,5.185 -0.309,1.994 -0.748,4.231 -1.177,6.683 -0.226,1.224 -0.437,2.505 -0.699,3.822 -0.307,1.308 -0.624,2.661 -0.95,4.051 -0.326,1.393 -0.661,2.824 -1.003,4.286 -0.323,1.468 -0.809,2.927 -1.218,4.435 -0.429,1.504 -0.864,3.033 -1.306,4.58 -0.418,1.557 -0.998,3.082 -1.497,4.649 -0.52,1.561 -1.043,3.134 -1.569,4.714 -0.559,1.569 -1.171,3.125 -1.756,4.693 -0.604,1.561 -1.153,3.145 -1.802,4.682 -0.646,1.539 -1.289,3.072 -1.927,4.593 -0.32,0.761 -0.638,1.519 -0.955,2.273 -0.341,0.744 -0.681,1.483 -1.019,2.218 -0.676,1.472 -1.343,2.925 -2,4.355 -1.387,2.823 -2.712,5.568 -4.06,8.121 -1.353,2.551 -2.627,4.969 -3.893,7.151 -1.222,2.209 -2.427,4.181 -3.476,5.944 -1.071,1.747 -2.02,3.263 -2.821,4.497 -0.804,1.233 -1.44,2.196 -1.886,2.837 -0.45,0.648 -0.69,0.993 -0.69,0.993 L 0,0 Z" />
        </g>
      </g>
    </g>
    <g
       id="g3404"
       transform="matrix(1.25,0,0,-1.25,-1393.3781,717.55522)">
      <g
         clip-path="url(#clipPath3408)"
         id="g3406">
        <g
           transform="translate(209.4586,346.2715)"
           id="g3412">
          <path
             id="path3414"
             style="fill:#b5a5a3;fill-opacity:1;fill-rule:nonzero;stroke:none"
             d="M 0,0 C 35.257,0 64.965,15.314 74.153,36.217 62.465,50.946 34.311,61.333 1.417,61.333 -33.205,61.333 -62.573,49.826 -73.017,33.859 -62.697,14.173 -33.917,0 0,0" />
        </g>
      </g>
    </g>
    <g
       id="g3416"
       transform="matrix(1.25,0,0,-1.25,-1393.3781,717.55522)">
      <g
         clip-path="url(#clipPath3420)"
         id="g3418">
        <g
           transform="translate(235.4461,409.3763)"
           id="g3424">
          <path
             id="path3426"
             style="fill:#d3c9c8;fill-opacity:1;fill-rule:nonzero;stroke:none"
             d="m 0,0 c 0,0 -1.712,-0.101 -4.724,-0.453 -3.007,-0.345 -7.296,-0.944 -12.399,-1.895 -2.551,-0.476 -5.305,-1.038 -8.201,-1.706 -2.899,-0.65 -5.933,-1.433 -9.058,-2.284 -3.118,-0.872 -6.325,-1.824 -9.546,-2.9 -3.227,-1.056 -6.468,-2.232 -9.675,-3.486 -3.211,-1.246 -6.37,-2.612 -9.453,-4.003 -1.526,-0.728 -3.039,-1.451 -4.535,-2.164 -1.471,-0.758 -2.925,-1.507 -4.354,-2.243 -1.406,-0.778 -2.788,-1.543 -4.141,-2.291 -1.328,-0.788 -2.628,-1.559 -3.893,-2.309 -2.486,-1.569 -4.826,-3.063 -6.913,-4.546 -1.063,-0.713 -2.055,-1.433 -2.982,-2.139 -0.933,-0.697 -1.817,-1.359 -2.649,-1.98 -1.61,-1.31 -3.034,-2.424 -4.169,-3.385 -2.237,-1.957 -3.516,-3.075 -3.516,-3.075 l -3.945,4.52 c 0,0 1.387,1.114 3.814,3.062 1.228,0.955 2.762,2.056 4.497,3.347 0.893,0.61 1.842,1.259 2.843,1.944 0.995,0.692 2.056,1.397 3.189,2.09 2.23,1.446 4.716,2.891 7.352,4.401 1.336,0.718 2.71,1.456 4.113,2.211 1.425,0.711 2.88,1.437 4.359,2.176 1.499,0.694 3.023,1.399 4.566,2.113 1.562,0.666 3.143,1.341 4.737,2.02 3.214,1.291 6.497,2.548 9.822,3.679 3.321,1.14 6.668,2.196 9.99,3.13 3.316,0.954 6.608,1.783 9.803,2.532 3.201,0.728 6.302,1.39 9.26,1.924 2.954,0.551 5.76,1.001 8.354,1.372 10.382,1.499 17.398,1.64 17.398,1.64 L 0,0 Z" />
        </g>
        <g
           transform="translate(246.4633,408.676)"
           id="g3428">
          <path
             id="path3430"
             style="fill:#d3c9c8;fill-opacity:1;fill-rule:nonzero;stroke:none"
             d="m 0,0 c 0,0 -1.7,-0.228 -4.678,-0.803 -2.973,-0.566 -7.206,-1.481 -12.223,-2.809 -2.509,-0.663 -5.214,-1.428 -8.053,-2.309 -2.843,-0.864 -5.81,-1.87 -8.863,-2.95 -3.045,-1.101 -6.172,-2.289 -9.304,-3.6 -3.14,-1.293 -6.286,-2.706 -9.391,-4.195 -3.109,-1.48 -6.158,-3.076 -9.13,-4.692 -1.467,-0.84 -2.923,-1.672 -4.361,-2.495 -1.411,-0.865 -2.805,-1.72 -4.176,-2.56 -1.344,-0.88 -2.666,-1.745 -3.96,-2.591 -1.266,-0.885 -2.505,-1.75 -3.71,-2.592 -2.363,-1.749 -4.586,-3.412 -6.557,-5.046 -1.008,-0.79 -1.943,-1.582 -2.815,-2.355 -0.879,-0.764 -1.712,-1.49 -2.495,-2.171 -1.509,-1.425 -2.846,-2.642 -3.906,-3.684 -2.087,-2.118 -3.279,-3.328 -3.279,-3.328 l -4.27,4.215 c 0,0 1.301,1.213 3.577,3.337 1.154,1.043 2.602,2.254 4.237,3.671 0.844,0.674 1.743,1.392 2.69,2.149 0.941,0.765 1.947,1.546 3.026,2.322 2.116,1.607 4.488,3.232 7.004,4.933 1.28,0.816 2.595,1.654 3.939,2.51 1.367,0.815 2.764,1.647 4.185,2.494 1.444,0.803 2.911,1.619 4.397,2.446 1.508,0.78 3.035,1.57 4.574,2.366 3.109,1.525 6.29,3.023 9.522,4.397 3.227,1.383 6.486,2.684 9.73,3.863 3.236,1.197 6.458,2.267 9.588,3.252 3.138,0.963 6.182,1.853 9.092,2.605 2.905,0.769 5.669,1.426 8.229,1.988 10.242,2.265 17.229,2.927 17.229,2.927 L 0,0 Z" />
        </g>
        <g
           transform="translate(258.4513,408.4536)"
           id="g3432">
          <path
             id="path3434"
             style="fill:#d3c9c8;fill-opacity:1;fill-rule:nonzero;stroke:none"
             d="m 0,0 c 0,0 -1.674,-0.354 -4.598,-1.151 -2.921,-0.788 -7.07,-2.019 -11.97,-3.719 -2.449,-0.85 -5.087,-1.815 -7.849,-2.906 -2.767,-1.075 -5.648,-2.3 -8.607,-3.605 -2.951,-1.326 -5.976,-2.745 -8.997,-4.286 -3.03,-1.524 -6.056,-3.167 -9.035,-4.883 -2.985,-1.707 -5.899,-3.526 -8.736,-5.358 -1.397,-0.945 -2.783,-1.884 -4.152,-2.811 -1.339,-0.966 -2.662,-1.921 -3.963,-2.861 -1.271,-0.976 -2.521,-1.936 -3.744,-2.875 -1.193,-0.975 -2.36,-1.928 -3.496,-2.856 -2.218,-1.917 -4.303,-3.738 -6.14,-5.51 -0.942,-0.861 -1.812,-1.719 -2.621,-2.553 -0.816,-0.825 -1.59,-1.609 -2.317,-2.345 -1.391,-1.53 -2.629,-2.838 -3.604,-3.954 -1.913,-2.26 -3.006,-3.552 -3.006,-3.552 l -5.322,4.548 c 0,0 1.219,1.304 3.353,3.587 1.084,1.124 2.451,2.436 3.99,3.966 0.799,0.734 1.649,1.514 2.545,2.337 0.89,0.829 1.843,1.68 2.869,2.53 2.008,1.754 4.271,3.543 6.671,5.417 1.225,0.904 2.482,1.832 3.768,2.781 1.312,0.908 2.652,1.837 4.015,2.78 1.388,0.902 2.8,1.819 4.229,2.747 1.454,0.884 2.927,1.778 4.411,2.679 3.004,1.737 6.08,3.452 9.216,5.046 3.131,1.603 6.298,3.127 9.458,4.526 3.152,1.417 6.297,2.707 9.357,3.904 3.068,1.177 6.047,2.274 8.902,3.223 2.849,0.967 5.564,1.811 8.082,2.548 5.036,1.474 9.284,2.51 12.275,3.161 2.984,0.657 4.731,0.939 4.731,0.939 L 0,0 Z" />
        </g>
        <g
           transform="translate(264.0304,407.214)"
           id="g3436">
          <path
             id="path3438"
             style="fill:#d3c9c8;fill-opacity:1;fill-rule:nonzero;stroke:none"
             d="m 0,0 c 0,0 -1.614,-0.569 -4.41,-1.739 -2.793,-1.16 -6.747,-2.92 -11.385,-5.242 -2.318,-1.161 -4.808,-2.461 -7.405,-3.901 -2.604,-1.425 -5.302,-3.014 -8.066,-4.693 -2.754,-1.697 -5.569,-3.497 -8.364,-5.418 -2.806,-1.904 -5.593,-3.927 -8.324,-6.015 -2.738,-2.08 -5.391,-4.262 -7.966,-6.447 -1.262,-1.119 -2.515,-2.229 -3.752,-3.326 -1.202,-1.133 -2.39,-2.251 -3.558,-3.352 -1.133,-1.133 -2.248,-2.247 -3.339,-3.337 -1.056,-1.121 -2.089,-2.218 -3.095,-3.286 -1.951,-2.189 -3.781,-4.265 -5.373,-6.261 -0.822,-0.976 -1.573,-1.94 -2.267,-2.871 -0.701,-0.925 -1.367,-1.802 -1.992,-2.627 -1.181,-1.697 -2.238,-3.156 -3.06,-4.389 -1.603,-2.489 -2.52,-3.912 -2.52,-3.912 l -5.867,3.818 c 0,0 1.04,1.452 2.859,3.993 0.928,1.254 2.113,2.734 3.441,4.45 0.697,0.831 1.438,1.716 2.22,2.648 0.774,0.938 1.609,1.905 2.516,2.882 1.763,1.999 3.774,4.067 5.911,6.237 1.096,1.055 2.223,2.139 3.374,3.247 1.183,1.071 2.391,2.165 3.62,3.278 1.26,1.075 2.54,2.167 3.836,3.273 1.328,1.065 2.672,2.143 4.026,3.229 2.753,2.113 5.581,4.212 8.483,6.201 2.896,1.996 5.839,3.918 8.79,5.715 2.941,1.815 5.892,3.502 8.77,5.087 2.889,1.565 5.701,3.04 8.408,4.352 2.7,1.328 5.282,2.519 7.683,3.576 4.802,2.116 8.88,3.694 11.761,4.728 2.873,1.04 4.568,1.546 4.568,1.546 L 0,0 Z" />
        </g>
        <g
           transform="translate(271.2529,407.2484)"
           id="g3440">
          <path
             id="path3442"
             style="fill:#d3c9c8;fill-opacity:1;fill-rule:nonzero;stroke:none"
             d="m 0,0 c 0,0 -1.534,-0.763 -4.167,-2.267 -2.631,-1.494 -6.341,-3.724 -10.661,-6.597 -2.16,-1.436 -4.473,-3.031 -6.875,-4.778 -2.411,-1.733 -4.894,-3.641 -7.433,-5.646 -2.526,-2.022 -5.1,-4.153 -7.64,-6.401 -2.553,-2.234 -5.072,-4.583 -7.527,-6.99 -2.463,-2.4 -4.831,-4.89 -7.119,-7.374 -1.116,-1.265 -2.224,-2.52 -3.318,-3.761 -1.055,-1.271 -2.096,-2.527 -3.121,-3.762 -0.987,-1.263 -1.957,-2.505 -2.906,-3.721 -0.911,-1.242 -1.803,-2.458 -2.67,-3.641 -1.669,-2.411 -3.232,-4.696 -4.567,-6.871 -0.697,-1.07 -1.325,-2.118 -1.9,-3.127 -0.583,-1.004 -1.136,-1.956 -1.656,-2.851 -0.964,-1.829 -1.835,-3.406 -2.5,-4.73 -1.287,-2.667 -2.022,-4.191 -2.022,-4.191 l -6.289,3.074 c 0,0 0.856,1.568 2.354,4.31 0.769,1.358 1.766,2.97 2.876,4.835 0.591,0.91 1.22,1.877 1.883,2.897 0.655,1.025 1.366,2.087 2.148,3.166 1.508,2.198 3.253,4.494 5.11,6.907 0.961,1.18 1.948,2.393 2.956,3.632 1.044,1.206 2.111,2.439 3.195,3.692 1.12,1.22 2.259,2.459 3.411,3.714 1.189,1.218 2.392,2.45 3.604,3.693 2.476,2.43 5.028,4.857 7.668,7.182 2.632,2.332 5.32,4.596 8.031,6.738 2.699,2.157 5.423,4.19 8.087,6.111 2.678,1.904 5.289,3.708 7.817,5.339 2.518,1.645 4.937,3.139 7.191,4.48 4.51,2.681 8.364,4.742 11.098,6.117 2.725,1.38 4.344,2.087 4.344,2.087 L 0,0 Z" />
        </g>
        <g
           transform="translate(276.021,405.6392)"
           id="g3444">
          <path
             id="path3446"
             style="fill:#d3c9c8;fill-opacity:1;fill-rule:nonzero;stroke:none"
             d="m 0,0 c 0,0 -0.322,-0.234 -0.926,-0.672 -0.598,-0.434 -1.466,-1.095 -2.566,-1.95 -1.103,-0.849 -2.412,-1.923 -3.914,-3.148 -1.474,-1.263 -3.169,-2.645 -4.932,-4.256 -0.886,-0.8 -1.825,-1.614 -2.767,-2.489 -0.934,-0.884 -1.9,-1.798 -2.892,-2.738 -2.003,-1.857 -3.976,-3.962 -6.09,-6.056 -1.012,-1.092 -2.041,-2.201 -3.082,-3.325 -1.04,-1.123 -2.106,-2.247 -3.105,-3.448 -2.027,-2.374 -4.135,-4.74 -6.052,-7.263 -0.979,-1.242 -1.959,-2.483 -2.934,-3.72 -0.92,-1.278 -1.835,-2.551 -2.744,-3.814 -0.895,-1.27 -1.826,-2.5 -2.668,-3.767 -0.822,-1.28 -1.634,-2.544 -2.433,-3.787 -0.788,-1.249 -1.608,-2.448 -2.328,-3.672 -0.699,-1.234 -1.383,-2.442 -2.049,-3.618 -0.666,-1.174 -1.313,-2.316 -1.939,-3.421 -0.613,-1.11 -1.109,-2.234 -1.637,-3.283 -1.023,-2.117 -1.991,-4.04 -2.796,-5.766 -0.717,-1.764 -1.342,-3.302 -1.857,-4.568 -1.03,-2.527 -1.619,-3.971 -1.619,-3.971 l -6.503,2.59 c 0,0 0.7,1.484 1.925,4.081 0.613,1.295 1.357,2.869 2.21,4.673 0.939,1.759 2.056,3.711 3.242,5.854 0.61,1.062 1.19,2.199 1.89,3.317 0.711,1.109 1.446,2.256 2.202,3.436 0.755,1.177 1.531,2.387 2.324,3.623 0.813,1.222 1.725,2.414 2.607,3.655 0.892,1.234 1.799,2.488 2.717,3.757 0.937,1.254 1.96,2.466 2.95,3.717 1.001,1.241 2.009,2.493 3.022,3.749 1.066,1.209 2.136,2.423 3.207,3.638 2.096,2.464 4.376,4.759 6.569,7.059 1.082,1.164 2.228,2.248 3.347,3.331 1.119,1.081 2.224,2.149 3.311,3.2 2.261,2.009 4.373,4.025 6.503,5.796 1.055,0.894 2.082,1.764 3.075,2.606 1,0.832 1.994,1.604 2.933,2.362 1.868,1.528 3.658,2.832 5.213,4.023 1.586,1.155 2.963,2.164 4.125,2.961 1.156,0.801 2.074,1.423 2.714,1.836 0.633,0.409 0.971,0.627 0.971,0.627 L 0,0 Z" />
        </g>
        <g
           transform="translate(282.9395,406.4816)"
           id="g3448">
          <path
             id="path3450"
             style="fill:#d3c9c8;fill-opacity:1;fill-rule:nonzero;stroke:none"
             d="m 0,0 c 0,0 -0.251,-0.253 -0.723,-0.726 -0.467,-0.469 -1.141,-1.178 -1.996,-2.088 -0.851,-0.91 -1.869,-2.035 -3.023,-3.334 -1.138,-1.315 -2.437,-2.782 -3.785,-4.444 -1.38,-1.633 -2.804,-3.462 -4.312,-5.39 -1.504,-1.93 -3.018,-4.024 -4.595,-6.173 -0.76,-1.095 -1.533,-2.209 -2.316,-3.336 -0.39,-0.564 -0.784,-1.13 -1.179,-1.699 -0.376,-0.583 -0.755,-1.168 -1.134,-1.755 -0.759,-1.174 -1.523,-2.357 -2.29,-3.545 -0.769,-1.185 -1.462,-2.426 -2.198,-3.637 -0.721,-1.221 -1.462,-2.428 -2.161,-3.653 -0.673,-1.239 -1.343,-2.473 -2.008,-3.698 -1.373,-2.423 -2.549,-4.897 -3.706,-7.276 -0.564,-1.196 -1.186,-2.339 -1.672,-3.515 -0.502,-1.167 -0.993,-2.31 -1.471,-3.421 -0.478,-1.11 -0.943,-2.19 -1.392,-3.234 -0.414,-1.058 -0.779,-2.094 -1.149,-3.079 -0.72,-1.979 -1.417,-3.776 -1.97,-5.389 -0.498,-1.631 -0.932,-3.052 -1.29,-4.223 -0.715,-2.336 -1.124,-3.671 -1.124,-3.671 l -7.635,2.388 c 0,0 0.529,1.375 1.455,3.782 0.462,1.201 1.025,2.659 1.67,4.331 0.698,1.649 1.557,3.477 2.455,5.484 0.458,0.999 0.916,2.049 1.425,3.117 0.543,1.052 1.104,2.139 1.682,3.256 0.577,1.116 1.169,2.261 1.775,3.433 0.591,1.178 1.315,2.316 1.985,3.508 1.367,2.369 2.759,4.824 4.343,7.214 0.771,1.206 1.548,2.422 2.328,3.642 0.805,1.204 1.651,2.386 2.475,3.581 0.84,1.184 1.637,2.397 2.507,3.551 0.868,1.155 1.732,2.305 2.59,3.446 0.428,0.57 0.855,1.137 1.28,1.702 0.443,0.551 0.883,1.098 1.322,1.643 0.875,1.088 1.74,2.162 2.591,3.219 1.756,2.069 3.438,4.078 5.1,5.925 1.665,1.843 3.234,3.587 4.747,5.139 1.48,1.581 2.898,2.971 4.14,4.216 1.259,1.23 2.365,2.29 3.292,3.15 0.927,0.857 1.662,1.527 2.178,1.976 0.51,0.444 0.782,0.682 0.782,0.682 L 0,0 Z" />
        </g>
        <g
           transform="translate(290.4774,409.5483)"
           id="g3452">
          <path
             id="path3454"
             style="fill:#d3c9c8;fill-opacity:1;fill-rule:nonzero;stroke:none"
             d="m 0,0 c 0,0 -0.202,-0.294 -0.58,-0.845 -0.374,-0.545 -0.91,-1.364 -1.585,-2.414 -0.674,-1.049 -1.472,-2.339 -2.371,-3.825 -0.882,-1.499 -1.894,-3.177 -2.92,-5.055 -1.063,-1.856 -2.132,-3.912 -3.267,-6.08 -1.131,-2.171 -2.242,-4.503 -3.404,-6.902 -0.55,-1.215 -1.109,-2.45 -1.675,-3.7 -0.283,-0.625 -0.567,-1.253 -0.853,-1.884 -0.265,-0.641 -0.531,-1.285 -0.798,-1.931 -0.534,-1.292 -1.072,-2.593 -1.612,-3.9 -0.542,-1.305 -1,-2.65 -1.505,-3.975 -0.488,-1.331 -0.999,-2.652 -1.465,-3.983 -0.438,-1.34 -0.874,-2.675 -1.307,-4 -0.912,-2.631 -1.622,-5.277 -2.33,-7.826 -0.339,-1.278 -0.743,-2.515 -1.009,-3.759 -0.283,-1.239 -0.56,-2.451 -0.829,-3.631 -0.27,-1.178 -0.531,-2.324 -0.785,-3.432 -0.216,-1.116 -0.388,-2.2 -0.573,-3.236 -0.351,-2.076 -0.712,-3.969 -0.964,-5.656 -0.195,-1.694 -0.365,-3.171 -0.506,-4.387 -0.281,-2.426 -0.442,-3.813 -0.442,-3.813 l -7.941,0.968 c 0,0 0.272,1.449 0.747,3.983 0.239,1.265 0.528,2.8 0.86,4.562 0.389,1.747 0.904,3.701 1.425,5.837 0.27,1.066 0.53,2.181 0.837,3.324 0.345,1.132 0.701,2.302 1.066,3.506 0.366,1.201 0.742,2.435 1.126,3.697 0.368,1.265 0.875,2.516 1.318,3.809 0.917,2.577 1.842,5.243 2.969,7.88 0.54,1.325 1.084,2.662 1.631,4.003 0.574,1.329 1.193,2.645 1.788,3.969 0.612,1.317 1.176,2.653 1.824,3.946 0.644,1.292 1.287,2.58 1.924,3.857 0.318,0.638 0.636,1.273 0.951,1.905 0.337,0.621 0.671,1.24 1.004,1.855 0.664,1.228 1.321,2.441 1.967,3.634 1.352,2.352 2.644,4.632 3.945,6.749 1.305,2.114 2.532,4.113 3.74,5.912 1.17,1.822 2.314,3.446 3.31,4.895 1.016,1.437 1.913,2.68 2.669,3.693 0.757,1.01 1.359,1.802 1.785,2.337 0.421,0.529 0.646,0.812 0.646,0.812 L 0,0 Z" />
        </g>
      </g>
    </g>
    <g
       id="g3456"
       transform="matrix(1.25,0,0,-1.25,-1393.3781,717.55522)">
      <g
         clip-path="url(#clipPath3460)"
         id="g3458">
        <g
           transform="translate(270.8505,385.8687)"
           id="g3464">
          <path
             id="path3466"
             style="fill:none;stroke:#461f18;stroke-width:2;stroke-linecap:butt;stroke-linejoin:miter;stroke-miterlimit:10;stroke-dasharray:none;stroke-opacity:1"
             d="m 0,0 c 0,-44.151 -52.001,-79.943 -116.148,-79.943 -64.147,0 -116.148,35.792 -116.148,79.943 0,44.151 52.001,79.943 116.148,79.943 C -52.001,79.943 0,44.151 0,0 Z" />
        </g>
        <g
           transform="translate(154.7025,310.2818)"
           id="g3468">
          <path
             id="path3470"
             style="fill:none;stroke:#461f18;stroke-width:1;stroke-linecap:butt;stroke-linejoin:miter;stroke-miterlimit:10;stroke-dasharray:none;stroke-opacity:1"
             d="m 0,0 c -61.643,0 -111.793,33.908 -111.793,75.587 0,41.679 50.15,75.587 111.793,75.587 61.642,0 111.792,-33.908 111.792,-75.587 C 111.792,33.908 61.642,0 0,0 Z" />
        </g>
        <g
           transform="translate(72.3579,334.5303)"
           id="g3472">
          <path
             id="path3474"
             style="fill:none;stroke:#461f18;stroke-width:1;stroke-linecap:butt;stroke-linejoin:miter;stroke-miterlimit:10;stroke-dasharray:none;stroke-opacity:1"
             d="m 0,0 c 23.413,10.942 51.792,17.357 82.345,17.357 30.462,0 58.763,-6.377 82.136,-17.26" />
        </g>
        <g
           transform="translate(72.4486,334.6016)"
           id="g3476">
          <path
             id="path3478"
             style="fill:#461f18;fill-opacity:1;fill-rule:nonzero;stroke:none"
             d="m 0,0 c 20.415,-14.974 49.678,-24.32 82.186,-24.32 32.431,0 61.674,9.391 82.114,24.356 -23.369,10.876 -51.662,17.25 -82.114,17.25 C 51.701,17.286 23.383,10.898 0,0" />
        </g>
      </g>
    </g>
    <g
       id="text3480"
       style="font-variant:normal;font-weight:normal;font-stretch:normal;font-size:12.25px;font-family:Eponymous;-inkscape-font-specification:Eponymous-Regular;writing-mode:lr-tb;fill:#b5a5a3;fill-opacity:1;fill-rule:nonzero;stroke:none">
      <path
         id="path174753"
         d="m -1256.1508,298.87259 0,3.35559 1.5193,0 q 0.8434,0 1.304,-0.43665 0.4606,-0.43664 0.4606,-1.24414 0,-0.80151 -0.4606,-1.23816 -0.4606,-0.43664 -1.304,-0.43664 l -1.5193,0 z m -1.2082,-0.99292 2.7275,0 q 1.5014,0 2.267,0.68188 0.7716,0.67591 0.7716,1.98584 0,1.3219 -0.7716,1.99781 -0.7656,0.6759 -2.267,0.6759 l -1.5193,0 0,3.58887 -1.2082,0 0,-8.9303 z" />
      <path
         id="path174755"
         d="m -1247.8485,300.88235 q -0.8853,0 -1.3997,0.69385 -0.5144,0.68787 -0.5144,1.89014 0,1.20227 0.5084,1.89612 0.5145,0.68786 1.4057,0.68786 0.8793,0 1.3937,-0.69384 0.5144,-0.69385 0.5144,-1.89014 0,-1.19031 -0.5144,-1.88416 -0.5144,-0.69983 -1.3937,-0.69983 z m 0,-0.9331 q 1.4355,0 2.255,0.9331 0.8195,0.93311 0.8195,2.58399 0,1.6449 -0.8195,2.58398 -0.8195,0.93311 -2.255,0.93311 -1.4415,0 -2.261,-0.93311 -0.8135,-0.93908 -0.8135,-2.58398 0,-1.65088 0.8135,-2.58399 0.8195,-0.9331 2.261,-0.9331 z" />
      <path
         id="path174757"
         d="m -1243.5957,300.11075 1.1006,0 1.3757,5.22778 1.3698,-5.22778 1.2979,0 1.3758,5.22778 1.3697,-5.22778 1.1006,0 -1.7526,6.69922 -1.2979,0 -1.4416,-5.49097 -1.4475,5.49097 -1.2979,0 -1.7526,-6.69922 z" />
      <path
         id="path174759"
         d="m -1227.2006,303.18521 0,0.53833 -5.0603,0 q 0.072,1.13648 0.6819,1.73462 0.6161,0.59216 1.7107,0.59216 0.634,0 1.2262,-0.15551 0.5982,-0.15552 1.1843,-0.46656 l 0,1.04077 q -0.5921,0.25123 -1.2142,0.38282 -0.6221,0.13159 -1.2621,0.13159 -1.603,0 -2.5421,-0.93311 -0.9331,-0.9331 -0.9331,-2.52417 0,-1.64489 0.8853,-2.60791 0.8912,-0.96899 2.3985,-0.96899 1.3518,0 2.1354,0.87329 0.7895,0.86731 0.7895,2.36267 z m -1.1005,-0.323 q -0.012,-0.9032 -0.5085,-1.44153 -0.4904,-0.53833 -1.3039,-0.53833 -0.9212,0 -1.4774,0.52039 -0.5503,0.52039 -0.6341,1.46545 l 3.9239,-0.006 z" />
      <path
         id="path174761"
         d="m -1221.5122,301.13956 q -0.1854,-0.10767 -0.4067,-0.15552 -0.2154,-0.0538 -0.4786,-0.0538 -0.9331,0 -1.4355,0.6101 -0.4965,0.60413 -0.4965,1.7406 l 0,3.52906 -1.1065,0 0,-6.69922 1.1065,0 0,1.04077 q 0.347,-0.61011 0.9032,-0.9032 0.5563,-0.29907 1.3518,-0.29907 0.1137,0 0.2513,0.0179 0.1375,0.012 0.305,0.0419 l 0.01,1.1305 z" />
      <path
         id="path174763"
         d="m -1214.8788,303.18521 0,0.53833 -5.0603,0 q 0.072,1.13648 0.6819,1.73462 0.6161,0.59216 1.7107,0.59216 0.634,0 1.2262,-0.15551 0.5981,-0.15552 1.1843,-0.46656 l 0,1.04077 q -0.5921,0.25123 -1.2142,0.38282 -0.6221,0.13159 -1.2621,0.13159 -1.603,0 -2.5421,-0.93311 -0.9331,-0.9331 -0.9331,-2.52417 0,-1.64489 0.8852,-2.60791 0.8913,-0.96899 2.3986,-0.96899 1.3518,0 2.1354,0.87329 0.7895,0.86731 0.7895,2.36267 z m -1.1006,-0.323 q -0.012,-0.9032 -0.5084,-1.44153 -0.4905,-0.53833 -1.3039,-0.53833 -0.9212,0 -1.4775,0.52039 -0.5503,0.52039 -0.634,1.46545 l 3.9238,-0.006 z" />
      <path
         id="path174765"
         d="m -1208.6641,301.12759 0,-3.62475 1.1006,0 0,9.30713 -1.1006,0 0,-1.00489 q -0.3469,0.59815 -0.8792,0.89124 -0.5264,0.28711 -1.2681,0.28711 -1.2142,0 -1.9799,-0.969 -0.7596,-0.96899 -0.7596,-2.54809 0,-1.5791 0.7596,-2.5481 0.7657,-0.96899 1.9799,-0.96899 0.7417,0 1.2681,0.29309 0.5323,0.28711 0.8792,0.88525 z m -3.7503,2.33875 q 0,1.21423 0.4964,1.90808 0.5025,0.68787 1.3758,0.68787 0.8733,0 1.3757,-0.68787 0.5024,-0.69385 0.5024,-1.90808 0,-1.21423 -0.5024,-1.9021 -0.5024,-0.69385 -1.3757,-0.69385 -0.8733,0 -1.3758,0.69385 -0.4964,0.68787 -0.4964,1.9021 z" />
      <path
         id="path174767"
         d="m -1196.5875,303.46634 q 0,-1.21423 -0.5025,-1.9021 -0.4964,-0.69385 -1.3697,-0.69385 -0.8733,0 -1.3757,0.69385 -0.4965,0.68787 -0.4965,1.9021 0,1.21423 0.4965,1.90808 0.5024,0.68787 1.3757,0.68787 0.8733,0 1.3697,-0.68787 0.5025,-0.69385 0.5025,-1.90808 z m -3.7444,-2.33875 q 0.3469,-0.59814 0.8733,-0.88525 0.5323,-0.29309 1.268,-0.29309 1.2203,0 1.9799,0.96899 0.7656,0.969 0.7656,2.5481 0,1.5791 -0.7656,2.54809 -0.7596,0.969 -1.9799,0.969 -0.7357,0 -1.268,-0.28711 -0.5264,-0.29309 -0.8733,-0.89124 l 0,1.00489 -1.1066,0 0,-9.30713 1.1066,0 0,3.62475 z" />
      <path
         id="path174769"
         d="m -1190.8334,307.43204 q -0.4665,1.19629 -0.9092,1.56115 -0.4426,0.36487 -1.1843,0.36487 l -0.8793,0 0,-0.92114 0.646,0 q 0.4546,0 0.7059,-0.21533 0.2512,-0.21533 0.5562,-1.01685 l 0.1974,-0.50244 -2.7096,-6.59155 1.1664,0 2.0935,5.23974 2.0935,-5.23974 1.1664,0 -2.9429,7.32129 z" />
      <path
         id="path174771"
         d="m -1180.1206,306.80997 -3.4094,-8.9303 1.2621,0 2.8292,7.51868 2.8352,-7.51868 1.2561,0 -3.4035,8.9303 -1.3697,0 z" />
      <path
         id="path174773"
         d="m -1172.0098,303.44241 q -1.3338,0 -1.8482,0.30506 -0.5144,0.30505 -0.5144,1.04077 0,0.58618 0.3828,0.9331 0.3888,0.34095 1.0527,0.34095 0.9152,0 1.4655,-0.646 0.5562,-0.65198 0.5562,-1.72864 l 0,-0.24524 -1.0946,0 z m 2.1952,-0.45459 0,3.82215 -1.1006,0 0,-1.01685 q -0.3768,0.61011 -0.939,0.9032 -0.5623,0.28711 -1.3758,0.28711 -1.0288,0 -1.6389,-0.57422 -0.6041,-0.5802 -0.6041,-1.54919 0,-1.1305 0.7536,-1.70472 0.7597,-0.57421 2.261,-0.57421 l 1.5432,0 0,-0.10767 q 0,-0.75964 -0.5024,-1.17236 -0.4965,-0.41871 -1.3997,-0.41871 -0.5742,0 -1.1185,0.13758 -0.5443,0.13757 -1.0467,0.41272 l 0,-1.01685 q 0.6041,-0.23327 1.1723,-0.34692 0.5683,-0.11963 1.1066,-0.11963 1.4535,0 2.1713,0.75366 0.7177,0.75366 0.7177,2.28491 z" />
      <path
         id="path174775"
         d="m -1167.5835,297.50284 1.1066,0 0,5.49695 3.2838,-2.88904 1.4056,0 -3.553,3.13428 3.7026,3.56494 -1.4356,0 -3.4034,-3.27185 0,3.27185 -1.1066,0 0,-9.30713 z" />
      <path
         id="path174777"
         d="m -1160.9321,304.16617 0,-4.05542 1.1006,0 0,4.01355 q 0,0.95105 0.3708,1.42956 0.3709,0.47254 1.1126,0.47254 0.8912,0 1.4056,-0.56824 0.5204,-0.56824 0.5204,-1.54919 l 0,-3.79822 1.1006,0 0,6.69922 -1.1006,0 0,-1.02881 q -0.4008,0.61011 -0.9331,0.90918 -0.5264,0.29309 -1.2262,0.29309 -1.1544,0 -1.7526,-0.71777 -0.5981,-0.71778 -0.5981,-2.09949 z m 2.7694,-4.21692 0,0 z" />
      <path
         id="path174779"
         d="m -1147.4739,302.76651 0,4.04346 -1.1006,0 0,-4.00757 q 0,-0.95105 -0.3708,-1.42359 -0.3709,-0.47253 -1.1126,-0.47253 -0.8912,0 -1.4056,0.56824 -0.5144,0.56824 -0.5144,1.54919 l 0,3.78626 -1.1066,0 0,-6.69922 1.1066,0 0,1.04077 q 0.3948,-0.60413 0.9271,-0.9032 0.5383,-0.29907 1.2382,-0.29907 1.1544,0 1.7466,0.71777 0.5921,0.71179 0.5921,2.09949 z" />
      <path
         id="path174781"
         d="m -1142.6708,300.88235 q -0.8852,0 -1.3996,0.69385 -0.5144,0.68787 -0.5144,1.89014 0,1.20227 0.5084,1.89612 0.5144,0.68786 1.4056,0.68786 0.8793,0 1.3937,-0.69384 0.5144,-0.69385 0.5144,-1.89014 0,-1.19031 -0.5144,-1.88416 -0.5144,-0.69983 -1.3937,-0.69983 z m 0,-0.9331 q 1.4356,0 2.255,0.9331 0.8195,0.93311 0.8195,2.58399 0,1.6449 -0.8195,2.58398 -0.8194,0.93311 -2.255,0.93311 -1.4415,0 -2.261,-0.93311 -0.8134,-0.93908 -0.8134,-2.58398 0,-1.65088 0.8134,-2.58399 0.8195,-0.9331 2.261,-0.9331 z" />
    </g>
    <g
       id="g3484"
       transform="matrix(1.25,0,0,-1.25,-1393.3781,717.55522)">
      <g
         clip-path="url(#clipPath3488)"
         id="g3486">
        <g
           transform="translate(258.5391,357.5593)"
           id="g3492">
          <path
             id="path3494"
             style="fill:#f6f6f6;fill-opacity:1;fill-rule:nonzero;stroke:none"
             d="m 0,0 c 0,0 -5.691,3.611 -7.41,4.385 -27.498,12.571 -60.628,19.919 -96.248,19.919 -35.62,0 -68.75,-7.348 -96.249,-19.919 l -7.767,-3.782 c 5.098,-8.784 12.55,-16.754 21.83,-23.561 23.383,10.898 51.701,17.286 82.186,17.286 30.453,0 58.745,-6.373 82.114,-17.25 C -12.46,-16.271 -5.109,-8.521 0,0" />
        </g>
        <g
           transform="translate(258.5391,357.5593)"
           id="g3496">
          <path
             id="path3498"
             style="fill:none;stroke:#461f18;stroke-width:1;stroke-linecap:butt;stroke-linejoin:miter;stroke-miterlimit:10;stroke-dasharray:none;stroke-opacity:1"
             d="m 0,0 c 0,0 -5.691,3.611 -7.41,4.385 -27.498,12.571 -60.628,19.919 -96.248,19.919 -35.62,0 -68.75,-7.348 -96.249,-19.919 l -7.767,-3.782 c 5.098,-8.784 12.55,-16.754 21.83,-23.561 23.383,10.898 51.701,17.286 82.186,17.286 30.453,0 58.745,-6.373 82.114,-17.25 C -12.46,-16.271 -5.109,-8.521 0,0 Z" />
        </g>
      </g>
    </g>
    <g
       id="g3536"
       transform="matrix(1.25,0,0,-1.25,-1393.3781,717.55522)">
      <g
         clip-path="url(#clipPath3540)"
         id="g3538">
        <g
           transform="translate(241.4505,351.032)"
           id="g3544">
          <path
             id="path3546"
             style="fill:#461f18;fill-opacity:1;fill-rule:nonzero;stroke:none"
             d="m 0,0 c 0,-1.103 -0.894,-1.996 -1.996,-1.996 -1.103,0 -1.997,0.893 -1.997,1.996 0,1.103 0.894,1.996 1.997,1.996 C -0.894,1.996 0,1.103 0,0" />
        </g>
        <g
           transform="translate(73.0614,351.032)"
           id="g3548">
          <path
             id="path3550"
             style="fill:#461f18;fill-opacity:1;fill-rule:nonzero;stroke:none"
             d="m 0,0 c 0,-1.103 -0.894,-1.996 -1.996,-1.996 -1.103,0 -1.997,0.893 -1.997,1.996 0,1.103 0.894,1.996 1.997,1.996 C -0.894,1.996 0,1.103 0,0" />
        </g>
      </g>
    </g>
    <g
       id="g3584"
       transform="matrix(1.25,0,0,-1.25,-1393.3781,717.55522)">
      <g
         clip-path="url(#clipPath3588)"
         id="g3586">
        <g
           transform="translate(205.9937,399.9435)"
           id="g3592">
          <path
             id="path3594"
             style="fill:#461f18;fill-opacity:1;fill-rule:nonzero;stroke:none"
             d="m 0,0 -0.566,0 c -0.202,1.605 -0.607,3.146 -1.212,4.585 l 0.476,0.275 c 0.287,0.166 0.387,0.537 0.221,0.825 L -2.685,8.462 C -2.851,8.75 -3.222,8.849 -3.509,8.683 L -4.004,8.398 c -0.961,1.262 -2.086,2.387 -3.348,3.349 l 0.285,0.494 c 0.166,0.287 0.066,0.658 -0.221,0.824 l -2.777,1.604 c -0.288,0.166 -0.659,0.067 -0.825,-0.221 l -0.275,-0.476 c -1.439,0.606 -2.981,1.01 -4.585,1.212 l 0,0.566 c 0,0.332 -0.272,0.604 -0.604,0.604 l -3.207,0 c -0.332,0 -0.604,-0.272 -0.604,-0.604 l 0,-0.566 c -1.604,-0.202 -3.146,-0.607 -4.585,-1.212 l -0.275,0.476 c -0.166,0.288 -0.537,0.387 -0.824,0.221 l -2.778,-1.604 c -0.287,-0.166 -0.387,-0.537 -0.221,-0.824 l 0.286,-0.494 C -29.825,10.785 -30.95,9.66 -31.911,8.398 l -0.494,0.285 C -32.693,8.849 -33.064,8.75 -33.23,8.462 L -34.834,5.685 C -35,5.397 -34.9,5.026 -34.613,4.86 l 0.476,-0.275 C -34.742,3.146 -35.147,1.605 -35.349,0 l -0.566,0 c -0.332,0 -0.604,-0.272 -0.604,-0.604 l 0,-3.207 c 0,-0.332 0.272,-0.604 0.604,-0.604 l 0.566,0 c 0.202,-1.604 0.607,-3.145 1.212,-4.585 l -0.476,-0.274 C -34.9,-9.44 -35,-9.812 -34.834,-10.099 l 1.604,-2.778 c 0.166,-0.287 0.537,-0.387 0.825,-0.221 l 0.494,0.286 c 0.961,-1.263 2.086,-2.388 3.349,-3.349 l -0.286,-0.494 c -0.166,-0.288 -0.066,-0.659 0.221,-0.825 l 2.778,-1.603 c 0.287,-0.167 0.658,-0.067 0.824,0.221 l 0.275,0.475 c 1.439,-0.605 2.981,-1.01 4.585,-1.212 l 0,-0.566 c 0,-0.332 0.272,-0.603 0.604,-0.603 l 3.207,0 c 0.332,0 0.604,0.271 0.604,0.603 l 0,0.566 c 1.604,0.202 3.146,0.607 4.585,1.212 l 0.275,-0.475 c 0.166,-0.288 0.537,-0.388 0.825,-0.221 l 2.777,1.603 c 0.287,0.166 0.387,0.537 0.221,0.825 l -0.285,0.494 c 1.262,0.961 2.387,2.086 3.348,3.349 l 0.495,-0.286 c 0.287,-0.166 0.658,-0.066 0.824,0.221 l 1.604,2.778 c 0.166,0.287 0.066,0.659 -0.221,0.825 L -1.778,-9 c 0.605,1.44 1.01,2.981 1.212,4.585 l 0.566,0 c 0.332,0 0.604,0.272 0.604,0.604 l 0,3.207 C 0.604,-0.272 0.332,0 0,0" />
        </g>
        <g
           transform="translate(195.2563,397.7361)"
           id="g3596">
          <path
             id="path3598"
             style="fill:#b5a5a3;fill-opacity:1;fill-rule:nonzero;stroke:none"
             d="m 0,0 c 0,-3.987 -3.232,-7.22 -7.22,-7.22 -3.987,0 -7.22,3.233 -7.22,7.22 0,3.987 3.233,7.22 7.22,7.22 C -3.232,7.22 0,3.987 0,0" />
        </g>
        <g
           transform="translate(190.68,397.7361)"
           id="g3600">
          <path
             id="path3602"
             style="fill:#461f18;fill-opacity:1;fill-rule:nonzero;stroke:none"
             d="m 0,0 c 0,-1.46 -1.184,-2.644 -2.644,-2.644 -1.46,0 -2.643,1.184 -2.643,2.644 0,1.46 1.183,2.644 2.643,2.644 C -1.184,2.644 0,1.46 0,0" />
        </g>
        <g
           transform="translate(188.7865,402.493)"
           id="g3604">
          <path
             id="path3606"
             style="fill:#461f18;fill-opacity:1;fill-rule:nonzero;stroke:none"
             d="m 0,0 c 0,-0.414 -0.336,-0.75 -0.75,-0.75 -0.414,0 -0.75,0.336 -0.75,0.75 0,0.414 0.336,0.75 0.75,0.75 C -0.336,0.75 0,0.414 0,0" />
        </g>
        <g
           transform="translate(188.7865,392.8742)"
           id="g3608">
          <path
             id="path3610"
             style="fill:#461f18;fill-opacity:1;fill-rule:nonzero;stroke:none"
             d="m 0,0 c 0,-0.414 -0.336,-0.75 -0.75,-0.75 -0.414,0 -0.75,0.336 -0.75,0.75 0,0.414 0.336,0.75 0.75,0.75 C -0.336,0.75 0,0.414 0,0" />
        </g>
        <g
           transform="translate(193.5396,397.7361)"
           id="g3612">
          <path
             id="path3614"
             style="fill:#461f18;fill-opacity:1;fill-rule:nonzero;stroke:none"
             d="m 0,0 c 0,-0.414 -0.336,-0.75 -0.75,-0.75 -0.414,0 -0.75,0.336 -0.75,0.75 0,0.414 0.336,0.75 0.75,0.75 C -0.336,0.75 0,0.414 0,0" />
        </g>
        <g
           transform="translate(183.9417,397.7361)"
           id="g3616">
          <path
             id="path3618"
             style="fill:#461f18;fill-opacity:1;fill-rule:nonzero;stroke:none"
             d="m 0,0 c 0,-0.414 -0.336,-0.75 -0.75,-0.75 -0.414,0 -0.75,0.336 -0.75,0.75 0,0.414 0.336,0.75 0.75,0.75 C -0.336,0.75 0,0.414 0,0" />
        </g>
        <g
           transform="translate(128.3164,393.9466)"
           id="g3620">
          <path
             id="path3622"
             style="fill:#461f18;fill-opacity:1;fill-rule:nonzero;stroke:none"
             d="M 0,0 -0.552,0 C -0.675,0.719 -0.863,1.414 -1.11,2.083 l 0.478,0.275 c 0.259,0.15 0.349,0.484 0.199,0.744 l -1.444,2.502 c -0.15,0.259 -0.484,0.348 -0.744,0.199 L -3.09,5.531 c -0.462,0.555 -0.974,1.067 -1.528,1.528 l 0.271,0.47 c 0.15,0.259 0.06,0.594 -0.199,0.743 l -2.502,1.445 c -0.259,0.15 -0.594,0.06 -0.743,-0.199 L -8.067,9.04 c -0.669,0.247 -1.364,0.435 -2.083,0.558 l 0,0.552 c 0,0.299 -0.245,0.544 -0.544,0.544 l -2.889,0 c -0.299,0 -0.544,-0.245 -0.544,-0.544 l 0,-0.552 C -14.846,9.475 -15.541,9.287 -16.21,9.04 l -0.275,0.478 c -0.15,0.259 -0.484,0.349 -0.744,0.199 L -19.731,8.272 C -19.99,8.123 -20.079,7.788 -19.93,7.529 l 0.272,-0.47 c -0.555,-0.461 -1.067,-0.973 -1.528,-1.528 l -0.47,0.272 c -0.259,0.149 -0.594,0.06 -0.743,-0.199 l -1.445,-2.502 c -0.15,-0.26 -0.06,-0.594 0.199,-0.744 l 0.478,-0.275 C -23.414,1.414 -23.602,0.719 -23.725,0 l -0.552,0 c -0.299,0 -0.544,-0.245 -0.544,-0.544 l 0,-2.889 c 0,-0.299 0.245,-0.544 0.544,-0.544 l 0.552,0 c 0.123,-0.719 0.311,-1.414 0.558,-2.083 l -0.478,-0.276 c -0.259,-0.149 -0.349,-0.484 -0.199,-0.743 l 1.445,-2.502 c 0.149,-0.259 0.484,-0.349 0.743,-0.199 l 0.47,0.271 c 0.461,-0.554 0.973,-1.066 1.528,-1.528 l -0.272,-0.47 c -0.149,-0.259 -0.06,-0.593 0.199,-0.743 l 2.502,-1.444 c 0.26,-0.15 0.594,-0.06 0.744,0.199 l 0.275,0.478 c 0.669,-0.247 1.364,-0.435 2.083,-0.558 l 0,-0.552 c 0,-0.299 0.245,-0.544 0.544,-0.544 l 2.889,0 c 0.299,0 0.544,0.245 0.544,0.544 l 0,0.552 c 0.719,0.123 1.414,0.311 2.083,0.558 l 0.276,-0.478 c 0.149,-0.259 0.484,-0.349 0.743,-0.199 l 2.502,1.444 c 0.259,0.15 0.349,0.484 0.199,0.743 l -0.271,0.47 c 0.555,0.462 1.066,0.973 1.528,1.528 l 0.469,-0.271 c 0.26,-0.15 0.594,-0.06 0.744,0.199 l 1.444,2.502 c 0.15,0.259 0.06,0.594 -0.199,0.743 L -1.11,-6.06 c 0.247,0.669 0.435,1.364 0.558,2.083 l 0.552,0 c 0.299,0 0.544,0.245 0.544,0.544 l 0,2.889 C 0.544,-0.245 0.299,0 0,0" />
        </g>
      </g>
    </g>
    <g
       id="g3624"
       transform="matrix(1.25,0,0,-1.25,-1393.3781,717.55522)">
      <g
         clip-path="url(#clipPath3628)"
         id="g3626">
        <g
           transform="translate(106.7371,402.1458)"
           id="g3632">
          <path
             id="path3634"
             style="fill:#b5a5a3;fill-opacity:1;fill-rule:nonzero;stroke:none"
             d="M 0,0 9.197,-0.403 0,-0.806 0,0 Z" />
        </g>
        <g
           transform="translate(103.945,398.4229)"
           id="g3636">
          <path
             id="path3638"
             style="fill:#b5a5a3;fill-opacity:1;fill-rule:nonzero;stroke:none"
             d="M 0,0 9.197,-0.403 0,-0.806 0,0 Z" />
        </g>
        <g
           transform="translate(103.945,394.7001)"
           id="g3640">
          <path
             id="path3642"
             style="fill:#b5a5a3;fill-opacity:1;fill-rule:nonzero;stroke:none"
             d="M 0,0 9.197,-0.403 0,-0.806 0,0 Z" />
        </g>
        <g
           transform="translate(103.945,390.9773)"
           id="g3644">
          <path
             id="path3646"
             style="fill:#b5a5a3;fill-opacity:1;fill-rule:nonzero;stroke:none"
             d="M 0,0 9.197,-0.403 0,-0.806 0,0 Z" />
        </g>
        <g
           transform="translate(104.8757,387.2544)"
           id="g3648">
          <path
             id="path3650"
             style="fill:#b5a5a3;fill-opacity:1;fill-rule:nonzero;stroke:none"
             d="M 0,0 9.197,-0.403 0,-0.806 0,0 Z" />
        </g>
        <g
           transform="translate(106.7371,383.5316)"
           id="g3652">
          <path
             id="path3654"
             style="fill:#b5a5a3;fill-opacity:1;fill-rule:nonzero;stroke:none"
             d="M 0,0 9.197,-0.403 0,-0.806 0,0 Z" />
        </g>
      </g>
    </g>
    <g
       id="g3656"
       transform="matrix(1.25,0,0,-1.25,-1393.3781,717.55522)">
      <g
         clip-path="url(#clipPath3660)"
         id="g3658">
        <g
           transform="translate(121.0202,391.958)"
           id="g3664">
          <path
             id="path3666"
             style="fill:#b5a5a3;fill-opacity:1;fill-rule:nonzero;stroke:none"
             d="m 0,0 c 0,-2.674 -2.168,-4.842 -4.842,-4.842 -2.674,0 -4.842,2.168 -4.842,4.842 0,2.674 2.168,4.842 4.842,4.842 C -2.168,4.842 0,2.674 0,0" />
        </g>
        <g
           transform="translate(117.6116,391.958)"
           id="g3668">
          <path
             id="path3670"
             style="fill:#461f18;fill-opacity:1;fill-rule:nonzero;stroke:none"
             d="m 0,0 c 0,-0.792 -0.642,-1.434 -1.434,-1.434 -0.791,0 -1.433,0.642 -1.433,1.434 0,0.792 0.642,1.434 1.433,1.434 C -0.642,1.434 0,0.792 0,0" />
        </g>
        <g
           transform="translate(116.739,395.0925)"
           id="g3672">
          <path
             id="path3674"
             style="fill:#461f18;fill-opacity:1;fill-rule:nonzero;stroke:none"
             d="m 0,0 c 0,-0.31 -0.251,-0.561 -0.561,-0.561 -0.31,0 -0.561,0.251 -0.561,0.561 0,0.31 0.251,0.561 0.561,0.561 C -0.251,0.561 0,0.31 0,0" />
        </g>
        <g
           transform="translate(116.739,388.8412)"
           id="g3676">
          <path
             id="path3678"
             style="fill:#461f18;fill-opacity:1;fill-rule:nonzero;stroke:none"
             d="m 0,0 c 0,-0.31 -0.251,-0.561 -0.561,-0.561 -0.31,0 -0.561,0.251 -0.561,0.561 0,0.31 0.251,0.561 0.561,0.561 C -0.251,0.561 0,0.31 0,0" />
        </g>
        <g
           transform="translate(119.8558,391.958)"
           id="g3680">
          <path
             id="path3682"
             style="fill:#461f18;fill-opacity:1;fill-rule:nonzero;stroke:none"
             d="m 0,0 c 0,-0.31 -0.251,-0.561 -0.561,-0.561 -0.31,0 -0.561,0.251 -0.561,0.561 0,0.31 0.251,0.561 0.561,0.561 C -0.251,0.561 0,0.31 0,0" />
        </g>
        <g
           transform="translate(113.6199,391.958)"
           id="g3684">
          <path
             id="path3686"
             style="fill:#461f18;fill-opacity:1;fill-rule:nonzero;stroke:none"
             d="m 0,0 c 0,-0.31 -0.251,-0.561 -0.561,-0.561 -0.31,0 -0.561,0.251 -0.561,0.561 0,0.31 0.251,0.561 0.561,0.561 C -0.251,0.561 0,0.31 0,0" />
        </g>
        <g
           transform="translate(163.7949,408.7706)"
           id="g3688">
          <path
             id="path3690"
             style="fill:#6b4c46;fill-opacity:1;fill-rule:nonzero;stroke:none"
             d="M 0,0 -1.548,8.043 -0.955,8.157 0.593,0.114 0,0 Z" />
        </g>
        <g
           transform="translate(163.5653,417.2912)"
           id="g3692">
          <path
             id="path3694"
             style="fill:#6b4c46;fill-opacity:1;fill-rule:nonzero;stroke:none"
             d="m 0,0 c 0.232,-0.564 -0.037,-1.21 -0.602,-1.442 -0.564,-0.233 -1.21,0.037 -1.442,0.601 -0.232,0.565 0.037,1.21 0.602,1.443 C -0.878,0.834 -0.232,0.564 0,0" />
        </g>
        <g
           transform="translate(160.2031,408.8206)"
           id="g3696">
          <path
             id="path3698"
             style="fill:#6b4c46;fill-opacity:1;fill-rule:nonzero;stroke:none"
             d="M 0,0 -0.344,9.756 0.059,9.77 0.403,0.014 0,0 Z" />
        </g>
        <g
           transform="translate(160.6851,418.738)"
           id="g3700">
          <path
             id="path3702"
             style="fill:#6b4c46;fill-opacity:1;fill-rule:nonzero;stroke:none"
             d="m 0,0 c 0.085,-0.345 -0.125,-0.693 -0.47,-0.779 -0.345,-0.085 -0.694,0.126 -0.779,0.471 -0.085,0.344 0.126,0.693 0.47,0.778 C -0.434,0.555 -0.085,0.345 0,0" />
        </g>
        <g
           transform="translate(163.2562,421.8243)"
           id="g3704">
          <path
             id="path3706"
             style="fill:#6b4c46;fill-opacity:1;fill-rule:nonzero;stroke:none"
             d="M 0,0 0,0 C -0.203,-0.095 -0.446,-0.007 -0.542,0.195 L -3.832,7.2 c -0.095,0.202 -0.007,0.446 0.196,0.541 0.202,0.095 0.446,0.008 0.541,-0.195 L 0.195,0.542 C 0.291,0.339 0.203,0.095 0,0" />
        </g>
        <g
           transform="translate(156.6392,422.3648)"
           id="g3708">
          <path
             id="path3710"
             style="fill:#6b4c46;fill-opacity:1;fill-rule:nonzero;stroke:none"
             d="M 0,0 -0.412,0.692 4.593,3.676 5.005,2.984 0,0 Z" />
        </g>
        <g
           transform="translate(169.4752,410.4003)"
           id="g3712">
          <path
             id="path3714"
             style="fill:#6b4c46;fill-opacity:1;fill-rule:nonzero;stroke:none"
             d="m 0,0 0,7.164 6.932,0 0,-1.263 C 6.932,5.901 3.211,3.723 0,0" />
        </g>
        <g
           transform="translate(178.94,430.5135)"
           id="g3716">
          <path
             id="path3718"
             style="fill:#6b4c46;fill-opacity:1;fill-rule:nonzero;stroke:none"
             d="m 0,0 0,-12.946 c 0,-0.697 -0.57,-1.267 -1.267,-1.267 l 0,0 c -0.696,0 -1.266,0.57 -1.266,1.267 l 0,12.946 c 0,0.697 0.57,1.267 1.266,1.267 l 0,0 C -0.57,1.267 0,0.697 0,0" />
        </g>
        <g
           transform="translate(166.8709,418.8306)"
           id="g3720">
          <path
             id="path3722"
             style="fill:#6b4c46;fill-opacity:1;fill-rule:nonzero;stroke:none"
             d="m 0,0 11.524,0 c 0.661,0 1.201,-0.541 1.201,-1.201 l 0,-0.131 c 0,-0.661 -0.54,-1.201 -1.201,-1.201 L 0,-2.533 c -0.661,0 -1.201,0.54 -1.201,1.201 l 0,0.131 C -1.201,-0.541 -0.661,0 0,0" />
        </g>
        <g
           transform="translate(132.4798,391.8747)"
           id="g3724">
          <path
             id="path3726"
             style="fill:#461f18;fill-opacity:1;fill-rule:nonzero;stroke:none"
             d="m 0,0 c -0.685,0 -1.283,0.505 -1.381,1.203 -1.054,7.537 -7.598,13.221 -15.223,13.221 -4.105,0 -7.965,-1.599 -10.869,-4.502 -0.545,-0.545 -1.429,-0.545 -1.974,0 -0.546,0.545 -0.546,1.429 0,1.974 3.431,3.431 7.993,5.32 12.843,5.32 9.009,0 16.743,-6.718 17.988,-15.627 C 1.492,0.826 0.959,0.12 0.195,0.014 0.13,0.004 0.065,0 0,0" />
        </g>
        <g
           transform="translate(166.6715,389.4839)"
           id="g3728">
          <path
             id="path3730"
             style="fill:#461f18;fill-opacity:1;fill-rule:nonzero;stroke:none"
             d="m 0,0 c -0.608,0 -1.168,0.401 -1.342,1.016 -0.6,2.116 -0.905,4.314 -0.905,6.532 0,13.176 10.72,23.895 23.896,23.895 3.978,0 7.916,-0.997 11.39,-2.885 0.678,-0.368 0.929,-1.216 0.561,-1.893 -0.369,-0.678 -1.216,-0.928 -1.893,-0.56 C 28.64,27.77 25.163,28.651 21.649,28.651 10.012,28.651 0.545,19.184 0.545,7.548 0.545,5.587 0.814,3.646 1.344,1.777 1.554,1.036 1.123,0.264 0.382,0.054 0.254,0.017 0.126,0 0,0" />
        </g>
        <g
           transform="translate(155.6775,418.8306)"
           id="g3732">
          <path
             id="path3734"
             style="fill:#461f18;fill-opacity:1;fill-rule:nonzero;stroke:none"
             d="m 0,0 0,0 c -1.216,0 -2.21,0.995 -2.21,2.21 l 0,3.773 c 0,1.216 0.994,2.211 2.21,2.211 1.216,0 2.21,-0.995 2.21,-2.211 l 0,-3.773 C 2.21,0.995 1.216,0 0,0" />
        </g>
        <g
           transform="translate(166.3597,391.9776)"
           id="g3736">
          <path
             id="path3738"
             style="fill:#461f18;fill-opacity:1;fill-rule:nonzero;stroke:none"
             d="m 0,0 -33.748,0 c 0.124,1.394 -0.647,3.676 -0.647,3.676 -3.78,12.67 -16.348,12.714 -16.348,12.714 l 0,8.582 0,2.774 c 0,4.015 3.286,7.301 7.301,7.301 l 32.992,0 0,-17.524 13.681,0 C 3.231,17.523 -1.882,12.058 0,0" />
        </g>
      </g>
    </g>
    <g
       id="g3740"
       transform="matrix(1.25,0,0,-1.25,-1393.3781,717.55522)">
      <g
         clip-path="url(#clipPath3744)"
         id="g3742">
        <g
           transform="translate(115.2571,409.9038)"
           id="g3748">
          <path
             id="path3750"
             style="fill:#b5a5a3;fill-opacity:1;fill-rule:nonzero;stroke:none"
             d="M 0,0 9.197,-0.403 0,-0.806 0,0 Z" />
        </g>
        <g
           transform="translate(115.2571,413.6267)"
           id="g3752">
          <path
             id="path3754"
             style="fill:#b5a5a3;fill-opacity:1;fill-rule:nonzero;stroke:none"
             d="M 0,0 9.197,-0.403 0,-0.806 0,0 Z" />
        </g>
        <g
           transform="translate(115.2571,417.3495)"
           id="g3756">
          <path
             id="path3758"
             style="fill:#b5a5a3;fill-opacity:1;fill-rule:nonzero;stroke:none"
             d="M 0,0 9.197,-0.403 0,-0.806 0,0 Z" />
        </g>
        <g
           transform="translate(115.2571,421.0723)"
           id="g3760">
          <path
             id="path3762"
             style="fill:#b5a5a3;fill-opacity:1;fill-rule:nonzero;stroke:none"
             d="M 0,0 9.197,-0.403 0,-0.806 0,0 Z" />
        </g>
        <g
           transform="translate(117.1185,424.7952)"
           id="g3764">
          <path
             id="path3766"
             style="fill:#b5a5a3;fill-opacity:1;fill-rule:nonzero;stroke:none"
             d="M 0,0 9.197,-0.403 0,-0.806 0,0 Z" />
        </g>
      </g>
    </g>
    <g
       transform="matrix(1.25,0,0,-1.25,-1228.9596,204.81909)"
       id="g3776">
      <path
         id="path3778"
         style="fill:#6b4c46;fill-opacity:1;fill-rule:nonzero;stroke:none"
         d="m 0,0 -0.125,0 c -0.357,0 -0.649,0.292 -0.649,0.649 l 0,7.994 c 0,0.357 0.292,0.649 0.649,0.649 L 0,9.292 C 0.357,9.292 0.649,9 0.649,8.643 l 0,-7.994 C 0.649,0.292 0.357,0 0,0" />
    </g>
    <g
       transform="matrix(1.25,0,0,-1.25,-1231.8044,204.81909)"
       id="g3780">
      <path
         id="path3782"
         style="fill:#6b4c46;fill-opacity:1;fill-rule:nonzero;stroke:none"
         d="m 0,0 -0.125,0 c -0.357,0 -0.649,0.292 -0.649,0.649 l 0,7.994 c 0,0.357 0.292,0.649 0.649,0.649 L 0,9.292 C 0.357,9.292 0.649,9 0.649,8.643 l 0,-7.994 C 0.649,0.292 0.357,0 0,0" />
    </g>
    <g
       transform="matrix(1.25,0,0,-1.25,-1226.1149,204.81909)"
       id="g3784">
      <path
         id="path3786"
         style="fill:#6b4c46;fill-opacity:1;fill-rule:nonzero;stroke:none"
         d="m 0,0 -0.125,0 c -0.357,0 -0.649,0.292 -0.649,0.649 l 0,7.994 c 0,0.357 0.292,0.649 0.649,0.649 L 0,9.292 C 0.357,9.292 0.649,9 0.649,8.643 l 0,-7.994 C 0.649,0.292 0.357,0 0,0" />
    </g>
    <g
       transform="matrix(1.25,0,0,-1.25,-1223.2701,204.81909)"
       id="g3788">
      <path
         id="path3790"
         style="fill:#6b4c46;fill-opacity:1;fill-rule:nonzero;stroke:none"
         d="m 0,0 -0.125,0 c -0.357,0 -0.649,0.292 -0.649,0.649 l 0,7.994 c 0,0.357 0.292,0.649 0.649,0.649 L 0,9.292 C 0.357,9.292 0.649,9 0.649,8.643 l 0,-7.994 C 0.649,0.292 0.357,0 0,0" />
    </g>
    <g
       transform="matrix(1.25,0,0,-1.25,-1220.4254,204.81909)"
       id="g3792">
      <path
         id="path3794"
         style="fill:#6b4c46;fill-opacity:1;fill-rule:nonzero;stroke:none"
         d="m 0,0 -0.125,0 c -0.357,0 -0.649,0.292 -0.649,0.649 l 0,7.994 c 0,0.357 0.292,0.649 0.649,0.649 L 0,9.292 C 0.357,9.292 0.649,9 0.649,8.643 l 0,-7.994 C 0.649,0.292 0.357,0 0,0" />
    </g>
    <g
       transform="matrix(1.25,0,0,-1.25,-1217.5806,204.81909)"
       id="g3796">
      <path
         id="path3798"
         style="fill:#6b4c46;fill-opacity:1;fill-rule:nonzero;stroke:none"
         d="m 0,0 -0.125,0 c -0.357,0 -0.649,0.292 -0.649,0.649 l 0,7.994 c 0,0.357 0.292,0.649 0.649,0.649 L 0,9.292 C 0.357,9.292 0.649,9 0.649,8.643 l 0,-7.994 C 0.649,0.292 0.357,0 0,0" />
    </g>
    <g
       transform="matrix(1.25,0,0,-1.25,-1214.7359,204.81909)"
       id="g3800">
      <path
         id="path3802"
         style="fill:#6b4c46;fill-opacity:1;fill-rule:nonzero;stroke:none"
         d="m 0,0 -0.125,0 c -0.357,0 -0.649,0.292 -0.649,0.649 l 0,7.994 c 0,0.357 0.292,0.649 0.649,0.649 L 0,9.292 C 0.357,9.292 0.649,9 0.649,8.643 l 0,-7.994 C 0.649,0.292 0.357,0 0,0" />
    </g>
    <g
       transform="matrix(1.25,0,0,-1.25,-1211.8911,204.81909)"
       id="g3804">
      <path
         id="path3806"
         style="fill:#6b4c46;fill-opacity:1;fill-rule:nonzero;stroke:none"
         d="m 0,0 -0.125,0 c -0.357,0 -0.649,0.292 -0.649,0.649 l 0,7.994 c 0,0.357 0.292,0.649 0.649,0.649 L 0,9.292 C 0.357,9.292 0.649,9 0.649,8.643 l 0,-7.994 C 0.649,0.292 0.357,0 0,0" />
    </g>
    <g
       transform="matrix(1.25,0,0,-1.25,-1227.9321,185.43659)"
       id="g3808">
      <path
         id="path3810"
         style="fill:#461f18;fill-opacity:1;fill-rule:nonzero;stroke:none"
         d="m 0,0 -1.391,0 c -0.421,0 -0.766,0.345 -0.766,0.767 l 0,7.835 c 0,0.422 0.345,0.767 0.766,0.767 l 1.391,0 c 0.422,0 0.767,-0.345 0.767,-0.767 l 0,-7.835 C 0.767,0.345 0.422,0 0,0" />
    </g>
    <g
       transform="matrix(1.25,0,0,-1.25,-1227.993,166.09897)"
       id="g3812">
      <path
         id="path3814"
         style="fill:#461f18;fill-opacity:1;fill-rule:nonzero;stroke:none"
         d="m 0,0 0,-6.85 c 0,-0.356 -0.291,-0.647 -0.647,-0.647 l 0,0 c -0.355,0 -0.646,0.291 -0.646,0.647 L -1.293,0 0,0 Z" />
    </g>
    <path
       id="path3816"
       style="fill:#461f18;fill-opacity:1;fill-rule:nonzero;stroke:none"
       d="m -1221.1331,183.77522 -2.845,0 0,-6.705 2.845,0 0,6.705 z" />
    <g
       transform="matrix(1.25,0,0,-1.25,-1224.731,178.07872)"
       id="g3818">
      <path
         id="path3820"
         style="fill:#461f18;fill-opacity:1;fill-rule:nonzero;stroke:none"
         d="m 0,0 1.585,1.814 c 0.069,0.12 0.242,0.12 0.311,0 L 3.481,0 C 3.55,-0.12 3.463,-0.269 3.325,-0.269 l -3.17,0 C 0.017,-0.269 -0.069,-0.12 0,0" />
    </g>
    <g
       transform="matrix(1.25,0,0,-1.25,-1199.363,216.52847)"
       id="g3822">
      <path
         id="path3824"
         style="fill:#b5a5a3;fill-opacity:1;fill-rule:nonzero;stroke:none"
         d="M 0,0 C 0,0 0.451,0.064 1.127,0.113 1.803,0.16 2.705,0.204 3.606,0.201 4.508,0.204 5.41,0.162 6.086,0.113 6.762,0.065 7.213,0 7.213,0 7.213,0 6.762,-0.065 6.086,-0.113 5.41,-0.162 4.508,-0.204 3.606,-0.201 2.705,-0.204 1.803,-0.16 1.127,-0.113 0.451,-0.064 0,0 0,0" />
    </g>
    <g
       transform="matrix(1.25,0,0,-1.25,-1201.6898,221.18197)"
       id="g3826">
      <path
         id="path3828"
         style="fill:#b5a5a3;fill-opacity:1;fill-rule:nonzero;stroke:none"
         d="M 0,0 C 0,0 0.451,0.064 1.127,0.113 1.803,0.16 2.705,0.204 3.606,0.201 4.508,0.204 5.41,0.162 6.086,0.113 6.762,0.065 7.213,0 7.213,0 7.213,0 6.762,-0.065 6.086,-0.113 5.41,-0.162 4.508,-0.204 3.606,-0.201 2.705,-0.204 1.803,-0.16 1.127,-0.113 0.451,-0.064 0,0 0,0" />
    </g>
    <g
       transform="matrix(1.25,0,0,-1.25,-1229.0195,211.3601)"
       id="g3830">
      <path
         id="path3832"
         style="fill:#b5a5a3;fill-opacity:1;fill-rule:nonzero;stroke:none"
         d="M 0,0 C 0,0 0.567,0.064 1.418,0.113 2.269,0.16 3.403,0.204 4.537,0.201 5.672,0.204 6.806,0.162 7.657,0.113 8.507,0.065 9.074,0 9.074,0 9.074,0 8.507,-0.065 7.657,-0.113 6.806,-0.162 5.672,-0.204 4.537,-0.201 3.403,-0.204 2.269,-0.16 1.418,-0.113 0.567,-0.064 0,0 0,0" />
    </g>
    <g
       transform="matrix(1.25,0,0,-1.25,-1154.5803,233.07872)"
       id="g3834">
      <path
         id="path3836"
         style="fill:#b5a5a3;fill-opacity:1;fill-rule:nonzero;stroke:none"
         d="M 0,0 C 0,0 0.393,0.064 0.982,0.113 1.571,0.16 2.356,0.204 3.141,0.201 3.926,0.204 4.712,0.162 5.301,0.113 5.89,0.065 6.282,0 6.282,0 6.282,0 5.89,-0.065 5.301,-0.113 4.712,-0.162 3.926,-0.204 3.141,-0.201 2.356,-0.204 1.571,-0.16 0.982,-0.113 0.393,-0.064 0,0 0,0" />
    </g>
    <g
       transform="matrix(1.25,0,0,-1.25,-1086.1973,197.84835)"
       id="g3838">
      <path
         id="path3840"
         style="fill:#461f18;fill-opacity:1;fill-rule:nonzero;stroke:none"
         d="M 0,0 C 0,0 0.732,0.08 1.829,0.14 2.926,0.199 4.39,0.253 5.853,0.25 7.316,0.253 8.779,0.201 9.877,0.141 10.974,0.08 11.706,0 11.706,0 11.706,0 10.974,-0.08 9.877,-0.141 8.779,-0.201 7.316,-0.253 5.853,-0.25 4.39,-0.253 2.926,-0.199 1.829,-0.14 0.732,-0.08 0,0 0,0" />
    </g>
    <g
       transform="matrix(1.25,0,0,-1.25,-1125.8196,186.28297)"
       id="g3842">
      <path
         id="path3844"
         style="fill:#461f18;fill-opacity:1;fill-rule:nonzero;stroke:none"
         d="M 0,0 C 0,0 0.732,0.08 1.829,0.14 2.926,0.199 4.39,0.253 5.853,0.25 7.316,0.253 8.779,0.201 9.877,0.141 10.974,0.081 11.706,0 11.706,0 11.706,0 10.974,-0.081 9.877,-0.141 8.779,-0.201 7.316,-0.253 5.853,-0.25 4.39,-0.253 2.926,-0.199 1.829,-0.14 0.732,-0.08 0,0 0,0" />
    </g>
    <g
       transform="matrix(1.25,0,0,-1.25,-1127.1808,181.78347)"
       id="g3846">
      <path
         id="path3848"
         style="fill:#461f18;fill-opacity:1;fill-rule:nonzero;stroke:none"
         d="M 0,0 C 0,0 0.323,0.08 0.808,0.14 1.293,0.199 1.94,0.253 2.586,0.25 3.233,0.253 3.879,0.201 4.364,0.141 4.849,0.081 5.172,0 5.172,0 5.172,0 4.849,-0.08 4.364,-0.141 3.879,-0.201 3.233,-0.253 2.586,-0.25 1.94,-0.253 1.293,-0.199 0.808,-0.14 0.323,-0.08 0,0 0,0" />
    </g>
    <g
       transform="matrix(1.25,0,0,-1.25,-1140.4055,170.78459)"
       id="g3850">
      <path
         id="path3852"
         style="fill:#461f18;fill-opacity:1;fill-rule:nonzero;stroke:none"
         d="M 0,0 C 0,0 0.527,0.08 1.319,0.14 2.11,0.199 3.165,0.253 4.219,0.25 5.274,0.253 6.329,0.201 7.12,0.141 7.911,0.081 8.439,0 8.439,0 8.439,0 7.911,-0.081 7.12,-0.141 6.329,-0.201 5.274,-0.253 4.219,-0.25 3.165,-0.253 2.11,-0.199 1.319,-0.14 0.527,-0.08 0,0 0,0" />
    </g>
    <g
       transform="matrix(1.25,0,0,-1.25,-1263.4983,175.45684)"
       id="g3854">
      <path
         id="path3856"
         style="fill:#461f18;fill-opacity:1;fill-rule:nonzero;stroke:none"
         d="M 0,0 C 0,0 0.323,0.08 0.808,0.14 1.293,0.199 1.94,0.253 2.586,0.25 3.233,0.253 3.879,0.201 4.364,0.141 4.849,0.081 5.172,0 5.172,0 5.172,0 4.849,-0.081 4.364,-0.141 3.879,-0.201 3.233,-0.253 2.586,-0.25 1.94,-0.253 1.293,-0.199 0.808,-0.14 0.323,-0.08 0,0 0,0" />
    </g>
    <g
       transform="matrix(1.25,0,0,-1.25,-1270.9844,178.86897)"
       id="g3858">
      <path
         id="path3860"
         style="fill:#461f18;fill-opacity:1;fill-rule:nonzero;stroke:none"
         d="M 0,0 C 0,0 0.527,0.08 1.319,0.14 2.11,0.199 3.165,0.253 4.219,0.25 5.274,0.253 6.329,0.201 7.12,0.141 7.911,0.08 8.439,0 8.439,0 8.439,0 7.911,-0.081 7.12,-0.141 6.329,-0.201 5.274,-0.253 4.219,-0.25 3.165,-0.253 2.11,-0.199 1.319,-0.14 0.527,-0.08 0,0 0,0" />
    </g>
    <g
       transform="matrix(1.25,0,0,-1.25,-1339.7411,234.02272)"
       id="g3862">
      <path
         id="path3864"
         style="fill:#6b4c46;fill-opacity:1;fill-rule:nonzero;stroke:none"
         d="M 0,0 14.027,-0.5 0,-1 0,0 Z" />
    </g>
    <g
       transform="matrix(1.25,0,0,-1.25,-1339.7411,228.57822)"
       id="g3866">
      <path
         id="path3868"
         style="fill:#6b4c46;fill-opacity:1;fill-rule:nonzero;stroke:none"
         d="M 0,0 14.027,-0.5 0,-1 0,0 Z" />
    </g>
    <g
       transform="matrix(1.25,0,0,-1.25,-1338.38,223.13384)"
       id="g3870">
      <path
         id="path3872"
         style="fill:#6b4c46;fill-opacity:1;fill-rule:nonzero;stroke:none"
         d="M 0,0 14.027,-0.5 0,-1 0,0 Z" />
    </g>
    <g
       transform="matrix(1.25,0,0,-1.25,-1337.0189,217.68935)"
       id="g3874">
      <path
         id="path3876"
         style="fill:#6b4c46;fill-opacity:1;fill-rule:nonzero;stroke:none"
         d="M 0,0 14.027,-0.5 0,-1 0,0 Z" />
    </g>
    <g
       transform="matrix(1.25,0,0,-1.25,-1335.6578,212.24497)"
       id="g3878">
      <path
         id="path3880"
         style="fill:#6b4c46;fill-opacity:1;fill-rule:nonzero;stroke:none"
         d="M 0,0 14.027,-0.5 0,-1 0,0 Z" />
    </g>
    <g
       transform="matrix(1.25,0,0,-1.25,-1332.9356,206.80047)"
       id="g3882">
      <path
         id="path3884"
         style="fill:#6b4c46;fill-opacity:1;fill-rule:nonzero;stroke:none"
         d="M 0,0 14.027,-0.5 0,-1 0,0 Z" />
    </g>
    <g
       transform="matrix(1.25,0,0,-1.25,-1330.2134,201.35597)"
       id="g3886">
      <path
         id="path3888"
         style="fill:#6b4c46;fill-opacity:1;fill-rule:nonzero;stroke:none"
         d="M 0,0 14.027,-0.5 0,-1 0,0 Z" />
    </g>
    <g
       transform="matrix(1.25,0,0,-1.25,-1327.4911,195.91159)"
       id="g3890">
      <path
         id="path3892"
         style="fill:#6b4c46;fill-opacity:1;fill-rule:nonzero;stroke:none"
         d="M 0,0 14.027,-0.5 0,-1 0,0 Z" />
    </g>
    <g
       transform="matrix(1.25,0,0,-1.25,-1323.4078,190.46709)"
       id="g3894">
      <path
         id="path3896"
         style="fill:#6b4c46;fill-opacity:1;fill-rule:nonzero;stroke:none"
         d="M 0,0 14.027,-0.5 0,-1 0,0 Z" />
    </g>
    <g
       transform="matrix(1.25,0,0,-1.25,-1319.3245,185.02272)"
       id="g3898">
      <path
         id="path3900"
         style="fill:#6b4c46;fill-opacity:1;fill-rule:nonzero;stroke:none"
         d="M 0,0 14.027,-0.5 0,-1 0,0 Z" />
    </g>
    <g
       transform="matrix(1.25,0,0,-1.25,-1313.88,179.57822)"
       id="g3902">
      <path
         id="path3904"
         style="fill:#6b4c46;fill-opacity:1;fill-rule:nonzero;stroke:none"
         d="M 0,0 14.027,-0.5 0,-1 0,0 Z" />
    </g>
    <g
       transform="matrix(1.25,0,0,-1.25,-1307.0745,174.13384)"
       id="g3906">
      <path
         id="path3908"
         style="fill:#6b4c46;fill-opacity:1;fill-rule:nonzero;stroke:none"
         d="M 0,0 14.027,-0.5 0,-1 0,0 Z" />
    </g>
    <g
       transform="matrix(1.25,0,0,-1.25,-1300.2689,168.68935)"
       id="g3910">
      <path
         id="path3912"
         style="fill:#6b4c46;fill-opacity:1;fill-rule:nonzero;stroke:none"
         d="M 0,0 14.027,-0.5 0,-1 0,0 Z" />
    </g>
    <g
       transform="matrix(1.25,0,0,-1.25,-1292.1022,163.24497)"
       id="g3914">
      <path
         id="path3916"
         style="fill:#6b4c46;fill-opacity:1;fill-rule:nonzero;stroke:none"
         d="M 0,0 14.027,-0.5 0,-1 0,0 Z" />
    </g>
    <g
       transform="matrix(1.25,0,0,-1.25,-1281.2134,157.80047)"
       id="g3918">
      <path
         id="path3920"
         style="fill:#6b4c46;fill-opacity:1;fill-rule:nonzero;stroke:none"
         d="M 0,0 14.027,-0.5 0,-1 0,0 Z" />
    </g>
    <g
       transform="matrix(1.25,0,0,-1.25,-1273.0467,153.71722)"
       id="g3922">
      <path
         id="path3924"
         style="fill:#6b4c46;fill-opacity:1;fill-rule:nonzero;stroke:none"
         d="M 0,0 14.027,-0.5 0,-1 0,0 Z" />
    </g>
    <g
       transform="matrix(1.25,0,0,-1.25,-1260.7968,149.63384)"
       id="g3926">
      <path
         id="path3928"
         style="fill:#6b4c46;fill-opacity:1;fill-rule:nonzero;stroke:none"
         d="M 0,0 14.027,-0.5 0,-1 0,0 Z" />
    </g>
    <g
       transform="matrix(1.25,0,0,-1.25,-1339.7411,240.32134)"
       id="g3930">
      <path
         id="path3932"
         style="fill:#6b4c46;fill-opacity:1;fill-rule:nonzero;stroke:none"
         d="M 0,0 14.027,-0.5 0,-1 0,0 Z" />
    </g>
    <g
       transform="matrix(1.25,0,0,-1.25,-1338.38,245.76583)"
       id="g3934">
      <path
         id="path3936"
         style="fill:#6b4c46;fill-opacity:1;fill-rule:nonzero;stroke:none"
         d="M 0,0 14.027,-0.5 0,-1 0,0 Z" />
    </g>
    <g
       transform="matrix(1.25,0,0,-1.25,-1337.0189,251.21021)"
       id="g3938">
      <path
         id="path3940"
         style="fill:#6b4c46;fill-opacity:1;fill-rule:nonzero;stroke:none"
         d="M 0,0 14.027,-0.5 0,-1 0,0 Z" />
    </g>
    <g
       transform="matrix(1.25,0,0,-1.25,-1335.6578,256.65472)"
       id="g3942">
      <path
         id="path3944"
         style="fill:#6b4c46;fill-opacity:1;fill-rule:nonzero;stroke:none"
         d="M 0,0 14.027,-0.5 0,-1 0,0 Z" />
    </g>
    <g
       transform="matrix(1.25,0,0,-1.25,-1332.9356,262.09909)"
       id="g3946">
      <path
         id="path3948"
         style="fill:#6b4c46;fill-opacity:1;fill-rule:nonzero;stroke:none"
         d="M 0,0 14.027,-0.5 0,-1 0,0 Z" />
    </g>
    <g
       transform="matrix(1.25,0,0,-1.25,-1330.2134,267.5436)"
       id="g3950">
      <path
         id="path3952"
         style="fill:#6b4c46;fill-opacity:1;fill-rule:nonzero;stroke:none"
         d="M 0,0 14.027,-0.5 0,-1 0,0 Z" />
    </g>
    <g
       transform="matrix(1.25,0,0,-1.25,-1327.4911,272.98808)"
       id="g3954">
      <path
         id="path3956"
         style="fill:#6b4c46;fill-opacity:1;fill-rule:nonzero;stroke:none"
         d="M 0,0 14.027,-0.5 0,-1 0,0 Z" />
    </g>
    <g
       transform="matrix(1.25,0,0,-1.25,-1323.4078,278.43247)"
       id="g3958">
      <path
         id="path3960"
         style="fill:#6b4c46;fill-opacity:1;fill-rule:nonzero;stroke:none"
         d="M 0,0 14.027,-0.5 0,-1 0,0 Z" />
    </g>
    <g
       transform="matrix(1.25,0,0,-1.25,-1319.3245,283.87684)"
       id="g3962">
      <path
         id="path3964"
         style="fill:#6b4c46;fill-opacity:1;fill-rule:nonzero;stroke:none"
         d="M 0,0 14.027,-0.5 0,-1 0,0 Z" />
    </g>
    <g
       transform="matrix(1.25,0,0,-1.25,-1313.88,289.32134)"
       id="g3966">
      <path
         id="path3968"
         style="fill:#6b4c46;fill-opacity:1;fill-rule:nonzero;stroke:none"
         d="M 0,0 14.027,-0.5 0,-1 0,0 Z" />
    </g>
    <g
       transform="matrix(1.25,0,0,-1.25,-1307.0745,294.76571)"
       id="g3970">
      <path
         id="path3972"
         style="fill:#6b4c46;fill-opacity:1;fill-rule:nonzero;stroke:none"
         d="M 0,0 14.027,-0.5 0,-1 0,0 Z" />
    </g>
    <g
       transform="matrix(1.25,0,0,-1.25,-1300.2689,300.21021)"
       id="g3974">
      <path
         id="path3976"
         style="fill:#6b4c46;fill-opacity:1;fill-rule:nonzero;stroke:none"
         d="M 0,0 14.027,-0.5 0,-1 0,0 Z" />
    </g>
    <g
       transform="matrix(1.25,0,0,-1.25,-1292.1022,305.65472)"
       id="g3978">
      <path
         id="path3980"
         style="fill:#6b4c46;fill-opacity:1;fill-rule:nonzero;stroke:none"
         d="M 0,0 14.027,-0.5 0,-1 0,0 Z" />
    </g>
    <g
       transform="matrix(1.25,0,0,-1.25,-1281.2134,311.09909)"
       id="g3982">
      <path
         id="path3984"
         style="fill:#6b4c46;fill-opacity:1;fill-rule:nonzero;stroke:none"
         d="M 0,0 14.027,-0.5 0,-1 0,0 Z" />
    </g>
    <g
       transform="matrix(1.25,0,0,-1.25,-1270.3245,316.5436)"
       id="g3986">
      <path
         id="path3988"
         style="fill:#6b4c46;fill-opacity:1;fill-rule:nonzero;stroke:none"
         d="M 0,0 14.027,-0.5 0,-1 0,0 Z" />
    </g>
    <g
       transform="matrix(1.25,0,0,-1.25,-1256.7134,320.62684)"
       id="g3990">
      <path
         id="path3992"
         style="fill:#6b4c46;fill-opacity:1;fill-rule:nonzero;stroke:none"
         d="M 0,0 14.027,-0.5 0,-1 0,0 Z" />
    </g>
    <g
       id="text174664"
       style="font-style:normal;font-weight:normal;font-size:40px;line-height:125%;font-family:sans-serif;text-align:start;letter-spacing:0px;word-spacing:0px;text-anchor:start;fill:#000000;fill-opacity:1;stroke:none;stroke-width:1px;stroke-linecap:butt;stroke-linejoin:miter;stroke-opacity:1"
       transform="matrix(0.99971461,0.0238893,-0.0238893,0.99971461,211.67006,-63.549768)">
      <path
         d="m -1344.3138,354.71607 -5.4605,9.12447 7.2447,1.36308 z m -1.0103,-2.90909 3.022,0.56857 3.8017,21.11465 -2.7712,-0.52139 -0.8437,-5.39181 -8.8811,-1.67095 -2.7456,4.71648 -2.8108,-0.52885 z m -10.9139,-0.28703 -0.3164,2.84255 c -0.8134,-0.94622 -1.7128,-1.68584 -2.6983,-2.21887 -0.9766,-0.53204 -2.0432,-0.86243 -3.1998,-0.99117 -2.2776,-0.25353 -4.0991,0.25077 -5.4646,1.5129 -1.3645,1.25323 -2.1933,3.19659 -2.4864,5.83006 -0.2921,2.62458 0.089,4.70262 1.1435,6.23411 1.0555,1.52259 2.722,2.41065 4.9996,2.66417 1.1566,0.12874 2.2698,0.041 3.3395,-0.26328 1.0785,-0.30328 2.1186,-0.82701 3.1202,-1.5712 l -0.3135,2.81586 c -1.0143,0.5356 -2.0687,0.90462 -3.1631,1.10706 -1.0855,0.20343 -2.2154,0.23978 -3.3898,0.10906 -3.016,-0.33572 -5.289,-1.52096 -6.8189,-3.55573 -1.5289,-2.04366 -2.1156,-4.66248 -1.7601,-7.85646 0.3565,-3.20287 1.5047,-5.62858 3.4446,-7.27712 1.9409,-1.65744 4.4194,-2.3183 7.4354,-1.98258 1.1922,0.1327 2.2954,0.41762 3.3096,0.85477 1.0241,0.42924 1.9636,1.0112 2.8185,1.74587 z m -36.6495,-4.37277 3.649,0.15721 8.159,17.13833 0.7219,-16.75569 2.6294,0.11329 -0.863,20.02902 -3.6489,-0.15721 -8.159,-17.13833 -0.7219,16.75569 -2.6294,-0.11328 z m -9.0284,0.0246 2.7124,-0.007 0.051,20.04754 -2.7124,0.007 z m -16.5992,0.48109 11.5115,-0.46746 0.093,2.28083 -8.8013,0.35741 0.2397,5.90334 7.9427,-0.32254 0.093,2.28084 -7.9427,0.32253 0.3885,9.56609 -2.7102,0.11006 -0.8134,-20.0311 z m -30.8912,3.25665 2.7016,-0.36305 1.6221,12.07045 c 0.2861,2.12929 0.8783,3.6123 1.7766,4.44901 0.8971,0.82783 2.2106,1.1255 3.9407,0.89301 1.7211,-0.2313 2.9051,-0.8646 3.5518,-1.8999 0.6455,-1.04417 0.8251,-2.6309 0.539,-4.76019 l -1.6221,-12.07045 2.7015,-0.36305 1.6668,12.40315 c 0.3481,2.59064 -0.032,4.63337 -1.141,6.12819 -1.0999,1.49363 -2.9008,2.40855 -5.4027,2.74478 -2.5108,0.33741 -4.4983,-0.0684 -5.9624,-1.21746 -1.4552,-1.15025 -2.3569,-3.0207 -2.705,-5.61134 z m -20.42,4.15156 16.5828,-3.55304 0.4783,2.23205 -6.9588,1.49099 3.7218,17.37064 -2.6653,0.57108 -3.7218,-17.37065 -6.9588,1.49098 z"
         style="font-style:normal;font-variant:normal;font-weight:normal;font-stretch:normal;font-size:27.5px;font-family:'Standard Symbols L';-inkscape-font-specification:'Standard Symbols L';fill:#461f18;fill-opacity:1"
         id="path174731" />
    </g>
    <g
       id="text174664-1"
       style="font-style:normal;font-weight:normal;font-size:40px;line-height:125%;font-family:sans-serif;text-align:start;letter-spacing:0px;word-spacing:0px;text-anchor:start;fill:#000000;fill-opacity:1;stroke:none;stroke-width:1px;stroke-linecap:butt;stroke-linejoin:miter;stroke-opacity:1"
       transform="matrix(0.95512376,0.29620702,-0.29620702,0.95512376,314.80331,233.85016)">
      <path
         id="path174736"
         style="font-style:normal;font-variant:normal;font-weight:normal;font-stretch:normal;font-size:12.5px;font-family:sans-serif;-inkscape-font-specification:sans-serif;fill:#461f18;fill-opacity:1"
         d="m -1499.7777,378.16161 5.0974,-2.68577 0.4837,0.91797 -4.0067,2.11106 1.2576,2.38673 3.8392,-2.02286 0.4837,0.91797 -3.8393,2.02287 1.5392,2.92131 4.1039,-2.16227 0.4837,0.91798 -5.1947,2.73698 -4.2477,-8.06197 z" />
      <path
         id="path174738"
         style="font-style:normal;font-variant:normal;font-weight:normal;font-stretch:normal;font-size:12.5px;font-family:sans-serif;-inkscape-font-specification:sans-serif;fill:#461f18;fill-opacity:1"
         d="m -1486.8862,372.40159 0.4696,1.10691 q -0.7773,-0.0349 -1.4148,0.0565 -0.6375,0.0914 -1.1712,0.31788 -0.9271,0.3933 -1.2803,0.96744 -0.3475,0.57175 -0.066,1.23477 0.236,0.55626 0.689,0.70218 0.4563,0.13792 1.463,-0.0836 l 0.745,-0.15034 q 1.3724,-0.2971 2.2334,0.0603 0.8643,0.34939 1.2981,1.37202 0.5173,1.21928 -0.036,2.1966 -0.5478,0.97494 -2.1266,1.64475 -0.5956,0.25267 -1.3271,0.40386 -0.7258,0.1488 -1.5571,0.18983 l -0.4958,-1.16872 q 0.8556,0.0945 1.602,0.01 0.7465,-0.0846 1.387,-0.35636 0.9721,-0.41237 1.3382,-1.01851 0.366,-0.60615 0.066,-1.31412 -0.2622,-0.61807 -0.7921,-0.80434 -0.5242,-0.18866 -1.4634,0.004 l -0.7483,0.15834 q -1.3771,0.28586 -2.1735,-0.0128 -0.7963,-0.29865 -1.2039,-1.25947 -0.472,-1.11252 0.037,-2.0844 0.5149,-0.97426 1.8915,-1.55825 0.59,-0.25029 1.2477,-0.40335 0.6578,-0.15306 1.3889,-0.21129 z" />
      <path
         id="path174740"
         style="font-style:normal;font-variant:normal;font-weight:normal;font-stretch:normal;font-size:12.5px;font-family:sans-serif;-inkscape-font-specification:sans-serif;fill:#461f18;fill-opacity:1"
         d="m -1485.3837,371.49362 7.2592,-2.59398 0.3492,0.97709 -3.0462,1.08853 2.7172,7.60405 -1.1668,0.41693 -2.7172,-7.60406 -3.0462,1.08853 -0.3492,-0.97709 z" />
      <path
         id="path174742"
         style="font-style:normal;font-variant:normal;font-weight:normal;font-stretch:normal;font-size:12.5px;font-family:sans-serif;-inkscape-font-specification:sans-serif;fill:#461f18;fill-opacity:1"
         d="m -1475.6775,376.13031 1.2272,-0.39033 0.4699,1.47737 -1.2273,0.39033 -0.4698,-1.47737 z" />
      <path
         id="path174744"
         style="font-style:normal;font-variant:normal;font-weight:normal;font-stretch:normal;font-size:12.5px;font-family:sans-serif;-inkscape-font-specification:sans-serif;fill:#461f18;fill-opacity:1"
         d="m -1467.6292,374.27773 1.9516,-0.49795 -1.7186,-6.73611 -2.0146,0.96752 -0.2776,-1.08819 2.0027,-0.9645 1.1946,-0.3048 1.9963,7.8243 1.9517,-0.49795 0.2565,1.00539 -5.0861,1.29768 -0.2565,-1.00539 z" />
      <path
         id="path174746"
         style="font-style:normal;font-variant:normal;font-weight:normal;font-stretch:normal;font-size:12.5px;font-family:sans-serif;-inkscape-font-specification:sans-serif;fill:#461f18;fill-opacity:1"
         d="m -1459.8568,373.2318 -0.2343,-1.09834 q 0.4995,0.11812 0.9893,0.13222 0.4898,0.0141 0.9375,-0.0814 1.1938,-0.25466 1.65,-1.18823 0.4608,-0.94082 0.2015,-2.59548 -0.2367,0.5872 -0.7094,0.97511 -0.4727,0.38791 -1.1174,0.52543 -1.3371,0.28521 -2.291,-0.35383 -0.9491,-0.64628 -1.2484,-2.04905 -0.2928,-1.37292 0.342,-2.37581 0.6348,-1.00289 1.9839,-1.29066 1.546,-0.32978 2.6112,0.68492 1.0699,1.00747 1.5512,3.26383 0.4495,2.10714 -0.2847,3.58056 -0.7294,1.46618 -2.4187,1.82652 -0.4537,0.0968 -0.9384,0.10655 -0.4847,0.01 -1.0243,-0.0623 z m 1.5936,-4.29038 q 0.8118,-0.17317 1.165,-0.8289 0.3591,-0.657 0.1528,-1.62402 -0.205,-0.96104 -0.8009,-1.41432 -0.5913,-0.46051 -1.4031,-0.28734 -0.8118,0.17317 -1.1697,0.83614 -0.3531,0.65573 -0.1481,1.61677 0.2063,0.96701 0.7963,1.42156 0.5959,0.45327 1.4077,0.28011 z" />
      <path
         id="path174748"
         style="font-style:normal;font-variant:normal;font-weight:normal;font-stretch:normal;font-size:12.5px;font-family:sans-serif;-inkscape-font-specification:sans-serif;fill:#461f18;fill-opacity:1"
         d="m -1450.2157,367.0939 q -0.8655,0.15289 -1.2826,0.70382 -0.4111,0.54987 -0.2678,1.36128 0.1433,0.81141 0.718,1.18716 0.5806,0.37468 1.4461,0.22179 0.8655,-0.15289 1.2826,-0.70382 0.4161,-0.55694 0.2738,-1.36234 -0.1433,-0.81142 -0.724,-1.1861 -0.5746,-0.37574 -1.4461,-0.22179 z m -1.3054,-0.30243 q -0.8154,-0.0543 -1.3486,-0.51173 -0.5273,-0.45848 -0.6632,-1.22782 -0.19,-1.07588 0.4629,-1.8358 0.6589,-0.76099 1.9932,-0.9967 1.3404,-0.23677 2.2141,0.25348 0.8738,0.49025 1.0638,1.56612 0.1359,0.76934 -0.2084,1.38177 -0.3382,0.61138 -1.0796,0.94068 0.9136,0.0493 1.5056,0.55838 0.598,0.50797 0.7498,1.36746 0.2304,1.30427 -0.4458,2.1427 -0.6703,0.83736 -2.1548,1.09961 -1.4846,0.26225 -2.4072,-0.29375 -0.9165,-0.55707 -1.1469,-1.86134 -0.1518,-0.85949 0.2359,-1.54159 0.3878,-0.6821 1.2292,-1.04147 z m -0.7835,-1.83876 q 0.1232,0.69721 0.6249,1.01144 0.5078,0.31318 1.2952,0.17409 0.7813,-0.13803 1.1511,-0.60621 0.3758,-0.46925 0.2526,-1.16647 -0.1232,-0.69721 -0.637,-1.00932 -0.5077,-0.31317 -1.2891,-0.17515 -0.7874,0.13909 -1.1571,0.60728 -0.3637,0.46712 -0.2406,1.16434 z" />
      <path
         id="path174750"
         style="font-style:normal;font-variant:normal;font-weight:normal;font-stretch:normal;font-size:12.5px;font-family:sans-serif;-inkscape-font-specification:sans-serif;fill:#461f18;fill-opacity:1"
         d="m -1445.8177,361.49876 5.7998,-0.83321 0.075,0.51956 -2.0533,8.9708 -1.2747,0.18313 1.9329,-8.43553 -4.3318,0.62231 -0.1475,-1.02706 z" />
    </g>
  </g>
</svg>
