<?xml version="1.0" encoding="UTF-8" standalone="no"?>
<svg
   xmlns:dc="http://purl.org/dc/elements/1.1/"
   xmlns:cc="http://creativecommons.org/ns#"
   xmlns:rdf="http://www.w3.org/1999/02/22-rdf-syntax-ns#"
   xmlns:svg="http://www.w3.org/2000/svg"
   xmlns="http://www.w3.org/2000/svg"
   xmlns:sodipodi="http://sodipodi.sourceforge.net/DTD/sodipodi-0.dtd"
   xmlns:inkscape="http://www.inkscape.org/namespaces/inkscape"
   version="1.1"
   id="svg4353"
   viewBox="0 0 139.62569 139.6257"
   height="39.405476mm"
   width="39.405472mm"
   inkscape:version="0.91 r"
   sodipodi:docname="vk_duck.svg">
  <sodipodi:namedview
     pagecolor="#ffffff"
     bordercolor="#666666"
     borderopacity="1"
     objecttolerance="10"
     gridtolerance="10"
     guidetolerance="10"
     inkscape:pageopacity="0"
     inkscape:pageshadow="2"
     inkscape:window-width="644"
     inkscape:window-height="480"
     id="namedview7155"
     showgrid="false"
     inkscape:zoom="1.6902332"
     inkscape:cx="-8.5787056"
     inkscape:cy="69.81285"
     inkscape:window-x="46"
     inkscape:window-y="26"
     inkscape:window-maximized="0"
     inkscape:current-layer="g4937" />
  <defs
     id="defs4355" />
  <metadata
     id="metadata4358">
    <rdf:RDF>
      <cc:Work
         rdf:about="">
        <dc:format>image/svg+xml</dc:format>
        <dc:type
           rdf:resource="http://purl.org/dc/dcmitype/StillImage" />
        <dc:title />
      </cc:Work>
    </rdf:RDF>
  </metadata>
  <g
     transform="translate(170.67496,10.790121)"
     id="layer1">
    <g
       transform="translate(-417.71648,-117.48995)"
       id="g5124">
      <g
         id="g4937"
         transform="translate(31.923307,-11.077623)">
        <path
           style="fill:#ffffff"
           d="M 65.583984 34.4375 C 56.796204 34.4375 49.312446 38.417259 43.541016 46.162109 C 35.449866 57.019879 34.547419 69.977208 40.730469 86.486328 C 43.130199 92.893758 42.779966 96.302758 39.509766 98.398438 L 38.583984 98.992188 L 39.933594 98.810547 C 40.676094 98.710637 42.200996 98.179729 43.322266 97.630859 C 44.807016 96.904059 45.309665 96.762005 45.171875 97.109375 C 45.067825 97.371705 44.908459 98.02596 44.818359 98.5625 L 44.654297 99.537109 L 45.96875 98.957031 C 49.25539 97.504731 52.025274 97.905406 58.652344 100.79102 C 65.181644 103.63407 67.946275 104.48248 72.484375 105.03711 C 74.110125 105.23581 76.125844 105.24093 77.527344 105.04883 L 78.90625 104.85938 L 77.195312 103.74414 C 74.772312 102.16567 70.71054 97.812056 68.34375 94.253906 C 63.41851 86.849486 60.600469 79.349799 60.605469 73.662109 L 60.607422 71.335938 L 57.845703 71.333984 C 56.326683 71.333064 54.542813 71.174056 53.882812 70.978516 L 52.683594 70.623047 L 54.898438 70.382812 C 57.882948 70.061212 59.407953 69.285982 64.533203 65.482422 C 70.196883 61.279272 71.343766 60.746084 75.072266 60.589844 C 78.146516 60.461024 78.613394 60.560051 83.433594 62.337891 C 88.077924 64.050881 90.304462 64.445485 96.257812 64.609375 C 101.73071 64.760035 102.93359 64.601492 102.93359 63.732422 C 102.93359 63.156782 101.58243 62.012618 98.625 60.085938 C 95.02392 57.739947 92.846854 55.90637 89.214844 52.15625 L 86.146484 48.986328 L 86.140625 50.111328 C 86.130875 51.950188 85.671106 51.398234 85.134766 48.902344 C 83.193106 39.866724 75.854414 34.4375 65.583984 34.4375 z M 71.816406 41.945312 C 72.552937 41.959574 73.194791 42.055711 73.546875 42.244141 C 73.862245 42.412921 74.252462 42.797649 74.414062 43.099609 C 74.670462 43.578739 74.607761 43.628417 73.925781 43.498047 C 73.395401 43.396657 73.212046 43.4586 73.353516 43.6875 C 73.577706 44.05025 73.054132 45.246542 72.513672 45.607422 C 71.422692 46.335892 69.933594 45.352617 69.933594 43.904297 C 69.933594 43.104227 69.886834 43.078441 68.808594 43.269531 C 68.189844 43.379191 67.430514 43.543366 67.121094 43.634766 C 66.105214 43.934786 66.933884 43.107599 68.246094 42.511719 C 69.098163 42.124794 70.588855 41.921544 71.816406 41.945312 z "
           transform="translate(215.11821,117.77745)"
           id="path4557" />
      </g>
      <rect
         style="opacity:0.63500007;fill:none;fill-opacity:1;stroke:none;stroke-width:0.37430161;stroke-miterlimit:4;stroke-dasharray:none;stroke-opacity:1"
         id="rect4988-3-6-5"
         width="139.62569"
         height="139.6257"
         x="247.04152"
         y="106.69983" />
    </g>
  </g>
</svg>
