<?xml version="1.0" encoding="UTF-8" standalone="no"?>
<svg
   xmlns:dc="http://purl.org/dc/elements/1.1/"
   xmlns:cc="http://creativecommons.org/ns#"
   xmlns:rdf="http://www.w3.org/1999/02/22-rdf-syntax-ns#"
   xmlns:svg="http://www.w3.org/2000/svg"
   xmlns="http://www.w3.org/2000/svg"
   xmlns:sodipodi="http://sodipodi.sourceforge.net/DTD/sodipodi-0.dtd"
   xmlns:inkscape="http://www.inkscape.org/namespaces/inkscape"
   width="39.405472mm"
   height="39.405476mm"
   viewBox="0 0 139.62569 139.6257"
   id="svg4353"
   version="1.1"
   inkscape:version="0.91 r"
   sodipodi:docname="vk_fish_02.svg">
  <sodipodi:namedview
     pagecolor="#ffffff"
     bordercolor="#666666"
     borderopacity="1"
     objecttolerance="10"
     gridtolerance="10"
     guidetolerance="10"
     inkscape:pageopacity="0"
     inkscape:pageshadow="2"
     inkscape:window-width="644"
     inkscape:window-height="480"
     id="namedview9"
     showgrid="false"
     inkscape:zoom="1.6902332"
     inkscape:cx="-8.5787045"
     inkscape:cy="69.812851"
     inkscape:window-x="46"
     inkscape:window-y="26"
     inkscape:window-maximized="0"
     inkscape:current-layer="layer1" />
  <defs
     id="defs4355" />
  <metadata
     id="metadata4358">
    <rdf:RDF>
      <cc:Work
         rdf:about="">
        <dc:format>image/svg+xml</dc:format>
        <dc:type
           rdf:resource="http://purl.org/dc/dcmitype/StillImage" />
        <dc:title />
      </cc:Work>
    </rdf:RDF>
  </metadata>
  <g
     id="layer1"
     transform="translate(186.89392,11.743727)">
    <g
       id="g5154"
       transform="translate(-557.3486,-266.44731)">
      <rect
         y="254.70358"
         x="370.45468"
         height="139.6257"
         width="139.62569"
         id="rect4988-3-7-2"
         style="opacity:0.63500007;fill:none;fill-opacity:1;stroke:none;stroke-width:0.37430161;stroke-miterlimit:4;stroke-dasharray:none;stroke-opacity:1" />
    </g>
    <path
       id="path4763"
       d="m -114.29694,18.359137 c -0.87572,0.541223 -1.41417,3.993231 -1.35166,8.663019 0.064,4.782713 -0.26162,5.369923 -0.26162,5.369923 0,0 -2.05106,2.029891 -3.12327,3.017714 -1.88724,2.152117 -3.67102,4.466307 -4.59886,7.006144 0.74536,0.742138 6.21737,-0.09639 11.40305,-1.746373 l 3.27933,-1.041856 1.65458,0.968421 c 2.44777,1.434493 4.84636,4.068175 5.63842,6.191478 0.65964,1.76833 0.70199,1.806525 1.16807,1.060214 0.648839,-1.038959 0.828389,-0.987336 1.746379,0.497982 0.68026,1.100712 0.83349,1.192355 1.12447,0.672387 0.52311,-0.934751 -0.0275,-4.089005 -1.01661,-5.831187 l -0.89499,-1.576554 0.90187,0.846796 c 2.16355,2.030855 2.56134,6.498329 0.89728,10.081229 -0.91907,1.978881 -4.423419,5.628289 -6.425549,6.69175 -0.87484,0.464684 -1.25733,0.880463 -1.13595,1.234625 0.13607,0.397035 0.0635,0.379599 -0.28456,-0.06655 -0.25725,-0.329784 -0.77183,-0.602195 -1.14513,-0.605838 -0.87126,-0.0086 -1.41522,-0.01733 -2.13878,-0.121626 -0.15764,-0.02272 -0.74949,-0.586241 -1.77162,-0.21342 -0.19692,0.07182 -1.28822,0.219679 -1.57426,-0.03672 -0.1294,-0.27859 -0.87928,-0.335753 -1.18414,-0.224895 -0.3843,0.205677 -0.74507,0.241039 -1.27592,0.181292 -0.19159,-0.07046 -0.6232,-0.196942 -1.48018,0.0046 -0.39377,0.330618 -0.91149,0.250496 -1.23691,0.275381 -1.90844,0.146025 -2.34402,0.389152 -3.65798,2.035522 -1.41469,1.772577 -3.14696,4.898922 -4.00678,7.231038 -0.25093,0.680567 -0.4683,0.954628 -0.48193,0.608134 -0.0204,-0.520129 -0.40941,-0.370671 -2.22828,0.851385 -6.54462,4.397113 -12.10674,9.666681 -15.2079,14.409292 -0.9496,1.452236 -2.10051,2.93307 -2.55645,3.288507 -0.85317,0.665108 -1.0622,1.788673 -0.49798,2.680372 0.209,0.330304 0.14608,0.755756 -0.1813,1.223143 -0.76048,1.085731 -0.60588,2.196877 0.46815,3.380306 0.83944,0.92495 1.32875,1.112544 3.6465,1.399845 1.69079,0.209495 3.89705,0.205547 5.99182,-0.0094 4.81426,-0.493494 14.72841,-2.61938 18.93473,-4.059573 l 3.63502,-1.243798 2.1801,1.376897 c 3.15155,1.988922 4.77438,2.763983 8.25454,3.942536 3.353239,1.135573 5.202989,1.333436 5.489249,0.587479 0.28917,-0.75356 -1.08247,-3.456773 -2.503669,-4.931603 -1.46709,-1.522452 -3.32525,-2.583145 -5.20699,-2.974112 l -1.27134,-0.26621 2.44629,-1.670637 c 4.893389,-3.343495 11.389509,-10.880144 13.638225,-15.82062 2.706527,-5.946287 3.728564,-13.947891 2.494494,-19.552031 -1.122225,-5.096201 -4.056729,-10.251005 -7.35037,-12.915354 -1.87174,-1.514127 -5.321039,-3.786485 -5.748569,-3.786485 -0.75044,0 -4.0225,-3.599371 -4.85588,-5.342386 -2.29297,-4.795794 -7.56373,-12.218396 -8.33714,-11.740399 z m 0.94317,2.120432 c 0.0567,-0.180593 1.24669,1.625411 3.18065,4.867354 1.25587,2.105259 2.21456,3.896621 2.12961,3.981547 -0.17397,0.173963 -4.07439,-6.086737 -4.97521,-7.986041 -0.24756,-0.521965 -0.35398,-0.802663 -0.33505,-0.86286 z m -0.35111,3.228839 c -0.0241,-0.204535 0.8484,0.883914 2.72397,3.391772 1.13287,1.514768 1.99345,2.818873 1.9139,2.898382 -0.16602,0.166029 -3.40474,-4.077653 -4.31888,-5.659073 -0.20282,-0.350873 -0.31097,-0.562903 -0.31899,-0.631081 z m -0.48191,2.742333 c -0.009,-0.09525 0.33537,0.170114 1.09693,0.883513 0.9313,0.872406 2.16957,2.180556 2.75151,2.907561 1.51239,1.889377 1.09958,1.634742 -1.14053,-0.704516 -1.6914,-1.766254 -2.69177,-2.927797 -2.70791,-3.086558 z m 0.0619,2.478426 c 0.27976,0.09063 1.6537,1.084591 2.44171,1.730309 0.90059,0.73796 1.63852,1.402006 1.63852,1.475581 0,0.226703 -0.13092,0.147805 -1.58574,-0.950063 -0.77547,-0.585199 -2.46378,-2.014224 -2.54038,-2.235173 -0.009,-0.02762 0.006,-0.0336 0.0459,-0.02066 z m -0.14916,2.053881 c 0,-0.156032 2.99895,1.444633 3.49504,1.865704 0.0807,0.06856 0.001,0.123389 -0.1767,0.121627 -0.42041,-0.0043 -3.31834,-1.739775 -3.31834,-1.987331 z m 8.54139,1.597209 c 0.18732,-0.0205 0.40823,-0.01 0.53929,0.114746 -2.36639,-0.312697 -3.75292,4.107927 -3.73142,6.301628 -0.26138,-0.610312 -0.0306,-1.848201 0.25244,-2.863959 0.44082,-1.582356 1.38988,-3.137485 2.59776,-3.478976 0,0 0.1546,-0.05293 0.34193,-0.07343 z m -8.47484,0.718284 c 0.12337,-0.0026 0.32471,0.01314 0.61042,0.05507 0.59007,0.08661 0.90056,0.187728 1.37003,0.417661 0.4559,0.31511 0.0183,0.206592 -1.12678,-0.06884 -0.88741,-0.213445 -1.2238,-0.396288 -0.85367,-0.403892 z m -0.1101,1.477876 c 0.38333,6.58e-4 0.75408,0.02175 1.01892,0.06196 0.52965,0.08044 0.0117,0.144395 -1.15202,0.14228 -1.1632,-0.002 -1.59737,-0.06842 -0.96382,-0.14687 0.31676,-0.03921 0.71359,-0.05803 1.09692,-0.05737 z m 0.78484,1.216266 c 0.37388,0.197269 -0.98922,0.469226 -2.07454,0.752707 -6.3251,1.543897 -0.97469,-0.01505 -0.32815,-0.197356 0.61536,-0.168251 1.5635,-0.455456 2.40269,-0.555351 z m 0.81237,1.592617 c 0.63432,-0.0042 -0.40096,0.371406 -2.78823,0.961539 -4.23141,1.045998 -4.75949,1.15388 -4.75949,0.970717 0,-0.240626 4.46707,-1.503759 6.34523,-1.794565 0.59452,-0.09205 0.99105,-0.136296 1.20249,-0.137691 z m 0.15375,1.484761 c 0.15738,-0.01948 0.25372,-0.02167 0.27539,0 0.0767,0.07678 -1.59731,0.641365 -3.71994,1.252982 -3.99718,1.151757 -5.83933,1.448036 -3.3757,0.543878 1.67058,-0.613108 5.71867,-1.660476 6.82025,-1.79686 z m 12.708829,9.062321 c -0.967439,0 -2.654349,4.368293 -2.994769,7.754262 l -0.19506,1.939139 2.12502,-2.196161 c 1.331499,-1.37572 2.279569,-2.711699 2.540389,-3.582244 0.37157,-1.240195 0.33226,-1.524822 -0.36489,-2.652834 -0.42937,-0.694745 -0.92979,-1.262162 -1.11069,-1.262162 z m 0.32586,0.991371 c 0.15004,-0.136074 -0.548269,1.579848 -0.812369,2.737743 -1.68066,5.829543 -0.47662,0.903004 -0.30062,0.254727 0.17202,-0.614311 0.55478,-2.068273 0.991369,-2.813473 0.0598,-0.102056 0.10022,-0.159559 0.12162,-0.178997 z m -0.727469,0.114746 c 0.13248,-0.06228 -0.63547,1.949317 -0.89957,3.107212 -1.68066,5.829543 -0.47662,0.903004 -0.30062,0.254727 0.17202,-0.614311 0.64657,-2.456101 1.08316,-3.2013 0.0598,-0.102057 0.0981,-0.151741 0.11702,-0.160639 z m 1.241509,0.296034 c 0.0828,-0.04088 -0.1821,0.69193 -0.40847,1.684413 -1.680659,5.829543 -0.47662,0.903004 -0.30063,0.254727 0.17203,-0.614312 0.31611,-1.150338 0.49568,-1.620156 0.11957,-0.204109 0.18583,-0.305358 0.21342,-0.318984 z m 0.47275,0.697631 c 0.0362,0.02283 0.0356,0.141241 -0.0367,0.362585 -1.680659,5.829543 -0.47662,0.903005 -0.30063,0.254728 0.11209,-0.432766 0.27708,-0.655361 0.33735,-0.617313 z m -19.171099,9.883874 c 0.22615,0 -0.15742,0.594822 -0.85367,1.321827 -0.69625,0.727005 -2.01534,2.431703 -2.93051,3.788779 -2.10547,3.122121 -2.23357,3.238523 -1.10841,0.998255 1.04061,-2.071938 4.27338,-6.108861 4.89259,-6.108861 z m 7.12089,0.0023 c 0.18246,-0.0018 -0.61063,0.564514 -1.76243,1.257571 -1.15181,0.693054 -2.40968,1.527182 -2.79741,1.851935 -0.70498,0.590459 -0.70498,0.588435 0,-0.245547 0.70227,-0.830791 3.92879,-2.857732 4.55984,-2.863959 z m -2.69414,0.02983 c 0.0466,-0.0016 0.0712,0.01806 0.0712,0.06195 0,0.06509 -1.14861,1.035312 -2.55415,2.157149 l -2.55645,2.040112 1.87717,-1.794564 c 1.44126,-1.378182 2.83604,-2.452776 3.16229,-2.464658 z m 5.3378,0.02754 c 0.17763,0.0638 -0.69508,0.534579 -1.94143,1.046447 -1.24637,0.511864 -2.2673,0.859743 -2.2673,0.77336 0,-0.269607 3.86817,-1.942138 4.20873,-1.819807 z m -7.98605,0.236368 c -0.0429,0.09777 -0.48388,0.567269 -1.36312,1.500824 -0.98642,1.047342 -2.13732,2.362051 -2.55645,2.921332 -1.18887,1.586404 -0.89358,0.692825 0.33734,-1.021204 0.60422,-0.841359 1.75282,-2.041188 2.55415,-2.666603 0.71426,-0.557466 1.07097,-0.832113 1.02808,-0.734349 z m 6.33606,1.99192 c 0.0941,0.03059 -0.30078,0.224725 -1.0671,0.509455 -1.02174,0.379639 -3.32936,1.38728 -5.12897,2.239763 -1.79961,0.852487 -4.217,2.146871 -5.36992,2.875434 -1.15293,0.728563 -1.85818,1.077025 -1.56737,0.775656 1.68859,-1.749955 9.79997,-5.767714 12.87175,-6.375064 0.14462,-0.0286 0.23022,-0.03544 0.26161,-0.02524 z m -13.49825,15.446565 c 0.0718,0.0035 0.19428,0.02937 0.36489,0.07567 1.32643,0.360747 2.39008,1.124458 3.06131,2.198451 0.33151,0.530435 1.00012,1.300643 1.48705,1.711949 l 0.88582,0.748119 -1.07858,2.072238 c -0.59288,1.13965 -1.44367,3.022578 -1.89095,4.185786 -0.44729,1.163209 -1.14566,2.487985 -1.55131,2.941989 -1.34908,1.509879 -2.15734,1.659122 -0.9822,0.181296 0.59445,-0.747555 1.55783,-2.570937 2.14109,-4.050397 0.58326,-1.479459 1.37463,-3.204532 1.75785,-3.834674 l 0.69534,-1.145125 -1.41592,-1.80604 c -0.77939,-0.992287 -1.9959,-2.172097 -2.70332,-2.622999 -0.74702,-0.476175 -0.98657,-0.668057 -0.77107,-0.656319 z m 28.316019,2.524315 c -0.48888,0.0215 -0.88384,0.09952 -1.06939,0.252439 -0.48693,0.401166 -0.38016,0.490686 0.81925,0.676976 l 1.379204,0.213419 -1.631624,0.05052 c -0.96692,0.02961 -1.80983,0.264883 -2.06995,0.578303 -0.35382,0.426357 -0.34422,0.527979 0.046,0.520929 0.44275,-0.0082 2.62803,-0.46197 4.360187,-0.904177 0.637991,-0.162884 0.64806,-0.14143 0.08953,0.208837 -0.339457,0.212855 -1.744009,0.600486 -3.120979,0.862854 -1.37696,0.262368 -2.6853,0.66707 -2.90756,0.899583 -0.53793,0.562757 2.02102,0.157138 4.59885,-0.729767 1.028594,-0.353862 1.870298,-0.564485 1.870298,-0.468138 0,0.384681 -2.788338,1.308327 -5.236818,1.734895 -1.42566,0.248375 -2.772547,0.636675 -2.994767,0.865157 -0.54998,0.565472 2.363147,0.144966 5.383687,-0.777951 2.136743,-0.652865 4.256931,-2.176539 4.256931,-3.059026 0,-0.535734 -2.306101,-0.989314 -3.772721,-0.924821 z m -29.348699,3.304568 c 0.1399,-0.0262 0.29311,0.876754 0.30751,2.519732 0.0106,1.167826 -0.23877,2.501145 -0.62878,3.350474 -0.3561,0.775473 -0.9603,1.68684 -1.34248,2.026344 -0.56016,0.497618 -0.49259,0.208226 0.34881,-1.489353 0.83284,-1.68033 1.05197,-2.602249 1.08546,-4.566731 0.021,-1.237031 0.12068,-1.82008 0.22948,-1.840466 z m -8.72038,0.757296 c 1.30768,0 1.7183,2.407817 0.60125,3.524873 -0.86959,0.86961 -1.14379,0.879973 -1.88407,0.06192 -1.14905,-1.269683 -0.32044,-3.58684 1.28282,-3.58684 z m 0.17211,0.791722 c -0.15666,0.0376 -0.27538,0.225204 -0.27538,0.589781 0,0.499357 -0.22513,0.734349 -0.70452,0.734349 -0.79899,0 -0.90369,0.365341 -0.28227,0.986776 0.91571,0.915704 2.18954,0.02996 1.98274,-1.3792 -0.0939,-0.63973 -0.45946,-0.99432 -0.72057,-0.931706 z m -7.48117,0.970714 c 0.0855,0 0.15604,0.159548 0.15604,0.353416 0,0.193868 -0.16874,0.353404 -0.37405,0.353404 -0.20526,0 -0.27587,-0.159536 -0.15605,-0.353404 0.11981,-0.193868 0.28852,-0.353416 0.37406,-0.353416 z m 28.85759,1.822113 c 0.23421,0.0035 0.50365,0.03125 0.82844,0.07567 2.4118,0.330575 2.88769,0.833703 0.61043,0.644852 -1.65097,-0.136918 -2.17373,-0.03537 -3.01312,0.585176 -0.55861,0.412998 -1.29828,0.738156 -1.6454,0.722881 -0.49452,-0.02174 -0.51751,-0.07214 -0.10328,-0.229481 0.2908,-0.110446 0.99682,-0.590381 1.56967,-1.067108 0.65924,-0.548564 1.05065,-0.744089 1.75325,-0.732046 z m -33.33942,0.79171 c 0.32804,0.03619 0.75373,0.145589 1.28282,0.325874 1.92496,0.655897 4.81233,2.692581 5.81512,4.100873 0.62231,0.873957 0.6394,1.019852 0.15145,1.207093 -0.91712,0.351935 -6.9711,0.219118 -7.63492,-0.167526 -0.78181,-0.45539 -0.79691,-1.598071 -0.0275,-2.028646 0.54718,-0.306241 0.54434,-0.42114 -0.0344,-1.640805 -0.63899,-1.346572 -0.5366,-1.905429 0.4475,-1.796863 z m 22.51238,0.693049 c 0.29288,0.292881 -0.94356,2.274142 -1.87719,3.008526 -1.36363,1.072631 -1.7956,0.900276 -0.58747,-0.234063 0.56781,-0.533137 1.3193,-1.41143 1.67064,-1.950618 0.35136,-0.539188 0.70907,-0.908795 0.79402,-0.823845 z m 12.81897,0.0023 c 1.15385,0.09928 5.36223,0.929321 5.58334,1.135949 0.0807,0.07543 -0.236,0.124886 -0.70451,0.107861 -1.14654,-0.04183 -5.35342,-1.04919 -5.16568,-1.236913 0.0196,-0.01962 0.12202,-0.02103 0.28685,-0.007 z m -28.75434,0.500273 1.19562,0.651737 c 1.33612,0.727969 3.21047,3.070623 3.21047,4.013668 0,0.759563 -0.65651,1.036359 -1.58802,0.667799 -0.59748,-0.236378 -0.61,-0.284176 -0.0872,-0.305207 1.28028,-0.05146 0.32702,-2.516948 -1.57885,-4.08252 l -1.15201,-0.945477 z m 28.18062,0.142288 c 0.16458,-0.04994 1.59235,0.280309 4.24776,0.984485 2.13255,0.565519 3.40196,1.0236 2.82035,1.0189 -1.13837,-0.0094 -3.72388,-0.65773 -5.99411,-1.503112 -0.81768,-0.304478 -1.17274,-0.470289 -1.074,-0.500273 z m -1.13364,0.436015 c 0.096,-0.09282 9.37795,2.850106 10.66871,3.382597 1.171639,0.483354 0.14398,0.335615 -2.49219,-0.355707 -2.40061,-0.62953 -8.3707,-2.839203 -8.17652,-3.02689 z m -0.0826,0.761889 c 0,-0.100929 1.1509,0.310213 2.55645,0.913342 1.40554,0.603141 3.9831,1.619432 5.72792,2.258128 3.613439,1.322696 3.365419,1.573538 -0.35341,0.357986 -2.61505,-0.854759 -7.93096,-3.220489 -7.93096,-3.529456 z m -0.45898,0.649435 c 0.14045,-0.02632 0.9855,0.324264 2.22141,0.9363 1.64788,0.816055 4.26418,2.00886 5.81513,2.648237 1.55094,0.639365 2.58334,1.157886 2.29254,1.152011 -1.48328,-0.02926 -8.41256,-3.134353 -10.22351,-4.580502 -0.12117,-0.0967 -0.15238,-0.147281 -0.10562,-0.156046 z"
       style="fill:#ffffff" />
  </g>
</svg>
