<?xml version="1.0" encoding="UTF-8" standalone="no"?>
<svg
   xmlns:dc="http://purl.org/dc/elements/1.1/"
   xmlns:cc="http://creativecommons.org/ns#"
   xmlns:rdf="http://www.w3.org/1999/02/22-rdf-syntax-ns#"
   xmlns:svg="http://www.w3.org/2000/svg"
   xmlns="http://www.w3.org/2000/svg"
   xmlns:sodipodi="http://sodipodi.sourceforge.net/DTD/sodipodi-0.dtd"
   xmlns:inkscape="http://www.inkscape.org/namespaces/inkscape"
   version="1.1"
   id="svg4353"
   viewBox="0 0 139.62569 139.6257"
   height="39.405476mm"
   width="39.405472mm"
   inkscape:version="0.91 r"
   sodipodi:docname="vk_fish.svg">
  <sodipodi:namedview
     pagecolor="#ffffff"
     bordercolor="#666666"
     borderopacity="1"
     objecttolerance="10"
     gridtolerance="10"
     guidetolerance="10"
     inkscape:pageopacity="0"
     inkscape:pageshadow="2"
     inkscape:window-width="644"
     inkscape:window-height="480"
     id="namedview10"
     showgrid="false"
     inkscape:zoom="1.6902332"
     inkscape:cx="-8.5787045"
     inkscape:cy="69.812851"
     inkscape:window-x="46"
     inkscape:window-y="26"
     inkscape:window-maximized="0"
     inkscape:current-layer="layer1" />
  <defs
     id="defs4355" />
  <metadata
     id="metadata4358">
    <rdf:RDF>
      <cc:Work
         rdf:about="">
        <dc:format>image/svg+xml</dc:format>
        <dc:type
           rdf:resource="http://purl.org/dc/dcmitype/StillImage" />
        <dc:title />
      </cc:Work>
    </rdf:RDF>
  </metadata>
  <g
     transform="translate(186.89392,11.743727)"
     id="layer1">
    <g
       transform="translate(-557.3486,-266.44731)"
       id="g5154">
      <rect
         style="opacity:0.63500007;fill:none;fill-opacity:1;stroke:none;stroke-width:0.37430161;stroke-miterlimit:4;stroke-dasharray:none;stroke-opacity:1"
         id="rect4988-3-7-2"
         width="139.62569"
         height="139.6257"
         x="370.45468"
         y="254.70358" />
    </g>
    <g
       transform="matrix(1.458915,0,0,1.458915,75.263152,146.35022)"
       id="g6850"
       style="fill:#ffffff">
      <path
         id="path6621"
         d="m -112.10088,-91.872184 c -0.26084,0.01112 -0.55262,0.03773 -0.88626,0.07765 -1.87011,0.223699 -5.6577,1.206356 -6.01099,1.559646 -0.11508,0.115039 -0.92476,0.208845 -1.80062,0.208845 -1.25032,0 -2.01164,0.225778 -3.54234,1.052258 -1.07227,0.57895 -2.05538,1.025516 -2.1835,0.992016 -0.12812,-0.03351 -2.29609,0.980957 -4.81817,2.254458 l -4.58523,2.31604 -0.9639,-0.720248 c -1.80172,-1.34426 -2.31415,-1.509288 -2.76452,-0.892948 -0.31814,0.43539 -0.8089,0.547549 -2.37495,0.547549 -1.3136,0 -1.97411,0.118331 -1.97465,0.353431 -0.002,0.68252 -1.48831,1.511653 -3.36027,1.874252 -1.04003,0.20146 -2.1938,0.427094 -2.56505,0.500694 -0.49098,0.09733 -0.67607,0.344733 -0.67607,0.907673 0,0.882031 -1.28544,2.228854 -2.67884,2.806024 -0.74815,0.30989 -0.85497,0.47056 -0.61315,0.9224 0.32839,0.6136 -0.0525,1.907714 -0.80727,2.741764 -0.25217,0.27865 -0.35709,0.670637 -0.23294,0.871527 0.13601,0.22011 0.1002,0.28872 -0.0897,0.17136 -0.1733,-0.10711 -0.63302,0.06996 -1.02146,0.393593 -0.38848,0.32362 -0.53287,0.593422 -0.3213,0.598422 0.67138,0.01742 0.93133,1.274575 0.4873,2.354865 -0.35604,0.866189 -0.34709,1.090391 0.0683,1.724312 0.29483,0.45002 0.42299,1.101432 0.33469,1.702892 -0.0823,0.56088 0.0338,1.244617 0.27444,1.611857 0.22981,0.35074 0.44833,1.02694 0.48463,1.50208 0.0519,0.67981 0.21174,0.863494 0.7497,0.863494 0.54458,0 0.7481,-0.243611 1.00138,-1.199521 0.47416,-1.789491 2.41902,-5.815635 3.96137,-8.199854 2.24503,-3.470471 6.80805,-7.954383 9.5038,-9.339132 0.93913,-0.482411 0.60667,-0.173526 -1.57437,1.464593 -4.73574,3.556881 -9.11612,9.77048 -11.30442,16.034231 -0.69718,1.995579 -1.27133,3.040114 -2.29462,4.178244 -3.93722,4.37914 -4.73179,9.321614 -2.12996,13.240254 1.10181,1.65944 2.9277,3.103392 4.09391,3.237102 1.07565,0.12332 1.08503,-0.613181 0.0415,-2.990771 -1.234,-2.811551 -1.5234,-4.265047 -1.482,-7.424717 l 0.0348,-2.700263 0.23696,3.085823 c 0.24527,3.19357 0.76687,5.228409 1.9452,7.58269 0.86826,1.73476 1.41335,2.191633 2.28257,1.915753 0.60449,-0.19186 0.58539,-0.134954 -0.17537,0.519436 -0.71609,0.61595 -0.86226,0.983475 -0.90366,2.289266 -0.0272,0.85598 0.0398,1.556966 0.1486,1.556966 0.10879,0 0.28925,0.775562 0.40029,1.724315 0.43829,3.744941 2.5119,5.907877 5.48353,5.717804 1.23805,-0.07917 1.49786,-0.210725 1.83944,-0.926414 0.49191,-1.030629 0.0894,-2.462399 -1.18747,-4.225099 -0.47063,-0.649681 -0.85476,-1.328624 -0.85413,-1.510109 6.2e-4,-0.181504 0.26284,0.0985 0.58236,0.622518 0.31952,0.524019 0.98791,1.254309 1.48602,1.622569 0.4981,0.368267 1.38817,1.585774 1.97733,2.70695 1.11167,2.115524 2.50536,3.742151 3.57982,4.176905 0.34267,0.138651 1.30435,0.26127 2.13665,0.271771 3.18016,0.03997 6.46725,-3.111134 7.51575,-7.203826 1.35317,-5.281928 -1.00729,-10.238522 -5.09529,-10.699302 -1.07114,-0.12073 -1.74568,0.04108 -3.46602,0.834042 -1.1747,0.54145 -2.09158,1.063598 -2.03758,1.160698 1.30904,2.35245 1.77159,3.781648 1.59043,4.914557 -0.25706,1.607554 -1.15467,3.030632 -2.39636,3.798038 -1.43247,0.885308 -1.7184,0.757501 -0.40163,-0.179394 3.33177,-2.37059 2.88323,-7.005271 -0.83806,-8.651012 -1.62387,-0.718149 -2.53425,-1.846261 -2.53425,-3.140711 0,-1.95009 -1.66082,1.044779 -2.08846,3.765909 l -0.27846,1.76983 0.075,-1.950562 c 0.15831,-4.12036 1.99691,-6.069754 9.17313,-9.723354 2.77641,-1.41354 5.77349,-3.056246 6.65895,-3.650776 1.12212,-0.753429 1.40965,-0.868676 0.94918,-0.378866 -0.36336,0.38651 -1.54006,1.243705 -2.61459,1.903705 -2.20905,1.356849 -2.49099,2.099864 -1.18479,3.127324 2.46168,1.93635 5.28517,-0.55951 6.11542,-5.40588 0.33769,-1.97113 0.3481,-1.984794 2.62797,-3.899783 8.93744,-7.507111 14.63977,-14.634826 16.99411,-21.240636 1.92382,-5.397839 0.92063,-9.244815 -1.35749,-5.206405 -1.65754,2.93824 -1.6199,2.929477 -1.6199,0.410997 0,-2.25623 -0.013,-2.291815 -0.93176,-2.751135 -0.52654,-0.263198 -1.03017,-0.364038 -1.81267,-0.330672 z m 1.70289,1.546258 c 0.49935,0 0.63165,1.33173 0.32264,3.25049 -0.34289,2.12919 -1.22804,3.45349 -3.54636,5.30815 -2.25823,1.80657 -2.18484,1.766164 -2.18484,1.218264 0,-0.83417 1.19881,-4.129156 2.16342,-5.945396 0.90498,-1.70396 2.70711,-3.831508 3.24514,-3.831508 z m -10.79436,1.847478 c 1.13565,-0.0512 1.7859,0.369533 1.7859,1.155343 0,0.265459 -0.205,0.744017 -0.45518,1.064307 -0.42257,0.54098 -0.42995,0.525217 -0.10576,-0.232943 0.44504,-1.04074 -0.005,-1.652433 -1.33741,-1.819364 l -0.95185,-0.119148 1.0643,-0.0482 z m -1.37489,0.376189 c 0.0923,-0.01102 -0.062,0.201544 -0.47125,0.755056 -0.653,0.88324 -0.65734,0.926677 -0.1245,1.515467 0.6325,0.6989 0.51424,0.783741 -0.28114,0.202152 -0.69064,-0.505011 -0.4567,-1.679324 0.44581,-2.237055 0.23063,-0.142526 0.3757,-0.229005 0.43108,-0.23562 z m 1.37891,0.476595 c 0.49498,0 0.67526,0.875358 0.27846,1.353479 -0.61244,0.737939 -1.7966,0.53243 -1.7966,-0.311929 0,-0.226441 0.29443,-0.302668 0.79923,-0.206169 0.65032,0.124321 0.7635,0.06091 0.60913,-0.341381 -0.10434,-0.2719 -0.0552,-0.494 0.10978,-0.494 z m 5.20239,1.799283 c 0.0525,0 -0.86981,1.461652 -2.04963,3.247812 -2.98843,4.52427 -3.56148,6.741629 -1.61587,6.253309 0.38489,-0.0966 1.20486,-0.638218 1.82204,-1.203538 0.61719,-0.56532 1.12187,-0.955372 1.12187,-0.866172 0,0.43952 -1.63452,2.222568 -2.40038,2.618598 -2.53341,1.31008 -3.14764,-0.471246 -1.3508,-3.918526 0.863,-1.65568 4.12807,-6.131483 4.47277,-6.131483 z m -15.65536,1.65068 -0.78317,1.166053 c -0.54027,0.80541 -0.78183,1.565474 -0.78183,2.452593 0,0.706881 -0.1623,1.986469 -0.36013,2.84351 -0.42364,1.835309 -0.27997,2.010538 2.44188,2.982738 0.91737,0.32767 2.07273,0.823653 2.56773,1.101793 5.01613,2.81854 6.38135,3.1795 8.9857,2.380301 1.95909,-0.60118 2.05161,-0.418106 0.19278,0.381544 -0.81936,0.352479 -2.00525,0.635552 -2.63466,0.630552 -1.53087,-0.0131 -3.84199,-0.843667 -5.49424,-1.975997 -0.7425,-0.508861 -2.09264,-1.166289 -3.00014,-1.460579 -3.56769,-1.15693 -4.33682,-1.842871 -3.87435,-3.45264 0.11851,-0.412501 0.22859,-1.274904 0.24499,-1.915754 0.0464,-1.80951 0.63148,-3.375526 1.60517,-4.294716 l 0.89027,-0.839398 z m -10.61898,0.244992 c -0.0342,-0.03318 0.24074,0.0035 0.79789,0.08434 0.65665,0.0953 1.53338,0.358724 1.94923,0.585034 0.4158,0.22631 0.60982,0.416046 0.43107,0.423046 -0.17875,0.0066 -0.40335,-0.06599 -0.49935,-0.161989 -0.096,-0.09603 -0.82753,-0.364893 -1.62524,-0.597084 -0.67686,-0.197004 -1.0194,-0.300166 -1.0536,-0.333349 z m 12.66325,0.961224 c 0.0973,-0.01227 0.18261,0.415111 0.18743,1.376237 0.011,2.18828 0.60491,3.826455 1.78187,4.917235 1.08335,1.00402 0.71539,0.958297 -0.49667,-0.06158 -1.22156,-1.02787 -1.7886,-2.37935 -1.7618,-4.20368 0.0187,-1.269771 0.16408,-2.012431 0.28917,-2.028209 z m -18.46005,1.077695 2.70026,0.101745 c 1.485,0.05625 3.03747,0.242214 3.44997,0.413675 0.74398,0.30924 0.40342,0.37756 -0.7497,0.14994 -0.33,-0.06513 -1.68015,-0.241695 -3.00015,-0.392255 l -2.40038,-0.273105 z m 3.89979,2.688214 -2.85021,0.392254 c -1.5675,0.2163 -3.32228,0.47755 -3.89978,0.57968 -0.88235,0.156049 -0.83456,0.111647 0.29988,-0.275783 0.7425,-0.25358 2.49862,-0.513441 3.90112,-0.578341 l 2.54899,-0.11781 z m -3.3509,2.704278 c 0.4496,-0.03459 -0.01,0.21848 -1.44853,0.693474 -1.155,0.38134 -2.90978,1.056969 -3.89978,1.502079 -0.99,0.44507 -1.66574,0.67751 -1.50074,0.515419 0.56075,-0.55086 3.53933,-1.915793 5.07253,-2.324073 0.90906,-0.242073 1.50676,-0.366147 1.77652,-0.386899 z m -1.85149,3.302701 c 0.14816,0.02556 -0.23166,0.25891 -1.24772,0.681424 -0.9075,0.37737 -2.25764,1.052851 -3.00014,1.500741 l -1.34946,0.813961 1.04422,-0.917045 c 0.57397,-0.50449 1.76003,-1.185049 2.636,-1.51279 1.09355,-0.409144 1.76893,-0.591851 1.9171,-0.566291 z m 28.75103,0.218216 c 0.2436,1.39e-4 0.52399,0.0086 0.84074,0.02544 1.27129,0.06776 2.05574,0.183002 1.74305,0.255702 -0.42738,0.09935 -0.47127,0.191472 -0.17671,0.373512 0.26566,0.16419 0.0136,0.348109 -0.78184,0.568969 -1.37014,0.380401 -2.4337,0.388874 -3.27324,0.02811 -0.42244,-0.18153 0.0208,-0.275523 1.4994,-0.318623 2.02001,-0.05884 2.04548,-0.06873 0.67607,-0.259717 -2.131,-0.297212 -2.23265,-0.674364 -0.52747,-0.673393 z m -9.94826,0.143247 0.20215,1.073679 c 0.28173,1.501719 0.64112,2.074784 1.74171,2.773894 0.83379,0.529629 0.8604,0.582566 0.20617,0.410996 -1.13425,-0.29746 -2.40038,-1.806052 -2.40038,-2.860912 0,-0.86572 -0.027,-0.884619 -0.67473,-0.463208 -0.37125,0.24155 -2.13278,0.909754 -3.91451,1.486014 -3.8322,1.23944 -5.73384,2.284486 -6.52776,3.586516 -2.11244,3.46443 2.28219,6.851286 7.63223,5.881136 3.16909,-0.57467 5.3316,-2.036605 6.79952,-4.595935 0.48375,-0.84342 0.87956,-1.39799 0.87956,-1.23299 0,0.165 -0.40608,1.00928 -0.90366,1.87693 -1.06302,1.85359 -3.12559,3.481418 -5.21979,4.120678 -1.57224,0.47992 -5.17531,0.565206 -6.54114,0.153957 -1.38054,-0.415691 -2.9209,-1.515017 -3.38705,-2.416447 -0.2435,-0.47088 -0.44178,-1.487404 -0.44178,-2.259813 0,-1.25299 0.13681,-1.542508 1.2785,-2.684198 1.12812,-1.12812 1.70602,-1.408122 4.87574,-2.368252 1.97746,-0.59898 4.22477,-1.403064 4.99488,-1.785895 l 1.40034,-0.69615 z m -3.44863,3.061725 c 0.11702,0.03431 -0.59105,0.524074 -1.74172,1.192828 -1.31505,0.7643 -2.95805,1.854172 -3.65077,2.421802 -1.82172,1.492769 -2.01642,1.245499 -0.27846,-0.353431 1.41891,-1.305409 3.98518,-2.801222 5.56921,-3.246472 0.0516,-0.01449 0.085,-0.01963 0.10174,-0.01473 z m 1.37624,0.686779 c 0.0737,0.01737 -0.25079,0.315018 -1.02816,0.981306 -0.825,0.707109 -2.29309,2.105442 -3.26254,3.107242 -1.40012,1.446841 -1.64644,1.615529 -1.19952,0.816639 0.67153,-1.20039 3.50708,-3.871233 4.93999,-4.652162 0.31786,-0.173235 0.506,-0.263447 0.55023,-0.253025 z m -19.43868,0.06024 c 0.19892,0 0.30432,0.03868 0.23562,0.08568 -0.0687,0.047 -0.7989,0.6019 -1.6239,1.23299 l -1.50074,1.14731 1.26378,-1.23299 c 0.69486,-0.6781 1.42635,-1.232991 1.62524,-1.232991 z m 20.43605,0.789864 c 0.11313,-0.04506 -0.16309,0.300029 -0.87822,1.160698 -0.68551,0.825 -1.73019,2.23831 -2.3214,3.14205 -1.2082,1.84693 -1.39427,1.813664 -0.43375,-0.07899 0.75917,-1.4959 1.67463,-2.633335 3.01888,-3.748505 0.338,-0.280399 0.54661,-0.44822 0.61449,-0.475257 z m 2.11389,1.143294 c 0.0927,-0.007 0.0647,0.243248 -0.0803,0.792541 -0.14877,0.56346 -0.33831,1.361346 -0.42171,1.773846 -0.0834,0.4125 -0.10785,0.09793 -0.0536,-0.700167 0.0543,-0.7981 0.24385,-1.597325 0.42171,-1.775185 0.0578,-0.0578 0.10297,-0.08871 0.13388,-0.09103 z m -1.59446,0.06694 c 0.13404,-0.01692 -0.0642,0.557989 -0.51274,1.455223 -0.49339,0.98692 -0.98435,1.997587 -1.09108,2.245086 -0.1067,0.247501 -0.11494,0.04518 -0.0187,-0.44982 0.23205,-1.1939 0.97208,-2.730891 1.54492,-3.206311 0.033,-0.02737 0.0585,-0.04176 0.0776,-0.04418 z m 2.76988,0.271766 c 0.0995,0.0093 0.16065,0.208572 0.16065,0.555582 0,0.89932 -0.0859,0.966886 -0.35209,0.273105 -0.10557,-0.275089 -0.0695,-0.622669 0.0803,-0.77246 0.0408,-0.04078 0.0779,-0.05933 0.11112,-0.05623 z m -24.9637,2.527563 c 0.0155,0.01548 -0.0758,0.13828 -0.2624,0.37619 -0.39191,0.49973 -0.63858,0.657906 -0.63858,0.410997 0,-0.06229 0.23604,-0.298331 0.52479,-0.524791 0.23791,-0.18658 0.3607,-0.27788 0.37619,-0.262396 z m 28.87018,2.889027 c -0.38286,-0.0295 -0.89009,0.968156 -1.22094,2.846186 -0.19229,1.09152 -0.34942,2.138182 -0.34942,2.325412 0,0.39262 0.0741,0.408066 0.73632,0.153956 0.76649,-0.29413 1.36383,-1.755651 1.35883,-3.32412 -0.004,-1.334126 -0.22702,-1.978489 -0.52479,-2.001434 z m -2.32675,3.182213 c 0.18043,-0.04445 -0.36167,1.598729 -0.86484,2.571742 -0.27232,0.526609 -0.54397,0.957208 -0.60377,0.957208 -0.14221,0 1.18214,-3.25721 1.42175,-3.49682 0.0187,-0.01867 0.0348,-0.02917 0.0469,-0.03213 z m -28.54888,1.005402 c 0.0492,-0.02239 -0.0225,0.122225 -0.19814,0.424385 -0.23976,0.412499 -0.70799,1.558983 -1.04155,2.548983 -0.33356,0.99 -0.74784,2.407582 -0.91972,3.150083 l -0.31193,1.3508 0.1486,-1.650681 c 0.20004,-2.21172 0.86523,-4.155865 1.79527,-5.249245 0.30842,-0.36259 0.47826,-0.551932 0.52747,-0.574325 z m 27.47386,0.315945 c 0.079,0.0056 -0.0705,0.352045 -0.52479,1.087067 -0.3435,0.55578 -0.91534,1.271287 -1.27048,1.590437 -0.35903,0.32264 -0.13014,-0.170664 0.51542,-1.111164 0.69862,-1.017804 1.17831,-1.573586 1.27985,-1.56634 z m -1.61855,0.09237 -0.84208,0.757734 c -0.46295,0.41684 -1.05956,0.757734 -1.32536,0.757734 -0.57492,0 -0.56573,-0.0073 0.96658,-0.852785 l 1.20086,-0.662683 z m 0.72159,0.115133 c 0.009,0.01522 -0.0316,0.07907 -0.12183,0.190102 -0.33,0.40611 -0.87086,0.982087 -1.20086,1.279847 -0.33,0.29777 -0.86952,0.692313 -1.19952,0.876883 -0.33,0.18455 -0.53232,0.274374 -0.44982,0.199474 1.95514,-1.774305 2.93244,-2.612269 2.97203,-2.546306 z m -26.81118,1.811331 c 0.0579,0.05178 -0.0345,0.573277 -0.32131,1.526177 -0.24145,0.80227 -0.44893,1.875626 -0.46053,2.385656 -0.0116,0.51003 -0.14902,1.197516 -0.30523,1.527516 -0.4758,1.00516 -0.0451,-2.532505 0.50471,-4.146114 0.31584,-0.92693 0.52441,-1.345017 0.58236,-1.293235 z m 0.0201,3.269232 c 0.0472,0.02134 0.0627,0.553795 0.083,1.720296 0.0216,1.2375 0.18401,2.768887 0.36012,3.403107 0.17613,0.63422 0.26057,1.212063 0.18877,1.283862 -0.14154,0.141541 -0.69553,-1.886647 -0.91169,-3.337507 -0.0738,-0.495 -0.0307,-1.506603 0.095,-2.249103 0.0922,-0.544368 0.14802,-0.837251 0.18475,-0.820655 z m 0.81797,2.4874 c 0.0399,0.03534 0.10819,0.307733 0.23429,0.844753 0.15015,0.63948 0.60412,1.821022 1.00808,2.625292 0.74216,1.4776 0.80103,1.786433 0.20616,1.069663 -0.66002,-0.79528 -1.53301,-3.083911 -1.51011,-3.95735 0.0109,-0.415691 0.0217,-0.617698 0.0616,-0.582358 z m 21.37451,3.009514 c 0.0404,0.0447 -0.30498,0.257885 -0.92374,0.55826 -0.825,0.4005 -1.63428,0.730636 -1.79928,0.733636 -0.45245,0.0078 1.68918,-1.065439 2.54899,-1.277169 0.10312,-0.0254 0.16056,-0.02963 0.17403,-0.01473 z m 2.37629,1.325365 -1.06431,0.412336 c -0.58566,0.2268 -1.66604,0.496432 -2.40038,0.598421 l -1.33474,0.184748 1.06431,-0.412336 c 0.58566,-0.2268 1.66603,-0.496432 2.40038,-0.598422 l 1.33474,-0.184747 z m 0.7497,1.859526 c 1.21466,0.0083 1.26093,0.03225 0.45116,0.238298 -0.495,0.12592 -1.7777,0.22691 -2.8502,0.22491 l -1.95057,-0.0054 1.50075,-0.232943 c 0.825,-0.12852 2.10636,-0.22991 2.84886,-0.22491 z m -18.78403,0.366818 c 0.0721,-0.01553 -0.0719,0.259211 -0.4458,0.921061 -0.87129,1.54224 -0.99324,1.667861 -0.7256,0.749701 0.12024,-0.4125 0.48546,-1.019462 0.81128,-1.349462 0.19602,-0.198555 0.31687,-0.311979 0.36012,-0.3213 z m 0.35343,1.071001 c 0.0841,0 -0.006,0.295717 -0.19947,0.657327 -0.19353,0.361611 -0.45694,1.003634 -0.58503,1.425769 -0.15488,0.510414 -0.24128,0.586628 -0.25838,0.227587 -0.0264,-0.552349 0.76724,-2.310683 1.04288,-2.310683 z m 16.1815,0.352092 c 1.65,-0.0234 3.20246,0.08772 3.44996,0.247669 0.51907,0.33545 -2.50498,0.33545 -4.9507,0 -1.22986,-0.16867 -0.95897,-0.212769 1.50074,-0.247669 z m -15.94186,1.348124 c 0.0689,0.0018 0.0645,0.303678 -0.0201,0.850104 -0.30251,1.954185 -0.70789,2.912206 -0.50739,1.199522 0.0966,-0.824997 0.29294,-1.701724 0.4351,-1.949223 0.0392,-0.0683 0.0694,-0.100993 0.0924,-0.100403 z m 14.16667,0.100403 c 0.83685,6.03e-4 5.58465,0.858858 5.76868,1.042892 0.21104,0.211047 -0.24357,0.169043 -3.36294,-0.315947 -2.54418,-0.395561 -3.64286,-0.727843 -2.40574,-0.726945 z m -12.47716,1.049582 0.44714,1.736365 c 0.24552,0.955169 0.5944,2.013147 0.77514,2.350843 0.18073,0.337703 0.25167,0.690808 0.15797,0.784515 -0.28478,0.284773 -1.08239,-1.943636 -1.23567,-3.452641 l -0.14458,-1.419082 z m 12.13712,0.51408 c 0.17134,-0.171339 4.92745,1.305731 5.56519,1.728333 0.2475,0.163998 0.31494,0.28818 0.14994,0.27578 -0.65335,-0.04921 -5.84831,-1.870932 -5.71513,-2.004113 z m -13.23624,0.0482 c 0.041,0.0017 0.11021,0.481187 0.24365,1.522159 0.14702,1.146462 0.22167,2.224064 0.16467,2.395027 -0.17867,0.535987 -0.50826,-1.638711 -0.46856,-3.091181 0.0147,-0.538928 0.0283,-0.8273 0.0602,-0.826005 z m 2.34148,0.610468 c 0.18369,0.130953 0.95631,1.208789 1.565,2.202246 0.33461,0.546118 0.0611,0.458772 -0.4699,-0.14994 -0.50436,-0.578211 -1.13527,-1.715508 -1.13527,-2.046953 0,-0.02293 0.0139,-0.02406 0.0402,-0.0054 z m 9.61223,0.344057 c 0.51739,0.04526 4.68075,1.85178 5.43534,2.380303 0.35522,0.248891 0.51389,0.447113 0.35343,0.439107 -0.43174,-0.02162 -5.84098,-2.61909 -5.84098,-2.80468 0,-0.01355 0.0177,-0.01775 0.0522,-0.01473 z m -1.10179,0.909018 c 0.0603,-0.02929 0.53649,0.189045 1.4994,0.720247 2.31854,1.27904 4.04973,2.37286 4.04973,2.558354 0,0.254182 -0.14964,0.178975 -2.72704,-1.369545 -1.86977,-1.123383 -2.92267,-1.860253 -2.82209,-1.909056 z m -1.15802,0.651971 c 0.0369,-0.0032 0.16547,0.07148 0.40698,0.243653 0.92204,0.657297 5.10065,4.114181 5.10065,4.219746 0,0.270125 -0.40304,-0.0012 -2.48339,-1.674779 -1.6178,-1.301453 -3.18432,-2.774617 -3.02424,-2.78862 z m -0.71355,0.713551 c 0.0282,-9.6e-4 0.0761,0.02009 0.14324,0.06159 0.31771,0.196359 3.43603,3.991665 3.79804,4.62271 0.49964,0.870955 -0.15414,0.240219 -1.80062,-1.736366 -1.58752,-1.905827 -2.33778,-2.941213 -2.14066,-2.94793 z m -1.44585,0.353433 c 0.0496,0.01487 0.22698,0.216086 0.56629,0.615828 0.40199,0.473585 1.02448,1.385365 1.38427,2.025526 0.3598,0.64016 0.58445,1.164715 0.49935,1.164715 -0.19883,0 -1.78402,-2.320643 -2.25446,-3.300021 -0.16724,-0.348184 -0.2451,-0.520928 -0.19545,-0.506048 z"
         style="fill:#ffffff" />
    </g>
  </g>
</svg>
