<?xml version="1.0" encoding="UTF-8" standalone="no"?>
<svg
   xmlns:dc="http://purl.org/dc/elements/1.1/"
   xmlns:cc="http://creativecommons.org/ns#"
   xmlns:rdf="http://www.w3.org/1999/02/22-rdf-syntax-ns#"
   xmlns:svg="http://www.w3.org/2000/svg"
   xmlns="http://www.w3.org/2000/svg"
   xmlns:sodipodi="http://sodipodi.sourceforge.net/DTD/sodipodi-0.dtd"
   xmlns:inkscape="http://www.inkscape.org/namespaces/inkscape"
   version="1.1"
   id="svg4353"
   viewBox="0 0 139.62569 139.6257"
   height="39.405476mm"
   width="39.405472mm"
   inkscape:version="0.91 r"
   sodipodi:docname="vk_goat.svg">
  <sodipodi:namedview
     pagecolor="#ffffff"
     bordercolor="#666666"
     borderopacity="1"
     objecttolerance="10"
     gridtolerance="10"
     guidetolerance="10"
     inkscape:pageopacity="0"
     inkscape:pageshadow="2"
     inkscape:window-width="644"
     inkscape:window-height="480"
     id="namedview7166"
     showgrid="false"
     inkscape:zoom="1.6902332"
     inkscape:cx="-8.5787056"
     inkscape:cy="69.81285"
     inkscape:window-x="46"
     inkscape:window-y="26"
     inkscape:window-maximized="0"
     inkscape:current-layer="g4949" />
  <defs
     id="defs4355" />
  <metadata
     id="metadata4358">
    <rdf:RDF>
      <cc:Work
         rdf:about="">
        <dc:format>image/svg+xml</dc:format>
        <dc:type
           rdf:resource="http://purl.org/dc/dcmitype/StillImage" />
        <dc:title />
      </cc:Work>
    </rdf:RDF>
  </metadata>
  <g
     transform="translate(212.82092,24.202533)"
     id="layer1">
    <g
       transform="translate(-175.40381,-280.02515)"
       id="g5136">
      <g
         id="g4949"
         transform="translate(-40.182242,21.551366)">
        <path
           style="fill:#ffffff"
           d="M 59.458984 34.496094 C 58.672836 34.500325 57.891222 34.54859 57.119141 34.644531 C 53.290351 35.120321 48.281117 36.837758 48.904297 37.460938 C 48.996197 37.552837 49.941076 37.483091 51.003906 37.306641 C 53.376116 36.912811 56.549233 37.13991 58.939453 37.875 L 60.736328 38.429688 L 56.494141 38.298828 C 50.012261 38.099748 45.772279 39.297237 41.537109 42.523438 C 39.684949 43.934338 37.296427 46.552296 37.591797 46.847656 C 37.683327 46.939186 39.012665 46.398091 40.546875 45.644531 C 44.426815 43.738831 46.515429 43.259385 50.386719 43.390625 C 53.089039 43.482225 53.777239 43.616695 55.230469 44.328125 C 57.752799 45.562925 57.925644 46.054804 55.552734 45.246094 C 52.685724 44.268704 49.241755 44.266204 48.109375 45.240234 C 47.398775 45.851464 47.325749 46.075086 47.511719 47.066406 C 47.805089 48.630156 49.664511 50.549296 52.119141 51.822266 C 54.281771 52.943816 55.955548 53.542879 59.986328 54.636719 L 62.537109 55.328125 L 57.886719 55.240234 L 53.236328 55.152344 L 51.578125 56.822266 C 50.665385 57.740716 47.867008 60.939867 45.361328 63.929688 C 42.855638 66.919508 40.026356 70.080448 39.072266 70.955078 C 36.947246 72.903158 34.167711 74.735046 32.644531 75.191406 C 32.018511 75.378966 31.570737 75.634066 31.648438 75.759766 C 31.895898 76.160146 36.0266 76.718023 37.375 76.533203 L 38.673828 76.355469 L 37.470703 77.443359 C 36.808613 78.041509 36.304662 78.626721 36.351562 78.744141 C 36.398463 78.861591 37.269973 79.648048 38.289062 80.492188 C 40.425893 82.262218 42.949508 85.417818 46.486328 90.742188 C 51.301738 97.991357 54.12719 101.15102 58.1875 103.83008 C 59.26 104.53775 60.237578 105.12386 60.361328 105.13086 C 60.485078 105.138 60.585938 104.25207 60.585938 103.16211 C 60.585938 98.500439 63.269475 92.524344 67.296875 88.214844 C 68.057015 87.401484 68.646522 86.723984 68.607422 86.708984 C 67.968042 86.465534 64.877862 84.132212 64.326172 83.476562 C 63.250982 82.198742 63.414178 81.990826 64.861328 82.791016 C 65.562578 83.178766 66.93326 83.724516 67.90625 84.003906 C 69.72523 84.526236 70.646084 84.521634 80.464844 83.958984 C 84.129854 83.748954 84.585938 83.923277 84.585938 85.529297 C 84.585938 86.229977 84.725939 86.542969 85.037109 86.542969 C 85.463499 86.542969 85.651563 87.546798 85.501953 89.017578 C 85.472583 89.306328 85.592208 89.542969 85.767578 89.542969 C 85.942948 89.542969 86.085938 89.984611 86.085938 90.525391 C 86.085938 91.066171 86.270051 91.776093 86.494141 92.101562 C 86.718231 92.427032 86.995125 93.202832 87.109375 93.826172 C 87.223625 94.449512 87.428393 94.890741 87.564453 94.806641 C 87.700513 94.722551 87.98045 95.258517 88.1875 95.998047 C 88.39897 96.753327 88.745683 97.34375 88.976562 97.34375 C 89.202623 97.34375 89.386719 97.550617 89.386719 97.804688 C 89.386719 98.395748 90.420413 100.43252 90.939453 100.86328 C 91.260873 101.13001 91.317722 100.93936 91.232422 99.867188 C 91.166592 99.039518 91.250701 98.542969 91.457031 98.542969 C 91.642271 98.542969 91.787109 98.01695 91.787109 97.34375 C 91.787109 96.68375 91.920937 96.142578 92.085938 96.142578 C 92.250938 96.142578 92.386719 95.391829 92.386719 94.474609 C 92.386719 93.439189 92.50125 92.877077 92.6875 92.992188 C 92.87258 93.106577 92.986328 92.589798 92.986328 91.642578 C 92.986328 90.695358 93.102039 90.178579 93.287109 90.292969 C 93.458449 90.398869 93.595422 90.116056 93.607422 89.634766 C 93.628052 88.810156 94.117275 87.300348 94.171875 87.892578 C 94.187095 88.057578 94.457594 87.626957 94.771484 86.935547 L 95.341797 85.679688 L 96.488281 85.996094 C 98.193633 86.466974 101.60735 86.154518 103.09375 85.392578 C 103.78545 85.038008 104.73201 84.245709 105.19531 83.630859 C 105.65862 83.016039 106.28467 82.259842 106.58789 81.951172 C 107.55189 80.969872 107.98633 79.448877 107.98633 77.054688 C 107.98633 74.185578 107.38864 73.058471 104.52148 70.519531 C 103.41955 69.543741 100.58854 66.490858 98.230469 63.736328 C 95.872397 60.981798 93.178147 57.943055 92.242188 56.984375 C 91.006687 55.718905 90.358963 54.740039 89.876953 53.412109 C 88.061373 48.410259 83.113401 43.702816 78.019531 42.128906 C 76.816471 41.757186 75.661109 41.138187 74.917969 40.466797 C 70.686399 36.643826 64.962021 34.466476 59.458984 34.496094 z M 79.644531 56.107422 C 80.970574 56.029528 82.322978 56.48825 83.232422 57.4375 L 84.099609 58.34375 L 83.214844 58.34375 C 82.655774 58.34375 82.194011 58.563889 81.957031 58.943359 C 81.703951 59.348599 81.256138 59.542969 80.580078 59.542969 C 79.566918 59.542969 78.972413 59.090519 78.314453 57.818359 C 78.122453 57.447109 77.734122 57.140672 77.451172 57.138672 C 77.008712 57.134712 76.999649 57.092061 77.386719 56.837891 C 78.063106 56.393756 78.848906 56.154158 79.644531 56.107422 z "
           transform="translate(2.765132,234.27125)"
           id="path4565" />
      </g>
      <rect
         style="opacity:0.63500007;fill:none;fill-opacity:1;stroke:none;stroke-width:0.37430161;stroke-miterlimit:4;stroke-dasharray:none;stroke-opacity:1"
         id="rect4988-2"
         width="139.62569"
         height="139.6257"
         x="-37.417114"
         y="255.82262" />
    </g>
  </g>
</svg>
