<?xml version="1.0" encoding="UTF-8" standalone="no"?>
<svg
   xmlns:dc="http://purl.org/dc/elements/1.1/"
   xmlns:cc="http://creativecommons.org/ns#"
   xmlns:rdf="http://www.w3.org/1999/02/22-rdf-syntax-ns#"
   xmlns:svg="http://www.w3.org/2000/svg"
   xmlns="http://www.w3.org/2000/svg"
   xmlns:sodipodi="http://sodipodi.sourceforge.net/DTD/sodipodi-0.dtd"
   xmlns:inkscape="http://www.inkscape.org/namespaces/inkscape"
   version="1.1"
   id="svg4353"
   viewBox="0 0 139.62569 139.6257"
   height="39.405476mm"
   width="39.405472mm"
   inkscape:version="0.91 r"
   sodipodi:docname="vk_pig.svg">
  <sodipodi:namedview
     pagecolor="#ffffff"
     bordercolor="#666666"
     borderopacity="1"
     objecttolerance="10"
     gridtolerance="10"
     guidetolerance="10"
     inkscape:pageopacity="0"
     inkscape:pageshadow="2"
     inkscape:window-width="644"
     inkscape:window-height="480"
     id="namedview7212"
     showgrid="false"
     inkscape:zoom="1.6902332"
     inkscape:cx="-8.5787056"
     inkscape:cy="69.81285"
     inkscape:window-x="46"
     inkscape:window-y="26"
     inkscape:window-maximized="0"
     inkscape:current-layer="g4941" />
  <defs
     id="defs4355" />
  <metadata
     id="metadata4358">
    <rdf:RDF>
      <cc:Work
         rdf:about="">
        <dc:format>image/svg+xml</dc:format>
        <dc:type
           rdf:resource="http://purl.org/dc/dcmitype/StillImage" />
        <dc:title />
      </cc:Work>
    </rdf:RDF>
  </metadata>
  <g
     transform="translate(156.92558,-0.20923626)"
     id="layer1">
    <g
       transform="translate(-257.17648,-108.91687)"
       id="g5118">
      <g
         id="g4941"
         transform="translate(-10.410442,-7.5389119)">
        <path
           style="fill:#ffffff"
           d="M 39.474609 34.191406 C 39.420865 34.169807 39.390625 34.171737 39.390625 34.201172 C 39.390625 34.963792 41.631853 38.360132 43.345703 40.195312 L 45.380859 42.375 L 44.150391 41.951172 C 43.473801 41.718062 42.318921 41.44476 41.582031 41.34375 L 40.242188 41.160156 L 41.886719 42.806641 C 46.146609 47.066541 47.17435 52.846629 45.6875 64.199219 C 45.34174 66.839219 44.845667 70.619609 44.585938 72.599609 C 43.989568 77.145989 43.922614 85.635717 44.458984 88.648438 C 45.355064 93.681608 47.697264 99.391128 50.458984 103.27344 C 51.309944 104.46969 52.135609 105.44922 52.292969 105.44922 C 52.450329 105.44922 53.290556 104.91058 54.160156 104.25195 C 58.266396 101.14189 64.265704 100.12691 73.589844 100.96484 C 79.116724 101.46148 83.649614 101.42767 86.339844 100.86914 C 87.659844 100.5951 89.987109 100.23646 91.511719 100.07422 C 94.761129 99.728439 96.078953 99.1805 97.251953 97.6875 C 99.715983 94.55129 100.90962 90.115848 99.84375 88.054688 C 99.32199 87.045717 98.519118 86.720276 97.173828 86.972656 C 95.961118 87.200166 93.564386 85.814796 90.103516 82.884766 C 86.361506 79.716726 85.145774 77.992199 83.808594 73.949219 C 82.397724 69.683449 80.955292 66.289124 79.482422 63.777344 C 78.662342 62.378774 78.455536 61.793996 78.722656 61.628906 C 78.924496 61.504166 80.181455 61.308809 81.515625 61.193359 C 83.785815 60.996929 91.424269 59.24032 92.412109 58.6875 C 92.739499 58.50428 92.322074 58.185808 90.839844 57.492188 C 89.730194 56.972917 88.758134 56.548828 88.677734 56.548828 C 88.520224 56.548828 84.691406 54.106379 84.691406 54.005859 C 84.691406 53.972569 85.637069 53.562986 86.792969 53.097656 C 87.948879 52.632326 88.833666 52.191088 88.759766 52.117188 C 88.685836 52.043247 87.571423 51.612023 86.283203 51.158203 C 84.994993 50.704383 81.712734 49.288349 78.990234 48.011719 C 71.157684 44.338899 66.716131 43.117599 62.744141 43.542969 C 61.204061 43.707909 61.166891 43.694483 61.806641 43.220703 C 62.172791 42.949553 63.048526 42.470107 63.753906 42.154297 L 65.037109 41.580078 L 63.916016 41.111328 C 61.945216 40.287878 59.560393 39.784756 53.939453 39.003906 C 45.613383 37.847266 42.823649 37.000786 40.449219 34.916016 C 40.012659 34.532706 39.635842 34.256203 39.474609 34.191406 z M 77.197266 72.083984 C 78.454326 72.048244 78.985126 72.611087 77.941406 72.873047 C 77.238446 73.049477 77.170746 73.174999 77.347656 73.980469 C 77.683566 75.509839 76.130244 76.601835 74.808594 75.765625 C 74.511964 75.577945 74.254537 75.651034 73.992188 75.996094 C 73.651817 76.443724 73.607609 76.40858 73.599609 75.6875 C 73.577769 73.8308 75.268136 72.138784 77.197266 72.083984 z "
           transform="translate(110.66134,116.66502)"
           id="path4553" />
      </g>
      <rect
         style="opacity:0.63500007;fill:none;fill-opacity:1;stroke:none;stroke-width:0.37430161;stroke-miterlimit:4;stroke-dasharray:none;stroke-opacity:1"
         id="rect4988-3-3"
         width="139.62569"
         height="139.6257"
         x="100.2509"
         y="109.12611" />
    </g>
  </g>
</svg>
