<?xml version="1.0" encoding="UTF-8" standalone="no"?>
<svg
   xmlns:dc="http://purl.org/dc/elements/1.1/"
   xmlns:cc="http://creativecommons.org/ns#"
   xmlns:rdf="http://www.w3.org/1999/02/22-rdf-syntax-ns#"
   xmlns:svg="http://www.w3.org/2000/svg"
   xmlns="http://www.w3.org/2000/svg"
   xmlns:sodipodi="http://sodipodi.sourceforge.net/DTD/sodipodi-0.dtd"
   xmlns:inkscape="http://www.inkscape.org/namespaces/inkscape"
   version="1.1"
   id="svg4353"
   viewBox="0 0 139.62569 139.6257"
   height="39.405476mm"
   width="39.405472mm"
   inkscape:version="0.91 r"
   sodipodi:docname="vk_roster.svg">
  <sodipodi:namedview
     pagecolor="#ffffff"
     bordercolor="#666666"
     borderopacity="1"
     objecttolerance="10"
     gridtolerance="10"
     guidetolerance="10"
     inkscape:pageopacity="0"
     inkscape:pageshadow="2"
     inkscape:window-width="644"
     inkscape:window-height="480"
     id="namedview7234"
     showgrid="false"
     inkscape:zoom="1.6902332"
     inkscape:cx="-8.5787056"
     inkscape:cy="69.81285"
     inkscape:window-x="46"
     inkscape:window-y="26"
     inkscape:window-maximized="0"
     inkscape:current-layer="g4925" />
  <defs
     id="defs4355" />
  <metadata
     id="metadata4358">
    <rdf:RDF>
      <cc:Work
         rdf:about="">
        <dc:format>image/svg+xml</dc:format>
        <dc:type
           rdf:resource="http://purl.org/dc/dcmitype/StillImage" />
        <dc:title />
      </cc:Work>
    </rdf:RDF>
  </metadata>
  <g
     transform="translate(166.18506,-7.448399)"
     id="layer1">
    <g
       transform="translate(-415.42952,39.006165)"
       id="g5092">
      <g
         id="g4925"
         transform="translate(35.452394,-40.192954)">
        <path
           style="fill:#ffffff"
           d="M 77.476562 30.878906 C 77.309705 30.919316 77.156152 31.059936 76.945312 31.320312 C 76.668143 31.662604 76.353031 32.500719 76.244141 33.181641 C 75.895591 35.361371 74.124124 36.440632 72.365234 35.544922 C 72.004834 35.361392 70.832266 34.356243 69.759766 33.3125 C 67.422376 31.037773 66.439429 30.673017 65.699219 31.802734 C 65.287799 32.43064 65.230487 32.951194 65.398438 34.519531 C 65.783588 38.115991 65.250034 38.376301 61.427734 36.457031 C 57.433644 34.451511 55.892891 35.141138 57.587891 38.173828 C 58.012361 38.933298 58.359375 39.604316 58.359375 39.666016 C 58.359375 39.727736 57.830094 39.777344 57.183594 39.777344 C 55.574614 39.777344 55.114236 40.002731 54.572266 41.050781 C 54.030326 42.098771 54.211728 43.626463 55.048828 45.064453 C 55.397628 45.663603 55.499901 46.149012 55.332031 46.414062 C 54.506561 47.717352 55.556966 49.891572 58.160156 52.263672 L 60.082031 54.015625 L 64.605469 54.021484 C 67.501489 54.025624 69.247867 54.148798 69.460938 54.361328 C 69.704257 54.604048 69.430013 54.743136 68.439453 54.878906 C 65.204833 55.322256 61.480669 57.445282 58.230469 60.701172 C 54.529669 64.408462 51.365983 69.832758 46.908203 80.111328 C 44.491963 85.682581 43.105829 88.32891 41.693359 90.0625 L 40.6875 91.296875 L 42.078125 91.037109 C 43.579655 90.756599 44.531466 90.246005 45.853516 89.015625 L 46.697266 88.232422 L 46.083984 89.580078 C 45.057994 91.842072 45.087985 91.876554 48.234375 92.052734 C 51.578445 92.239994 53.64092 92.957898 56.65625 94.986328 L 58.810547 96.435547 L 63.814453 100.65234 L 65.0625 101.6543 C 69.65206 105.33996 73.560286 107.35691 78.009766 108.33594 L 78.009766 108.33398 C 79.846866 108.7382 87.061089 108.91642 88.287109 108.58789 C 88.950309 108.41017 88.940977 108.38129 87.873047 107.19922 C 87.272877 106.5349 86.396718 105.13863 85.923828 104.0957 C 84.290098 100.49258 82.662156 93.663298 82.660156 90.396484 C 82.659296 89.110834 82.575218 88.931461 81.835938 88.650391 C 80.263238 88.052451 77.467131 85.37076 77.931641 84.90625 C 78.007021 84.83087 78.845855 85.125157 79.796875 85.560547 C 81.294175 86.246047 81.813539 86.335144 83.667969 86.214844 C 86.090889 86.057654 87.394187 85.502532 89.060547 83.919922 C 90.477407 82.574262 90.991284 81.620248 91.365234 79.648438 C 91.687914 77.947018 91.181679 74.763579 90.324219 73.105469 C 90.060479 72.595439 89.979531 72.177734 90.144531 72.177734 C 90.603071 72.177734 91.359375 70.519332 91.359375 69.513672 C 91.359375 69.021222 91.221184 68.25557 91.052734 67.8125 L 90.748047 67.005859 L 93.529297 67.146484 C 95.058997 67.223794 96.90215 67.501069 97.625 67.761719 L 98.9375 68.234375 L 98.765625 66.777344 C 98.573385 65.154314 97.791026 63.435808 96.597656 62.017578 C 95.968856 61.270288 95.907085 61.078125 96.296875 61.078125 C 96.566545 61.078125 97.118438 60.746797 97.523438 60.341797 C 98.504647 59.360567 98.490952 57.752836 97.476562 54.634766 C 97.046182 53.311796 96.633041 52.026797 96.556641 51.779297 C 96.439011 51.398197 96.3587 51.408896 96.03125 51.853516 C 95.12822 53.079706 94.732004 52.202188 94.583984 48.642578 L 94.509766 46.857422 L 93.458984 46.841797 L 92.410156 46.828125 L 92.410156 44.681641 C 92.410156 43.500581 92.305927 42.428451 92.179688 42.300781 C 92.053477 42.173121 91.508447 42.498467 90.966797 43.023438 C 90.425177 43.548417 89.823439 43.978516 89.630859 43.978516 C 88.978129 43.978516 88.588791 42.691269 88.457031 40.105469 C 88.291031 36.847529 88.150003 36.177734 87.632812 36.177734 C 87.404142 36.177734 86.863038 36.783968 86.429688 37.523438 C 84.791428 40.318907 83.631339 40.047171 81.761719 36.431641 C 80.118159 33.253282 78.91157 31.480657 78.09375 31.042969 C 77.82449 30.898865 77.64342 30.838496 77.476562 30.878906 z M 82.861328 55.716797 C 83.655294 55.810536 84.488729 56.336931 85.552734 57.322266 L 87.009766 58.671875 L 85.884766 58.220703 C 84.778366 57.777563 84.759766 57.781637 84.759766 58.466797 C 84.759766 58.849977 84.591016 59.384297 84.384766 59.654297 C 84.178516 59.924307 83.644669 60.234467 83.199219 60.341797 C 82.571169 60.493137 82.2183 60.364784 81.625 59.771484 C 80.78997 58.936454 80.649705 58.12313 81.234375 57.5 C 81.543865 57.17015 81.427117 57.132003 80.560547 57.283203 L 79.509766 57.466797 L 80.410156 56.716797 C 81.313866 55.963777 82.067362 55.623058 82.861328 55.716797 z "
           transform="translate(213.79207,8.635188)"
           id="path4537" />
      </g>
      <rect
         style="opacity:0.63500007;fill:none;fill-opacity:1;stroke:none;stroke-width:0.37430161;stroke-miterlimit:4;stroke-dasharray:none;stroke-opacity:1"
         id="rect4988-3-6"
         width="139.62569"
         height="139.6257"
         x="249.24446"
         y="-31.557766" />
    </g>
  </g>
</svg>
