<?xml version="1.0" encoding="UTF-8" standalone="no"?>
<svg
   xmlns:dc="http://purl.org/dc/elements/1.1/"
   xmlns:cc="http://creativecommons.org/ns#"
   xmlns:rdf="http://www.w3.org/1999/02/22-rdf-syntax-ns#"
   xmlns:svg="http://www.w3.org/2000/svg"
   xmlns="http://www.w3.org/2000/svg"
   xmlns:sodipodi="http://sodipodi.sourceforge.net/DTD/sodipodi-0.dtd"
   xmlns:inkscape="http://www.inkscape.org/namespaces/inkscape"
   width="39.405472mm"
   height="39.405476mm"
   viewBox="0 0 139.62569 139.6257"
   id="svg4353"
   version="1.1"
   inkscape:version="0.91 r"
   sodipodi:docname="vk_settings.svg">
  <sodipodi:namedview
     pagecolor="#ffffff"
     bordercolor="#666666"
     borderopacity="1"
     objecttolerance="10"
     gridtolerance="10"
     guidetolerance="10"
     inkscape:pageopacity="0"
     inkscape:pageshadow="2"
     inkscape:window-width="1328"
     inkscape:window-height="750"
     id="namedview9"
     showgrid="false"
     inkscape:zoom="1.6902332"
     inkscape:cx="59.459243"
     inkscape:cy="69.812851"
     inkscape:window-x="38"
     inkscape:window-y="18"
     inkscape:window-maximized="1"
     inkscape:current-layer="layer1" />
  <defs
     id="defs4355" />
  <metadata
     id="metadata4358">
    <rdf:RDF>
      <cc:Work
         rdf:about="">
        <dc:format>image/svg+xml</dc:format>
        <dc:type
           rdf:resource="http://purl.org/dc/dcmitype/StillImage" />
        <dc:title />
      </cc:Work>
    </rdf:RDF>
  </metadata>
  <g
     id="layer1"
     transform="translate(186.89392,11.743727)">
    <g
       id="g5154"
       transform="translate(-557.3486,-266.44731)">
      <rect
         y="254.70358"
         x="370.45468"
         height="139.6257"
         width="139.62569"
         id="rect4988-3-7-2"
         style="opacity:0.63500007;fill:none;fill-opacity:1;stroke:none;stroke-width:0.37430161;stroke-miterlimit:4;stroke-dasharray:none;stroke-opacity:1" />
    </g>
    <path
       id="path6214"
       d="m -120.85209,87.830953 c -0.15319,-0.107291 -0.72139,-0.886442 -1.26268,-1.731433 -0.54128,-0.844991 -1.14903,-1.633742 -1.35053,-1.752778 -0.53088,-0.313595 -4.35333,-0.316834 -4.79987,-0.0043 -0.16674,0.116801 -0.78048,0.924792 -1.36385,1.795551 -1.05625,1.5766 -1.23784,1.75348 -1.80021,1.75348 -0.49754,0 -5.36322,-2.139075 -5.69373,-2.503103 -0.38039,-0.418979 -0.37783,-0.607231 0.0336,-2.467293 0.54793,-2.477252 0.58696,-2.339083 -1.16179,-4.111542 -0.93741,-0.950125 -1.63566,-1.548253 -1.86663,-1.598977 -0.20296,-0.04456 -1.16158,0.07349 -2.13029,0.262374 -2.091,0.407711 -2.185,0.411704 -2.5498,0.108338 -0.31411,-0.261207 -2.43377,-5.352036 -2.43377,-5.845215 0,-0.512247 0.32212,-0.821437 1.92651,-1.849185 0.84499,-0.541283 1.63374,-1.149027 1.75278,-1.350533 0.31359,-0.530876 0.31683,-4.35333 0.004,-4.79987 -0.1168,-0.166742 -0.92479,-0.78048 -1.79555,-1.363844 -1.57659,-1.05625 -1.75348,-1.237847 -1.75348,-1.800213 0,-0.497542 2.13907,-5.363229 2.50311,-5.693731 0.42252,-0.383614 0.6564,-0.379208 2.5619,0.04825 2.30004,0.515961 2.33551,0.505195 4.08635,-1.240218 0.87858,-0.875853 1.48279,-1.589925 1.53098,-1.809366 0.0438,-0.199379 -0.0749,-1.155089 -0.2638,-2.123796 -0.41835,-2.145536 -0.41971,-2.232801 -0.0407,-2.611768 0.33597,-0.335977 5.29723,-2.371802 5.78003,-2.371802 0.50476,0 0.79474,0.30308 1.83608,1.919032 0.5472,0.849126 1.15976,1.641251 1.36125,1.760275 0.53085,0.313579 4.35332,0.316805 4.79983,0.0041 0.16675,-0.116796 0.78048,-0.92479 1.36386,-1.795545 1.05625,-1.5766 1.23784,-1.753481 1.80021,-1.753481 0.49754,0 5.36322,2.139072 5.69373,2.503099 0.38227,0.421056 0.37871,0.616906 -0.0451,2.48282 -0.52642,2.317284 -0.49737,2.423457 1.10519,4.040509 1.8742,1.891125 1.68902,1.829333 4.11483,1.373216 2.6788,-0.503681 2.44613,-0.652862 3.68425,2.362162 0.10619,0.258601 0.24477,0.59108 0.30795,0.738845 0.48149,1.126121 0.94164,2.432486 0.94164,2.673335 0,0.487448 -0.3153,0.786458 -1.91903,1.81993 -0.84913,0.547197 -1.64152,1.160202 -1.76086,1.362235 -0.31424,0.531979 -0.3295,4.294776 -0.0194,4.768159 0.11625,0.177412 0.92759,0.802417 1.80298,1.388893 1.58481,1.061758 1.7619,1.24327 1.7619,1.805857 0,0.497542 -2.13906,5.363226 -2.50309,5.693727 -0.42106,0.382285 -0.61691,0.378719 -2.48282,-0.04513 -2.34605,-0.532947 -2.40838,-0.51449 -4.16072,1.232415 -0.8819,0.879158 -1.48748,1.594521 -1.53571,1.814079 -0.0438,0.199378 0.0749,1.155084 0.26381,2.123795 0.40771,2.091016 0.41166,2.1841 0.10833,2.553067 -0.25089,0.305182 -5.38686,2.430498 -5.87346,2.430498 -0.15385,0 -0.40507,-0.0878 -0.55826,-0.19508 z m -2.4674,-5.909707 c 7.44809,-1.122804 13.04512,-7.304363 13.38626,-14.784287 0.28425,-6.232617 -3.02527,-11.91935 -8.5889,-14.758256 -3.97204,-2.026784 -8.69965,-2.228081 -12.93507,-0.550768 -4.92315,1.949664 -8.43901,6.220557 -9.61679,11.681984 -0.23137,1.072906 -0.22769,4.728675 0.006,5.776396 1.39169,6.244206 5.50044,10.653819 11.44702,12.285247 2.03988,0.559626 4.13703,0.676 6.30166,0.349684 z m -5.10528,-1.547605 c -1.50294,-0.322565 -2.25785,-0.583863 -3.58078,-1.239434 -4.79591,-2.376602 -7.83769,-7.330031 -7.83769,-12.763405 0,-6.549125 4.36195,-12.120352 10.82726,-13.828943 1.02424,-0.270674 1.51358,-0.315995 3.41223,-0.31603 1.8627,-3e-5 2.40227,0.04813 3.38012,0.301711 3.69181,0.957376 6.96313,3.328304 8.73956,6.334111 0.99281,1.679874 1.69842,3.60145 1.9894,5.417658 0.23514,1.467725 0.10257,4.162343 -0.27569,5.603433 -1.43755,5.476866 -5.74679,9.495552 -11.31466,10.551759 -1.45263,0.275556 -3.90237,0.247639 -5.33975,-0.06086 z m 4.76185,-6.523748 c 2.59782,-0.676648 4.72113,-2.771294 5.50181,-5.427545 0.34754,-1.182482 0.28915,-3.16484 -0.13,-4.413449 -0.61792,-1.840765 -1.95027,-3.488316 -3.41692,-4.225275 -0.33248,-0.167062 -0.63597,-0.345307 -0.67442,-0.396094 -0.12379,-0.163553 -0.84631,-0.395682 -1.81178,-0.582091 -1.00402,-0.193855 -2.71055,-0.100572 -3.76038,0.20555 -1.4628,0.426538 -3.08502,1.666897 -4.02053,3.074112 -2.05471,3.090726 -1.66674,7.158328 0.93032,9.753584 0.85147,0.850884 2.0544,1.569579 3.28792,1.964385 0.95165,0.304584 3.01381,0.328166 4.09398,0.04684 z m 19.56945,-16.704177 c -0.15179,-0.151786 -0.31334,-0.619147 -0.4063,-1.175435 -0.3231,-1.933293 -0.23202,-1.81307 -1.91845,-2.532265 -0.79793,-0.340285 -1.25993,-0.467592 -1.463,-0.403141 -0.16324,0.05181 -0.74943,0.389678 -1.30264,0.750823 -0.55322,0.361141 -1.10491,0.656619 -1.22598,0.656619 -0.12108,0 -0.86896,-0.650829 -1.66196,-1.446291 -1.74504,-1.750465 -1.75078,-1.776868 -0.70297,-3.229821 0.40637,-0.563483 0.73884,-1.14873 0.73884,-1.300549 0,-0.42507 -0.79101,-2.383878 -1.09287,-2.706309 -0.18526,-0.197883 -0.631,-0.359621 -1.43503,-0.520697 -1.72558,-0.345699 -1.71919,-0.334594 -1.63648,-2.848142 0.0387,-1.176478 0.12797,-2.101562 0.2107,-2.183984 0.0789,-0.07864 0.68345,-0.236505 1.34335,-0.350802 0.6599,-0.114299 1.33891,-0.297951 1.50892,-0.408113 0.3027,-0.196152 1.18746,-1.939081 1.32142,-2.603157 0.0505,-0.250126 -0.12691,-0.636054 -0.69498,-1.512148 -0.57991,-0.894368 -0.74334,-1.253513 -0.68188,-1.498398 0.11247,-0.448151 2.86523,-3.034524 3.22972,-3.034524 0.15764,0 0.74763,0.332478 1.31112,0.738842 0.64716,0.466708 1.16014,0.738842 1.39274,0.738842 0.57179,0 2.62026,-0.828532 2.82643,-1.143193 0.10048,-0.15336 0.28024,-0.759851 0.39945,-1.347759 0.35241,-1.737974 0.2522,-1.673429 2.59806,-1.673429 2.516978,0 2.475485,-0.02637 2.816974,1.790549 0.136491,0.726207 0.331908,1.402852 0.43426,1.503654 0.255313,0.251451 2.361784,1.138848 2.703354,1.138848 0.152314,0 0.759898,-0.30981 1.350191,-0.688467 0.59029,-0.378656 1.223189,-0.688466 1.406444,-0.688466 0.248208,0 0.670877,0.355472 1.657189,1.393724 0.728203,0.766549 1.363422,1.534432 1.411602,1.70641 0.06772,0.241719 -0.08398,0.562716 -0.66842,1.414324 -0.448698,0.653817 -0.756023,1.245593 -0.756023,1.455774 0,0.488767 0.764026,2.446814 1.058856,2.713631 0.132662,0.120059 0.810113,0.341138 1.505446,0.491286 0.77776,0.167945 1.331822,0.361316 1.439871,0.50252 0.131485,0.171838 0.165248,0.747229 0.134334,2.289245 -0.04881,2.434547 0.01653,2.334121 -1.683005,2.586969 -0.78804,0.117241 -1.257226,0.259936 -1.477171,0.44926 -0.356858,0.307177 -1.247003,2.234981 -1.247003,2.700658 0,0.162899 0.302255,0.75919 0.671674,1.325086 0.971997,1.48895 0.961792,1.531008 -0.766537,3.158772 -0.979095,0.922122 -1.538728,1.354527 -1.753071,1.354527 -0.17317,0 -0.803075,-0.33248 -1.399785,-0.738841 -0.596712,-0.406364 -1.200146,-0.738844 -1.340965,-0.738844 -0.364354,0 -2.333772,0.777525 -2.656482,1.04878 -0.183784,0.154477 -0.359902,0.634738 -0.549198,1.49761 -0.153263,0.698614 -0.343603,1.348462 -0.422975,1.444101 -0.106649,0.128503 -0.68351,0.173888 -2.21006,0.173888 -1.84099,0 -2.09315,-0.02741 -2.31771,-0.251967 z m 5.087353,-6.405431 c 2.714586,-0.857537 4.93214,-3.265731 5.591071,-6.071727 0.309973,-1.319985 0.196242,-3.434292 -0.249184,-4.632519 -0.927494,-2.495021 -2.840321,-4.376341 -5.321503,-5.23386 -0.755962,-0.261265 -1.160697,-0.308085 -2.639247,-0.305307 -1.53892,0.0028 -1.86085,0.04476 -2.71036,0.352511 -3.42512,1.240811 -5.61907,4.362369 -5.60369,7.972971 0.01,2.34983 0.77094,4.155841 2.46458,5.849478 1.38261,1.382609 2.89233,2.138728 4.90913,2.458657 0.80424,0.127576 2.51325,-0.05978 3.559203,-0.390204 z m -4.403613,-2.597076 c -1.46518,-0.506099 -2.72491,-1.67917 -3.41874,-3.183551 -0.26021,-0.564168 -0.30423,-0.883173 -0.30423,-2.204471 0,-1.422794 0.03,-1.605858 0.37902,-2.316965 1.26804,-2.583085 4.11961,-3.882189 6.760676,-3.07999 1.688612,0.512902 3.050069,1.755615 3.70507,3.38193 0.23688,0.588158 0.298259,1.012811 0.300957,2.082192 0.0031,1.230512 -0.03199,1.418081 -0.417843,2.233099 -0.711637,1.503157 -1.875325,2.569388 -3.36277,3.081144 -0.99295,0.341625 -2.66347,0.344659 -3.64214,0.0066 z"
       style="fill:#ffffff"
       inkscape:connector-curvature="0" />
  </g>
</svg>
