<?xml version="1.0" encoding="UTF-8" standalone="no"?>
<svg
   xmlns:dc="http://purl.org/dc/elements/1.1/"
   xmlns:cc="http://creativecommons.org/ns#"
   xmlns:rdf="http://www.w3.org/1999/02/22-rdf-syntax-ns#"
   xmlns:svg="http://www.w3.org/2000/svg"
   xmlns="http://www.w3.org/2000/svg"
   xmlns:sodipodi="http://sodipodi.sourceforge.net/DTD/sodipodi-0.dtd"
   xmlns:inkscape="http://www.inkscape.org/namespaces/inkscape"
   version="1.1"
   id="svg4353"
   viewBox="0 0 139.62569 139.6257"
   height="39.405476mm"
   width="39.405472mm"
   inkscape:version="0.91 r"
   sodipodi:docname="vk_cow.svg">
  <sodipodi:namedview
     pagecolor="#ffffff"
     bordercolor="#666666"
     borderopacity="1"
     objecttolerance="10"
     gridtolerance="10"
     guidetolerance="10"
     inkscape:pageopacity="0"
     inkscape:pageshadow="2"
     inkscape:window-width="665"
     inkscape:window-height="480"
     id="namedview13"
     showgrid="false"
     inkscape:zoom="1.6902332"
     inkscape:cx="145.24622"
     inkscape:cy="69.812851"
     inkscape:window-x="46"
     inkscape:window-y="26"
     inkscape:window-maximized="0"
     inkscape:current-layer="g4913" />
  <defs
     id="defs4355" />
  <metadata
     id="metadata4358">
    <rdf:RDF>
      <cc:Work
         rdf:about="">
        <dc:format>image/svg+xml</dc:format>
        <dc:type
           rdf:resource="http://purl.org/dc/dcmitype/StillImage" />
        <dc:title />
      </cc:Work>
    </rdf:RDF>
  </metadata>
  <g
     transform="translate(158.38428,-25.406497)"
     id="layer1">
    <g
       transform="translate(-116.02706,63.771674)"
       id="g5076">
      <g
         id="g4913"
         transform="translate(-45.09041,-47.158363)">
        <path
           style="fill:#000000"
           d="M 90.441406 32.158203 C 90.412099 32.158705 90.370126 32.170197 90.316406 32.193359 C 87.193626 33.539822 85.37238 34.114976 81.09375 35.103516 C 75.42649 36.412876 73.176199 37.137064 71.230469 38.277344 C 69.914829 39.048354 68.119141 41.138818 68.119141 41.898438 C 68.119141 42.675458 67.548591 42.594918 65.863281 41.580078 C 62.082311 39.303298 58.853559 39.005539 57.261719 40.787109 C 55.166359 43.132219 57.037121 46.935654 61.957031 50.333984 L 63.46875 51.378906 L 62.269531 51.175781 C 60.801361 50.927971 58.733733 50.044235 57.289062 49.046875 L 56.208984 48.300781 L 54.695312 49.318359 C 53.103253 50.389739 48.605859 51.949209 45.318359 52.568359 C 42.398309 53.118319 35.021734 53.033307 33.183594 52.429688 C 32.366294 52.161268 31.638306 52.000366 31.566406 52.072266 C 31.376026 52.262646 33.215292 55.208397 34.232422 56.341797 C 34.711722 56.875897 35.747156 57.808652 36.535156 58.414062 L 37.96875 59.513672 L 36.826172 59.333984 C 36.198152 59.234884 35.025953 59.230772 34.220703 59.326172 L 32.757812 59.5 L 34.326172 60.933594 C 36.996962 63.374544 38.017916 65.818864 39.941406 74.371094 C 40.589006 77.250424 41.400684 80.565388 41.746094 81.738281 C 44.693414 91.746225 50.249477 99.956421 58.091797 105.89453 L 60.167969 107.4668 L 60.367188 106.46875 C 60.476458 105.91971 60.722142 104.69167 60.914062 103.74023 C 61.394572 101.35809 63.003136 98.277819 64.753906 96.386719 L 66.220703 94.802734 L 64.328125 93.453125 C 62.382825 92.064985 61.381631 90.946872 60.462891 89.132812 C 59.941761 88.103762 59.943886 88.09673 60.541016 88.53125 C 66.324716 92.739944 69.297379 93.955938 73.818359 93.960938 C 76.596359 93.964058 78.11616 93.678195 84.46875 91.953125 C 88.61624 90.826831 88.742691 90.812884 94.519531 90.771484 C 98.071363 90.746004 100.68143 90.596908 101.16602 90.392578 C 101.60499 90.207488 102.34788 89.575481 102.81641 88.988281 C 103.28493 88.401081 103.90034 87.919932 104.18359 87.919922 C 105.04291 87.919912 106.7244 85.958404 107.39062 84.177734 C 108.79181 80.432711 107.97536 76.355129 105.50586 74.761719 C 101.48668 72.168389 94.78796 62.651774 93.96875 58.371094 C 93.49515 55.896394 91.562573 52.113937 89.720703 50.054688 C 88.876523 49.110867 87.328807 47.782256 86.279297 47.103516 C 84.809957 46.153276 84.204871 45.536416 83.650391 44.416016 L 82.929688 42.960938 L 85.199219 42.148438 C 88.335839 41.027388 90.660483 39.765999 91.851562 38.537109 L 92.857422 37.498047 L 91.513672 37.974609 C 90.774012 38.236419 88.684141 38.577232 86.869141 38.732422 C 85.054141 38.887622 82.971274 39.069419 82.240234 39.136719 L 80.910156 39.259766 L 83.298828 38.015625 C 84.612148 37.331295 86.385314 36.256916 87.240234 35.628906 C 88.685672 34.567131 90.881011 32.150668 90.441406 32.158203 z M 84.619141 56.449219 C 85.828631 56.436229 88.519531 57.337339 88.519531 57.755859 C 88.519531 58.054549 86.887329 57.882363 85.818359 57.470703 C 85.240859 57.248313 84.160469 57.047637 83.417969 57.023438 C 81.636569 56.965497 82.672941 56.470119 84.619141 56.449219 z M 84.996094 58.201172 C 85.724488 58.203969 86.484099 58.367109 87.253906 58.693359 L 88.369141 59.166016 L 87.5625 59.517578 C 87.11874 59.711338 86.467194 60.241563 86.115234 60.695312 C 85.330474 61.707002 84.130984 61.781372 82.996094 60.888672 C 82.532354 60.523892 81.944669 60.321456 81.605469 60.410156 C 80.828379 60.613376 80.862409 60.266626 81.693359 59.509766 C 82.652066 58.636559 83.782104 58.19651 84.996094 58.201172 z M 105.35352 77.779297 C 105.86767 77.660117 106.37149 78.273356 106.46094 79.324219 C 106.53463 80.189979 106.3907 80.569424 105.76172 81.152344 C 105.19217 81.680167 105.02354 82.061156 105.16406 82.503906 C 105.41147 83.283406 105.13837 83.306826 104.72852 82.541016 C 104.26741 81.679426 104.34767 78.830914 104.85156 78.152344 C 105.01004 77.938926 105.18213 77.819023 105.35352 77.779297 z "
           transform="translate(2.73319,8.793186)"
           id="path4529" />
      </g>
      <rect
         style="opacity:0.63500007;fill:none;fill-opacity:1;stroke:none;stroke-width:0.37430161;stroke-miterlimit:4;stroke-dasharray:none;stroke-opacity:1"
         id="rect4988"
         width="139.62569"
         height="139.6257"
         x="-42.357216"
         y="-38.365177" />
    </g>
  </g>
</svg>
