<?xml version="1.0" encoding="UTF-8" standalone="no"?>
<svg
   xmlns:dc="http://purl.org/dc/elements/1.1/"
   xmlns:cc="http://creativecommons.org/ns#"
   xmlns:rdf="http://www.w3.org/1999/02/22-rdf-syntax-ns#"
   xmlns:svg="http://www.w3.org/2000/svg"
   xmlns="http://www.w3.org/2000/svg"
   xmlns:sodipodi="http://sodipodi.sourceforge.net/DTD/sodipodi-0.dtd"
   xmlns:inkscape="http://www.inkscape.org/namespaces/inkscape"
   version="1.1"
   id="svg4353"
   viewBox="0 0 139.62569 139.6257"
   height="39.405476mm"
   width="39.405472mm"
   inkscape:version="0.91 r"
   sodipodi:docname="vk_cow_02.svg">
  <sodipodi:namedview
     pagecolor="#ffffff"
     bordercolor="#666666"
     borderopacity="1"
     objecttolerance="10"
     gridtolerance="10"
     guidetolerance="10"
     inkscape:pageopacity="0"
     inkscape:pageshadow="2"
     inkscape:window-width="640"
     inkscape:window-height="480"
     id="namedview7144"
     showgrid="false"
     inkscape:zoom="1.6902332"
     inkscape:cx="69.812844"
     inkscape:cy="69.812851"
     inkscape:window-x="38"
     inkscape:window-y="18"
     inkscape:window-maximized="0"
     inkscape:current-layer="g4919" />
  <defs
     id="defs4355" />
  <metadata
     id="metadata4358">
    <rdf:RDF>
      <cc:Work
         rdf:about="">
        <dc:format>image/svg+xml</dc:format>
        <dc:type
           rdf:resource="http://purl.org/dc/dcmitype/StillImage" />
        <dc:title />
      </cc:Work>
    </rdf:RDF>
  </metadata>
  <g
     transform="translate(166.07274,-26.023897)"
     id="layer1">
    <g
       transform="translate(-268.52656,58.018919)"
       id="g5084">
      <g
         id="g4919"
         transform="translate(-7.7581415,-40.797067)">
        <path
           style="fill:#000000"
           d="M 84.476562 34.347656 C 84.396873 34.267956 83.736116 34.530691 83.009766 34.931641 C 82.283426 35.332591 79.868125 36.222213 77.640625 36.908203 C 68.478325 39.729883 66.315713 40.841479 65.033203 43.386719 C 64.624153 44.198499 64.276966 44.898759 64.259766 44.943359 C 64.242626 44.988009 63.299546 44.482712 62.166016 43.820312 C 57.509496 41.099202 53.903649 40.930329 52.787109 43.380859 C 52.309149 44.429789 52.352894 46.671728 52.871094 47.673828 C 53.846634 49.560318 56.424764 51.323318 60.240234 52.710938 L 62.189453 53.419922 L 59.615234 53.267578 C 58.199524 53.184138 56.613714 52.967776 56.089844 52.785156 C 55.193034 52.472526 54.965491 52.563759 52.212891 54.349609 C 44.221061 59.534599 36.330943 62.313704 32.564453 61.271484 C 31.945703 61.099954 31.439453 61.026722 31.439453 61.107422 C 31.439453 61.888312 35.082693 65.825918 37.289062 67.429688 L 38.189453 68.083984 L 36.716797 67.648438 C 35.906827 67.408618 34.644586 67.212891 33.910156 67.212891 L 32.574219 67.212891 L 34.332031 68.507812 C 37.104011 70.548423 40.101912 74.216719 42.351562 78.324219 C 42.942412 79.403009 44.58436 83.181446 46 86.722656 C 49.52327 95.53606 51.545137 99.101828 55.373047 103.23633 L 55.375 103.23633 C 57.22517 105.23469 57.839844 105.67387 57.839844 104.99414 C 57.839844 104.81892 58.192077 103.92857 58.623047 103.01758 C 59.647897 100.85122 62.460951 97.877121 65.238281 96.019531 L 67.460938 94.53125 L 66.324219 93.8125 C 65.068319 93.01651 62.631005 90.515298 62.046875 89.423828 C 61.692745 88.762148 61.76222 88.775984 63.28125 89.683594 C 65.91928 91.259798 68.618495 92.412173 71.640625 93.251953 C 74.146985 93.948403 75.051305 94.044734 79.140625 94.052734 C 83.106525 94.060244 84.187454 93.956533 86.490234 93.345703 C 89.027064 92.672783 89.510754 92.641662 94.496094 92.826172 C 100.45369 93.046662 101.71087 92.798888 102.86523 91.177734 C 103.20434 90.701504 103.69639 90.3125 103.96094 90.3125 C 104.22548 90.3125 105.02081 89.709226 105.72656 88.972656 C 106.66272 87.995636 107.17604 87.094185 107.625 85.640625 C 108.95778 81.325552 107.92215 78.383583 104.45508 76.632812 C 102.09671 75.441902 99.556381 72.846567 96.400391 68.404297 C 94.938061 66.345967 93.239783 64.055 92.626953 63.3125 C 91.909003 62.44265 91.220999 61.072641 90.693359 59.462891 C 89.387839 55.479951 86.14727 51.199301 83 49.300781 C 82.56517 49.038491 81.991349 48.365991 81.724609 47.806641 C 81.457879 47.247291 80.641669 46.224496 79.912109 45.535156 L 78.585938 44.283203 L 81.488281 42.873047 C 85.218271 41.060917 88.539636 38.123838 85.353516 39.455078 C 84.760416 39.702898 82.950511 40.109745 81.332031 40.359375 C 79.713541 40.609015 77.917344 40.886662 77.339844 40.976562 C 76.397654 41.123293 76.506235 41.009324 78.390625 39.871094 C 80.369005 38.676104 84.791352 34.662446 84.476562 34.347656 z M 81.710938 58.8125 C 82.868547 58.8125 85.423936 59.494136 85.259766 59.759766 C 85.094576 60.027066 83.717193 60.020298 80.789062 59.736328 L 78.990234 59.5625 L 80.009766 59.1875 C 80.570636 58.98125 81.335647 58.8125 81.710938 58.8125 z M 82.992188 61.052734 C 84.506677 61.063905 85.814949 61.557843 84.544922 61.960938 C 84.212522 62.066427 83.939453 62.330728 83.939453 62.548828 C 83.939453 62.766928 83.702812 63.225166 83.414062 63.566406 C 82.692032 64.419706 81.560091 64.61399 80.519531 64.0625 C 80.040781 63.80878 79.39875 63.680544 79.09375 63.777344 C 78.77489 63.878544 78.539062 63.806765 78.539062 63.609375 C 78.539062 62.944355 80.258774 61.555826 81.496094 61.222656 C 81.959289 61.097931 82.487358 61.049011 82.992188 61.052734 z M 105.25586 80.228516 C 105.38895 80.225991 105.53063 80.279926 105.67578 80.400391 C 106.38251 80.986931 106.28901 83.011652 105.53711 83.414062 C 105.08663 83.655152 104.9807 83.922999 105.11914 84.474609 C 105.35065 85.397019 105.0784 85.429319 104.5957 84.537109 C 103.76172 82.995613 104.32426 80.246188 105.25586 80.228516 z "
           transform="translate(110.21196,8.802045)"
           id="path4521" />
      </g>
      <rect
         style="opacity:0.63500007;fill:none;fill-opacity:1;stroke:none;stroke-width:0.37430161;stroke-miterlimit:4;stroke-dasharray:none;stroke-opacity:1"
         id="rect4988-3"
         width="139.62569"
         height="139.6257"
         x="102.45382"
         y="-31.995022" />
    </g>
  </g>
</svg>
