<?xml version="1.0" encoding="UTF-8" standalone="no"?>
<svg
   xmlns:dc="http://purl.org/dc/elements/1.1/"
   xmlns:cc="http://creativecommons.org/ns#"
   xmlns:rdf="http://www.w3.org/1999/02/22-rdf-syntax-ns#"
   xmlns:svg="http://www.w3.org/2000/svg"
   xmlns="http://www.w3.org/2000/svg"
   xmlns:sodipodi="http://sodipodi.sourceforge.net/DTD/sodipodi-0.dtd"
   xmlns:inkscape="http://www.inkscape.org/namespaces/inkscape"
   version="1.1"
   id="svg4353"
   viewBox="0 0 139.62569 139.6257"
   height="39.405476mm"
   width="39.405472mm"
   inkscape:version="0.91 r"
   sodipodi:docname="vk_goose.svg">
  <sodipodi:namedview
     pagecolor="#ffffff"
     bordercolor="#666666"
     borderopacity="1"
     objecttolerance="10"
     gridtolerance="10"
     guidetolerance="10"
     inkscape:pageopacity="0"
     inkscape:pageshadow="2"
     inkscape:window-width="640"
     inkscape:window-height="480"
     id="namedview7177"
     showgrid="false"
     inkscape:zoom="1.6902332"
     inkscape:cx="69.812844"
     inkscape:cy="69.812851"
     inkscape:window-x="38"
     inkscape:window-y="18"
     inkscape:window-maximized="0"
     inkscape:current-layer="g4933" />
  <defs
     id="defs4355" />
  <metadata
     id="metadata4358">
    <rdf:RDF>
      <cc:Work
         rdf:about="">
        <dc:format>image/svg+xml</dc:format>
        <dc:type
           rdf:resource="http://purl.org/dc/dcmitype/StillImage" />
        <dc:title />
      </cc:Work>
    </rdf:RDF>
  </metadata>
  <g
     transform="translate(198.56647,22.294549)"
     id="layer1">
    <g
       transform="translate(-569.56211,-130.20752)"
       id="g5130">
      <g
         id="g4933"
         transform="translate(51.727931,-13.188218)">
        <path
           style="fill:#000000"
           d="M 74.972656 31.412109 C 73.823836 31.412109 72.884766 31.487425 72.884766 31.578125 C 72.884766 31.668825 73.097925 32.156539 73.359375 32.662109 C 73.620795 33.167669 74.030401 34.139776 74.269531 34.822266 L 74.705078 36.0625 L 73.765625 34.929688 C 72.295535 33.154967 70.779276 32.52271 67.634766 32.375 C 62.939046 32.15444 56.358916 33.81193 50.634766 36.65625 C 43.770106 40.06728 39.816262 44.322569 36.576172 51.792969 C 34.989112 55.452099 34.035237 58.786855 33.373047 62.984375 C 32.925457 65.821465 32.86024 67.734219 32.96875 74.912109 C 33.27175 94.956599 33.210328 95.666616 30.992188 97.884766 L 29.917969 98.958984 L 31.375 98.751953 C 32.17711 98.637883 33.574529 98.301043 34.480469 98.001953 C 35.386439 97.702873 36.155753 97.483878 36.189453 97.517578 C 36.223113 97.551258 36.131135 98.112932 35.984375 98.763672 C 35.666045 100.17505 35.726788 100.27144 36.617188 99.794922 C 36.993058 99.593762 38.196439 99.436359 39.292969 99.443359 C 41.624029 99.457949 43.604042 100.16913 48.695312 102.82422 C 53.063252 105.10211 56.786003 106.62047 60.126953 107.48438 C 61.615493 107.86928 63.19024 108.18927 63.625 108.19727 L 64.416016 108.21289 L 63.40625 107.11133 C 61.20362 104.70664 58.865142 98.906712 57.607422 92.726562 C 56.315022 86.376162 56.117611 79.246393 57.150391 76.283203 C 57.384481 75.611543 57.577078 74.979936 57.580078 74.878906 C 57.582508 74.777876 56.843533 74.608213 55.939453 74.501953 C 54.203923 74.297973 51.478333 73.389935 50.539062 72.703125 C 50.059213 72.352215 50.499582 72.316962 53.632812 72.445312 C 56.174262 72.549422 59.097656 72.310547 59.097656 72.310547 C 61.327206 72.153167 63.925509 71.611496 65.292969 71.041016 C 66.378299 70.588236 71.250156 68.45189 76.035156 66.0625 C 86.733546 60.72026 87.164225 60.592412 95.984375 60.201172 C 102.44859 59.914442 107.48107 59.294295 108.88477 58.609375 C 110.66377 57.741335 109.43623 55.655753 106.41211 54.408203 C 105.37939 53.982173 103.11727 53.204708 101.38477 52.679688 C 91.794456 49.773438 86.073507 45.027276 84.560547 38.722656 C 83.486427 34.246736 79.769296 31.412109 74.972656 31.412109 z M 69.003906 40.412109 C 69.902875 40.387221 70.656994 40.586677 71.083984 41.013672 C 71.413984 41.343672 71.683594 41.820909 71.683594 42.074219 C 71.683594 42.452279 71.569556 42.472323 71.041016 42.189453 C 70.458566 41.877723 70.412512 41.908249 70.570312 42.511719 C 70.691512 42.975189 70.527357 43.398414 70.029297 43.896484 C 69.196617 44.729144 68.485101 44.800894 67.550781 44.146484 C 67.118571 43.843754 66.884766 43.367292 66.884766 42.794922 C 66.884766 41.837222 66.544056 41.714558 65.253906 42.205078 C 63.787686 42.762538 64.443784 41.904154 66.058594 41.152344 C 67.060729 40.685784 68.104938 40.436998 69.003906 40.412109 z "
           transform="translate(319.26771,121.10119)"
           id="path4561" />
      </g>
      <rect
         style="opacity:0.63500007;fill:none;fill-opacity:1;stroke:none;stroke-width:0.37430161;stroke-miterlimit:4;stroke-dasharray:none;stroke-opacity:1"
         id="rect4988-3-7-6"
         width="139.62569"
         height="139.6257"
         x="370.99564"
         y="107.91297" />
    </g>
  </g>
</svg>
