<?xml version="1.0" encoding="UTF-8" standalone="no"?>
<svg
   xmlns:dc="http://purl.org/dc/elements/1.1/"
   xmlns:cc="http://creativecommons.org/ns#"
   xmlns:rdf="http://www.w3.org/1999/02/22-rdf-syntax-ns#"
   xmlns:svg="http://www.w3.org/2000/svg"
   xmlns="http://www.w3.org/2000/svg"
   xmlns:sodipodi="http://sodipodi.sourceforge.net/DTD/sodipodi-0.dtd"
   xmlns:inkscape="http://www.inkscape.org/namespaces/inkscape"
   version="1.1"
   id="svg4353"
   viewBox="0 0 139.62569 139.6257"
   height="39.405476mm"
   width="39.405472mm"
   inkscape:version="0.91 r"
   sodipodi:docname="vk_horse.svg">
  <sodipodi:namedview
     pagecolor="#ffffff"
     bordercolor="#666666"
     borderopacity="1"
     objecttolerance="10"
     gridtolerance="10"
     guidetolerance="10"
     inkscape:pageopacity="0"
     inkscape:pageshadow="2"
     inkscape:window-width="640"
     inkscape:window-height="480"
     id="namedview7201"
     showgrid="false"
     inkscape:zoom="1.6902332"
     inkscape:cx="69.812844"
     inkscape:cy="69.812851"
     inkscape:window-x="38"
     inkscape:window-y="18"
     inkscape:window-maximized="0"
     inkscape:current-layer="g4907" />
  <defs
     id="defs4355" />
  <metadata
     id="metadata4358">
    <rdf:RDF>
      <cc:Work
         rdf:about="">
        <dc:format>image/svg+xml</dc:format>
        <dc:type
           rdf:resource="http://purl.org/dc/dcmitype/StillImage" />
        <dc:title />
      </cc:Work>
    </rdf:RDF>
  </metadata>
  <g
     transform="translate(145.70158,-2.1172129)"
     id="layer1">
    <g
       transform="translate(-111.56624,-106.9148)"
       id="g5110">
      <g
         id="g4907"
         transform="translate(-36.740749,-6.1527062)">
        <path
           style="fill:#000000"
           d="M 77.90625 34.203125 C 77.890481 34.216653 77.881053 34.251172 77.876953 34.310547 C 77.860503 34.548037 76.746684 36.70047 75.402344 39.09375 C 72.808684 43.71117 69.755 49.84175 69.75 50.4375 C 69.74848 50.63402 69.596842 50.88704 69.414062 51 C 69.177763 51.14604 69.113153 50.457108 69.189453 48.617188 C 69.248513 47.193938 69.207306 46.029267 69.097656 46.029297 C 68.988006 46.029317 66.489725 46.8879 63.546875 47.9375 C 60.604025 48.98711 57.487344 50.025051 56.621094 50.244141 C 55.754844 50.463231 55.046875 50.807526 55.046875 51.009766 C 55.046875 51.219946 54.08895 51.603377 52.8125 51.904297 C 51.58432 52.193837 50.606772 52.567908 50.638672 52.736328 C 50.670592 52.904738 49.481094 53.413878 47.996094 53.867188 C 46.511094 54.320497 45.465625 54.700637 45.671875 54.710938 C 46.710145 54.762827 45.770505 55.323677 43.359375 56.091797 C 41.394135 56.717867 40.749111 57.043181 40.962891 57.300781 C 41.241681 57.636701 40.398694 58.026214 36.896484 59.183594 C 36.401484 59.347174 36.164844 59.492859 36.371094 59.505859 C 37.310184 59.565179 36.565266 60.14505 34.572266 60.90625 C 32.259266 61.78979 31.542269 62.210266 32.261719 62.259766 C 33.613609 62.352706 30.801349 62.773528 28.662109 62.798828 L 26.128906 62.830078 L 27.101562 63.833984 C 28.260802 65.030014 30.035872 65.958891 32.226562 66.519531 L 33.828125 66.929688 L 31.978516 67.322266 C 30.961386 67.538116 30.0706 67.807635 30 67.921875 C 29.9294 68.036105 30.372695 68.367953 30.984375 68.658203 C 32.933175 69.582943 34.944782 71.316716 36.576172 73.478516 C 38.620362 76.187316 39.585755 77.941898 41.859375 83.080078 C 46.615825 93.829178 49.425506 98.468237 54.259766 103.55469 C 55.239886 104.58594 56.153363 105.42969 56.289062 105.42969 C 56.424762 105.42969 56.593616 105.12516 56.666016 104.75391 C 57.897166 98.444876 60.254278 94.036082 64.210938 90.632812 L 65.544922 89.484375 L 64.121094 88.359375 C 62.545074 87.112975 60.234809 83.48706 61.662109 84.5 C 63.445429 85.76559 66.155156 87.124739 68.041016 87.699219 C 70.800186 88.539709 75.152343 89.034796 77.626953 88.791016 C 79.634183 88.593276 79.672085 88.603454 80.890625 89.646484 C 82.387015 90.927344 85.516333 92.579606 90.220703 94.572266 C 94.486853 96.379306 96.423662 97.586203 97.839844 99.314453 C 99.000414 100.73078 100.39933 101.71494 101.83594 102.12695 C 102.86515 102.42212 107.88983 101.53438 109.27734 100.8125 C 111.00321 99.91459 112.3457 97.713193 112.3457 95.783203 C 112.3457 95.252503 112.63247 94.226816 112.98242 93.503906 C 113.79984 91.815346 113.64431 89.873239 112.50977 87.630859 C 112.0535 86.729069 109.12062 82.703597 105.99414 78.685547 C 101.05947 72.343667 93.447266 61.578149 93.447266 60.943359 C 93.447266 60.825239 93.791191 60.728526 94.212891 60.728516 L 94.980469 60.728516 L 94.138672 59.957031 L 93.296875 59.185547 L 94.121094 59.363281 C 95.197594 59.595201 95.161494 59.399656 93.927734 58.316406 C 93.367724 57.824706 91.714676 55.703563 90.253906 53.601562 C 87.176256 49.172942 85.616353 47.538436 83.539062 46.572266 C 82.331882 46.010796 82.076445 45.764947 82.203125 45.279297 C 82.520395 44.062977 82.723532 38.593742 82.513672 36.914062 L 82.296875 35.181641 L 81.451172 36.929688 C 80.986082 37.891688 80.122863 39.422578 79.533203 40.330078 L 78.460938 41.978516 L 78.423828 38.679688 C 78.403158 36.864688 78.278594 35.041406 78.146484 34.628906 C 78.047409 34.319539 77.953558 34.16254 77.90625 34.203125 z M 82.5625 59.902344 C 82.631882 59.882923 82.865975 59.926387 83.246094 60 C 84.757914 60.29277 86.202664 61.089545 87.746094 62.484375 C 89.432144 64.008095 88.926621 64.085386 86.800781 62.628906 C 85.917951 62.024046 84.522266 61.138949 83.697266 60.662109 C 82.792222 60.138997 82.446863 59.934711 82.5625 59.902344 z M 78.896484 61.914062 L 81.146484 62.023438 C 83.722084 62.148628 85.740429 62.909261 86.949219 64.212891 C 87.910029 65.249041 87.977092 65.674414 87.107422 65.208984 C 86.609672 64.942554 86.413541 64.956777 86.212891 65.273438 C 86.071401 65.496727 85.953172 65.758169 85.951172 65.855469 C 85.948642 65.952739 85.601901 66.189379 85.181641 66.380859 C 84.161551 66.845639 84.056438 66.830607 83.117188 66.091797 C 82.464037 65.577997 82.326344 65.251431 82.402344 64.400391 C 82.494674 63.366841 82.460756 63.330526 80.697266 62.628906 L 78.896484 61.914062 z M 109.70312 88.792969 C 110.03028 88.762484 110.38169 88.845754 110.73633 89.078125 C 112.21444 90.046625 111.32303 92.410677 109.57617 92.154297 C 108.84586 92.047107 108.72522 92.117395 108.8457 92.578125 C 109.01471 93.224435 108.92964 93.271296 108.5293 92.753906 C 107.32355 91.195629 108.28545 88.925069 109.70312 88.792969 z "
           transform="translate(2.605409,115.18472)"
           id="path4549" />
      </g>
      <rect
         style="opacity:0.63500007;fill:none;fill-opacity:1;stroke:none;stroke-width:0.37430161;stroke-miterlimit:4;stroke-dasharray:none;stroke-opacity:1"
         id="rect4988-5"
         width="139.62569"
         height="139.6257"
         x="-34.135338"
         y="109.03201" />
    </g>
  </g>
</svg>
