<?xml version="1.0" encoding="UTF-8" standalone="no"?>
<svg
   xmlns:dc="http://purl.org/dc/elements/1.1/"
   xmlns:cc="http://creativecommons.org/ns#"
   xmlns:rdf="http://www.w3.org/1999/02/22-rdf-syntax-ns#"
   xmlns:svg="http://www.w3.org/2000/svg"
   xmlns="http://www.w3.org/2000/svg"
   xmlns:sodipodi="http://sodipodi.sourceforge.net/DTD/sodipodi-0.dtd"
   xmlns:inkscape="http://www.inkscape.org/namespaces/inkscape"
   version="1.1"
   id="svg4353"
   viewBox="0 0 139.62569 139.6257"
   height="39.405476mm"
   width="39.405472mm"
   inkscape:version="0.91 r"
   sodipodi:docname="vk_hen.svg">
  <sodipodi:namedview
     pagecolor="#ffffff"
     bordercolor="#666666"
     borderopacity="1"
     objecttolerance="10"
     gridtolerance="10"
     guidetolerance="10"
     inkscape:pageopacity="0"
     inkscape:pageshadow="2"
     inkscape:window-width="640"
     inkscape:window-height="480"
     id="namedview7188"
     showgrid="false"
     inkscape:zoom="1.6902332"
     inkscape:cx="69.812844"
     inkscape:cy="69.812851"
     inkscape:window-x="38"
     inkscape:window-y="18"
     inkscape:window-maximized="0"
     inkscape:current-layer="g4929" />
  <defs
     id="defs4355" />
  <metadata
     id="metadata4358">
    <rdf:RDF>
      <cc:Work
         rdf:about="">
        <dc:format>image/svg+xml</dc:format>
        <dc:type
           rdf:resource="http://purl.org/dc/dcmitype/StillImage" />
        <dc:title />
      </cc:Work>
    </rdf:RDF>
  </metadata>
  <g
     transform="translate(164.78216,-9.0759525)"
     id="layer1">
    <g
       transform="translate(-538.08123,40.001543)"
       id="g5104">
      <g
         id="g4929"
         transform="translate(58.067219,-43.356099)">
        <path
           style="fill:#000000"
           d="M 72.013672 34.611328 C 70.805651 34.601341 69.644449 35.099687 68.636719 36.107422 C 67.636549 37.107602 66.863483 39.219858 67.158203 40.148438 C 67.263143 40.479118 67.082111 40.902142 66.681641 41.257812 C 65.096591 42.665542 64.402139 46.255735 65.230469 48.765625 C 65.530439 49.674575 65.680923 49.803294 66.226562 49.621094 C 67.321712 49.255394 74.313521 49.114386 75.119141 49.441406 C 75.809531 49.721656 75.772048 49.746172 74.642578 49.763672 C 72.611878 49.795152 68.948694 50.886731 66.333984 52.238281 C 62.964594 53.979921 58.640841 58.266234 55.644531 62.833984 C 54.453951 64.648984 51.133175 70.791875 48.265625 76.484375 C 42.931055 87.074208 40.656333 90.914747 37.914062 93.966797 L 36.357422 95.699219 L 38.824219 94.798828 C 40.181059 94.303648 42.145963 93.431002 43.189453 92.857422 L 45.085938 91.814453 L 44.501953 93.173828 C 43.904113 94.568558 43.745171 95.523679 44.144531 95.318359 C 48.472121 93.093499 50.631897 92.540611 54.091797 92.775391 C 57.961227 93.037951 61.145701 94.234974 67.650391 97.871094 C 75.040141 102.00196 78.072341 103.39405 81.869141 104.39648 C 83.878241 104.92692 91.019531 105.24836 91.019531 104.80859 C 91.019531 104.71261 90.560337 104.07254 89.998047 103.38477 C 86.688117 99.336306 84.962417 92.463241 85.716797 86.335938 C 85.945907 84.475018 85.919096 84.323938 85.347656 84.142578 C 83.908016 83.685648 81.130389 81.494009 80.105469 80.005859 C 78.748779 78.036029 78.688254 77.351608 79.964844 78.425781 C 82.352424 80.434791 86.563631 81.813933 89.181641 81.445312 C 92.537381 80.972813 95.521154 78.558338 96.740234 75.328125 C 97.636634 72.952965 97.457796 69.676191 96.322266 67.644531 C 95.880966 66.854941 95.519531 66.157403 95.519531 66.095703 C 95.519531 66.033993 95.970384 65.984375 96.521484 65.984375 C 97.072614 65.984375 98.578841 65.712812 99.869141 65.382812 C 101.15944 65.052813 102.46395 64.783203 102.76758 64.783203 C 103.52001 64.783203 103.47866 64.628158 102.27344 62.986328 C 101.49416 61.924728 98.526751 59.480139 97.707031 59.224609 C 97.671811 59.213639 97.840561 58.548364 98.082031 57.746094 C 99.008191 54.668714 98.499141 52.574824 95.675781 47.833984 C 94.009761 45.036474 93.320305 43.582154 92.359375 40.833984 C 92.128045 40.172404 91.533723 40.603262 91.164062 41.701172 C 90.602973 43.367602 89.831381 43.076983 88.900391 40.845703 C 87.809711 38.231823 87.538936 38.025599 86.972656 39.380859 C 86.404816 40.739929 86.036855 40.770513 85.484375 39.507812 C 85.249745 38.971563 84.713209 37.74458 84.292969 36.78125 C 83.424469 34.79035 82.936863 34.705021 82.445312 36.457031 C 82.263843 37.103811 81.963044 37.632812 81.777344 37.632812 C 81.591674 37.632813 81.034149 36.992734 80.537109 36.208984 C 79.841649 35.112344 79.455358 34.783203 78.861328 34.783203 C 78.252208 34.783203 77.990937 35.020483 77.623047 35.908203 C 77.366607 36.526953 77.110034 37.083631 77.052734 37.144531 C 76.995464 37.205391 76.376161 36.763553 75.675781 36.164062 C 74.477176 35.138078 73.221693 34.621316 72.013672 34.611328 z M 87.798828 55.308594 C 88.562693 55.300989 89.237266 55.614825 89.833984 56.25 L 90.525391 56.984375 L 89.873047 56.984375 C 89.444917 56.984375 89.220703 57.169008 89.220703 57.523438 C 89.220703 57.820438 89.057375 58.225828 88.859375 58.423828 C 87.920645 59.362568 86.03843 58.465523 86.28125 57.195312 C 86.39984 56.574893 86.301121 56.390781 85.800781 56.300781 C 85.278721 56.206861 85.368962 56.097369 86.326172 55.667969 C 86.850152 55.432915 87.340509 55.313157 87.798828 55.308594 z "
           transform="translate(315.23185,12.430509)"
           id="path4533" />
      </g>
      <rect
         style="opacity:0.63500007;fill:none;fill-opacity:1;stroke:none;stroke-width:0.37430161;stroke-miterlimit:4;stroke-dasharray:none;stroke-opacity:1"
         id="rect4988-3-7"
         width="139.62569"
         height="139.6257"
         x="373.29907"
         y="-30.925591" />
    </g>
  </g>
</svg>
