<?xml version="1.0" encoding="UTF-8" standalone="no"?>
<svg
   xmlns:dc="http://purl.org/dc/elements/1.1/"
   xmlns:cc="http://creativecommons.org/ns#"
   xmlns:rdf="http://www.w3.org/1999/02/22-rdf-syntax-ns#"
   xmlns:svg="http://www.w3.org/2000/svg"
   xmlns="http://www.w3.org/2000/svg"
   xmlns:sodipodi="http://sodipodi.sourceforge.net/DTD/sodipodi-0.dtd"
   xmlns:inkscape="http://www.inkscape.org/namespaces/inkscape"
   version="1.1"
   id="svg4353"
   viewBox="0 0 139.62569 139.6257"
   height="39.405476mm"
   width="39.405472mm"
   inkscape:version="0.91 r"
   sodipodi:docname="vk_rabbit.svg">
  <sodipodi:namedview
     pagecolor="#ffffff"
     bordercolor="#666666"
     borderopacity="1"
     objecttolerance="10"
     gridtolerance="10"
     guidetolerance="10"
     inkscape:pageopacity="0"
     inkscape:pageshadow="2"
     inkscape:window-width="640"
     inkscape:window-height="480"
     id="namedview7223"
     showgrid="false"
     inkscape:zoom="1.6902332"
     inkscape:cx="69.812844"
     inkscape:cy="69.812851"
     inkscape:window-x="38"
     inkscape:window-y="18"
     inkscape:window-maximized="0"
     inkscape:current-layer="g4957" />
  <defs
     id="defs4355" />
  <metadata
     id="metadata4358">
    <rdf:RDF>
      <cc:Work
         rdf:about="">
        <dc:format>image/svg+xml</dc:format>
        <dc:type
           rdf:resource="http://purl.org/dc/dcmitype/StillImage" />
        <dc:title />
      </cc:Work>
    </rdf:RDF>
  </metadata>
  <g
     transform="translate(186.89392,11.743727)"
     id="layer1">
    <g
       transform="translate(-557.3486,-266.44731)"
       id="g5154">
      <g
         id="g4957"
         transform="translate(55.255612,21.404492)">
        <path
           style="fill:#000000"
           d="M 45.919922 29.015625 C 44.468822 29.015625 44.108563 29.133661 43.414062 29.837891 C 42.656322 30.606291 42.434194 30.660109 40.052734 30.662109 C 34.332484 30.667149 32.792135 33.549058 35.234375 39.679688 C 37.222415 44.670097 40.461231 49.201356 44.113281 52.103516 C 46.642191 54.113146 52.725911 57.287092 58.675781 59.701172 C 62.219291 61.138902 67.796663 63.808824 66.408203 63.402344 C 65.304233 63.079154 61.607731 62.853226 60.394531 63.035156 C 59.183491 63.216756 59.040561 63.341876 58.212891 64.947266 C 57.129921 67.047826 54.288301 69.924121 51.806641 71.431641 C 49.588741 72.778951 45.789753 74.209661 43.689453 74.488281 C 42.850593 74.599561 42.234013 74.805633 42.320312 74.945312 C 42.600813 75.399193 46.378756 76.414062 47.785156 76.414062 L 49.15625 76.414062 L 47.550781 77.539062 C 46.668751 78.157813 45.908175 78.799844 45.859375 78.964844 C 45.810595 79.129844 46.879968 79.788254 48.236328 80.427734 C 51.251598 81.849314 54.068939 84.575984 58.349609 90.214844 C 66.098849 100.42282 71.332853 105.3355 78.783203 109.39648 C 80.003963 110.06188 81.037978 110.60833 81.080078 110.61133 C 81.122168 110.61367 81.070717 109.2982 80.966797 107.68945 C 80.739517 104.17213 81.127873 101.40312 82.376953 97.630859 C 82.880593 96.109829 83.352028 94.72834 83.423828 94.5625 C 83.495648 94.39666 82.898116 93.96095 82.097656 93.59375 C 80.615536 92.9138 77.87587 90.705306 78.15625 90.416016 C 78.24112 90.328446 79.25362 90.518874 80.40625 90.839844 C 81.55888 91.160844 84.123516 91.637621 86.103516 91.900391 C 92.082876 92.693891 97.155732 92.053527 99.232422 90.242188 C 99.766332 89.776467 100.76923 89.108513 101.46094 88.757812 C 102.15262 88.407143 103.07588 87.650132 103.51367 87.076172 C 104.61485 85.632422 105.52161 82.626704 105.50781 80.464844 C 105.49635 78.658994 104.66727 75.742885 103.78125 74.390625 C 103.52688 74.002435 102.77643 72.106401 102.11133 70.175781 C 98.609398 60.010521 93.577426 54.063176 86.259766 51.441406 C 84.211696 50.707626 77.798815 50.387054 74.734375 50.865234 C 73.089175 51.121924 72.551016 51.106612 72.097656 50.789062 C 71.015346 50.030982 68.302852 46.664935 65.357422 42.421875 C 63.586642 39.870995 61.316749 37.067264 59.693359 35.427734 C 57.369859 33.081144 56.578308 32.497556 54.142578 31.322266 C 50.838768 29.728116 48.299072 29.015625 45.919922 29.015625 z M 89.921875 66.951172 C 91.365977 66.878018 92.636603 67.324525 94.005859 68.316406 C 95.522779 69.415266 95.787058 70.406125 94.367188 69.671875 C 93.216078 69.076635 93.152344 69.089497 93.152344 69.898438 C 93.152344 70.274218 92.942407 70.881327 92.685547 71.248047 C 92.169517 71.984787 90.452539 72.157439 89.449219 71.574219 C 88.815139 71.205639 87.946158 69.330784 88.210938 68.902344 C 88.312547 68.737944 87.867962 68.615234 87.169922 68.615234 C 85.647362 68.615234 85.610315 68.215612 87.078125 67.638672 C 88.126625 67.226543 89.055414 66.995064 89.921875 66.951172 z "
           transform="translate(315.19907,233.29909)"
           id="path4573" />
      </g>
      <rect
         style="opacity:0.63500007;fill:none;fill-opacity:1;stroke:none;stroke-width:0.37430161;stroke-miterlimit:4;stroke-dasharray:none;stroke-opacity:1"
         id="rect4988-3-7-2"
         width="139.62569"
         height="139.6257"
         x="370.45468"
         y="254.70358" />
    </g>
  </g>
</svg>
