<?xml version="1.0" encoding="UTF-8" standalone="no"?>
<svg
   xmlns:dc="http://purl.org/dc/elements/1.1/"
   xmlns:cc="http://creativecommons.org/ns#"
   xmlns:rdf="http://www.w3.org/1999/02/22-rdf-syntax-ns#"
   xmlns:svg="http://www.w3.org/2000/svg"
   xmlns="http://www.w3.org/2000/svg"
   xmlns:sodipodi="http://sodipodi.sourceforge.net/DTD/sodipodi-0.dtd"
   xmlns:inkscape="http://www.inkscape.org/namespaces/inkscape"
   version="1.1"
   id="svg4353"
   viewBox="0 0 139.62569 139.6257"
   height="39.405476mm"
   width="39.405472mm"
   inkscape:version="0.91 r"
   sodipodi:docname="vk_sheep.svg">
  <sodipodi:namedview
     pagecolor="#ffffff"
     bordercolor="#666666"
     borderopacity="1"
     objecttolerance="10"
     gridtolerance="10"
     guidetolerance="10"
     inkscape:pageopacity="0"
     inkscape:pageshadow="2"
     inkscape:window-width="640"
     inkscape:window-height="480"
     id="namedview7245"
     showgrid="false"
     inkscape:zoom="1.6902332"
     inkscape:cx="69.812844"
     inkscape:cy="69.812851"
     inkscape:window-x="38"
     inkscape:window-y="18"
     inkscape:window-maximized="0"
     inkscape:current-layer="g4945" />
  <defs
     id="defs4355" />
  <metadata
     id="metadata4358">
    <rdf:RDF>
      <cc:Work
         rdf:about="">
        <dc:format>image/svg+xml</dc:format>
        <dc:type
           rdf:resource="http://purl.org/dc/dcmitype/StillImage" />
        <dc:title />
      </cc:Work>
    </rdf:RDF>
  </metadata>
  <g
     transform="translate(189.19466,17.524217)"
     id="layer1">
    <g
       transform="translate(-288.2324,-273.44095)"
       id="g5142">
      <g
         id="g4945"
         transform="translate(-11.038228,19.496472)">
        <path
           style="fill:#000000"
           d="M 70.988281 36.490234 C 69.422252 36.509505 68.632536 36.650838 67.611328 37.009766 C 66.696238 37.331396 65.660617 37.59375 65.310547 37.59375 C 64.210047 37.59375 57.452638 41.157148 56.554688 42.210938 C 56.099157 42.745527 54.955975 43.550933 54.015625 44.001953 C 53.075275 44.452973 51.725275 45.406041 51.015625 46.119141 C 50.305975 46.832241 49.303699 47.631591 48.787109 47.894531 C 48.270509 48.157481 47.527619 48.747361 47.136719 49.207031 C 46.745809 49.666711 46.055013 50.209529 45.601562 50.412109 C 45.148112 50.614689 44.18875 51.322658 43.46875 51.986328 C 42.74875 52.649998 41.921639 53.193359 41.630859 53.193359 C 41.340079 53.193359 40.024281 53.680641 38.707031 54.275391 C 37.203231 54.954371 35.650216 55.416468 34.535156 55.517578 C 32.792316 55.675618 32.769769 55.689028 33.292969 56.267578 C 34.140559 57.204838 35.974028 58.009212 38.898438 58.726562 C 41.475227 59.358643 41.556206 59.402295 40.472656 59.578125 C 39.844926 59.679995 38.715914 60.124293 37.964844 60.564453 L 36.599609 61.363281 L 38.847656 62.472656 C 41.784766 63.922366 43.660536 65.324577 46.035156 67.841797 C 48.776586 70.747857 50.887882 74.098347 55.107422 82.242188 C 57.131132 86.148037 59.226452 90.086641 59.763672 90.994141 C 62.606022 95.795551 66.371525 99.893489 69.859375 101.98047 C 70.995915 102.66051 71.969384 103.17937 72.021484 103.13477 C 72.073574 103.09013 71.970409 102.51445 71.792969 101.85547 C 71.402929 100.40698 71.567977 99.888576 72.904297 98.384766 C 73.470317 97.747776 74.123439 96.77408 74.355469 96.21875 C 74.587509 95.66342 75.168644 95.006876 75.646484 94.759766 C 76.124314 94.512686 77.102463 93.653282 77.820312 92.851562 C 78.538152 92.049843 79.63125 91.08985 80.25 90.71875 C 80.86875 90.34765 81.375 89.933765 81.375 89.796875 C 81.375 89.659955 82.117891 88.786942 83.025391 87.857422 C 83.932891 86.927902 84.675781 85.996843 84.675781 85.789062 C 84.675781 85.581312 85.157894 84.945573 85.746094 84.376953 C 86.943194 83.219703 88.576172 80.883575 88.576172 80.328125 C 88.576172 79.943615 86.481909 79.309978 85.068359 79.267578 C 84.283579 79.244028 84.313298 79.203591 85.517578 78.650391 C 87.364678 77.801931 90.270117 77.656364 94.210938 78.214844 C 99.648938 78.985454 101.93437 78.731219 103.06055 77.230469 C 103.26108 76.963229 103.91109 76.519814 104.50391 76.246094 C 106.26233 75.434204 106.6947 74.133266 106.625 69.853516 C 106.55469 65.539496 106.28648 64.85511 103.39844 61.59375 C 99.376477 57.0519 93.895193 49.811549 93.351562 48.324219 C 93.055032 47.512949 92.296479 46.260446 91.667969 45.541016 C 91.039449 44.821576 90.237086 43.850662 89.884766 43.382812 C 89.532456 42.914963 88.857456 42.337949 88.384766 42.099609 C 87.912086 41.861279 87.209056 41.284573 86.822266 40.820312 C 86.037226 39.878042 84.10876 38.792969 83.21875 38.792969 C 82.89901 38.792969 82.050131 38.457385 81.332031 38.046875 C 80.574731 37.613945 79.544839 37.298875 78.880859 37.296875 C 78.251259 37.294885 77.442431 37.134696 77.082031 36.941406 C 76.717031 36.745656 74.841389 36.554213 72.849609 36.507812 C 72.118019 36.49076 71.510291 36.483811 70.988281 36.490234 z M 85.111328 51.994141 C 86.594768 51.994141 86.938754 52.412053 85.708984 52.720703 C 85.119604 52.868563 84.98394 53.047757 85.125 53.492188 C 85.22601 53.810457 85.162362 54.345401 84.982422 54.681641 C 84.581872 55.430061 83.131373 55.506373 82.439453 54.814453 C 82.055793 54.430783 81.870728 54.408082 81.517578 54.701172 C 80.900468 55.213352 80.918902 54.452364 81.544922 53.558594 C 82.231982 52.577684 83.562788 51.994141 85.111328 51.994141 z "
           transform="translate(110.07597,236.42026)"
           id="path4569" />
      </g>
      <rect
         style="opacity:0.63500007;fill:none;fill-opacity:1;stroke:none;stroke-width:0.37430161;stroke-miterlimit:4;stroke-dasharray:none;stroke-opacity:1"
         id="rect4988-3-9"
         width="139.62569"
         height="139.6257"
         x="99.037743"
         y="255.91673" />
    </g>
  </g>
</svg>
