<?xml version="1.0" encoding="UTF-8" standalone="no"?>
<svg
   xmlns:dc="http://purl.org/dc/elements/1.1/"
   xmlns:cc="http://creativecommons.org/ns#"
   xmlns:rdf="http://www.w3.org/1999/02/22-rdf-syntax-ns#"
   xmlns:svg="http://www.w3.org/2000/svg"
   xmlns="http://www.w3.org/2000/svg"
   xmlns:sodipodi="http://sodipodi.sourceforge.net/DTD/sodipodi-0.dtd"
   xmlns:inkscape="http://www.inkscape.org/namespaces/inkscape"
   version="1.1"
   id="svg4353"
   viewBox="0 0 139.62569 139.6257"
   height="39.405476mm"
   width="39.405472mm"
   inkscape:version="0.91 r"
   sodipodi:docname="vk_turkey.svg">
  <sodipodi:namedview
     pagecolor="#ffffff"
     bordercolor="#666666"
     borderopacity="1"
     objecttolerance="10"
     gridtolerance="10"
     guidetolerance="10"
     inkscape:pageopacity="0"
     inkscape:pageshadow="2"
     inkscape:window-width="1328"
     inkscape:window-height="750"
     id="namedview7256"
     showgrid="false"
     inkscape:zoom="1.6902332"
     inkscape:cx="-16.565768"
     inkscape:cy="69.812851"
     inkscape:window-x="38"
     inkscape:window-y="18"
     inkscape:window-maximized="1"
     inkscape:current-layer="g4953" />
  <defs
     id="defs4355" />
  <metadata
     id="metadata4358">
    <rdf:RDF>
      <cc:Work
         rdf:about="">
        <dc:format>image/svg+xml</dc:format>
        <dc:type
           rdf:resource="http://purl.org/dc/dcmitype/StillImage" />
        <dc:title />
      </cc:Work>
    </rdf:RDF>
  </metadata>
  <g
     transform="translate(187.79175,9.835742)"
     id="layer1">
    <g
       transform="translate(-433.62012,-263.32619)"
       id="g5148">
      <g
         id="g4953"
         transform="translate(31.308384,17.639259)">
        <path
           style="fill:#000000"
           d="M 66.78125 31.5625 C 60.91503 31.5625 56.345106 33.376746 52.503906 37.228516 C 48.469026 41.274486 46.528894 46.364179 46.433594 53.162109 C 46.315364 61.594619 47.902131 68.000991 53.244141 80.681641 C 56.801131 89.124991 57.394234 91.095036 57.365234 94.353516 C 57.342854 96.870186 56.585739 98.720741 54.855469 100.48828 L 53.607422 101.76367 L 54.644531 101.75 C 55.669661 101.7371 57.252001 101.46429 58.962891 101.00586 L 59.841797 100.76953 L 59.046875 101.62695 C 58.609865 102.09825 58.298616 102.52908 58.353516 102.58398 C 58.408436 102.63891 59.044548 102.54757 59.767578 102.38086 C 63.073158 101.61877 66.023664 102.11379 74.121094 104.79297 C 77.167234 105.80085 81.013562 106.94064 82.669922 107.32422 C 84.326282 107.7078 86.117831 108.02932 86.650391 108.04102 L 87.619141 108.0625 L 86.230469 106.78711 C 80.056839 101.11267 75.448236 88.755588 77.259766 82.736328 C 77.653936 81.426658 77.646874 81.331441 77.183594 81.525391 C 76.172834 81.948541 74.045437 82.252299 73.335938 82.074219 C 72.678247 81.909159 72.762293 81.821143 74.195312 81.158203 C 77.829802 79.476823 78.369883 78.301991 78.658203 71.462891 C 78.915403 65.362141 79.034609 64.763109 79.943359 65.042969 C 81.098949 65.398849 82.356747 66.122755 84.179688 67.484375 C 85.168588 68.223025 86.755228 69.219739 87.705078 69.699219 L 89.431641 70.572266 L 89.431641 76.525391 C 89.431641 79.799891 89.233204 84.488432 88.990234 86.945312 C 88.523464 91.665183 88.654193 93.238336 89.601562 94.285156 C 90.169703 94.912966 91.249471 95.033779 92.119141 94.568359 C 93.281041 93.946519 93.380184 92.773024 92.996094 84.021484 C 92.716734 77.653444 92.712599 74.660234 92.980469 71.121094 C 93.619649 62.675844 92.138649 56.095043 88.193359 49.845703 C 87.566969 48.853503 87.010591 47.448492 86.775391 46.263672 C 85.090241 37.774502 76.64235 31.5625 66.78125 31.5625 z M 73.199219 43.570312 C 73.950774 43.590536 74.658769 44.045619 75.574219 44.943359 C 76.855679 46.200069 76.841922 46.33139 75.482422 45.78125 C 75.155262 45.64886 75.03125 45.799194 75.03125 46.333984 C 75.03125 46.738564 74.784162 47.293336 74.482422 47.566406 C 73.134632 48.786136 70.827408 47.404806 71.455078 45.753906 C 71.737308 45.011576 71.715888 44.990418 70.798828 45.173828 L 69.849609 45.365234 L 70.566406 44.808594 C 71.653666 43.964749 72.447664 43.550089 73.199219 43.570312 z "
           transform="translate(214.51999,235.85119)"
           id="path4577" />
      </g>
      <rect
         style="opacity:0.63500007;fill:none;fill-opacity:1;stroke:none;stroke-width:0.37430161;stroke-miterlimit:4;stroke-dasharray:none;stroke-opacity:1"
         id="rect4988-3-6-1"
         width="139.62569"
         height="139.6257"
         x="245.82837"
         y="253.49045" />
    </g>
  </g>
</svg>
