<?xml version="1.0" encoding="UTF-8" standalone="no"?>
<!-- Created with Inkscape (http://www.inkscape.org/) -->

<svg
   xmlns:dc="http://purl.org/dc/elements/1.1/"
   xmlns:cc="http://creativecommons.org/ns#"
   xmlns:rdf="http://www.w3.org/1999/02/22-rdf-syntax-ns#"
   xmlns:svg="http://www.w3.org/2000/svg"
   xmlns="http://www.w3.org/2000/svg"
   xmlns:sodipodi="http://sodipodi.sourceforge.net/DTD/sodipodi-0.dtd"
   xmlns:inkscape="http://www.inkscape.org/namespaces/inkscape"
   version="1.1"
   width="180.94664"
   height="41.114216"
   id="svg3137"
   inkscape:version="0.48.4 r9939"
   sodipodi:docname="vk_logossskssss.svg">
  <sodipodi:namedview
     pagecolor="#ffffff"
     bordercolor="#666666"
     borderopacity="1"
     objecttolerance="10"
     gridtolerance="10"
     guidetolerance="10"
     inkscape:pageopacity="0"
     inkscape:pageshadow="2"
     inkscape:window-width="1328"
     inkscape:window-height="750"
     id="namedview3012"
     showgrid="false"
     showborder="false"
     fit-margin-top="0"
     fit-margin-left="0"
     fit-margin-right="0"
     fit-margin-bottom="0"
     inkscape:zoom="2.9115141"
     inkscape:cx="137.21094"
     inkscape:cy="30.989812"
     inkscape:window-x="38"
     inkscape:window-y="18"
     inkscape:window-maximized="1"
     inkscape:current-layer="g4005" />
  <defs
     id="defs3139" />
  <metadata
     id="metadata3142">
    <rdf:RDF>
      <cc:Work
         rdf:about="">
        <dc:format>image/svg+xml</dc:format>
        <dc:type
           rdf:resource="http://purl.org/dc/dcmitype/StillImage" />
        <dc:title />
      </cc:Work>
    </rdf:RDF>
  </metadata>
  <g
     transform="matrix(1.3704739,0,0,1.3704739,142.03009,-515.21445)"
     id="layer1">
    <g
       transform="matrix(0.21332166,0,0,0.21332166,-134.46585,352.32235)"
       id="g4231">
      <path
         d="m 225.85624,251.3413 43.4375,-119.0625 -16.09375,0 -36.0937,100.31253 -36.09375,-100.31251 -16.09375,0 43.4375,119.06251 z"
         id="path3985"
         style="font-size:357.16946411px;font-style:normal;font-weight:normal;text-align:center;line-height:125%;letter-spacing:0px;word-spacing:0px;text-anchor:middle;fill:#338000;fill-opacity:1;stroke:none;display:inline;font-family:Sans"
         inkscape:connector-curvature="0" />
      <path
         d="m 249.20705,193.52883 -5.71484,15.66797 42.12109,42.14453 21.09375,0 z"
         id="path3987"
         style="font-size:357.16946411px;font-style:normal;font-weight:normal;text-align:center;line-height:125%;letter-spacing:0px;word-spacing:0px;text-anchor:middle;fill:#225500;fill-opacity:1;stroke:none;display:inline;font-family:Sans"
         inkscape:connector-curvature="0" />
      <g
         transform="matrix(1.1797627,0.03924573,-0.03601889,1.0827609,330.24324,142.15098)"
         id="g3995">
        <g
           transform="translate(6.8284271,83.781746)"
           id="g3997"
           style="fill:#000000">
          <path
             d="m -156.22101,-107.40591 -7.83247,30.036951 4.78808,13.738671 22.92577,10.207259 -8.60855,-23.374354 -7.71133,-3.206598 z"
             id="path3999"
             style="opacity:0.98999999000000005;fill:#000000;fill-opacity:1;fill-rule:evenodd;stroke:none"
             inkscape:connector-curvature="0" />
        </g>
        <g
           transform="translate(6.8284271,83.781746)"
           id="g4001"
           style="fill:#999999">
          <path
             d="m -156.22101,-107.40591 -7.83247,30.036951 4.78808,13.738671 z"
             id="path4003"
             style="opacity:0.26630435;fill:#999999;fill-opacity:1;fill-rule:evenodd;stroke:none"
             inkscape:connector-curvature="0" />
        </g>
      </g>
      <g
         transform="matrix(-1.1797627,0.03924573,0.03601889,1.0827609,103.97045,142.15098)"
         id="g4005">
        <g
           transform="translate(6.8284271,83.781746)"
           id="g4007"
           style="fill:#000000">
          <path
             d="m -156.22101,-107.40591 -7.83247,30.036951 4.78808,13.738671 22.92577,10.207259 -8.60855,-23.374354 -7.71133,-3.206598 z"
             id="path4009"
             style="opacity:0.98999999000000005;fill:#000000;fill-opacity:1;fill-rule:evenodd;stroke:none"
             inkscape:connector-curvature="0" />
        </g>
        <g
           transform="translate(6.8284271,83.781746)"
           id="g4011"
           style="fill:#999999">
          <path
             d="m -156.22101,-107.40591 -7.83247,30.036951 4.78808,13.738671 z"
             id="path4013"
             style="opacity:0.26630435;fill:#999999;fill-opacity:1;fill-rule:evenodd;stroke:none"
             inkscape:connector-curvature="0" />
        </g>
      </g>
      <path
         d="m 250.9029,132.27529 -18.75,7.84375 -15.0625,41.875 0,43.09375 33.84375,-92.8125 -0.0312,0 z"
         id="path4217"
         style="font-size:357.16946411px;font-style:normal;font-weight:normal;text-align:center;line-height:125%;letter-spacing:0px;word-spacing:0px;text-anchor:middle;fill:#225500;fill-opacity:1;stroke:none;display:inline;font-family:Sans"
         inkscape:connector-curvature="0" />
      <g
         transform="matrix(1.1555306,0.24110021,-0.2212766,1.0605212,585.97035,159.41672)"
         id="g3897" />
    </g>
  </g>
  <g
     transform="matrix(1.3689036,0,0,1.3689036,-8.3328996,-4.1237016)"
     id="g3135">
    <g
       id="text3111"
       style="font-size:40px;font-style:normal;font-variant:normal;font-weight:normal;font-stretch:normal;line-height:125%;letter-spacing:0px;word-spacing:0px;fill:#000000;fill-opacity:1;stroke:none;font-family:KacstQurn;-inkscape-font-specification:KacstQurn">
      <path
         d="m 54.216209,32.578075 -3.867187,0 -8.90625,-25.1171871 3.945312,0 6.914063,20.6250001 6.914062,-20.6250001 3.90625,0 -8.90625,25.1171871"
         id="path3308"
         style="letter-spacing:-4.1500001px;fill:#000000;font-family:Padauk;-inkscape-font-specification:Padauk"
         inkscape:connector-curvature="0" />
      <path
         d="m 73.581835,32.578075 c -0.104181,-0.442707 -0.195327,-0.859374 -0.273438,-1.25 -0.0521,-0.390623 -0.10418,-0.807289 -0.15625,-1.25 -0.807304,1.015627 -1.601574,1.770834 -2.382812,2.265625 -0.781261,0.46875 -1.744801,0.703125 -2.890625,0.703125 -0.755216,0 -1.523445,-0.104167 -2.304688,-0.3125 -0.781255,-0.208333 -1.4974,-0.520833 -2.148437,-0.9375 -0.651045,-0.416665 -1.184899,-0.937498 -1.601563,-1.5625 -0.416668,-0.624997 -0.625001,-1.367183 -0.625,-2.226562 -10e-7,-1.328119 0.299477,-2.395826 0.898438,-3.203125 0.598955,-0.833325 1.354163,-1.484366 2.265625,-1.953125 0.937494,-0.46874 1.966139,-0.78124 3.085937,-0.9375 1.119783,-0.182281 2.18749,-0.273427 3.203125,-0.273438 l 2.382813,0 c 0.07811,-0.65103 0.07811,-1.249987 0,-1.796875 -0.0521,-0.546861 -0.221368,-1.015611 -0.507813,-1.40625 -0.286471,-0.416652 -0.703137,-0.742172 -1.25,-0.976562 -0.520844,-0.23436 -1.197927,-0.351547 -2.03125,-0.351563 -0.442717,1.6e-5 -0.898446,0.0521 -1.367187,0.15625 -0.442716,0.07814 -0.859383,0.23439 -1.25,0.46875 -0.36459,0.208348 -0.664069,0.494806 -0.898438,0.859375 -0.234381,0.338556 -0.351568,0.768243 -0.351562,1.289063 l -3.242188,0 c -2e-6,-1.015611 0.19531,-1.848944 0.585938,-2.5 0.416663,-0.677068 0.950516,-1.210921 1.601562,-1.601563 0.677078,-0.390607 1.432286,-0.651024 2.265625,-0.78125 0.833326,-0.156232 1.679679,-0.234357 2.539063,-0.234375 0.572906,1.8e-5 1.197906,0.03908 1.875,0.117188 0.703113,0.0521 1.367174,0.182309 1.992187,0.390625 0.651028,0.20835 1.223944,0.507829 1.71875,0.898437 0.520818,0.3646 0.898422,0.872412 1.132813,1.523438 0.07811,0.208348 0.143212,0.481785 0.195312,0.820312 0.05207,0.312514 0.07811,0.664076 0.07813,1.054688 0.02603,0.390638 0.03905,0.807304 0.03906,1.25 0.02603,0.416678 0.03905,0.807303 0.03906,1.171875 l 0,5.703125 c -1.6e-5,0.390629 -1.6e-5,0.820316 0,1.289062 0.02603,0.468754 0.05207,0.937503 0.07813,1.40625 0.05207,0.44271 0.10415,0.859377 0.15625,1.25 0.05207,0.390626 0.130192,0.703126 0.234375,0.9375 l -3.085937,0 m -0.585938,-8.554687 c -0.208346,-0.02603 -0.494804,-0.05208 -0.859375,-0.07813 -0.364595,-0.02603 -0.664074,-0.03905 -0.898437,-0.03906 -0.572928,9e-6 -1.250011,0.05209 -2.03125,0.15625 -0.781259,0.104175 -1.523446,0.299488 -2.226563,0.585938 -0.703131,0.260424 -1.302089,0.638028 -1.796875,1.132812 -0.494797,0.468757 -0.742192,1.080735 -0.742187,1.835938 -5e-6,0.963546 0.338536,1.718753 1.015625,2.265625 0.677077,0.546877 1.484367,0.820314 2.421875,0.820312 1.09374,2e-6 1.966135,-0.169268 2.617187,-0.507812 0.677072,-0.364581 1.197905,-0.846351 1.5625,-1.445313 0.364571,-0.624995 0.611966,-1.34114 0.742188,-2.148437 0.130195,-0.807285 0.195299,-1.666659 0.195312,-2.578125"
         id="path3310"
         style="letter-spacing:-4.1500001px;fill:#000000;font-family:Padauk;-inkscape-font-specification:Padauk"
         inkscape:connector-curvature="0" />
      <path
         d="m 87.049023,32.578075 -6.914063,-9.257812 0,9.257812 -3.164062,0 0,-25.1171871 3.164062,0 0,15.0000001 6.640625,-7.265625 3.90625,0 -6.953125,7.539062 7.5,9.84375 -4.179687,0"
         id="path3312"
         style="letter-spacing:-4.1500001px;fill:#000000;font-family:Padauk;-inkscape-font-specification:Padauk"
         inkscape:connector-curvature="0" />
      <path
         d="m 102.11777,32.578075 0,-2.226562 c -0.46876,0.75521 -1.1198,1.39323 -1.95312,1.914062 -0.807307,0.520834 -1.914077,0.78125 -3.320316,0.78125 -2.369799,0 -4.075526,-0.546875 -5.117188,-1.640625 -1.041669,-1.119789 -1.562502,-2.695308 -1.5625,-4.726562 l 0,-11.484375 3.164063,0 0,11.523437 c -6e-6,0.598964 0.117181,1.158859 0.351562,1.679688 0.234369,0.520837 0.533848,0.976566 0.898438,1.367187 0.390617,0.364586 0.833325,0.651044 1.328125,0.859375 0.520824,0.208335 1.054678,0.312502 1.601562,0.3125 0.62499,2e-6 1.210927,-0.104165 1.757813,-0.3125 0.572904,-0.234372 1.067691,-0.546872 1.484371,-0.9375 0.41666,-0.390621 0.74218,-0.859371 0.97657,-1.40625 0.2604,-0.572911 0.39061,-1.210932 0.39062,-1.914062 l 0,-11.171875 3.16406,0 0,17.382812 -3.16406,0"
         id="path3314"
         style="letter-spacing:-4.1500001px;fill:#000000;font-family:Padauk;-inkscape-font-specification:Padauk"
         inkscape:connector-curvature="0" />
      <path
         d="m 117.96777,32.578075 0,-11.523437 c -1e-5,-0.572905 -0.1172,-1.119779 -0.35156,-1.640625 -0.23439,-0.52082 -0.54689,-0.963528 -0.9375,-1.328125 -0.39064,-0.39061 -0.84637,-0.690089 -1.36719,-0.898438 -0.52084,-0.234359 -1.06772,-0.351546 -1.64062,-0.351562 -0.62501,1.6e-5 -1.21095,0.117203 -1.75781,0.351562 -0.54689,0.208349 -1.02866,0.520849 -1.44532,0.9375 -0.41667,0.390639 -0.75521,0.859389 -1.01562,1.40625 -0.23438,0.546888 -0.35157,1.145846 -0.35156,1.796875 l 0,11.25 -3.16407,0 0,-17.382812 3.16407,0 0,2.226562 c 0.52082,-0.72915 1.17186,-1.35415 1.95312,-1.875 0.80728,-0.520815 1.91405,-0.781232 3.32031,-0.78125 1.24999,1.8e-5 2.29166,0.169289 3.125,0.507813 0.85936,0.312517 1.54947,0.755225 2.07032,1.328125 0.54685,0.54689 0.92446,1.210952 1.13281,1.992187 0.23436,0.781264 0.35154,1.640638 0.35156,2.578125 l 0,11.40625 -3.08594,0"
         id="path3316"
         style="letter-spacing:-4.1500001px;fill:#000000;font-family:Padauk;-inkscape-font-specification:Padauk"
         inkscape:connector-curvature="0" />
      <path
         d="m 138.2709,23.9062 c -2e-5,1.562508 -0.2344,2.916673 -0.70313,4.0625 -0.44272,1.145837 -1.0547,2.096357 -1.83594,2.851563 -0.75522,0.755209 -1.65366,1.315105 -2.69531,1.679687 -1.04168,0.364583 -2.14845,0.546875 -3.32031,0.546875 -1.19793,0 -2.31772,-0.182292 -3.35938,-0.546875 -1.04167,-0.364582 -1.95313,-0.924478 -2.73437,-1.679687 -0.75521,-0.755206 -1.35417,-1.705726 -1.79688,-2.851563 -0.44271,-1.145827 -0.66406,-2.499992 -0.66406,-4.0625 0,-1.562489 0.22135,-2.916655 0.66406,-4.0625 0.44271,-1.145819 1.04167,-2.096339 1.79688,-2.851562 0.78124,-0.755192 1.6927,-1.315087 2.73437,-1.679688 1.04166,-0.364565 2.16145,-0.546857 3.35938,-0.546875 1.17186,1.8e-5 2.27863,0.18231 3.32031,0.546875 1.04165,0.364601 1.94009,0.924496 2.69531,1.679688 0.78124,0.755223 1.39322,1.705743 1.83594,2.851562 0.46873,1.145845 0.70311,2.500011 0.70313,4.0625 m -3.28125,0 c -2e-5,-0.807282 -0.10419,-1.627593 -0.3125,-2.460937 -0.20835,-0.833321 -0.53387,-1.575508 -0.97657,-2.226563 -0.41668,-0.677069 -0.96355,-1.223943 -1.64062,-1.640625 -0.65105,-0.416651 -1.4323,-0.624984 -2.34375,-0.625 -0.93751,1.6e-5 -1.7448,0.208349 -2.42188,0.625 -0.67709,0.416682 -1.23698,0.963556 -1.67968,1.640625 -0.41668,0.651055 -0.72918,1.393242 -0.9375,2.226563 -0.20834,0.833344 -0.31251,1.653655 -0.3125,2.460937 -1e-5,0.833342 0.10416,1.653653 0.3125,2.460938 0.20832,0.807297 0.52082,1.549484 0.9375,2.226562 0.4427,0.651045 1.00259,1.184899 1.67968,1.601563 0.67708,0.390627 1.48437,0.585939 2.42188,0.585937 0.91145,2e-6 1.6927,-0.19531 2.34375,-0.585937 0.67707,-0.416664 1.22394,-0.950518 1.64062,-1.601563 0.4427,-0.677078 0.76822,-1.419265 0.97657,-2.226562 0.20831,-0.807285 0.31248,-1.627596 0.3125,-2.460938"
         id="path3318"
         style="letter-spacing:-4.1500001px;fill:#000000;font-family:Padauk;-inkscape-font-specification:Padauk"
         inkscape:connector-curvature="0" />
    </g>
  </g>
</svg>
