<?xml version="1.0" encoding="UTF-8" standalone="no"?>
<!-- Created with Inkscape (http://www.inkscape.org/) -->

<svg
   xmlns:dc="http://purl.org/dc/elements/1.1/"
   xmlns:cc="http://creativecommons.org/ns#"
   xmlns:rdf="http://www.w3.org/1999/02/22-rdf-syntax-ns#"
   xmlns:svg="http://www.w3.org/2000/svg"
   xmlns="http://www.w3.org/2000/svg"
   version="1.1"
   width="67.172302"
   height="127.65559"
   viewBox="0 0 67.172301 127.6556"
   id="svg3849"
   xml:space="preserve"><metadata
     id="metadata4561"><rdf:RDF><cc:Work
         rdf:about=""><dc:format>image/svg+xml</dc:format><dc:type
           rdf:resource="http://purl.org/dc/dcmitype/StillImage" /><dc:title></dc:title></cc:Work></rdf:RDF></metadata><defs
     id="defs4559" /><path
     d="m 51.032237,48.689428 0.0012,0.002 0,-0.002 -0.0012,0 z"
     id="path4163"
     style="fill:#fffffe;fill-opacity:1;stroke-width:2.66667008;stroke-linecap:round;stroke-linejoin:round" /><path
     d="m 14.961112,46.972338 c 0,2.52449 -2.045289,4.56978 -4.568563,4.56978 -2.522664,0 -4.567953,-2.04529 -4.567953,-4.56978 0,-2.52206 2.045289,-4.56796 4.567953,-4.56796 2.523274,0 4.568563,2.0459 4.568563,4.56796 z"
     id="path4165"
     style="fill:#ffda96;fill-opacity:1;stroke-width:2.66667008;stroke-linecap:round;stroke-linejoin:round" /><path
     d="m 62.977599,46.972338 c 0,2.52449 -2.04529,4.56978 -4.56795,4.56978 -2.523886,0 -4.568565,-2.04529 -4.568565,-4.56978 0,-2.52206 2.044679,-4.56796 4.568565,-4.56796 2.52266,0 4.56795,2.0459 4.56795,4.56796 z"
     id="path4167"
     style="fill:#ffda96;fill-opacity:1;stroke-width:2.66667008;stroke-linecap:round;stroke-linejoin:round" /><path
     d="m 51.465163,93.430048 c 1.177,-0.0542 2.308942,-0.46946 3.436621,-0.77879 1.258593,-0.34463 2.571375,-0.32576 3.832405,-0.6576 0.0743,-0.0195 0.0426,-0.12909 -0.031,-0.11387 -1.1697,0.24539 -2.375315,0.25026 -3.535266,0.54436 -1.239717,0.31419 -2.463602,0.68074 -3.705145,0.99006 l 0.0024,0.0158 z"
     id="path4169"
     style="fill:#944232;fill-opacity:1;stroke-width:2.66667008;stroke-linecap:round;stroke-linejoin:round" /><path
     d="m 52.1246,93.357588 c -0.0548,0.16075 -0.04262,0.42318 0.05176,0.56749 0.01705,0.0262 0.05663,0.0225 0.06576,-0.008 0.04871,-0.16196 -0.0073,-0.40552 -0.06576,-0.55957 -0.0097,-0.025 -0.04262,-0.0262 -0.05176,0 z"
     id="path4171"
     style="fill:#944232;fill-opacity:1;stroke-width:2.66667008;stroke-linecap:round;stroke-linejoin:round" /><path
     d="m 52.527081,93.235808 c -0.05785,0.17353 -0.02618,0.51512 0.100469,0.65091 0.02131,0.0238 0.0682,0.0201 0.0822,-0.0104 0.03836,-0.0822 0.02862,-0.14188 0.01279,-0.23138 -0.02253,-0.13335 -0.04201,-0.28253 -0.09194,-0.40918 -0.01949,-0.0481 -0.08585,-0.0524 -0.103513,0 z"
     id="path4173"
     style="fill:#944232;fill-opacity:1;stroke-width:2.66667008;stroke-linecap:round;stroke-linejoin:round" /><path
     d="m 53.077525,93.083578 c 0.04445,0.19789 0.05663,0.43232 0.17171,0.60403 0.01157,0.0171 0.03532,0.006 0.03166,-0.0134 -0.03532,-0.19911 -0.11021,-0.40552 -0.172318,-0.59915 -0.0067,-0.0201 -0.03593,-0.0122 -0.03105,0.009 z"
     id="path4175"
     style="fill:#944232;fill-opacity:1;stroke-width:2.66667008;stroke-linecap:round;stroke-linejoin:round" /><path
     d="m 53.541506,93.022078 c 0.01583,0.20764 0.05663,0.47555 0.201545,0.63508 0.02436,0.0256 0.07672,0.014 0.08342,-0.0225 0.03836,-0.2119 -0.06637,-0.45972 -0.163185,-0.64605 -0.02923,-0.0566 -0.127259,-0.0317 -0.121779,0.0335 z"
     id="path4177"
     style="fill:#944232;fill-opacity:1;stroke-width:2.66667008;stroke-linecap:round;stroke-linejoin:round" /><path
     d="m 54.008531,92.835148 c -0.03105,0.12483 0.01827,0.26731 0.05176,0.38848 0.03958,0.14126 0.08403,0.29166 0.211896,0.37569 0.02801,0.0177 0.05724,-0.007 0.06028,-0.0347 0.014,-0.13639 -0.04323,-0.26548 -0.07916,-0.39456 -0.0341,-0.11996 -0.05785,-0.26975 -0.148572,-0.36047 -0.03044,-0.0298 -0.08585,-0.0164 -0.0962,0.0256 z"
     id="path4179"
     style="fill:#944232;fill-opacity:1;stroke-width:2.66667008;stroke-linecap:round;stroke-linejoin:round" /><path
     d="m 54.430497,92.736508 c 0.0018,0.13335 0.04567,0.25452 0.0889,0.37934 0.03775,0.11143 0.04445,0.23504 0.135784,0.31359 0.03105,0.0274 0.07307,0.0158 0.08707,-0.0225 0.04201,-0.11691 -0.0207,-0.22347 -0.06211,-0.3349 -0.04871,-0.12908 -0.102295,-0.25391 -0.192412,-0.35925 -0.01948,-0.0225 -0.05785,-0.004 -0.05724,0.0237 z"
     id="path4181"
     style="fill:#944232;fill-opacity:1;stroke-width:2.66667008;stroke-linecap:round;stroke-linejoin:round" /><path
     d="m 55.007123,92.634818 c -0.0615,0.12605 -0.02801,0.26244 -0.0018,0.39518 0.02618,0.13457 0.06333,0.33063 0.169882,0.42318 0.02679,0.0231 0.06089,0.0116 0.07368,-0.0195 0.05115,-0.12543 -0.01949,-0.26731 -0.05358,-0.39213 -0.03775,-0.13274 -0.06393,-0.28679 -0.13274,-0.40675 -0.01157,-0.0207 -0.04506,-0.0219 -0.05541,0 z"
     id="path4183"
     style="fill:#944232;fill-opacity:1;stroke-width:2.66667008;stroke-linecap:round;stroke-linejoin:round" /><path
     d="m 55.446748,92.507568 c -0.0067,0.14857 0.04506,0.2947 0.09194,0.43414 0.04628,0.13883 0.07307,0.32089 0.178407,0.42684 0.02192,0.0225 0.06941,0.014 0.07611,-0.0207 0.02436,-0.13395 -0.04749,-0.26182 -0.09194,-0.38786 -0.05541,-0.1571 -0.09499,-0.32637 -0.169882,-0.47494 -0.02131,-0.0426 -0.08342,-0.0195 -0.08464,0.0225 z"
     id="path4185"
     style="fill:#944232;fill-opacity:1;stroke-width:2.66667008;stroke-linecap:round;stroke-linejoin:round" /><path
     d="m 55.888199,92.488078 c 0.06272,0.22529 0.129695,0.45241 0.240515,0.65944 0.01096,0.0195 0.04323,0.011 0.04262,-0.0116 -0.0049,-0.24356 -0.118127,-0.45911 -0.222248,-0.67344 -0.01644,-0.0347 -0.07063,-0.0103 -0.06089,0.0256 z"
     id="path4187"
     style="fill:#944232;fill-opacity:1;stroke-width:2.66667008;stroke-linecap:round;stroke-linejoin:round" /><path
     d="m 56.32417,92.415618 c -0.02009,0.13031 0.02618,0.25209 0.06515,0.3763 0.04019,0.12726 0.08342,0.25878 0.168056,0.36351 0.01279,0.017 0.04262,0.007 0.04689,-0.0122 0.05176,-0.22529 -0.05906,-0.5888 -0.23747,-0.7392 -0.01279,-0.0103 -0.03958,-0.01 -0.04262,0.0116 z"
     id="path4189"
     style="fill:#944232;fill-opacity:1;stroke-width:2.66667008;stroke-linecap:round;stroke-linejoin:round" /><path
     d="m 56.807026,92.372388 c 0.05662,0.24417 0.168053,0.49138 0.320893,0.68988 0.0152,0.0207 0.0517,0.01 0.0432,-0.0183 -0.067,-0.24112 -0.1918,-0.47555 -0.31298,-0.69292 -0.01583,-0.0286 -0.05845,-0.009 -0.05114,0.0213 z"
     id="path4191"
     style="fill:#944232;fill-opacity:1;stroke-width:2.66667008;stroke-linecap:round;stroke-linejoin:round" /><path
     d="m 57.207069,92.286538 c 0.0219,0.13517 0.0524,0.25695 0.095,0.38786 0.0384,0.11813 0.0493,0.25148 0.13335,0.34647 0.0152,0.0176 0.0499,0.014 0.0609,-0.008 0.11326,-0.2326 -0.11691,-0.55897 -0.23808,-0.74773 -0.0177,-0.0286 -0.0566,-0.01 -0.0512,0.0213 z"
     id="path4193"
     style="fill:#944232;fill-opacity:1;stroke-width:2.66667008;stroke-linecap:round;stroke-linejoin:round" /><path
     d="m 57.625999,92.222598 c 0.011,0.20946 0.0725,0.5133 0.23199,0.66126 0.0298,0.0274 0.0785,0.008 0.0798,-0.0335 0.003,-0.11142 -0.0475,-0.20337 -0.0877,-0.30505 -0.0469,-0.11752 -0.0932,-0.23078 -0.15649,-0.34099 -0.017,-0.0304 -0.0694,-0.0183 -0.0676,0.0183 z"
     id="path4195"
     style="fill:#944232;fill-opacity:1;stroke-width:2.66667008;stroke-linecap:round;stroke-linejoin:round" /><path
     d="m 57.988289,92.112388 c 0.0359,0.13335 0.0767,0.26426 0.11447,0.397 0.0329,0.1163 0.0158,0.25148 0.0883,0.34951 0.007,0.009 0.0207,0.011 0.0274,0 0.0627,-0.0974 0.0183,-0.21007 -0.011,-0.31541 -0.0426,-0.1577 -0.11508,-0.29958 -0.18754,-0.4445 -0.009,-0.0183 -0.0365,-0.005 -0.0317,0.0134 z"
     id="path4197"
     style="fill:#944232;fill-opacity:1;stroke-width:2.66667008;stroke-linecap:round;stroke-linejoin:round" /><path
     d="m 58.486979,92.098988 c -0.0974,0.23139 -0.0158,0.59368 0.11021,0.80131 0.0189,0.0305 0.0658,0.0244 0.0761,-0.0103 0.0365,-0.12117 0.0244,-0.23564 -0.003,-0.35742 -0.0335,-0.1504 -0.0542,-0.30201 -0.12239,-0.44145 -0.014,-0.0292 -0.0512,-0.0158 -0.0609,0.008 z"
     id="path4199"
     style="fill:#944232;fill-opacity:1;stroke-width:2.66667008;stroke-linecap:round;stroke-linejoin:round" /><path
     d="m 10.266508,92.027748 c -0.06759,0.10839 -0.09803,0.23504 -0.138829,0.3556 -0.04141,0.12422 -0.115691,0.24843 -0.101686,0.38117 0.003,0.0335 0.04323,0.0579 0.07063,0.0292 0.09499,-0.10047 0.116908,-0.24661 0.155878,-0.3763 0.03836,-0.12726 0.07124,-0.25452 0.04567,-0.38604 -0.003,-0.0152 -0.02436,-0.0158 -0.03166,-0.004 z"
     id="path4201"
     style="fill:#944232;fill-opacity:1;stroke-width:2.66667008;stroke-linecap:round;stroke-linejoin:round" /><path
     d="m 10.786507,92.193368 c -0.04445,0.12422 -0.05176,0.26 -0.07733,0.3897 -0.02253,0.11204 -0.0755,0.2393 -0.0097,0.34098 0.01705,0.0268 0.05602,0.042 0.08464,0.0219 0.104122,-0.0731 0.0956,-0.19119 0.113255,-0.31054 0.0207,-0.14248 0.03775,-0.30384 -0.0073,-0.44206 -0.01705,-0.0517 -0.08525,-0.0499 -0.103512,0 z"
     id="path4203"
     style="fill:#944232;fill-opacity:1;stroke-width:2.66667008;stroke-linecap:round;stroke-linejoin:round" /><path
     d="m 11.398449,92.282268 c -0.04445,0.11569 -0.02557,0.2667 -0.04871,0.38909 -0.02436,0.13213 -0.116299,0.28253 -0.07307,0.41405 0.014,0.0444 0.07185,0.0786 0.11569,0.0469 0.135176,-0.098 0.151616,-0.3288 0.170492,-0.4859 0.01461,-0.11995 0.03166,-0.32758 -0.103513,-0.38908 -0.02618,-0.0116 -0.05115,-0.002 -0.06089,0.025 z"
     id="path4205"
     style="fill:#944232;fill-opacity:1;stroke-width:2.66667008;stroke-linecap:round;stroke-linejoin:round" /><path
     d="m 11.965333,92.413788 c -0.0414,0.109 -0.0079,0.27705 -0.01644,0.39518 -0.0091,0.12787 -0.08281,0.27218 0.01035,0.37691 0.01522,0.0177 0.04262,0.0195 0.0615,0.008 0.130304,-0.0737 0.106557,-0.30749 0.113255,-0.44023 0.0043,-0.11082 -0.0055,-0.3081 -0.123606,-0.35803 -0.01948,-0.009 -0.03714,-0.002 -0.04506,0.0183 z"
     id="path4207"
     style="fill:#944232;fill-opacity:1;stroke-width:2.66667008;stroke-linecap:round;stroke-linejoin:round" /><path
     d="m 12.814746,92.598898 c -0.0682,0.0865 -0.08159,0.18206 -0.09864,0.28984 -0.01766,0.10838 -0.06759,0.23807 -0.0012,0.33367 0.01888,0.0268 0.05176,0.0384 0.08098,0.0213 0.08768,-0.0505 0.08464,-0.11995 0.09742,-0.21433 0.01705,-0.13091 0.0408,-0.27766 0.0091,-0.40735 -0.0091,-0.0353 -0.06272,-0.0542 -0.08768,-0.0231 z"
     id="path4209"
     style="fill:#944232;fill-opacity:1;stroke-width:2.66667008;stroke-linecap:round;stroke-linejoin:round" /><path
     d="m 13.354839,92.620818 c -0.01766,0.12787 -0.03653,0.25513 -0.06272,0.38178 -0.02862,0.13396 -0.07489,0.2667 -0.07489,0.40431 0,0.0749 0.09986,0.081 0.123606,0.0171 0.08586,-0.2326 0.144918,-0.53949 0.124215,-0.78792 -0.0049,-0.0584 -0.101077,-0.0816 -0.11021,-0.0152 z"
     id="path4211"
     style="fill:#944232;fill-opacity:1;stroke-width:2.66667008;stroke-linecap:round;stroke-linejoin:round" /><path
     d="m 14.138491,92.611688 c -0.136393,0.27461 -0.161967,0.62168 -0.193021,0.9237 -0.01218,0.11873 0.186932,0.14491 0.207634,0.028 0.05419,-0.30018 0.114473,-0.63629 0.07307,-0.94013 -0.0055,-0.0414 -0.07063,-0.0469 -0.08768,-0.0116 z"
     id="path4213"
     style="fill:#944232;fill-opacity:1;stroke-width:2.66667008;stroke-linecap:round;stroke-linejoin:round" /><path
     d="m 14.839332,92.800448 c -0.04445,0.13334 -0.04932,0.27461 -0.05724,0.41405 -0.0073,0.13213 -0.05054,0.29288 0.0018,0.4177 0.01035,0.025 0.04506,0.0432 0.06698,0.0177 0.08768,-0.10351 0.07794,-0.246 0.08464,-0.37569 0.0079,-0.15771 0.0061,-0.32333 -0.04445,-0.47372 -0.0085,-0.0256 -0.04323,-0.0256 -0.05176,0 z"
     id="path4215"
     style="fill:#944232;fill-opacity:1;stroke-width:2.66667008;stroke-linecap:round;stroke-linejoin:round" /><path
     d="m 15.466497,92.967278 c -0.05602,0.16319 -0.06576,0.33063 -0.09499,0.4993 -0.02436,0.14248 -0.0682,0.2807 -0.03592,0.42379 0.0079,0.0335 0.05297,0.0438 0.07611,0.0201 0.116908,-0.123 0.135175,-0.29349 0.157095,-0.45607 0.02314,-0.16745 0.03227,-0.32454 -0.01948,-0.48712 -0.0134,-0.0414 -0.06881,-0.0402 -0.08281,0 z"
     id="path4217"
     style="fill:#944232;fill-opacity:1;stroke-width:2.66667008;stroke-linecap:round;stroke-linejoin:round" /><path
     d="m 15.971883,93.093328 c -0.02862,0.13882 -0.03958,0.27948 -0.04932,0.42074 -0.0097,0.1364 -0.06576,0.28375 -0.02801,0.41832 0.0097,0.0329 0.0481,0.0396 0.07185,0.0189 0.108993,-0.0919 0.113864,-0.24417 0.128477,-0.37751 0.01766,-0.16075 0.0097,-0.32211 -0.02253,-0.48042 -0.01035,-0.0499 -0.09073,-0.0499 -0.100468,0 z"
     id="path4219"
     style="fill:#944232;fill-opacity:1;stroke-width:2.66667008;stroke-linecap:round;stroke-linejoin:round" /><path
     d="m 16.610617,93.263208 c -0.05541,0.13274 -0.07489,0.27096 -0.101077,0.411 -0.02192,0.11691 -0.05906,0.22956 -0.02009,0.34525 0.0091,0.0268 0.04445,0.0493 0.07063,0.0286 0.201545,-0.15162 0.180233,-0.54375 0.160749,-0.76965 -0.0061,-0.0658 -0.08586,-0.0731 -0.110211,-0.0152 z"
     id="path4221"
     style="fill:#944232;fill-opacity:1;stroke-width:2.66667008;stroke-linecap:round;stroke-linejoin:round" /><path
     d="m 9.644214,91.957118 c 1.123417,0.25574 2.29859,0.46033 3.43723,0.6497 1.285383,0.21311 2.57503,0.28679 3.819009,0.7051 0.09803,0.0329 0.135175,-0.1163 0.04201,-0.15223 -1.21597,-0.47372 -2.529972,-0.53887 -3.806223,-0.75138 -1.111239,-0.1851 -2.361307,-0.73676 -3.49203,-0.46946 l 0,0.0183 z"
     id="path4223"
     style="fill:#944232;fill-opacity:1;stroke-width:2.66667008;stroke-linecap:round;stroke-linejoin:round" /><path
     d="m 48.041938,72.513788 c -3.289877,-0.73373 -8.365042,-1.62089 -13.647843,-1.62211 -5.288889,0 -10.382321,0.89021 -13.680722,1.62576 -2.084259,0.46094 -3.744724,2.68098 -3.744724,4.81395 l 0,34.792442 34.816186,0 0,-34.792442 c 0,-2.13297 -1.660466,-4.35362 -3.742897,-4.8176 z"
     id="path4225"
     style="fill:#ba533f;fill-opacity:1;stroke-width:2.66667008;stroke-linecap:round;stroke-linejoin:round" /><g
     transform="matrix(0.46863685,0,0,0.49723402,23.155462,83.135218)"
     id="g4608"
     style="opacity:0.83999999"><g
       transform="translate(213.33989,0.1856622)"
       id="g4484"><path
         d="m -205.29738,3.5092511 c 11.09343,2.31011 21.90128,2.1452605 32.48063,0 2.04131,-0.413934 3.75968,1.6768203 3.75968,3.7596867 l 0,32.4806262 c 0,2.082867 -1.75167,3.206333 -3.75968,3.759687 -10.82688,2.983599 -21.65375,2.332503 -32.48063,0 -2.03615,-0.438662 -3.75969,-1.67682 -3.75969,-3.759687 l 0,-32.4806262 c 0,-2.0828664 1.72056,-4.1843171 3.75969,-3.7596867 z"
         id="rect4464"
         style="fill:#006680;fill-opacity:1;fill-rule:evenodd;stroke:none" /><path
         d="m -169.64918,5.2197789 c 1.48733,6.2648221 -2.80658,16.3682091 -11.25,25.1973671 -9.32321,9.749154 -20.59124,14.660861 -26.87499,12.138159 0.66449,0.594293 1.55026,0.778894 2.5,0.953946 10.82237,1.994731 21.64473,2.362134 32.4671,0 2.03496,-0.444159 3.75,-1.667137 3.75,-3.75 l 0,-32.4671051 c 0,-0.764696 -0.20295,-1.480018 -0.59211,-2.072367 z"
         id="path4466"
         style="opacity:0.15;fill:#1a1a1a;fill-opacity:1;fill-rule:evenodd;stroke:none" /></g><path
       d="m 11.46087,13.095485 2.56326,7.954953 -5.9220104,3.049398 z"
       id="rect4480"
       style="fill:#484537;fill-opacity:1;fill-rule:evenodd;stroke:none" /><path
       d="M 33.20654,13.714203 36.30013,24.055641 30.51069,21.02834 z"
       id="rect4482"
       style="fill:#484537;fill-opacity:1;fill-rule:evenodd;stroke:none" /><path
       d="m 11.06139,13.405705 3.09532,7.82151 -3.88607,-5.835477 z"
       id="path4567"
       style="opacity:0.3;fill:#241e1c;fill-opacity:1;fill-rule:evenodd;stroke:none" /><path
       d="m 33.20654,13.714203 1.10745,1.4777 -3.79939,5.883312 z"
       id="path4569"
       style="opacity:0.3;fill:#241e1c;fill-opacity:1;fill-rule:evenodd;stroke:none" /><path
       d="m 19.30849,36.038698 c 0.18141,0.506289 0.68099,0.836351 1.21875,0.84375 l 3.5,0 c 0.53781,-0.0073 1.03735,-0.33747 1.21875,-0.84375 l 2.71875,-7.4375 7.90625,7.90625 c 0.23782,0.241474 0.56738,0.369322 0.90625,0.375 l 4.21875,0 c 0.52895,-0.01485 0.94782,-0.382213 1.125,-0.8125 0.17718,-0.430287 0.14638,-0.992001 -0.21875,-1.375 -3.94587,-3.960396 -7.85936,-7.953106 -11.8125,-11.90625 l 0.25,-0.6875 7.8125,4.34375 -4.1875,-14.8125 c -0.10287,-0.593689 -0.60771,-1.113467 -1.25,-1.125 -1.08238,0 -2.16989,0 -3.24995,0 -0.20285,0.0092 -0.3561,0.1204 -0.53125,0.21875 -0.009,-0.0052 -0.0224,0.005 -0.0312,0 -0.18866,-0.106454 -0.37459,-0.216351 -0.59375,-0.21875 l -3.1875,0 c -0.53781,0.0073 -1.03735,0.33747 -1.21875,0.84375 -1.26929,3.531935 -2.54146,7.063164 -3.8125,10.59375 l -3.8125,-10.59375 c -0.18141,-0.506289 -0.68099,-0.836351 -1.21875,-0.84375 -1.14799,-1.57e-4 -2.33431,0 -3.46865,0 l -2.5e-4,0 c -0.47377,0.101208 -0.8585,0.471411 -1,0.90625 -1.39434,4.980943 -2.8330104,10.029476 -4.2500004,15.03125 L 14.18344,22.101198 z M 13.76712,20.814967 8.4424796,23.745916 11.24464,13.992822 z m 19.49444,-6.745019 2.71875,9.625 -5.18749,-2.875 z"
       id="path4415-5"
       style="font-size:357.16946411px;font-style:normal;font-weight:normal;text-align:center;line-height:125%;letter-spacing:0px;word-spacing:0px;text-anchor:middle;fill:#e0e6e6;fill-opacity:1;stroke:none;display:inline;font-family:Sans" /><g
       transform="translate(223.23938,-39.058766)"
       id="g4468"><path
         d="m -200.9177,74.659929 0,-3.75 -7.21875,-20.0625 -3.21875,0 8.6875,23.8125 1.75,0 z m 0,0 1.75,0 8.6875,-23.8125 -3.21875,0 -7.21875,20.0625 0,3.75 z m 7.1875,-11.5625 -1.15625,3.125 8.4375,8.4375 4.21875,0 -11.5,-11.5625 z m -4.34375,-12.25 c 0,0 -2.93485,8.168589 -4.40625,12.25 l 1.5625,4.3125 6.03125,-16.5625 -3.1875,0 z"
         id="path4440"
         style="font-size:357.16946411px;font-style:normal;font-weight:normal;text-align:center;line-height:125%;letter-spacing:0px;word-spacing:0px;text-anchor:middle;fill:#008000;fill-opacity:1;stroke:none;display:inline;font-family:Sans" /><path
         d="m -198.06496,50.847429 c 0,0 -2.93485,8.168589 -4.40625,12.25 l 1.5625,4.3125 6.03125,-16.5625 -3.1875,0 z"
         id="path4442"
         style="font-size:357.16946411px;font-style:normal;font-weight:normal;text-align:center;line-height:125%;letter-spacing:0px;word-spacing:0px;text-anchor:middle;opacity:0.3;fill:#008033;fill-opacity:1;stroke:none;display:inline;font-family:Sans" /><path
         d="m -200.9177,74.659929 1.75,0 8.6875,-23.8125 -3.21875,0 -7.21875,20.0625 0,3.75 z m 7.1875,-11.5625 -1.15625,3.125 8.4375,8.4375 4.21875,0 -11.5,-11.5625 z"
         id="path4444"
         style="font-size:357.16946411px;font-style:normal;font-weight:normal;text-align:center;line-height:125%;letter-spacing:0px;word-spacing:0px;text-anchor:middle;opacity:0.3;fill:#002b11;fill-opacity:1;stroke:none;display:inline;font-family:Sans" /></g></g><path
     d="m 50.489708,98.527128 c -3.036575,-1.8821 -13.412198,-1.72927 -16.706946,-0.34342 -0.06028,-0.0146 -0.124215,-0.0237 -0.196674,-0.0213 -4.546643,0.16562 -10.233142,0.12483 -14.483251,2.398452 0.672224,-2.008142 0.820186,-7.109492 0.328805,-7.286072 -1.815125,-0.65213 -3.802569,-0.6911 -5.667624,-1.20379 -1.317655,-0.3623 -2.995169,-0.65092 -3.968189,0.53339 -0.350116,0.42623 -0.459109,1.01625 -0.528523,1.5466 -0.158923,1.22389 -0.400655,2.43377 -0.6022,3.65095 -0.404309,2.445342 -0.670397,4.910162 -0.782435,7.385942 -0.0024,0.0469 0.0018,0.0907 0.0073,0.13335 -0.01157,0.0633 -0.01705,0.13152 -0.0073,0.21007 0.754425,5.9538 13.602175,2.06964 13.719084,2.03128 6.896989,-2.25353 13.750137,-4.70983 20.966798,-5.67797 0.02923,0.008 0.05663,0.0183 0.0889,0.0231 0.959623,0.15284 8.21708,0.35134 8.746821,-0.78669 0.463372,-0.99494 0.0037,-2.024592 -0.914565,-2.593912 z"
     id="path4227"
     style="fill:#ffda96;fill-opacity:1;stroke-width:2.66667008;stroke-linecap:round;stroke-linejoin:round" /><path
     d="m 44.015295,99.526328 c 1.106976,0.531572 0.692317,0.901172 0.0097,1.035132 -0.105948,-0.12361 -0.274004,-0.19911 -0.499905,-0.1711 -6.028701,0.69171 -11.779134,2.4155 -17.50643,4.28055 -0.01705,-0.47311 -15.977487,7.06627 -16.765401,0.85977 -0.0067,-0.0548 -0.0207,-0.10595 -0.0341,-0.15466 0.01705,-0.0579 0.03105,-0.11935 0.0341,-0.18815 0.157705,-3.46098 0.860373,-6.792872 1.281731,-10.212442 0.29836,-2.43011 2.094,-1.80295 3.83484,-1.31279 1.329833,0.37326 2.721166,0.39396 4.050999,0.73616 0.44206,2.57442 -0.250257,5.12388 -1.292082,7.491892 -0.222856,0.1851 -0.850021,1.77189 -0.928569,1.9229 -0.404309,0.78486 0.777563,1.47718 1.185524,0.69231 0.29836,-0.57541 0.586369,-1.16482 0.853676,-1.76154 3.944442,-3.115122 10.164945,-3.039622 14.966106,-3.197322 0.192412,0.1437 0.452412,0.1985 0.727025,0.0652 2.094,-1.02843 4.46505,-1.12403 6.751462,-0.91152 1.093581,0.1029 2.33756,0.34585 3.331282,0.82566 z"
     id="path4229"
     style="fill:#ffda96;fill-opacity:1;stroke-width:2.66667008;stroke-linecap:round;stroke-linejoin:round" /><path
     d="m 58.796299,102.44296 c -0.01,-0.0518 -0.0207,-0.10656 -0.0207,-0.16806 -0.0134,-1.37063 0.007,-9.147482 -1.94238,-8.756562 -1.247632,0.25025 -2.488567,0.51451 -3.736199,0.75442 -0.832973,0.1571 -1.583135,0.22529 -2.316857,0.49625 0.376908,2.0118 1.041824,4.02056 2.33756,5.631092 0.0341,0.007 0.06515,0.007 0.09925,0.014 0.836017,0.1437 0.527915,1.36028 -0.260608,1.32983 -0.160749,0.0615 -0.335503,0.0579 -0.496252,-0.0451 -0.806181,-0.0201 -1.621496,0.23321 -2.403321,-0.0371 -0.870116,-0.30201 -1.802339,-0.70998 -2.737606,-0.70998 -1.806601,-0.003 -3.49264,0.44206 -5.223128,0.89813 -1.45344,0.38421 -2.817372,1.11063 -4.273856,1.44979 7.72509,2.19994 20.929657,7.33783 20.953397,-0.68197 0,-0.0615 0.007,-0.11995 0.0207,-0.17475 z m 1.35053,-0.16806 c 0,0.0615 -0.007,0.11995 -0.0207,0.17475 0.014,0.0518 0.0207,0.10656 0.0207,0.16806 -0.0378,12.28574 -21.04656,0.92552 -26.731842,1.19953 -0.151006,0.007 -0.270959,-0.0274 -0.37021,-0.0889 -0.853066,-0.0311 -0.846368,-1.37124 0.0274,-1.36759 2.049551,0.0104 3.982802,-0.1443 5.90144,-0.90482 1.655594,-0.65822 3.382429,-1.17882 5.134229,-1.528332 1.483885,-0.29471 3.112078,-0.57663 4.602052,-0.14431 0.854284,0.243562 1.731098,0.716672 2.646271,0.606462 0.0274,-0.003 0.05115,-0.007 0.0755,-0.0103 -1.028429,-1.603842 -2.512314,-6.196152 -1.997795,-6.494512 0.24295,-0.137 0.489554,-0.4792 0.790959,-0.56201 0.59672,-0.1644 1.268334,-0.137 1.885148,-0.25696 1.035127,-0.19545 2.073298,-0.39395 3.109034,-0.60646 1.092363,-0.22285 2.607914,-0.99068 3.299624,-0.004 0.63813,0.90847 1.00834,2.90322 1.15204,3.88294 0.29409,1.9704 0.4591,3.941402 0.47615,5.936152 z"
     id="path4231"
     style="fill:#ffda96;fill-opacity:1;stroke-width:2.66667008;stroke-linecap:round;stroke-linejoin:round" /><path
     d="m 59.064799,102.19266 c 0,0.067 0.0105,0.12676 0.0217,0.18317 -0.0145,0.0597 -0.0217,0.12277 -0.0217,0.19046 -0.0264,8.74016 -14.322125,3.14102 -22.685599,0.74329 1.576845,-0.36966 3.053489,-1.16204 4.627037,-1.58014 1.873493,-0.49707 3.698861,-0.98219 5.654756,-0.97887 1.012555,0 2.021815,0.44464 2.964495,0.77314 0.845774,0.29532 1.729123,0.0192 2.600607,0.0411 0.174692,0.11215 0.363887,0.11613 0.53792,0.0491 0.853685,0.0332 1.187248,-0.85739 0.282144,-1.01401 -0.18204,0.71767 -0.747806,-0.24985 -0.784722,-0.2571 -1.402812,-1.755332 -1.445406,-4.137532 -1.85346,-6.330202 0.794355,-0.29532 1.60651,-0.37031 2.508317,-0.54219 1.350733,-0.26148 2.693556,-0.54883 4.044295,-0.82159 2.11146,-0.42539 2.08905,8.049972 2.10421,9.543832 z"
     id="path4233"
     style="fill:#ffda96;fill-opacity:1;stroke-width:2.66667008;stroke-linecap:round;stroke-linejoin:round" /><path
     d="m 33.939857,98.186758 c -0.649085,-0.24843 -4.750014,-0.74468 -5.428326,-0.88169 -0.0755,-0.14004 -6.295398,-0.30932 -8.816236,0.70998 -0.393348,0.15953 -0.510257,0.55349 -0.434144,0.87986 l -1.097235,1.947252 11.245131,-1.854092 -0.05541,-0.0779 c 0.267306,0.0743 3.960273,0.49869 4.222099,0.59855 0.826884,0.31601 1.181263,-1.00956 0.364121,-1.32192 z"
     id="path4235"
     style="fill:#ffda96;fill-opacity:1;stroke-width:2.66667008;stroke-linecap:round;stroke-linejoin:round" /><path
     d="m 52.376075,74.939028 c -0.684402,-0.79157 -1.556344,-1.45527 -2.573204,-1.85227 -1.007726,-0.39335 -2.07208,-0.51391 -2.971423,-0.31054 -0.445104,0.0822 -0.831145,0.25209 -1.156906,0.4652 -0.323934,0.20459 -0.58576,0.45546 -0.789741,0.74773 -0.409788,0.56932 -0.566884,1.21962 -0.576626,1.90828 0,1.37611 1.075314,6.33254 1.34262,6.83306 0.548617,0.96084 1.210489,2.57381 1.753018,4.32622 0.542528,1.7585 0.98337,3.63086 1.273815,5.05629 0.294097,1.42665 0.457891,2.39967 0.457891,2.39967 l 9.83066,-1.72867 c 0,0 -0.1778,-1.07166 -0.5133,-2.69132 -0.33063,-1.61907 -0.83541,-3.78735 -1.51433,-5.99278 -0.684402,-2.20543 -1.572785,-4.45774 -2.556764,-6.20833 -0.470069,-0.86889 -0.982153,-1.61418 -1.35906,-2.13236 -0.180843,-0.25756 -0.366557,-0.46824 -0.473114,-0.60646 -0.114473,-0.13944 -0.173536,-0.21372 -0.173536,-0.21372 z"
     id="path4237"
     style="fill:#e8674e;fill-opacity:1;stroke-width:2.66667008;stroke-linecap:round;stroke-linejoin:round" /><path
     d="m 24.155474,75.896818 c -0.0097,-0.68805 -0.166838,-1.33835 -0.576627,-1.90828 -0.203981,-0.29166 -0.465807,-0.54253 -0.789741,-0.74712 -0.32576,-0.21311 -0.711802,-0.38361 -1.156906,-0.4652 -0.898734,-0.20337 -1.963088,-0.0822 -2.971423,0.31054 -1.01686,0.397 -1.888193,1.06009 -2.572595,1.85227 0,0 -0.06028,0.0743 -0.174753,0.21372 -0.106557,0.13822 -0.292271,0.3489 -0.471896,0.60646 -0.377517,0.51818 -0.8896,1.26347 -1.360279,2.13236 -0.98337,1.75059 -1.871753,4.0029 -2.556154,6.20894 -0.67953,2.20482 -1.183089,4.37371 -1.514939,5.99217 -0.334894,1.61966 -0.512692,2.69193 -0.512692,2.69193 l 10.516889,1.72806 c 0,0 0.03471,-0.87012 0.113863,-2.39906 0.07611,-1.45344 0.389086,-3.2984 0.931615,-5.05629 0.542528,-1.75302 3.095638,-9.78317 3.095638,-11.1605 z"
     id="path4239"
     style="fill:#e8674e;fill-opacity:1;stroke-width:2.66667008;stroke-linecap:round;stroke-linejoin:round" /><path
     d="m 25.60526,71.562078 c -1.12707,2.00754 0.639343,4.2288 2.157935,5.40884 1.839481,1.42969 4.251936,2.33695 6.562704,2.54702 2.302853,0.21007 4.388938,-0.73555 6.148044,-2.15002 1.561824,-1.25555 3.471328,-3.47924 2.913578,-5.65179 -0.05663,-0.22286 -0.367775,-0.12361 -0.335503,0.0925 0.322716,2.15246 -1.31522,4.00351 -2.850252,5.28706 -1.607491,1.34506 -3.533436,2.12628 -5.640224,2.05443 -2.080604,-0.0712 -4.203223,-0.93892 -5.942845,-2.03494 -0.902996,-0.56932 -1.701261,-1.29452 -2.301026,-2.17986 -0.695971,-1.02721 -0.763558,-2.11774 -0.553489,-3.30692 0.01644,-0.0925 -0.107775,-0.15771 -0.158922,-0.0664 z"
     id="path4241"
     style="fill:#944232;fill-opacity:1;stroke-width:2.66667008;stroke-linecap:round;stroke-linejoin:round" /><path
     d="m 25.560202,72.428538 c 0.327587,0.0572 0.752598,-0.0317 1.02782,-0.22346 0.04445,-0.0311 0.02679,-0.0956 -0.0274,-0.0999 -0.148571,-0.0128 -0.28192,0.0426 -0.420139,0.0913 -0.182061,0.0651 -0.370819,0.11813 -0.565667,0.11874 -0.06272,6e-4 -0.08037,0.10168 -0.01461,0.11325 z"
     id="path4243"
     style="fill:#944232;fill-opacity:1;stroke-width:2.66667008;stroke-linecap:round;stroke-linejoin:round" /><path
     d="m 25.618047,73.346148 c 0.187541,0.0244 0.364121,-0.0152 0.544355,-0.0664 0.203372,-0.0579 0.414051,-0.10838 0.595502,-0.22042 0.04506,-0.028 0.02314,-0.0907 -0.02618,-0.095 -0.196066,-0.0164 -0.361686,0.0536 -0.544355,0.11752 -0.192412,0.067 -0.389086,0.12482 -0.577236,0.20337 -0.03349,0.014 -0.0274,0.056 0.0079,0.0609 z"
     id="path4245"
     style="fill:#944232;fill-opacity:1;stroke-width:2.66667008;stroke-linecap:round;stroke-linejoin:round" /><path
     d="m 25.777578,74.087178 c 0.176581,0.0451 0.356206,-0.0329 0.518173,-0.10169 0.207025,-0.0877 0.450584,-0.2058 0.605244,-0.37264 0.03045,-0.0323 0.01279,-0.10473 -0.0408,-0.098 -0.174754,0.0231 -0.324543,0.12118 -0.477376,0.20459 -0.198501,0.109 -0.424402,0.17111 -0.616205,0.28497 -0.03349,0.0195 -0.02801,0.0737 0.01096,0.0828 z"
     id="path4247"
     style="fill:#944232;fill-opacity:1;stroke-width:2.66667008;stroke-linecap:round;stroke-linejoin:round" /><path
     d="m 26.370645,74.861088 c 0.173536,-0.053 0.333676,-0.15162 0.49199,-0.23747 0.174753,-0.0956 0.334285,-0.20459 0.44206,-0.37387 0.0341,-0.053 -0.02131,-0.11325 -0.07672,-0.10046 -0.186323,0.0426 -0.340375,0.14187 -0.498079,0.2466 -0.151007,0.0999 -0.315409,0.18815 -0.448758,0.31054 -0.0682,0.0627 0.0024,0.18145 0.08951,0.15466 z"
     id="path4249"
     style="fill:#944232;fill-opacity:1;stroke-width:2.66667008;stroke-linecap:round;stroke-linejoin:round" /><path
     d="m 26.788349,75.737288 c 0.233817,-0.15466 0.459718,-0.31297 0.682575,-0.48285 0.185105,-0.14127 0.42014,-0.25878 0.554097,-0.45241 0.03045,-0.0445 -0.01949,-0.0999 -0.06637,-0.0871 -0.227119,0.0603 -0.415877,0.2533 -0.598547,0.39579 -0.224683,0.17658 -0.418313,0.36838 -0.604635,0.58454 -0.01888,0.0219 0.0061,0.0597 0.03288,0.042 z"
     id="path4251"
     style="fill:#944232;fill-opacity:1;stroke-width:2.66667008;stroke-linecap:round;stroke-linejoin:round" /><path
     d="m 27.441697,76.398558 c 0.235643,-0.14918 0.457891,-0.31846 0.683183,-0.48225 0.185105,-0.13457 0.375082,-0.27583 0.488337,-0.47859 0.02253,-0.0414 -0.02192,-0.0834 -0.06211,-0.0621 -0.196674,0.10168 -0.367165,0.25573 -0.539484,0.39395 -0.218594,0.17537 -0.446322,0.33794 -0.628382,0.55288 -0.0341,0.0402 0.0091,0.10717 0.05845,0.0761 z"
     id="path4253"
     style="fill:#944232;fill-opacity:1;stroke-width:2.66667008;stroke-linecap:round;stroke-linejoin:round" /><path
     d="m 28.150454,76.887498 c 0.202154,-0.0846 0.354988,-0.24051 0.50843,-0.39517 0.172318,-0.17232 0.368992,-0.35438 0.453629,-0.5882 0.02009,-0.056 -0.05358,-0.11325 -0.102295,-0.0785 -0.195456,0.13822 -0.337329,0.34525 -0.495034,0.52305 -0.144918,0.16257 -0.301404,0.31541 -0.386041,0.51756 -0.0055,0.0122 0.0097,0.0268 0.02131,0.0213 z"
     id="path4255"
     style="fill:#944232;fill-opacity:1;stroke-width:2.66667008;stroke-linecap:round;stroke-linejoin:round" /><path
     d="m 29.029703,77.455598 c 0.177798,-0.15709 0.311147,-0.37021 0.450585,-0.56018 0.152833,-0.20642 0.30932,-0.40614 0.392739,-0.65152 0.01949,-0.0566 -0.05845,-0.098 -0.09864,-0.0572 -0.178407,0.18389 -0.319062,0.39944 -0.468242,0.60646 -0.137002,0.18998 -0.295316,0.39031 -0.340983,0.62473 -0.0079,0.0384 0.03471,0.0639 0.06454,0.0378 z"
     id="path4257"
     style="fill:#944232;fill-opacity:1;stroke-width:2.66667008;stroke-linecap:round;stroke-linejoin:round" /><path
     d="m 30.029514,77.880608 c 0.13274,-0.18449 0.21555,-0.41892 0.309929,-0.62594 0.0889,-0.19607 0.194847,-0.38117 0.222248,-0.59794 0.0073,-0.0524 -0.07002,-0.0798 -0.102295,-0.0426 -0.155269,0.17658 -0.24295,0.40065 -0.340983,0.61194 -0.09012,0.19424 -0.182061,0.41405 -0.179016,0.63021 6.09e-4,0.0512 0.06272,0.0621 0.09012,0.0243 z"
     id="path4259"
     style="fill:#944232;fill-opacity:1;stroke-width:2.66667008;stroke-linecap:round;stroke-linejoin:round" /><path
     d="m 30.994008,78.363468 c 0.155269,-0.11934 0.211288,-0.33794 0.278267,-0.51513 0.0889,-0.23321 0.162576,-0.4725 0.192412,-0.72032 0.0073,-0.0645 -0.0889,-0.0828 -0.117518,-0.0317 -0.111428,0.19485 -0.172927,0.40797 -0.241732,0.62047 -0.06211,0.18937 -0.178407,0.4104 -0.174145,0.61073 0.0012,0.028 0.03653,0.056 0.06272,0.0359 z"
     id="path4261"
     style="fill:#944232;fill-opacity:1;stroke-width:2.66667008;stroke-linecap:round;stroke-linejoin:round" /><path
     d="m 32.11499,78.635038 c 0.07916,-0.22286 0.121171,-0.46155 0.185105,-0.68927 0.05967,-0.21129 0.161967,-0.42319 0.149789,-0.64604 -0.0037,-0.0664 -0.08037,-0.0816 -0.117518,-0.0323 -0.149788,0.19911 -0.196065,0.47616 -0.253301,0.71424 -0.05054,0.21129 -0.08342,0.44267 -0.0207,0.65335 0.0085,0.0292 0.04749,0.0274 0.05663,0 z"
     id="path4263"
     style="fill:#944232;fill-opacity:1;stroke-width:2.66667008;stroke-linecap:round;stroke-linejoin:round" /><path
     d="m 33.288945,79.025338 c 0.131522,-0.54192 0.124216,-1.24824 -0.0408,-1.78163 -0.01644,-0.0542 -0.09438,-0.0432 -0.09681,0.0128 -0.01522,0.32028 0,0.64178 0.0043,0.96206 0.003,0.27096 -0.01888,0.54192 0.04262,0.80679 0.01035,0.0451 0.07976,0.0444 0.09072,0 z"
     id="path4265"
     style="fill:#944232;fill-opacity:1;stroke-width:2.66667008;stroke-linecap:round;stroke-linejoin:round" /><path
     d="m 34.582854,79.113628 c 0.0615,-0.2399 0.05724,-0.48103 0.06393,-0.72702 0.0061,-0.25209 0.01827,-0.51878 -0.05115,-0.76295 -0.01888,-0.0664 -0.115082,-0.0664 -0.133958,0 -0.07063,0.2466 -0.05176,0.50904 -0.05054,0.76295 6.09e-4,0.24478 0.0024,0.48894 0.06333,0.72702 0.014,0.0536 0.09499,0.0536 0.108384,0 z"
     id="path4267"
     style="fill:#944232;fill-opacity:1;stroke-width:2.66667008;stroke-linecap:round;stroke-linejoin:round" /><path
     d="m 35.730627,79.153818 c 0.08829,-0.58515 -0.09012,-1.22023 -0.238688,-1.78651 -0.01583,-0.0603 -0.113864,-0.0645 -0.126651,0 -0.118735,0.59003 0.154051,1.21476 0.274613,1.78651 0.0097,0.0438 0.08342,0.0463 0.09073,0 z"
     id="path4269"
     style="fill:#944232;fill-opacity:1;stroke-width:2.66667008;stroke-linecap:round;stroke-linejoin:round" /><path
     d="m 37.415448,78.470638 c -0.07063,-0.26914 -0.188758,-0.52853 -0.29288,-0.78548 -0.08829,-0.21799 -0.1711,-0.45607 -0.346463,-0.61986 -0.05176,-0.0481 -0.158314,-0.0183 -0.151007,0.0627 0.02314,0.25391 0.146745,0.49199 0.243559,0.72519 0.09864,0.24052 0.194848,0.49138 0.353161,0.69902 0.06942,0.0907 0.225902,0.042 0.19363,-0.0816 z"
     id="path4271"
     style="fill:#944232;fill-opacity:1;stroke-width:2.66667008;stroke-linecap:round;stroke-linejoin:round" /><path
     d="m 38.503549,78.318408 c -0.05845,-0.27583 -0.223466,-0.48285 -0.382388,-0.71058 -0.19363,-0.27766 -0.341592,-0.58089 -0.532177,-0.85855 -0.03958,-0.0572 -0.130304,-0.0371 -0.13274,0.0359 -0.01644,0.5821 0.568102,1.2184 0.988851,1.5673 0.02679,0.0219 0.06576,10e-4 0.05845,-0.0341 z"
     id="path4273"
     style="fill:#944232;fill-opacity:1;stroke-width:2.66667008;stroke-linecap:round;stroke-linejoin:round" /><path
     d="m 39.682985,77.437338 c -0.108993,-0.2052 -0.235035,-0.40066 -0.348899,-0.60342 -0.107166,-0.19059 -0.222857,-0.37934 -0.393348,-0.51939 -0.04384,-0.0365 -0.118126,-0.004 -0.100468,0.0584 0.118735,0.41953 0.405526,0.88717 0.753207,1.15447 0.05602,0.0432 0.117517,-0.0371 0.08951,-0.0901 z"
     id="path4275"
     style="fill:#944232;fill-opacity:1;stroke-width:2.66667008;stroke-linecap:round;stroke-linejoin:round" /><path
     d="m 40.462374,76.938648 c -0.0408,-0.19972 -0.228337,-0.40126 -0.345245,-0.56506 -0.130913,-0.18328 -0.256346,-0.34829 -0.460936,-0.45302 -0.05419,-0.028 -0.105948,0.0268 -0.08038,0.0804 0.105949,0.22224 0.259391,0.40796 0.402482,0.60707 0.107166,0.14918 0.22651,0.34342 0.401873,0.41344 0.05115,0.0201 0.09134,-0.0377 0.0822,-0.0828 z"
     id="path4277"
     style="fill:#944232;fill-opacity:1;stroke-width:2.66667008;stroke-linecap:round;stroke-linejoin:round" /><path
     d="m 41.126073,76.357148 c -0.01827,-0.2125 -0.155269,-0.3629 -0.294707,-0.52122 -0.183887,-0.20824 -0.37021,-0.46946 -0.610724,-0.61376 -0.05541,-0.0329 -0.126042,0.0213 -0.107775,0.0834 0.06941,0.24295 0.292271,0.43354 0.459718,0.61256 0.155878,0.16562 0.30384,0.33063 0.48042,0.46885 0.02557,0.0201 0.07672,0.0116 0.07307,-0.0298 z"
     id="path4279"
     style="fill:#944232;fill-opacity:1;stroke-width:2.66667008;stroke-linecap:round;stroke-linejoin:round" /><path
     d="m 41.93469,75.489468 c -0.0414,-0.20154 -0.207026,-0.35864 -0.347681,-0.49869 -0.147353,-0.14735 -0.329414,-0.30384 -0.527915,-0.37447 -0.06211,-0.0219 -0.109601,0.0542 -0.08098,0.10656 0.09925,0.18084 0.28192,0.30871 0.435971,0.44084 0.147962,0.12483 0.29288,0.27644 0.463371,0.3696 0.03105,0.0177 0.06394,-0.01 0.05724,-0.0438 z"
     id="path4281"
     style="fill:#944232;fill-opacity:1;stroke-width:2.66667008;stroke-linecap:round;stroke-linejoin:round" /><path
     d="m 42.44312,74.503668 c -0.185714,-0.13944 -0.417095,-0.20642 -0.605245,-0.35377 -0.182669,-0.1431 -0.337938,-0.31846 -0.549226,-0.42136 -0.06211,-0.0305 -0.12178,0.0304 -0.09194,0.0919 0.117518,0.24539 0.318454,0.42379 0.530351,0.58759 0.177189,0.13639 0.473722,0.30262 0.700841,0.21007 0.05297,-0.0213 0.06089,-0.0804 0.01522,-0.11447 z"
     id="path4283"
     style="fill:#944232;fill-opacity:1;stroke-width:2.66667008;stroke-linecap:round;stroke-linejoin:round" /><path
     d="m 42.875437,73.922168 c -0.332458,-0.3422 -0.811052,-0.59855 -1.264072,-0.74286 -0.05297,-0.0164 -0.08403,0.0499 -0.05115,0.0871 0.318454,0.35438 0.841498,0.51696 1.253722,0.73494 0.05054,0.0274 0.102295,-0.0371 0.0615,-0.0791 z"
     id="path4285"
     style="fill:#944232;fill-opacity:1;stroke-width:2.66667008;stroke-linecap:round;stroke-linejoin:round" /><path
     d="m 43.066022,72.927228 c -0.204589,-0.0798 -0.413441,-0.14675 -0.622293,-0.21738 -0.188759,-0.0633 -0.386651,-0.16501 -0.589414,-0.15466 -0.05967,0.003 -0.106557,0.0828 -0.05297,0.12726 0.160749,0.13639 0.384215,0.1845 0.581498,0.24782 0.219812,0.0706 0.440842,0.11508 0.671006,0.0895 0.05297,-0.006 0.06272,-0.0725 0.01218,-0.0926 z"
     id="path4287"
     style="fill:#944232;fill-opacity:1;stroke-width:2.66667008;stroke-linecap:round;stroke-linejoin:round" /><path
     d="m 42.174596,71.957248 c 0.18754,0.25696 0.674659,0.27157 0.964494,0.26548 0.06454,-0.001 0.08829,-0.0865 0.03288,-0.11934 -0.273395,-0.16319 -0.664308,-0.17049 -0.975455,-0.1845 -0.01766,-6.1e-4 -0.03288,0.0231 -0.02192,0.0384 z"
     id="path4289"
     style="fill:#944232;fill-opacity:1;stroke-width:2.66667008;stroke-linecap:round;stroke-linejoin:round" /><path
     d="m 41.589445,67.586578 0.538265,4.6806 c 0,0 -1.351144,5.1251 -7.750664,5.1251 -6.401954,0 -7.751273,-5.1251 -7.751273,-5.1251 l 0.538875,-4.6806 14.424797,0 z"
     id="path4291"
     style="fill:#ffda96;fill-opacity:1;stroke-width:2.66667008;stroke-linecap:round;stroke-linejoin:round" /><path
     d="m 41.649117,69.504608 c 0,0 -2.299809,1.11916 -7.247106,1.11916 -4.948515,0 -7.302515,-1.12768 -7.302515,-1.12768 0,0 3.913997,-0.82445 7.302515,-0.82445 3.386692,0 7.247106,0.83297 7.247106,0.83297 z"
     id="path4293"
     style="fill:#ebc580;fill-opacity:1;stroke-width:2.66667008;stroke-linecap:round;stroke-linejoin:round" /><path
     d="m 40.774739,8.74614 -12.747282,0 c -17.376735,0 -17.634908,32.336328 -17.634908,32.336328 l 0,8.71333 c 0,11.02714 8.939843,19.96394 19.964552,19.96394 l 8.087994,0 c 11.025318,0 19.963334,-8.9368 19.963334,-19.96394 l -6.1e-4,-8.67984 c 0,0 -0.25635,-32.369818 -17.63308,-32.369818 z"
     id="path4295"
     style="fill:#ffda96;fill-opacity:1;stroke-width:2.66667008;stroke-linecap:round;stroke-linejoin:round" /><path
     d="m 42.762182,57.651188 -17.049147,0 c -17.376734,0 -15.584747,-16.26001 -15.584747,-16.26001 l 0,8.71394 c 0,11.02653 8.939233,19.96333 19.964551,19.96333 l 8.087994,0 c 11.025318,0 20.412696,-8.6975 20.412696,-19.72403 l -0.44997,-8.91914 c 0,0 1.99536,16.22591 -15.381377,16.22591 z"
     id="path4297"
     style="fill:#a86c47;fill-opacity:1;stroke-width:2.66667008;stroke-linecap:round;stroke-linejoin:round" /><path
     d="m 24.714442,47.495378 c 0,1.3755 -1.113675,2.48735 -2.487349,2.48735 -1.373674,0 -2.48674,-1.11185 -2.48674,-2.48735 l 0,-1.07836 c 0,-1.37489 1.113066,-2.48856 2.48674,-2.48856 1.373674,0 2.487349,1.11367 2.487349,2.48856 l 0,1.07836 z"
     id="path4299"
     style="fill:#8e6c59;fill-opacity:1;stroke-width:2.66667008;stroke-linecap:round;stroke-linejoin:round" /><path
     d="m 49.696923,47.495378 c 0,1.3755 -1.114284,2.48735 -2.487349,2.48735 -1.374892,0 -2.48674,-1.11185 -2.48674,-2.48735 l 0,-1.07836 c 0,-1.37489 1.111848,-2.48856 2.48674,-2.48856 1.373065,0 2.487349,1.11367 2.487349,2.48856 l 0,1.07836 z"
     id="path4301"
     style="fill:#8e6c59;fill-opacity:1;stroke-width:2.66667008;stroke-linecap:round;stroke-linejoin:round" /><path
     d="m 38.284346,23.664938 c 0.06515,0.0597 0.128477,0.12117 0.196065,0.17962 -0.114473,-0.01 -0.228337,-0.0177 -0.342201,-0.0262 0.05297,-0.0475 0.101686,-0.0992 0.146136,-0.15344 z m -2.114095,0.017 c 0.01157,0.007 0.02253,0.0158 0.03532,0.0231 -0.01705,-6.1e-4 -0.03288,-0.002 -0.03532,-0.0231 z m -23.502858,7.66298 c -0.02253,0.0238 -0.04506,0.0481 -0.06759,0.0718 0.01827,-0.0274 0.03592,-0.0542 0.05115,-0.0834 z m -0.676486,0.53339 c 0.125433,-0.0414 0.243559,-0.10351 0.349508,-0.18388 -0.115082,0.12239 -0.228946,0.24477 -0.344028,0.36716 0.003,-0.0584 6.09e-4,-0.11995 -0.0055,-0.18328 z m 26.13817,-13.51449 c 0.249648,0.54375 0.471287,1.09236 0.642387,1.64646 -0.259999,-0.51939 -0.46946,-1.07409 -0.642387,-1.64646 z M 23.894256,14.027296 c -0.05967,-0.354378 -0.102295,-0.717281 -0.130913,-1.085848 0.04628,0.360651 0.08951,0.723554 0.130913,1.085848 z m 6.226593,0.233817 c 0.0024,0.01949 0.0043,0.03897 0.0061,0.05845 -0.0079,-0.01705 -0.01583,-0.0341 -0.02435,-0.05054 z m 33.76157,18.874015 c -0.65213,0.31663 -1.22206,0.73068 -1.98683,0.61194 -0.63508,-0.0992 -1.15386,-0.57297 -1.5941,-1.00285 -0.37021,-0.36169 -0.69779,-0.80618 -0.98946,-1.27991 -0.23929,-0.66065 -0.48285,-1.32131 -0.72032,-1.98866 0.21007,-0.92674 0.16501,-1.91498 0.0457,-2.89348 0.0767,0.16318 0.15283,0.32637 0.23442,0.48773 0.0798,0.15709 0.33002,0.0469 0.28131,-0.11874 -0.34037,-1.14899 -0.65578,-2.2992 -0.97363,-3.44332 -0.1918,-1.15021 -0.44145,-2.28215 -0.80557,-3.39521 0.72033,0.0584 1.44918,-0.22834 2.02154,-1.02295 0.11265,-0.1571 -0.10351,-0.34768 -0.25695,-0.25635 -0.72215,0.43293 -1.42787,0.54557 -2.07391,0.41527 -0.19789,-0.49869 -0.439014,-1.03086 -0.720325,-1.566695 -0.449367,-1.18248 -0.960233,-2.346693 -1.571566,-3.484724 -0.423184,-1.033665 -0.941357,-2.037129 -1.598967,-3.007713 0.440234,0.37429 0.880467,0.752659 1.328616,1.112457 0.229555,0.184435 0.507212,-0.09219 0.322107,-0.321803 -0.976673,-1.211464 -2.306506,-2.568271 -3.805613,-3.405202 -2.06112,-2.123836 -4.507673,-3.75136 -7.199003,-4.833007 0.798266,0.07197 1.596531,0.134688 2.389925,0.193264 0.289227,0.02125 0.322716,-0.405769 0.06576,-0.486631 C 44.436072,2.86936 42.45898,2.599984 40.521466,2.717866 39.481468,2.483441 38.418332,2.319282 37.335711,2.234949 c -0.898733,-0.0699 -1.854094,-0.09042 -2.845381,-0.06132 0.710585,-0.229981 1.429693,-0.444495 2.157326,-0.648415 0.161967,-0.04524 0.09012,-0.268707 -0.06759,-0.245021 -1.175783,0.174754 -2.311986,0.517442 -3.411048,0.962363 -1.290864,0.0942 -2.625568,0.271082 -3.963926,0.533882 0.918827,-0.704556 1.7792,-1.48498 2.562243,-2.33628104 0.189976,-0.207025 -0.05663,-0.560003 -0.308711,-0.399559 C 29.761016,1.120479 28.124906,2.336083 26.430952,3.447505 22.217377,4.66932 18.258321,6.787616 15.861698,9.915282 16.24774,8.667467 16.934577,7.595075 17.953263,6.559035 19.133308,5.358836 20.45827,4.393428 21.302812,2.905342 21.422156,2.694907 21.165201,2.380959 20.945389,2.548223 c -2.632267,2.001814 -6.384297,4.933049 -5.89657,8.571703 -0.12665,0.214515 -0.247212,0.432865 -0.35925,0.655966 0.159532,-0.865062 0.308712,-1.730732 0.351335,-2.604988 0.01888,-0.378065 -0.488337,-0.467817 -0.673442,-0.182304 -0.999201,1.539111 -1.374283,3.497754 -0.970583,5.271292 -0.629601,-0.545573 -1.338967,-0.915783 -2.08365,-1.308827 -0.115081,-0.06101 -0.256955,0.100407 -0.145526,0.189185 0.308711,0.247091 0.638125,0.468729 0.966321,0.690977 -2.382618,-1.045052 -5.145798,-0.05602 -6.367248,2.744304 -0.111428,0.255128 0.208244,0.577844 0.42014,0.324543 1.555126,-1.857139 3.758119,-2.746131 5.950153,-2.226741 -0.137611,0.01401 -0.279485,0.03471 -0.42562,0.06576 -1.792596,0.378126 -2.936107,1.457702 -3.599806,2.878262 -2.676716,2.789973 -2.451424,8.324253 -1.641589,11.718253 0.04993,0.20946 0.378734,0.21311 0.426228,0 0.412224,-1.84984 0.135176,-3.82388 0.185714,-5.70599 0.0207,-0.76173 0.112038,-1.48997 0.260609,-2.19568 -0.09499,2.72664 0.347681,5.57628 0.398828,8.28953 0.05602,2.94403 0.211897,6.72407 -1.726835,9.16635 -0.406135,0.51148 0.118735,1.40412 0.754425,0.97729 0.113864,-0.0761 0.224074,-0.15588 0.330631,-0.23869 0.0079,0.11508 0.0207,0.23016 0.04141,0.34707 0.0091,0.0499 0.02801,0.0907 0.04567,0.13274 -0.391522,0.64482 -1.51433,2.58051 -0.04628,2.61278 1.170302,0.0256 1.975265,-1.80416 2.377138,-2.7169 0.05297,-0.12056 0.09925,-0.24661 0.139438,-0.37508 0.06881,0.12543 0.15466,0.24112 0.274613,0.33611 0.26487,0.21068 0.549835,0.21737 0.814096,0 0.695971,-0.57176 0.439016,-1.76581 0.21555,-2.50927 -0.0548,-0.18206 -0.127868,-0.35499 -0.212505,-0.51939 0.597329,-0.79522 1.264681,-1.54112 1.92838,-2.2785 1.636718,-1.81817 3.383038,-3.54865 4.773153,-5.57202 1.019295,-1.48328 1.65194,-3.15775 1.50276,-4.93512 1.458311,1.86505 3.900601,3.02683 6.236944,3.2028 0.368992,0.028 0.478593,-0.50112 0.18206,-0.67344 -1.236672,-0.72093 -2.642618,-1.08262 -3.92313,-1.72196 -0.658219,-0.3282 -1.268944,-0.74773 -1.818779,-1.23607 3.890859,1.51129 8.695674,1.87541 12.061663,2.07696 4.5369,0.27096 8.989771,0.28435 13.390278,1.60992 2.670018,0.80436 5.191466,2.0599 7.457175,3.68079 2.206647,1.57827 3.689923,3.62599 5.195121,5.77418 -0.0658,1.08567 0.25147,2.41915 0.4792,3.31241 0.33733,1.3213 1.39438,3.15835 2.99822,2.67245 0.31358,-0.095 0.45911,-0.3897 0.39761,-0.70023 -0.123,-0.61682 -0.4311,-0.9712 -0.85185,-1.42056 -0.48529,-0.51696 -0.63813,-1.29756 -0.78304,-1.96431 -0.042,-0.19606 -0.0853,-0.41588 -0.13396,-0.64482 0.21981,-0.18206 0.33733,-0.47555 0.22529,-0.84637 -0.0652,-0.21494 -0.13883,-0.42744 -0.21616,-0.63812 0.14431,0.0128 0.2874,-0.0146 0.41466,-0.0743 0.61438,0.81227 1.42482,1.45709 2.32295,1.66351 0.27339,0.0633 0.45119,-0.25269 0.26669,-0.4585 -0.56505,-0.63265 -1.27625,-1.1015 -1.83217,-1.74875 -0.17293,-0.20216 -0.31967,-0.41345 -0.45058,-0.63143 -0.14188,-0.54679 -0.29836,-1.08567 -0.46703,-1.61784 0.0956,0.0804 0.18815,0.16501 0.28984,0.23747 1.24946,0.89264 3.02013,0.99433 3.89146,-0.46642 0.16014,-0.26913 -0.14857,-0.5267 -0.40309,-0.40309 z"
     id="path4303"
     style="fill:#a86c47;fill-opacity:1;stroke-width:2.66667008;stroke-linecap:round;stroke-linejoin:round" /><path
     d="m 19.332392,19.928128 c 4.642848,2.29189 10.199043,2.54459 15.280907,2.8874 5.781487,0.38969 11.398573,0.98519 16.802543,3.20706 0.197283,0.0816 0.304449,-0.22468 0.140047,-0.33002 -4.345097,-2.77779 -9.697311,-3.24786 -14.715241,-3.65461 -5.904485,-0.4792 -11.586113,-0.90238 -17.286617,-2.63592 -0.309321,-0.0938 -0.516955,0.38056 -0.221639,0.52609 z"
     id="path4305"
     style="fill:#b17b58;fill-opacity:1;stroke-width:2.66667008;stroke-linecap:round;stroke-linejoin:round" /><path
     d="m 16.179517,13.089715 c 1.483276,-4.041318 6.230855,-5.320734 9.988365,-6.429051 0.305667,-0.09048 0.170491,-0.508247 -0.128478,-0.465076 -3.426878,0.497652 -10.323867,2.270825 -10.122931,6.858446 0.0067,0.155939 0.211288,0.176154 0.263044,0.03568 z"
     id="path4307"
     style="fill:#b17b58;fill-opacity:1;stroke-width:2.66667008;stroke-linecap:round;stroke-linejoin:round" /><path
     d="m 11.708987,17.4627 c -2.215171,0.01218 -2.665756,2.958028 -2.868519,4.654418 -0.349507,2.92271 -0.217985,5.84359 0.121171,8.75778 0.03471,0.30019 0.437189,0.30323 0.468243,0 0.224074,-2.16768 0.08281,-4.36884 0.146135,-6.54565 0.05297,-1.8267 0.05845,-5.69746 2.175593,-6.55053 0.159531,-0.06454 0.151007,-0.316627 -0.04262,-0.316018 z"
     id="path4309"
     style="fill:#b17b58;fill-opacity:1;stroke-width:2.66667008;stroke-linecap:round;stroke-linejoin:round" /><path
     d="m 13.574042,19.087238 c -3.987065,-1.498496 -4.42608,8.88991 -4.437649,11.10265 -0.0018,0.32211 0.489554,0.39578 0.565666,0.0767 0.416486,-1.75971 0.578453,-3.56875 0.930396,-5.34186 0.2874,-1.44674 0.888992,-5.42163 2.904444,-5.56107 0.162576,-0.0116 0.186323,-0.22042 0.03714,-0.27644 z"
     id="path4311"
     style="fill:#b17b58;fill-opacity:1;stroke-width:2.66667008;stroke-linecap:round;stroke-linejoin:round" /><path
     d="m 15.731368,21.989248 c 0.698406,4.32744 -1.080794,7.43526 -3.498728,10.84752 -0.125433,0.17719 0.147353,0.37447 0.294097,0.22712 2.861822,-2.87583 5.162848,-7.12533 3.375732,-11.14649 -0.04628,-0.10534 -0.186323,-0.0237 -0.171101,0.0718 z"
     id="path4313"
     style="fill:#b17b58;fill-opacity:1;stroke-width:2.66667008;stroke-linecap:round;stroke-linejoin:round" /><path
     d="m 15.632727,20.680118 c -2.040418,-0.70632 -3.347113,2.77414 -3.862241,4.1198 -0.990068,2.58478 -1.64707,5.38388 -1.96187,8.13184 -0.03349,0.29044 0.445714,0.42257 0.561404,0.15161 1.661683,-3.88964 1.501543,-9.50733 5.297414,-12.13412 0.107166,-0.0737 0.08951,-0.2259 -0.03471,-0.26913 z"
     id="path4315"
     style="fill:#b17b58;fill-opacity:1;stroke-width:2.66667008;stroke-linecap:round;stroke-linejoin:round" /><path
     d="m 18.654688,15.932539 c 2.951938,3.267959 7.589306,4.549079 11.805926,5.154929 4.743316,0.68197 9.59867,0.68379 14.377302,0.94379 0.07489,0.004 0.09316,-0.11995 0.01827,-0.13152 -8.961154,-1.37367 -18.360105,-0.30627 -25.926882,-6.241203 -0.19363,-0.151616 -0.446322,0.08403 -0.274613,0.274004 z"
     id="path4317"
     style="fill:#b17b58;fill-opacity:1;stroke-width:2.66667008;stroke-linecap:round;stroke-linejoin:round" /><path
     d="m 21.453184,14.276945 c 2.502571,3.043273 6.855584,3.504208 10.48827,4.209923 5.745563,1.11672 11.423537,2.67611 17.197109,3.62599 0.192412,0.0317 0.275831,-0.23869 0.08159,-0.29654 -5.162238,-1.54599 -10.525413,-2.56468 -15.80456,-3.62659 -3.938962,-0.791572 -8.833894,-1.041829 -11.801663,-4.074141 -0.104122,-0.106557 -0.252084,0.04993 -0.160749,0.161358 z"
     id="path4319"
     style="fill:#b17b58;fill-opacity:1;stroke-width:2.66667008;stroke-linecap:round;stroke-linejoin:round" /><path
     d="m 17.904526,14.521722 c 3.317277,-0.452412 6.507903,-1.477918 9.855016,-1.78602 3.454279,-0.318028 6.826965,0.09907 10.169207,0.975576 0.26548,0.06881 0.352552,-0.303231 0.110211,-0.400655 -6.412915,-2.567479 -14.011964,-1.927588 -20.211765,1.027212 -0.112646,0.05419 -0.02496,0.197891 0.07733,0.183887 z"
     id="path4321"
     style="fill:#b17b58;fill-opacity:1;stroke-width:2.66667008;stroke-linecap:round;stroke-linejoin:round" /><path
     d="m 24.020298,14.521722 c 4.142943,1.084447 8.365652,1.668381 12.579835,2.417934 4.453481,0.790959 8.839374,1.773112 13.200912,2.972642 0.308711,0.0846 0.405526,-0.34951 0.127868,-0.46459 -8.067291,-3.362336 -17.261653,-4.223927 -25.881823,-5.123269 -0.115082,-0.01157 -0.133958,0.169273 -0.02679,0.197283 z"
     id="path4323"
     style="fill:#b17b58;fill-opacity:1;stroke-width:2.66667008;stroke-linecap:round;stroke-linejoin:round" /><path
     d="m 18.368506,13.111636 c 7.796331,-4.960145 17.809052,-2.918267 26.189926,-0.784505 0.245386,0.06235 0.337938,-0.293002 0.103512,-0.374229 -7.805465,-2.704055 -19.592514,-5.224711 -26.374422,1.053516 -0.05541,0.05169 0.01705,0.145953 0.08098,0.105218 z"
     id="path4325"
     style="fill:#b17b58;fill-opacity:1;stroke-width:2.66667008;stroke-linecap:round;stroke-linejoin:round" /><path
     d="m 17.68654,12.432044 c 0.575409,-0.333128 0.992504,-0.890391 1.483276,-1.335557 0.763558,-0.693657 1.676905,-1.243735 2.577466,-1.739622 1.980136,-1.089866 4.225753,-1.66905 6.428137,-2.107761 4.071702,-0.811175 8.623215,-0.916697 12.707704,-0.105888 0.344027,0.0682 0.460327,-0.390669 0.142482,-0.516467 -4.1058,-1.62174 -8.903917,-1.25707 -13.149764,-0.464041 -2.310768,0.43183 -4.574651,1.193014 -6.641861,2.314726 -1.340184,0.727207 -3.535871,2.200618 -3.658259,3.890859 -0.0037,0.05724 0.06515,0.09012 0.110819,0.06375 z"
     id="path4327"
     style="fill:#b17b58;fill-opacity:1;stroke-width:2.66667008;stroke-linecap:round;stroke-linejoin:round" /><path
     d="m 42.16668,14.924812 c 2.248661,1.591051 4.949124,2.416717 7.39933,3.643646 2.867301,1.43639 4.978351,3.38547 6.982844,5.85151 0.147353,0.18145 0.495645,-0.014 0.403095,-0.23442 -2.375316,-5.62866 -9.107903,-8.174461 -14.542928,-9.835536 -0.361076,-0.11021 -0.519999,0.378735 -0.242341,0.5748 z"
     id="path4329"
     style="fill:#b17b58;fill-opacity:1;stroke-width:2.66667008;stroke-linecap:round;stroke-linejoin:round" /><path
     d="m 39.322517,7.915116 c 6.652821,0.921263 11.041149,5.290229 14.492993,10.716672 0.13274,0.20885 0.418922,0.028 0.323934,-0.18937 C 51.553453,12.522283 45.926017,7.890091 39.354788,7.678681 c -0.133348,-0.0045 -0.168055,0.21762 -0.03227,0.236435 z"
     id="path4331"
     style="fill:#b17b58;fill-opacity:1;stroke-width:2.66667008;stroke-linecap:round;stroke-linejoin:round" /><path
     d="m 40.451414,4.53969 c 4.583785,1.137482 7.978392,4.37475 11.356559,7.48561 0.155269,0.143274 0.35377,-0.0682 0.22651,-0.22724 C 49.298704,8.361317 45.17829,4.324444 40.49769,4.197671 40.301016,4.192471 40.26022,4.492378 40.45141,4.53969 z"
     id="path4333"
     style="fill:#b17b58;fill-opacity:1;stroke-width:2.66667008;stroke-linecap:round;stroke-linejoin:round" /><path
     d="m 49.810787,21.600158 c 3.900601,2.41916 5.461207,7.07905 7.888882,10.74036 0.13518,0.20459 0.42319,0.0286 0.32394,-0.18937 -1.860797,-4.06683 -3.935313,-8.5946 -8.105047,-10.73609 -0.122389,-0.0627 -0.225901,0.11204 -0.107775,0.1851 z"
     id="path4335"
     style="fill:#b17b58;fill-opacity:1;stroke-width:2.66667008;stroke-linecap:round;stroke-linejoin:round" /><path
     d="m 21.705268,21.564238 c 3.619899,3.98767 10.13998,3.7569 15.068401,4.28786 6.94631,0.74894 13.803112,2.07086 19.394014,6.48842 0.132131,0.10473 0.314801,-0.0639 0.189368,-0.18937 -4.74149,-4.75184 -11.176325,-5.60978 -17.507039,-6.68631 -5.433198,-0.9237 -12.654121,-0.0231 -17.03088,-4.01386 -0.07733,-0.07 -0.183888,0.0365 -0.113864,0.11326 z"
     id="path4337"
     style="fill:#b17b58;fill-opacity:1;stroke-width:2.66667008;stroke-linecap:round;stroke-linejoin:round" /><path
     d="m 17.211599,20.365318 c 0.261827,-2.32599 1.991097,-3.986457 3.578495,-5.541583 0.196674,-0.192412 -0.05602,-0.518781 -0.292271,-0.378125 -2.081823,1.236672 -3.865895,3.386082 -3.781258,5.919708 0.01035,0.32637 0.460327,0.31054 0.495034,0 z"
     id="path4339"
     style="fill:#b17b58;fill-opacity:1;stroke-width:2.66667008;stroke-linecap:round;stroke-linejoin:round" /><path
     d="m 25.611958,60.771798 c 0,0 7.491882,3.44636 16.501139,0.77695 9.008648,-1.98257 -16.501139,-0.77695 -16.501139,-0.77695 z"
     id="path4349"
     style="fill:#ffffff;fill-opacity:1;stroke-linejoin:round" /><path
     d="m 24.04709,47.293838 c 0,0.77086 -0.407353,1.39559 -0.909694,1.39559 -0.50295,0 -0.909694,-0.62473 -0.909694,-1.39559 0,-0.77087 0.406744,-1.3956 0.909694,-1.3956 0.502341,0 0.909694,0.62473 0.909694,1.3956 z"
     id="path4351"
     style="fill:#ffffff;fill-opacity:1;stroke-linejoin:round" /><path
     d="m 47.118848,47.293838 c 0,0.77086 -0.407352,1.39559 -0.909693,1.39559 -0.502341,0 -0.909694,-0.62473 -0.909694,-1.39559 0,-0.77087 0.407353,-1.3956 0.909694,-1.3956 0.502341,0 0.909693,0.62473 0.909693,1.3956 z"
     id="path4353"
     style="fill:#ffffff;fill-opacity:1;stroke-linejoin:round" /><path
     d="m 67.172299,126.01766 c 0,0.90483 -0.59672,1.63794 -1.33531,1.63794 l -64.502469,0 c -0.737193,0 -1.3345220033849,-0.73311 -1.3345220033849,-1.63794 0,-0.90421 0.5973290033849,-1.63732 1.3345220033849,-1.63732 l 64.502469,0 c 0.73859,0 1.33531,0.73311 1.33531,1.63732 z"
     id="path4355"
     style="fill:#8b8c8c;fill-opacity:1;stroke-linejoin:round" /><path
     d="m 0.68239,126.22773 5.978832,0 13.087656,0 2.879479,0 3.0999,0 2.878871,0 10.056561,0 3.031095,0 2.947676,0 3.031095,0 12.936044,0 5.97877,0 c 0.53644,0 0.68866,-0.47676 0.33976,-1.06435 l -0.64787,-1.09175 -0.0542,-0.0913 -7.09792,-11.96363 c -0.16136,-0.27157 -0.6771,-0.49138 -1.15326,-0.49138 l -14.455846,0 -6.648559,0 -7.9242,0 -6.53165,0 -14.572759,0 c -0.475549,0 -0.970583,0.21981 -1.104541,0.49138 l -5.914775,11.96363 -0.04524,0.0913 -0.539789,1.09175 c -0.290566,0.58759 -0.09146,1.06435 0.444861,1.06435 z"
     id="path4357"
     style="fill:#c5c6c7;fill-opacity:1;stroke-linejoin:round" /><path
     d="m 55.336537,120.8603 c -0.06333,-0.14614 0.113864,-0.26487 0.394566,-0.26487 l 2.691936,0 c 0.28131,0 0.56871,0.11873 0.64178,0.26487 l 0.70023,1.39924 c 0.0731,0.14614 -0.10412,0.26427 -0.39517,0.26427 l -2.783274,0 c -0.290444,0 -0.577844,-0.11813 -0.641778,-0.26427 l -0.60829,-1.39924 z"
     id="path4359"
     style="fill:#ffffff;fill-opacity:1;stroke-linejoin:round" /><path
     d="m 59.491659,120.8603 c -0.0743,-0.14614 0.0938,-0.26487 0.3763,-0.26487 l 2.69072,0 c 0.28192,0 0.57784,0.11873 0.66126,0.26487 l 0.80253,1.39924 c 0.0834,0.14614 -0.0846,0.26427 -0.3763,0.26427 l -2.78266,0 c -0.29167,0 -0.58698,-0.11813 -0.66127,-0.26427 l -0.71058,-1.39924 z"
     id="path4361"
     style="fill:#ffffff;fill-opacity:1;stroke-linejoin:round" /><path
     d="m 47.026905,120.8603 c -0.04201,-0.14614 0.151615,-0.26487 0.432926,-0.26487 l 2.69133,0 c 0.281311,0 0.551662,0.11873 0.603418,0.26487 l 0.495643,1.39924 c 0.05236,0.14614 -0.141873,0.26427 -0.432926,0.26427 l -2.782665,0 c -0.291053,0 -0.560795,-0.11813 -0.603418,-0.26427 l -0.404308,-1.39924 z"
     id="path4363"
     style="fill:#ffffff;fill-opacity:1;stroke-linejoin:round" /><path
     d="m 51.181417,120.8603 c -0.05298,-0.14614 0.132739,-0.26487 0.414659,-0.26487 l 2.690721,0 c 0.28192,0 0.560186,0.11873 0.622903,0.26487 l 0.597938,1.39924 c 0.06272,0.14614 -0.122389,0.26427 -0.414051,0.26427 l -2.782664,0 c -0.291054,0 -0.570538,-0.11813 -0.622903,-0.26427 l -0.506603,-1.39924 z"
     id="path4365"
     style="fill:#ffffff;fill-opacity:1;stroke-linejoin:round" /><path
     d="m 38.688045,120.8603 c -0.0207,-0.14614 0.190585,-0.26487 0.471896,-0.26487 l 2.69133,0 c 0.281311,0 0.534612,0.11873 0.565057,0.26487 l 0.291054,1.39924 c 0.03044,0.14614 -0.180843,0.26427 -0.471897,0.26427 l -2.783273,0 c -0.290444,0 -0.543137,-0.11813 -0.564448,-0.26427 l -0.199719,-1.39924 z"
     id="path4367"
     style="fill:#ffffff;fill-opacity:1;stroke-linejoin:round" /><path
     d="m 42.843166,120.8603 c -0.03166,-0.14614 0.1711,-0.26487 0.452411,-0.26487 l 2.69133,0 c 0.28192,0 0.543137,0.11873 0.584542,0.26487 l 0.392739,1.39924 c 0.0414,0.14614 -0.161358,0.26427 -0.452411,0.26427 l -2.782664,0 c -0.291663,0 -0.55288,-0.11813 -0.583934,-0.26427 l -0.302013,-1.39924 z"
     id="path4369"
     style="fill:#ffffff;fill-opacity:1;stroke-linejoin:round" /><path
     d="m 30.378412,120.8603 c 0,-0.14614 0.228337,-0.26487 0.510257,-0.26487 l 2.69133,0 c 0.281311,0 0.517563,0.11873 0.526088,0.26487 l 0.08768,1.39924 c 0.0091,0.14614 -0.219812,0.26427 -0.511474,0.26427 l -2.782056,0 c -0.291662,0 -0.526697,-0.11813 -0.526697,-0.26427 l 0.0049,-1.39924 z"
     id="path4371"
     style="fill:#ffffff;fill-opacity:1;stroke-linejoin:round" /><path
     d="m 34.533533,120.8603 c -0.01035,-0.14614 0.209461,-0.26487 0.490772,-0.26487 l 2.69133,0 c 0.281311,0 0.526088,0.11873 0.545572,0.26487 l 0.189368,1.39924 c 0.02009,0.14614 -0.200328,0.26427 -0.491381,0.26427 l -2.782664,0 c -0.291054,0 -0.535831,-0.11813 -0.545573,-0.26427 l -0.09742,-1.39924 z"
     id="path4373"
     style="fill:#ffffff;fill-opacity:1;stroke-linejoin:round" /><path
     d="m 26.194673,120.8603 c 0.01096,-0.14614 0.248431,-0.26487 0.529742,-0.26487 l 2.691329,0 c 0.281311,0 0.50843,0.11873 0.507213,0.26487 l -0.01583,1.39924 c -0.0012,0.14614 -0.239297,0.26427 -0.53035,0.26427 l -2.782664,0 c -0.290445,0 -0.517564,-0.11813 -0.506604,-0.26427 l 0.107166,-1.39924 z"
     id="path4375"
     style="fill:#ffffff;fill-opacity:1;stroke-linejoin:round" /><path
     d="m 17.855814,120.8603 c 0.03288,-0.14614 0.286791,-0.26487 0.568711,-0.26487 l 2.69072,0 c 0.28192,0 0.49199,0.11873 0.468852,0.26487 l -0.220421,1.39924 c -0.02253,0.14614 -0.277049,0.26427 -0.568711,0.26427 l -2.782664,0 c -0.291054,0 -0.500515,-0.11813 -0.467634,-0.26427 l 0.311147,-1.39924 z"
     id="path4377"
     style="fill:#ffffff;fill-opacity:1;stroke-linejoin:round" /><path
     d="m 22.010934,120.8603 c 0.02192,-0.14614 0.267916,-0.26487 0.549227,-0.26487 l 2.691329,0 c 0.281311,0 0.499906,0.11873 0.487728,0.26487 l -0.118127,1.39924 c -0.01218,0.14614 -0.258781,0.26427 -0.549835,0.26427 l -2.782055,0 c -0.291662,0 -0.509648,-0.11813 -0.487727,-0.26427 l 0.20946,-1.39924 z"
     id="path4379"
     style="fill:#ffffff;fill-opacity:1;stroke-linejoin:round" /><path
     d="m 9.545572,120.8603 c 0.05419,-0.14614 0.325761,-0.26487 0.607072,-0.26487 l 2.691938,0 c 0.280702,0 0.473723,0.11873 0.429273,0.26487 l -0.423793,1.39924 c -0.04445,0.14614 -0.316627,0.26427 -0.60768,0.26427 l -2.782664,0 c -0.291054,0 -0.483466,-0.11813 -0.429274,-0.26427 l 0.515128,-1.39924 z"
     id="path4381"
     style="fill:#ffffff;fill-opacity:1;stroke-linejoin:round" /><path
     d="m 13.700693,120.8603 c 0.04323,-0.14614 0.306885,-0.26487 0.588196,-0.26487 l 2.691329,0 c 0.28192,0 0.482856,0.11873 0.448758,0.26487 l -0.322107,1.39924 c -0.03349,0.14614 -0.296533,0.26427 -0.588196,0.26427 l -2.782055,0 c -0.291662,0 -0.492599,-0.11813 -0.449367,-0.26427 l 0.413442,-1.39924 z"
     id="path4383"
     style="fill:#ffffff;fill-opacity:1;stroke-linejoin:round" /><path
     d="m 16.524154,122.50189 c 0.266088,0 0.507821,-0.10839 0.538874,-0.24235 l 0.323325,-1.39924 c 0.03105,-0.13396 -0.153442,-0.24295 -0.411615,-0.24295 l -2.691938,0 c -0.258173,0 -0.499906,0.10899 -0.539484,0.24295 l -0.412224,1.39924 c -0.03958,0.13396 0.144918,0.24235 0.411615,0.24235 m 0.552879,-1.92838 2.689503,0 c 0.304449,0 0.523044,0.12847 0.48651,0.28679 l -0.320889,1.39924 c -0.03592,0.15771 -0.322107,0.2868 -0.637517,0.2868 l -2.783273,0 c -0.3148,0 -0.532786,-0.12909 -0.48651,-0.2868 l 0.41466,-1.39924 c 0.04689,-0.15832 0.332458,-0.28679 0.637516,-0.28679 z"
     id="path4385"
     style="fill:#ffffff;fill-opacity:1;stroke-linejoin:round" /><path
     d="m 23.234211,120.42615 c 0.256955,0 0.479203,-0.10899 0.495034,-0.24356 l 0.169883,-1.39864 C 23.915568,118.65 23.7262,118.541 23.47777,118.541 l -2.593297,0 c -0.24843,0 -0.470678,0.109 -0.495643,0.24295 l -0.258782,1.39864 c -0.02496,0.13457 0.163794,0.24356 0.420749,0.24356 l 2.683414,0 z"
     id="path4387"
     style="fill:#ffffff;fill-opacity:1;stroke-linejoin:round" /><path
     d="m 12.312405,118.78395 c 0.04871,-0.14613 0.308103,-0.26487 0.579671,-0.26487 l 2.592688,0 c 0.27096,0 0.45911,0.11874 0.419531,0.26487 l -0.372037,1.39864 c -0.03958,0.14675 -0.298968,0.26548 -0.579671,0.26548 l -2.684022,0 c -0.280702,0 -0.468852,-0.11873 -0.42014,-0.26548 l 0.46398,-1.39864 z"
     id="path4389"
     style="fill:#ffffff;fill-opacity:1;stroke-linejoin:round" /><path
     d="m 16.316519,118.78395 c 0.03775,-0.14613 0.288618,-0.26487 0.559578,-0.26487 l 2.592688,0 c 0.271568,0 0.468242,0.11874 0.439624,0.26487 l -0.270959,1.39864 c -0.02801,0.14675 -0.278876,0.26548 -0.559578,0.26548 l -2.684023,0 c -0.281311,0 -0.477985,-0.11873 -0.440233,-0.26548 l 0.362903,-1.39864 z"
     id="path4391"
     style="fill:#ffffff;fill-opacity:1;stroke-linejoin:round" /><path
     d="m 4.304786,118.78395 c 0.07002,-0.14613 0.347072,-0.26487 0.618641,-0.26487 l 2.592079,0 c 0.271568,0 0.44206,0.11874 0.381779,0.26487 l -0.576627,1.39864 c -0.06028,0.14675 -0.33672,0.26548 -0.618031,0.26548 l -2.684023,0 c -0.280702,0 -0.451802,-0.11873 -0.381779,-0.26548 l 0.667961,-1.39864 z"
     id="path4393"
     style="fill:#ffffff;fill-opacity:1;stroke-linejoin:round" /><path
     d="m 8.3089,118.78395 c 0.05906,-0.14613 0.327587,-0.26487 0.598547,-0.26487 l 2.592688,0 c 0.271569,0 0.451194,0.11874 0.401264,0.26487 l -0.474941,1.39864 c -0.04993,0.14675 -0.317844,0.26548 -0.598546,0.26548 l -2.684632,0 c -0.280093,0 -0.460327,-0.11873 -0.400655,-0.26548 L 8.3089,118.78395 z"
     id="path4395"
     style="fill:#ffffff;fill-opacity:1;stroke-linejoin:round" /><path
     d="m 40.420969,118.78395 c -0.02618,-0.14613 0.172318,-0.26487 0.443887,-0.26487 l 2.592688,0 c 0.27096,0 0.520608,0.11874 0.555924,0.26487 l 0.34281,1.39864 c 0.03653,0.14675 -0.162576,0.26548 -0.443278,0.26548 l -2.684632,0 c -0.280702,0 -0.529132,-0.11873 -0.555924,-0.26548 l -0.251475,-1.39864 z"
     id="path4397"
     style="fill:#ffffff;fill-opacity:1;stroke-linejoin:round" /><path
     d="m 32.38595,118.78395 c -0.0043,-0.14613 0.211287,-0.26487 0.482856,-0.26487 l 2.592688,0 c 0.27096,0 0.50295,0.11874 0.516954,0.26487 l 0.13822,1.39864 c 0.01461,0.14675 -0.201545,0.26548 -0.481638,0.26548 l -2.684632,0 c -0.280702,0 -0.512692,-0.11873 -0.517563,-0.26548 l -0.04688,-1.39864 z"
     id="path4399"
     style="fill:#ffffff;fill-opacity:1;stroke-linejoin:round" /><path
     d="m 36.390064,118.78395 c -0.01522,-0.14613 0.191802,-0.26487 0.463371,-0.26487 l 2.592079,0 c 0.271569,0 0.511475,0.11874 0.537048,0.26487 l 0.240515,1.39864 c 0.02496,0.14675 -0.182669,0.26548 -0.463371,0.26548 l -2.684023,0 c -0.281311,0 -0.521217,-0.11873 -0.536439,-0.26548 l -0.14918,-1.39864 z"
     id="path4401"
     style="fill:#ffffff;fill-opacity:1;stroke-linejoin:round" /><path
     d="m 52.432702,118.78395 c -0.05845,-0.14613 0.113864,-0.26487 0.385433,-0.26487 l 2.592079,0 c 0.27096,0 0.546791,0.11874 0.614378,0.26487 l 0.648477,1.39864 c 0.06759,0.14675 -0.104731,0.26548 -0.385433,0.26548 l -2.684023,0 c -0.280093,0 -0.555315,-0.11873 -0.613769,-0.26548 l -0.557142,-1.39864 z"
     id="path4403"
     style="fill:#ffffff;fill-opacity:1;stroke-linejoin:round" /><path
     d="m 44.397074,118.78395 c -0.03653,-0.14613 0.153442,-0.26487 0.424402,-0.26487 l 2.593297,0 c 0.27096,0 0.529132,0.11874 0.575409,0.26487 l 0.443277,1.39864 c 0.04689,0.14675 -0.143091,0.26548 -0.423793,0.26548 l -2.684631,0 c -0.280094,0 -0.538266,-0.11873 -0.575409,-0.26548 l -0.352552,-1.39864 z"
     id="path4405"
     style="fill:#ffffff;fill-opacity:1;stroke-linejoin:round" /><path
     d="m 48.401188,118.78395 c -0.0481,-0.14613 0.133957,-0.26487 0.404917,-0.26487 l 2.592079,0 c 0.272178,0 0.538266,0.11874 0.595503,0.26487 l 0.546181,1.39864 c 0.05724,0.14675 -0.124215,0.26548 -0.405526,0.26548 l -2.684023,0 c -0.280702,0 -0.547399,-0.11873 -0.594893,-0.26548 l -0.454238,-1.39864 z"
     id="path4407"
     style="fill:#ffffff;fill-opacity:1;stroke-linejoin:round" /><path
     d="m 24.378939,118.78395 c 0.01644,-0.14613 0.249648,-0.26487 0.521217,-0.26487 l 2.592079,0 c 0.27096,0 0.485901,0.11874 0.478594,0.26487 l -0.06515,1.39864 c -0.0067,0.14675 -0.240515,0.26548 -0.521217,0.26548 l -2.684023,0 c -0.280702,0 -0.495034,-0.11873 -0.478593,-0.26548 l 0.157095,-1.39864 z"
     id="path4409"
     style="fill:#ffffff;fill-opacity:1;stroke-linejoin:round" /><path
     d="m 28.382444,118.78395 c 0.0055,-0.14613 0.230773,-0.26487 0.501732,-0.26487 l 2.592689,0 c 0.271568,0 0.494425,0.11874 0.498078,0.26487 l 0.03653,1.39864 c 0.0037,0.14675 -0.22103,0.26548 -0.502341,0.26548 l -2.684023,0 c -0.280702,0 -0.503558,-0.11873 -0.498078,-0.26548 l 0.05541,-1.39864 z"
     id="path4411"
     style="fill:#ffffff;fill-opacity:1;stroke-linejoin:round" /><path
     d="m 19.805505,116.66377 c 0.02984,-0.14674 0.26548,-0.26487 0.526088,-0.26487 l 2.49222,0 c 0.26,0 0.455456,0.11813 0.435972,0.26487 l -0.19363,1.39925 c -0.02009,0.14613 -0.255737,0.26426 -0.526088,0.26426 l -2.584164,0 c -0.269742,0 -0.465198,-0.11813 -0.435362,-0.26426 l 0.284964,-1.39925 z"
     id="path4413"
     style="fill:#ffffff;fill-opacity:1;stroke-linejoin:round" /><path
     d="m 12.080415,116.66377 c 0.05115,-0.14674 0.304449,-0.26487 0.565058,-0.26487 l 2.49222,0 c 0.260608,0 0.438406,0.11813 0.397001,0.26487 l -0.398219,1.39925 c -0.0414,0.14613 -0.294098,0.26426 -0.565058,0.26426 l -2.583554,0 c -0.269742,0 -0.448149,-0.11813 -0.397002,-0.26426 l 0.489554,-1.39925 z"
     id="path4415"
     style="fill:#ffffff;fill-opacity:1;stroke-linejoin:round" /><path
     d="m 15.929869,116.66377 c 0.0408,-0.14674 0.284964,-0.26487 0.545573,-0.26487 l 2.49222,0 c 0.260608,0 0.446931,0.11813 0.415877,0.26487 l -0.295924,1.39925 c -0.03045,0.14613 -0.275222,0.26426 -0.545573,0.26426 l -2.583555,0 c -0.270351,0 -0.456673,-0.11813 -0.415877,-0.26426 l 0.387259,-1.39925 z"
     id="path4417"
     style="fill:#ffffff;fill-opacity:1;stroke-linejoin:round" /><path
     d="m 39.103922,116.66377 c -0.02314,-0.14674 0.168665,-0.26487 0.429883,-0.26487 l 2.491611,0 c 0.260608,0 0.499296,0.11813 0.532785,0.26487 l 0.318454,1.39925 c 0.03288,0.14613 -0.159531,0.26426 -0.429882,0.26426 l -2.583555,0 c -0.27035,0 -0.509038,-0.11813 -0.532785,-0.26426 l -0.226511,-1.39925 z"
     id="path4419"
     style="fill:#ffffff;fill-opacity:1;stroke-linejoin:round" /><path
     d="m 31.379441,116.66377 c -0.0024,-0.14674 0.207025,-0.26487 0.467634,-0.26487 l 2.49222,0 c 0.261217,0 0.482247,0.11813 0.493816,0.26487 l 0.113864,1.39925 c 0.01157,0.14613 -0.197892,0.26426 -0.468852,0.26426 l -2.582945,0 c -0.27096,0 -0.491381,-0.11813 -0.493817,-0.26426 l -0.02192,-1.39925 z"
     id="path4421"
     style="fill:#ffffff;fill-opacity:1;stroke-linejoin:round" /><path
     d="m 35.228286,116.66377 c -0.01279,-0.14674 0.188149,-0.26487 0.448758,-0.26487 l 2.49222,0 c 0.261217,0 0.490772,0.11813 0.512692,0.26487 l 0.21555,1.39925 c 0.02253,0.14613 -0.177798,0.26426 -0.448758,0.26426 l -2.583555,0 c -0.27035,0 -0.499905,-0.11813 -0.512692,-0.26426 l -0.124215,-1.39925 z"
     id="path4423"
     style="fill:#ffffff;fill-opacity:1;stroke-linejoin:round" /><path
     d="m 50.651675,116.66377 c -0.05541,-0.14674 0.110211,-0.26487 0.371428,-0.26487 l 2.491611,0 c 0.261217,0 0.526088,0.11813 0.59124,0.26487 l 0.623512,1.39925 c 0.06515,0.14613 -0.101077,0.26426 -0.371428,0.26426 l -2.582946,0 c -0.270959,0 -0.534612,-0.11813 -0.590631,-0.26426 l -0.532786,-1.39925 z"
     id="path4425"
     style="fill:#ffffff;fill-opacity:1;stroke-linejoin:round" /><path
     d="m 42.927194,116.66377 c -0.03471,-0.14674 0.148571,-0.26487 0.409788,-0.26487 l 2.49222,0 c 0.260609,0 0.507212,0.11813 0.551053,0.26487 l 0.419531,1.39925 c 0.04384,0.14613 -0.139438,0.26426 -0.409789,0.26426 l -2.583554,0 c -0.27096,0 -0.516955,-0.11813 -0.551662,-0.26426 l -0.327587,-1.39925 z"
     id="path4427"
     style="fill:#ffffff;fill-opacity:1;stroke-linejoin:round" /><path
     d="m 46.776648,116.66377 c -0.04567,-0.14674 0.129086,-0.26487 0.390303,-0.26487 l 2.49222,0 c 0.260609,0 0.516346,0.11813 0.571147,0.26487 l 0.521217,1.39925 c 0.05419,0.14613 -0.121171,0.26426 -0.390913,0.26426 l -2.583555,0 c -0.270351,0 -0.526088,-0.11813 -0.570537,-0.26426 l -0.429882,-1.39925 z"
     id="path4429"
     style="fill:#ffffff;fill-opacity:1;stroke-linejoin:round" /><path
     d="m 23.681142,116.66377 c 0.01888,-0.14674 0.245995,-0.26487 0.506603,-0.26487 l 2.49222,0 c 0.260609,0 0.463981,0.11813 0.454847,0.26487 l -0.09073,1.39925 c -0.0091,0.14613 -0.236252,0.26426 -0.506603,0.26426 l -2.583555,0 c -0.27035,0 -0.473722,-0.11813 -0.454847,-0.26426 l 0.182061,-1.39925 z"
     id="path4431"
     style="fill:#ffffff;fill-opacity:1;stroke-linejoin:round" /><path
     d="m 27.529987,116.66377 c 0.0085,-0.14674 0.22651,-0.26487 0.487119,-0.26487 l 2.49222,0 c 0.261217,0 0.473722,0.11813 0.47494,0.26487 l 0.01096,1.39925 c 0.0012,0.14613 -0.216768,0.26426 -0.487118,0.26426 l -2.583555,0 c -0.270351,0 -0.482856,-0.11813 -0.474332,-0.26426 l 0.07977,-1.39925 z"
     id="path4433"
     style="fill:#ffffff;fill-opacity:1;stroke-linejoin:round" /><path
     d="m 18.396515,114.56551 c 0.03532,-0.14614 0.266698,-0.26487 0.516955,-0.26487 l 2.392969,0 c 0.250257,0 0.432318,0.11873 0.406744,0.26487 l -0.243559,1.39864 c -0.02557,0.14674 -0.256955,0.26548 -0.516954,0.26548 l -2.484305,0 c -0.25939,0 -0.44206,-0.11874 -0.406744,-0.26548 l 0.334894,-1.39864 z"
     id="path4435"
     style="fill:#ffffff;fill-opacity:1;stroke-linejoin:round" /><path
     d="m 14.675539,114.56551 c 0.04567,-0.14614 0.285573,-0.26487 0.53583,-0.26487 l 2.392361,0 c 0.250257,0 0.424402,0.11873 0.387868,0.26487 l -0.345854,1.39864 c -0.03653,0.14674 -0.277049,0.26548 -0.536439,0.26548 l -2.484305,0 c -0.259999,0 -0.433535,-0.11874 -0.387259,-0.26548 l 0.437798,-1.39864 z"
     id="path4437"
     style="fill:#ffffff;fill-opacity:1;stroke-linejoin:round" /><path
     d="m 36.928938,114.56551 c -0.01887,-0.14614 0.169274,-0.26487 0.42014,-0.26487 l 2.392361,0 c 0.250257,0 0.476158,0.11873 0.504167,0.26487 l 0.267307,1.39864 c 0.02801,0.14674 -0.160141,0.26548 -0.42014,0.26548 l -2.484304,0 c -0.259391,0 -0.485292,-0.11874 -0.503559,-0.26548 l -0.175972,-1.39864 z"
     id="path4439"
     style="fill:#ffffff;fill-opacity:1;stroke-linejoin:round" /><path
     d="m 29.510733,114.56551 c 0.003,-0.14614 0.208243,-0.26487 0.459109,-0.26487 l 2.39236,0 c 0.250258,0 0.45911,0.11873 0.465199,0.26487 l 0.06272,1.39864 c 0.0067,0.14674 -0.198501,0.26548 -0.4585,0.26548 l -2.484304,0 c -0.26,0 -0.468243,-0.11874 -0.465199,-0.26548 l 0.02862,-1.39864 z"
     id="path4441"
     style="fill:#ffffff;fill-opacity:1;stroke-linejoin:round" /><path
     d="m 33.207353,114.56551 c -0.0073,-0.14614 0.189367,-0.26487 0.439625,-0.26487 l 2.39236,0 c 0.250257,0 0.467025,0.11873 0.484074,0.26487 l 0.165012,1.39864 c 0.01705,0.14674 -0.179625,0.26548 -0.439625,0.26548 l -2.483695,0 c -0.26,0 -0.476767,-0.11874 -0.484683,-0.26548 l -0.07307,-1.39864 z"
     id="path4443"
     style="fill:#ffffff;fill-opacity:1;stroke-linejoin:round" /><path
     d="m 48.017582,114.56551 c -0.04993,-0.14614 0.112037,-0.26487 0.362294,-0.26487 l 2.392361,0 c 0.250257,0 0.502341,0.11873 0.562013,0.26487 l 0.573582,1.39864 c 0.05967,0.14674 -0.102295,0.26548 -0.362294,0.26548 l -2.484305,0 c -0.25939,0 -0.510865,-0.11874 -0.562013,-0.26548 l -0.481638,-1.39864 z"
     id="path4445"
     style="fill:#ffffff;fill-opacity:1;stroke-linejoin:round" /><path
     d="m 55.114898,112.2383 c -0.08464,-0.16623 0.0408,-0.3008 0.279485,-0.3008 l 2.280936,0 c 0.23868,0 0.50903,0.13457 0.60402,0.3008 l 0.90848,1.58496 c 0.095,0.16562 -0.0298,0.30019 -0.28009,0.30019 l -2.38384,0 c -0.249649,0 -0.519999,-0.13457 -0.604636,-0.30019 l -0.804355,-1.58496 z"
     id="path4447"
     style="fill:#ffffff;fill-opacity:1;stroke-linejoin:round" /><path
     d="m 51.588161,112.2383 c -0.07246,-0.16623 0.06333,-0.3008 0.301404,-0.3008 l 2.280932,0 c 0.23808,0 0.498688,0.13457 0.581498,0.3008 l 0.793394,1.58496 c 0.08281,0.16562 -0.05176,0.30019 -0.301404,0.30019 l -2.384445,0 c -0.249039,0 -0.509648,-0.13457 -0.582107,-0.30019 l -0.689272,-1.58496 z"
     id="path4449"
     style="fill:#ffffff;fill-opacity:1;stroke-linejoin:round" /><path
     d="m 48.061423,112.2383 c -0.06028,-0.16623 0.08464,-0.3008 0.323325,-0.3008 l 2.280323,0 c 0.239297,0 0.489554,0.13457 0.560795,0.3008 l 0.677095,1.58496 c 0.07063,0.16562 -0.07368,0.30019 -0.323325,0.30019 l -2.383836,0 c -0.249648,0 -0.500514,-0.13457 -0.560795,-0.30019 l -0.573582,-1.58496 z"
     id="path4451"
     style="fill:#ffffff;fill-opacity:1;stroke-linejoin:round" /><path
     d="m 18.012909,112.2383 c 0.04262,-0.16623 0.27096,-0.3008 0.509648,-0.3008 l 2.280324,0 c 0.238688,0 0.406135,0.13457 0.373863,0.3008 l -0.306885,1.58496 c -0.03227,0.16562 -0.260608,0.30019 -0.509647,0.30019 l -2.384445,0 c -0.249649,0 -0.417096,-0.13457 -0.373864,-0.30019 l 0.411006,-1.58496 z"
     id="path4453"
     style="fill:#ffffff;fill-opacity:1;stroke-linejoin:round" /><path
     d="m 40.599985,114.56551 c -0.02923,-0.14614 0.150398,-0.26487 0.400655,-0.26487 l 2.392361,0 c 0.250257,0 0.484683,0.11873 0.523043,0.26487 l 0.368993,1.39864 c 0.03836,0.14674 -0.141265,0.26548 -0.400655,0.26548 l -2.484305,0 c -0.259999,0 -0.494425,-0.11874 -0.523043,-0.26548 l -0.277049,-1.39864 z"
     id="path4455"
     style="fill:#ffffff;fill-opacity:1;stroke-linejoin:round" /><path
     d="m 44.295997,114.56551 c -0.03958,-0.14614 0.131522,-0.26487 0.381779,-0.26487 l 2.392361,0 c 0.250257,0 0.493207,0.11873 0.542528,0.26487 l 0.470678,1.39864 c 0.04871,0.14674 -0.12178,0.26548 -0.381779,0.26548 l -2.483696,0 c -0.25939,0 -0.503558,-0.11874 -0.543137,-0.26548 l -0.378734,-1.39864 z"
     id="path4457"
     style="fill:#ffffff;fill-opacity:1;stroke-linejoin:round" /><path
     d="m 22.118709,114.56551 c 0.02436,-0.14614 0.246604,-0.26487 0.496861,-0.26487 l 2.39297,0 c 0.250257,0 0.440842,0.11873 0.426229,0.26487 l -0.140656,1.39864 c -0.01522,0.14674 -0.238079,0.26548 -0.49747,0.26548 l -2.484304,0 c -0.259999,0 -0.451193,-0.11874 -0.426838,-0.26548 l 0.233208,-1.39864 z"
     id="path4459"
     style="fill:#ffffff;fill-opacity:1;stroke-linejoin:round" /><path
     d="m 25.814721,114.56551 c 0.014,-0.14614 0.227728,-0.26487 0.477985,-0.26487 l 2.39297,0 c 0.250257,0 0.449975,0.11873 0.445713,0.26487 l -0.03897,1.39864 c -0.0043,0.14674 -0.218595,0.26548 -0.477985,0.26548 l -2.484305,0 c -0.259999,0 -0.459718,-0.11874 -0.445713,-0.26548 l 0.130304,-1.39864 z"
     id="path4461"
     style="fill:#ffffff;fill-opacity:1;stroke-linejoin:round" /><path
     d="m 60.568189,122.98048 c -0.0743,-0.14614 0.1023,-0.26426 0.39457,-0.26426 l 2.79179,0 c 0.29228,0 0.59673,0.11812 0.68075,0.26426 l 0.34159,0.59611 c 0.084,0.14675 -0.0889,0.26609 -0.38725,0.26609 l -2.84478,0 c -0.29836,0 -0.59915,-0.11934 -0.67405,-0.26609 l -0.30262,-0.59611 z"
     id="path4463"
     style="fill:#ffffff;fill-opacity:1;stroke-linejoin:round" /><path
     d="m 56.037379,122.98048 c -0.06332,-0.14614 0.122389,-0.26426 0.415269,-0.26426 l 2.791191,0 c 0.29227,0 0.58758,0.11812 0.66004,0.26426 l 0.29654,0.59611 c 0.0725,0.14675 -0.11021,0.26609 -0.40736,0.26609 l -2.84477,0 c -0.298358,0 -0.590021,-0.11934 -0.653955,-0.26609 l -0.256955,-0.59611 z"
     id="path4465"
     style="fill:#ffffff;fill-opacity:1;stroke-linejoin:round" /><path
     d="m 51.608863,122.98048 c -0.05176,-0.14614 0.1437,-0.26426 0.435971,-0.26426 l 2.791798,0 c 0.291662,0 0.577844,0.11812 0.639343,0.26426 l 0.252084,0.59611 c 0.0615,0.14675 -0.129695,0.26609 -0.427447,0.26609 l -2.845381,0 c -0.297142,0 -0.581497,-0.11934 -0.633862,-0.26609 l -0.212506,-0.59611 z"
     id="path4467"
     style="fill:#ffffff;fill-opacity:1;stroke-linejoin:round" /><path
     d="m 47.078661,122.98048 c -0.0408,-0.14614 0.163185,-0.26426 0.454847,-0.26426 l 2.791798,0 c 0.291662,0 0.569929,0.11812 0.619858,0.26426 l 0.205808,0.59611 c 0.05054,0.14675 -0.149789,0.26609 -0.446932,0.26609 l -2.84538,0 c -0.297752,0 -0.572365,-0.11934 -0.613161,-0.26609 l -0.166838,-0.59611 z"
     id="path4469"
     style="fill:#ffffff;fill-opacity:1;stroke-linejoin:round" /><path
     d="m 42.687897,122.98048 c -0.02984,-0.14614 0.18206,-0.26426 0.474331,-0.26426 l 2.791189,0 c 0.29288,0 0.561404,0.11812 0.600983,0.26426 l 0.161358,0.59611 c 0.04019,0.14675 -0.169274,0.26609 -0.467025,0.26609 l -2.845381,0 c -0.297751,0 -0.563231,-0.11934 -0.593676,-0.26609 l -0.121779,-0.59611 z"
     id="path4471"
     style="fill:#ffffff;fill-opacity:1;stroke-linejoin:round" /><path
     d="m 38.156477,122.98048 c -0.01888,-0.14614 0.203372,-0.26426 0.495034,-0.26426 l 2.791798,0 c 0.292271,0 0.552271,0.11812 0.58028,0.26426 l 0.115691,0.59611 c 0.02862,0.14675 -0.189977,0.26609 -0.487728,0.26609 l -2.845381,0 c -0.297751,0 -0.554097,-0.11934 -0.572973,-0.26609 l -0.07672,-0.59611 z"
     id="path4473"
     style="fill:#ffffff;fill-opacity:1;stroke-linejoin:round" /><path
     d="m 33.692036,122.98048 c -0.0073,-0.14614 0.222857,-0.26426 0.514519,-0.26426 l 2.792407,0 c 0.291662,0 0.542528,0.11812 0.560186,0.26426 l 0.07002,0.59611 c 0.01766,0.14675 -0.209461,0.26609 -0.507212,0.26609 l -2.845381,0 c -0.297142,0 -0.544964,-0.11934 -0.552879,-0.26609 l -0.03166,-0.59611 z"
     id="path4475"
     style="fill:#ffffff;fill-opacity:1;stroke-linejoin:round" /><path
     d="m 29.161225,122.98048 c 0.0037,-0.14614 0.24295,-0.26426 0.535222,-0.26426 l 2.791797,0 c 0.292271,0 0.534004,0.11812 0.540093,0.26426 l 0.02436,0.59611 c 0.0067,0.14675 -0.229555,0.26609 -0.527306,0.26609 l -2.845381,0 c -0.297142,0 -0.53583,-0.11934 -0.532786,-0.26609 l 0.014,-0.59611 z"
     id="path4477"
     style="fill:#ffffff;fill-opacity:1;stroke-linejoin:round" /><path
     d="m 24.733318,122.98048 c 0.01461,-0.14614 0.263044,-0.26426 0.555315,-0.26426 l 2.791798,0 c 0.291662,0 0.52487,0.11812 0.519999,0.26426 l -0.01949,0.59611 c -0.0049,0.14675 -0.250257,0.26609 -0.548008,0.26609 l -2.845381,0 c -0.297751,0 -0.527306,-0.11934 -0.512692,-0.26609 l 0.05845,-0.59611 z"
     id="path4479"
     style="fill:#ffffff;fill-opacity:1;stroke-linejoin:round" /><path
     d="m 20.203116,122.98048 c 0.02557,-0.14614 0.282529,-0.26426 0.5748,-0.26426 l 2.791189,0 c 0.292271,0 0.516345,0.11812 0.500514,0.26426 l -0.06576,0.59611 c -0.01583,0.14675 -0.270351,0.26609 -0.568102,0.26609 l -2.844772,0 c -0.297751,0 -0.518172,-0.11934 -0.492599,-0.26609 l 0.104731,-0.59611 z"
     id="path4481"
     style="fill:#ffffff;fill-opacity:1;stroke-linejoin:round" /><path
     d="m 15.811743,122.98048 c 0.03592,-0.14614 0.302622,-0.26426 0.594893,-0.26426 l 2.791798,0 c 0.291662,0 0.506603,0.11812 0.479812,0.26426 l -0.109602,0.59611 c -0.02679,0.14675 -0.289835,0.26609 -0.586978,0.26609 l -2.845989,0 c -0.297143,0 -0.509648,-0.11934 -0.472505,-0.26609 l 0.148571,-0.59611 z"
     id="path4483"
     style="fill:#ffffff;fill-opacity:1;stroke-linejoin:round" /><path
     d="m 11.280932,122.98048 c 0.04749,-0.14614 0.323325,-0.26426 0.614987,-0.26426 l 2.791798,0 c 0.292271,0 0.498078,0.11812 0.459718,0.26426 l -0.15466,0.59611 c -0.03897,0.14675 -0.311147,0.26609 -0.608898,0.26609 l -2.844772,0 c -0.297143,0 -0.500515,-0.11934 -0.452412,-0.26609 l 0.194239,-0.59611 z"
     id="path4485"
     style="fill:#ffffff;fill-opacity:1;stroke-linejoin:round" /><path
     d="m 6.831104,122.98048 c 0.05846,-0.14614 0.34281,-0.26426 0.635081,-0.26426 l 2.791798,0 c 0.291662,0 0.488336,0.11812 0.439624,0.26426 l -0.200327,0.59611 c -0.04932,0.14675 -0.330023,0.26609 -0.627774,0.26609 l -2.845381,0 c -0.297751,0 -0.491381,-0.11934 -0.432318,-0.26609 l 0.239297,-0.59611 z"
     id="path4487"
     style="fill:#ffffff;fill-opacity:1;stroke-linejoin:round" /><path
     d="m 2.300111,122.98048 c 0.0699,-0.14614 0.363268,-0.26426 0.6556,-0.26426 l 2.790946,0 c 0.29288,0 0.48042,0.11812 0.42014,0.26426 l -0.245995,0.59611 c -0.06028,0.14675 -0.350726,0.26609 -0.648477,0.26609 l -2.844772,0 c -0.297812,0 -0.482491,-0.11934 -0.412589,-0.26609 l 0.285147,-0.59611 z"
     id="path4489"
     style="fill:#ffffff;fill-opacity:1;stroke-linejoin:round" /><path
     d="m 56.477004,118.78395 c -0.06881,-0.14613 0.09438,-0.26487 0.365947,-0.26487 l 4.544208,0 c 0.27157,0 0.55958,0.11874 0.6436,0.26487 l 0.80131,1.39864 c 0.084,0.14675 -0.0761,0.26548 -0.35681,0.26548 l -4.70435,0 c -0.2807,0 -0.56445,-0.11873 -0.63325,-0.26548 l -0.660655,-1.39864 z"
     id="path4491"
     style="fill:#ffffff;fill-opacity:1;stroke-linejoin:round" /><path
     d="m 54.487733,116.66377 c -0.06576,-0.14674 0.09134,-0.26487 0.351944,-0.26487 l 5.351602,0 c 0.26061,0 0.5407,0.11813 0.62412,0.26487 l 0.80192,1.39925 c 0.084,0.14613 -0.0676,0.26426 -0.33794,0.26426 l -5.547667,0 c -0.270959,0 -0.543137,-0.11813 -0.609507,-0.26426 l -0.634472,-1.39925 z"
     id="path4493"
     style="fill:#ffffff;fill-opacity:1;stroke-linejoin:round" /><path
     d="m 51.637481,114.56551 c -0.06028,-0.14614 0.09316,-0.26487 0.343419,-0.26487 l 7.027289,0 c 0.25026,0 0.52122,0.11873 0.60525,0.26487 l 0.8007,1.39864 c 0.084,0.14674 -0.0585,0.26548 -0.31785,0.26548 l -7.295812,0 c -0.26,0 -0.519999,-0.11874 -0.580889,-0.26548 l -0.582107,-1.39864 z"
     id="path4495"
     style="fill:#ffffff;fill-opacity:1;stroke-linejoin:round" /><path
     d="m 43.655436,112.20237 c -0.03958,-0.14613 0.122388,-0.26487 0.360468,-0.26487 l 3.144958,0 c 0.238688,0 0.473723,0.11874 0.525479,0.26487 l 0.587587,1.65621 c 0.05176,0.14674 -0.108384,0.26487 -0.358032,0.26487 l -3.287441,0 c -0.249648,0 -0.484683,-0.11813 -0.523652,-0.26487 l -0.449367,-1.65621 z"
     id="path4497"
     style="fill:#ffffff;fill-opacity:1;stroke-linejoin:round" /><path
     d="m 21.65412,112.20237 c 0.02679,-0.14613 0.242342,-0.26487 0.48103,-0.26487 l 3.144958,0 c 0.238689,0 0.42014,0.11874 0.405527,0.26487 l -0.166838,1.65621 c -0.01461,0.14674 -0.228946,0.26487 -0.478594,0.26487 l -3.287441,0 c -0.249649,0 -0.429882,-0.11813 -0.403091,-0.26487 l 0.304449,-1.65621 z"
     id="path4499"
     style="fill:#ffffff;fill-opacity:1;stroke-linejoin:round" /><path
     d="m 3.313195,120.8603 c 0.0699,-0.14614 0.354684,-0.26487 0.636603,-0.26487 l 4.843785,0 c 0.28192,0 0.465807,0.11873 0.411006,0.26487 l -0.524261,1.39924 c -0.0548,0.14614 -0.334894,0.26427 -0.626556,0.26427 l -5.008248,0 c -0.291297,0 -0.470861,-0.11813 -0.40096,-0.26427 l 0.668631,-1.39924 z"
     id="path4501"
     style="fill:#ffffff;fill-opacity:1;stroke-linejoin:round" /><path
     d="m 5.317993,116.66377 c 0.07002,-0.14674 0.338547,-0.26487 0.599155,-0.26487 l 5.403362,0 c 0.261217,0 0.429882,0.11813 0.378126,0.26487 l -0.499905,1.39925 c -0.05176,0.14613 -0.313583,0.26426 -0.583934,0.26426 l -5.601862,0 c -0.270351,0 -0.433536,-0.11813 -0.363513,-0.26426 l 0.668571,-1.39925 z"
     id="path4503"
     style="fill:#ffffff;fill-opacity:1;stroke-linejoin:round" /><path
     d="m 6.320848,114.56551 c 0.07002,-0.14614 0.329414,-0.26487 0.579671,-0.26487 l 7.00111,0 c 0.250866,0 0.415878,0.11873 0.368384,0.26487 l -0.448758,1.39864 c -0.04688,0.14674 -0.295925,0.26548 -0.555924,0.26548 l -7.269026,0 c -0.259999,0 -0.414051,-0.11874 -0.344027,-0.26548 l 0.66857,-1.39864 z"
     id="path4505"
     style="fill:#ffffff;fill-opacity:1;stroke-linejoin:round" /><path
     d="m 14.497741,112.20237 c 0.04871,-0.14613 0.281311,-0.26487 0.520607,-0.26487 l 2.280324,0 c 0.238079,0 0.400046,0.11874 0.361077,0.26487 l -0.150398,0.56324 c -0.03897,0.14613 -0.268524,0.26487 -0.512084,0.26487 l -2.332688,0 c -0.244168,0 -0.402482,-0.11874 -0.35377,-0.26487 l 0.186932,-0.56324 z"
     id="path4507"
     style="fill:#ffffff;fill-opacity:1;stroke-linejoin:round" /><path
     d="m 7.449745,112.20237 c 0.07002,-0.14613 0.32028,-0.26487 0.558968,-0.26487 l 2.279715,0 c 0.239297,0 0.383606,0.11874 0.323325,0.26487 l -0.232599,0.56324 c -0.05967,0.14613 -0.306885,0.26487 -0.551053,0.26487 l -2.33208,0 c -0.244168,0 -0.384823,-0.11874 -0.315409,-0.26487 l 0.269133,-0.56324 z"
     id="path4509"
     style="fill:#ffffff;fill-opacity:1;stroke-linejoin:round" /><path
     d="m 10.974047,112.20237 c 0.05906,-0.14613 0.300796,-0.26487 0.538875,-0.26487 l 2.280932,0 c 0.23808,0 0.392131,0.11874 0.342201,0.26487 l -0.562622,1.65621 c -0.04932,0.14674 -0.292271,0.26487 -0.541919,0.26487 l -2.383836,0 c -0.24904,0 -0.4037,-0.11813 -0.344637,-0.26487 l 0.671006,-1.65621 z"
     id="path4511"
     style="fill:#ffffff;fill-opacity:1;stroke-linejoin:round" /><path
     d="m 26.035751,112.20237 c 0.0134,-0.14613 0.217986,-0.26487 0.456674,-0.26487 l 16.298984,0 c 0.238689,0 0.463372,0.11874 0.502341,0.26487 l 0.435971,1.65621 c 0.03897,0.14674 -0.13213,0.26487 -0.381779,0.26487 l -17.040014,0 c -0.249648,0 -0.440842,-0.11813 -0.426837,-0.26487 l 0.15466,-1.65621 z"
     id="path4513"
     style="fill:#ffffff;fill-opacity:1;stroke-linejoin:round" /><path
     d="m 60.943879,118.03805 c -0.0201,-0.0353 0.0164,-0.0639 0.081,-0.0639 0.0658,0 0.13396,0.0286 0.15345,0.0639 0.0201,0.0353 -0.0158,0.0639 -0.0816,0.0639 -0.0645,0 -0.13334,-0.0286 -0.15283,-0.0639 z"
     id="path4515"
     style="fill:#404041;fill-opacity:1;stroke-linejoin:round" /><path
     d="m 13.35932,44.069378 c 0,0 6.402381,-2.40488 8.22952,-2.95267 15.099474,2.82998 0.733278,-2.6554 -0.630794,-1.63264 -1.493578,1.11984 -7.598726,4.58531 -7.598726,4.58531 z"
     id="path4297-6"
     style="fill:#a86c47;fill-opacity:1;stroke-width:2.66667008;stroke-linecap:round;stroke-linejoin:round" /><path
     d="m 55.232318,44.069378 c 0,0 -6.402381,-2.40488 -8.22952,-2.95267 -15.099473,2.82998 -0.733277,-2.6554 0.630795,-1.63264 1.493578,1.11984 7.598725,4.58531 7.598725,4.58531 z"
     id="path4646"
     style="fill:#a86c47;fill-opacity:1;stroke-width:2.66667008;stroke-linecap:round;stroke-linejoin:round" /></svg>
