<?xml version="1.0" encoding="UTF-8" standalone="no"?>
<!-- Created with Inkscape (http://www.inkscape.org/) -->

<svg
   xmlns:dc="http://purl.org/dc/elements/1.1/"
   xmlns:cc="http://creativecommons.org/ns#"
   xmlns:rdf="http://www.w3.org/1999/02/22-rdf-syntax-ns#"
   xmlns:svg="http://www.w3.org/2000/svg"
   xmlns="http://www.w3.org/2000/svg"
   xmlns:xlink="http://www.w3.org/1999/xlink"
   version="1.1"
   width="100%"
   height="100%"
   viewBox="0 0 43.943281 38.693636"
   id="svg2">
  <metadata
     id="metadata24">
    <rdf:RDF>
      <cc:Work
         rdf:about="">
        <dc:format>image/svg+xml</dc:format>
        <dc:type
           rdf:resource="http://purl.org/dc/dcmitype/StillImage" />
        <dc:title></dc:title>
      </cc:Work>
    </rdf:RDF>
  </metadata>
  <defs
     id="0">
    <linearGradient
       id="2">
      <stop
         id="C"
         style="stop-color:#2e3436;stop-opacity:1"
         offset="0" />
      <stop
         id="D"
         style="stop-color:#2e3436;stop-opacity:0"
         offset="1" />
    </linearGradient>
    <linearGradient
       id="3">
      <stop
         id="E"
         style="stop-color:#ffffff;stop-opacity:0.80000001"
         offset="0" />
      <stop
         id="F"
         style="stop-color:#ffffff;stop-opacity:0"
         offset="1" />
    </linearGradient>
    <linearGradient
       x1="4.9959998"
       y1="-22.761999"
       x2="23.759001"
       y2="36.566002"
       id="4"
       xlink:href="#3"
       gradientUnits="userSpaceOnUse"
       gradientTransform="translate(-0.10169492,-2.5423729)" />
    <linearGradient
       y1="5.7280002"
       x2="0"
       y2="42.27"
       id="5"
       xlink:href="#3"
       gradientUnits="userSpaceOnUse"
       gradientTransform="translate(-0.10169492,-2.5423729)" />
    <radialGradient
       cx="29.18"
       cy="48.651001"
       r="28.09"
       id="6"
       xlink:href="#2"
       gradientUnits="userSpaceOnUse"
       gradientTransform="matrix(1,0,0,0.1389961,0,41.888493)" />
  </defs>
  <g
     transform="translate(-1.9266638,-2.1108087)"
     id="1">
    <path
       d="m 23.799867,2.6329326 c -0.62345,0.00715 -1.17838,0.3435438 -1.490523,0.883273 L 2.6565181,37.632626 c -0.3077536,0.546486 -0.2607546,1.224764 0.055204,1.766547 0.3159591,0.541783 0.8633411,0.882029 1.4905232,0.883272 L 43.5631,40.227235 c 0.510916,0.003 1.042347,-0.223897 1.380114,-0.607249 0.337765,-0.383351 0.453719,-0.873639 0.386432,-1.380115 -0.03031,-0.215088 -0.05999,-0.472648 -0.165614,-0.662454 L 25.345595,3.4610011 C 25.021153,2.9285764 24.423316,2.6257799 23.799867,2.6329326 z"
       id="8"
       style="fill:#f57900;stroke:#a64a00;stroke-width:1.04400003;stroke-linecap:square;stroke-linejoin:round" />
    <path
       d="m 23.804555,3.7076271 c -0.263063,0.00302 -0.463551,0.1186217 -0.59375,0.34375 L 3.5545551,38.145127 c -0.00451,0.008 0.0041,0.02299 0,0.03125 -0.090879,0.183131 -0.085999,0.432866 0.0625,0.6875 0.1398569,0.239816 0.3351564,0.343237 0.59375,0.34375 l 39.3437499,-0.03125 c 0.172215,10e-4 0.466784,-0.105899 0.59375,-0.25 0.132686,-0.150595 0.178599,-0.314579 0.15625,-0.53125 -0.0037,-0.02601 0.0039,-0.0079 0,-0.03125 -0.03152,-0.189409 -0.0607,-0.296359 -0.03125,-0.25 0.0036,0.0057 -0.0057,-0.04153 0,-0.03125 L 24.429555,3.9888771 c -0.121112,-0.1987512 -0.330874,-0.2846244 -0.625,-0.28125 z"
       id="9"
       style="opacity:0.8;fill:none;stroke:url(#5);stroke-width:1.04400003;stroke-linecap:square;stroke-linejoin:round" />
    <g
       transform="translate(-0.10169492,-1.2426229)"
       id="A">
      <path
         d="m 24,11.34375 c -0.920959,3.2e-5 -1.818631,0.323028 -2.5625,0.9375 -0.822271,0.676122 -1.218752,1.744979 -1.21875,2.9375 -2e-6,0.530783 0.07196,1.058685 0.125,1.5625 a 0.89447245,0.89447245 0 0 0 0,0.03125 c 0.06799,0.503199 0.139297,0.946518 0.21875,1.34375 a 0.89447245,0.89447245 0 0 0 0,0.03125 c 0.07845,0.336235 0.157052,0.76343 0.25,1.28125 0.25222,1.324186 0.500732,2.993794 0.71875,4.96875 0.231885,1.971061 0.350921,3.440915 0.375,4.34375 0.02752,0.811996 0.111321,1.419408 0.34375,1.96875 a 0.89447245,0.89447245 0 0 0 0,0.03125 c 0.295075,0.639362 1.067395,1.03126 1.75,1.03125 0.588695,6e-6 1.216868,-0.309806 1.5625,-0.8125 0.339873,-0.494318 0.465499,-1.072081 0.46875,-1.71875 5.5e-5,-0.01096 0,-0.02025 0,-0.03125 0.03877,-1.79066 0.398888,-5.035082 1.15625,-9.65625 0.364688,-2.031859 0.593742,-3.434752 0.59375,-4.375 -8e-6,-1.136078 -0.399469,-2.170976 -1.15625,-2.875 -0.72682,-0.676069 -1.660321,-0.999968 -2.625,-1 z m -0.03125,22.125 c -0.828758,5e-6 -1.627189,0.345939 -2.21875,0.9375 -0.583241,0.583242 -0.906253,1.376345 -0.90625,2.1875 -4e-6,0.793588 0.325671,1.575675 0.90625,2.15625 a 0.89447245,0.89447245 0 0 0 0,0.03125 c 0.599732,0.582097 1.407591,0.875 2.21875,0.875 0.793765,-10e-7 1.568419,-0.329021 2.15625,-0.90625 l 0.03125,0 c 0.578164,-0.570828 0.937489,-1.352919 0.9375,-2.15625 -9e-6,-0.814264 -0.333048,-1.614859 -0.90625,-2.1875 -0.0061,-0.0063 -0.0251,0.0062 -0.03125,0 -0.579772,-0.587001 -1.375848,-0.937496 -2.1875,-0.9375 z"
         id="G"
         style="fill:#ce5c00" />
      <path
         d="m 24.009697,12.235055 c 0.788653,2.6e-5 1.460951,0.258603 2.016896,0.775729 0.555933,0.517178 0.833902,1.254121 0.833909,2.210829 -7e-6,0.788681 -0.181011,2.191457 -0.54301,4.208332 -0.762807,4.654391 -1.1636,7.92538 -1.202381,9.812977 -5e-6,1.111887 -0.368476,1.667825 -1.105414,1.667818 -0.478371,7e-6 -0.795127,-0.168068 -0.950268,-0.504224 -0.142222,-0.336141 -0.226259,-0.885616 -0.252113,-1.648425 -0.02586,-0.969651 -0.155149,-2.443536 -0.387865,-4.421657 -0.219792,-1.991023 -0.458975,-3.665304 -0.717549,-5.022848 -0.0905,-0.504204 -0.181006,-0.950248 -0.271505,-1.338134 -0.07757,-0.387843 -0.148684,-0.820958 -0.213326,-1.299346 -0.05172,-0.491273 -0.07757,-0.976103 -0.07757,-1.454493 -2e-6,-1.021352 0.290896,-1.771223 0.872696,-2.249615 0.594722,-0.491269 1.260556,-0.736917 1.997503,-0.736943 m -2.269008,24.357903 c -3e-6,-0.620581 0.213322,-1.144198 0.639976,-1.570853 0.439577,-0.439576 0.969658,-0.659366 1.590245,-0.65937 0.60765,4e-6 1.124802,0.219794 1.551459,0.65937 0.439573,0.426655 0.659363,0.950272 0.65937,1.570853 -7e-6,0.594726 -0.219797,1.105414 -0.65937,1.532065 -0.426657,0.426651 -0.943809,0.639976 -1.551459,0.639977 -0.620587,-10e-7 -1.150668,-0.213326 -1.590245,-0.639977 -0.426654,-0.426651 -0.639979,-0.937339 -0.639976,-1.532065"
         id="H"
         style="fill:#eeeeec" />
    </g>
    <path
       d="m 23.804555,3.1763771 c -0.443256,0.00508 -0.810079,0.2113213 -1.03125,0.59375 L 6.3045551,32.332627 c 8.6384609,-4.619244 18.3563019,-9.229744 27.6562499,-13 l -9.0625,-15.6249999 c -0.222777,-0.365588 -0.634963,-0.5365136 -1.09375,-0.53125 z"
       id="B"
       style="fill:url(#4)" />
  </g>
</svg>
